<svg xmlns="http://www.w3.org/2000/svg" xmlns:xlink="http://www.w3.org/1999/xlink" width="900" zoomAndPan="magnify" viewBox="0 0 675 449.999984" height="600" preserveAspectRatio="xMidYMid meet" version="1.0"><defs><clipPath id="3c2587b401"><path d="M 156 38.472656 L 526.609375 38.472656 L 526.609375 409 L 156 409 Z M 156 38.472656 " clip-rule="nonzero"/></clipPath><clipPath id="8c6ad30679"><path d="M 401 38.472656 L 526.609375 38.472656 L 526.609375 134 L 401 134 Z M 401 38.472656 " clip-rule="nonzero"/></clipPath><clipPath id="2e613449fb"><path d="M 251.210938 311.378906 L 258.09375 311.378906 L 258.09375 318 L 251.210938 318 Z M 251.210938 311.378906 " clip-rule="nonzero"/></clipPath><clipPath id="0df5b5e825"><path d="M 250.019531 310.164062 C 250.019531 310.164062 253.3125 310.355469 255.523438 312.5 C 257.734375 314.640625 258.03125 317.921875 258.03125 317.921875 C 258.03125 317.921875 254.738281 317.726562 252.527344 315.582031 C 250.316406 313.441406 250.019531 310.164062 250.019531 310.164062 " clip-rule="nonzero"/></clipPath><clipPath id="911f655175"><path d="M 444 255 L 526.609375 255 L 526.609375 408 L 444 408 Z M 444 255 " clip-rule="nonzero"/></clipPath></defs><rect x="-67.5" width="810" fill="#ffffff" y="-44.999998" height="539.99998" fill-opacity="1"/><rect x="-67.5" width="810" fill="#edf2f4" y="-44.999998" height="539.99998" fill-opacity="1"/><g clip-path="url(#3c2587b401)"><path fill="#f2e6dc" d="M 526.492188 223.441406 C 526.492188 325.597656 443.5625 408.414062 341.261719 408.414062 C 238.960938 408.414062 156.03125 325.597656 156.03125 223.441406 C 156.03125 121.289062 238.960938 38.472656 341.261719 38.472656 C 443.5625 38.472656 526.492188 121.289062 526.492188 223.441406 " fill-opacity="1" fill-rule="nonzero"/></g><g clip-path="url(#8c6ad30679)"><path fill="#363e44" d="M 402.3125 132.898438 L 525.664062 132.898438 L 525.664062 39.746094 L 402.3125 39.746094 Z M 526.113281 133.789062 L 401.867188 133.789062 C 401.621094 133.789062 401.417969 133.589844 401.417969 133.339844 L 401.417969 39.300781 C 401.417969 39.054688 401.621094 38.855469 401.867188 38.855469 L 526.113281 38.855469 C 526.359375 38.855469 526.558594 39.054688 526.558594 39.300781 L 526.558594 133.339844 C 526.558594 133.589844 526.359375 133.789062 526.113281 133.789062 " fill-opacity="1" fill-rule="nonzero"/></g><path fill="#f7f1eb" d="M 405.765625 121.910156 L 405.765625 43.195312 L 522.214844 43.195312 L 522.214844 121.910156 L 405.765625 121.910156 " fill-opacity="1" fill-rule="nonzero"/><path fill="#ffffff" d="M 466.328125 127.164062 C 466.328125 128.453125 465.28125 129.5 463.988281 129.5 C 462.695312 129.5 461.648438 128.453125 461.648438 127.164062 C 461.648438 125.875 462.695312 124.828125 463.988281 124.828125 C 465.28125 124.828125 466.328125 125.875 466.328125 127.164062 " fill-opacity="1" fill-rule="nonzero"/><path fill="#e6d0be" d="M 477.066406 135.207031 L 473.390625 135.207031 C 473.390625 137.964844 471.152344 140.199219 468.390625 140.199219 L 459.585938 140.199219 C 456.824219 140.199219 454.589844 137.964844 454.589844 135.207031 L 450.910156 135.207031 L 447.230469 154.730469 L 447.230469 156.363281 L 480.746094 156.363281 L 480.746094 154.730469 L 477.066406 135.207031 " fill-opacity="1" fill-rule="nonzero"/><path fill="#e6d0be" d="M 480.746094 158.847656 L 447.230469 158.847656 C 446.984375 158.847656 446.785156 158.648438 446.785156 158.402344 C 446.785156 158.15625 446.984375 157.957031 447.230469 157.957031 L 480.746094 157.957031 C 480.992188 157.957031 481.191406 158.15625 481.191406 158.402344 C 481.191406 158.648438 480.992188 158.847656 480.746094 158.847656 " fill-opacity="1" fill-rule="nonzero"/><path fill="#fdfcfb" d="M 522.214844 121.910156 L 405.765625 121.910156 L 405.765625 97.183594 L 522.214844 97.183594 L 522.214844 121.910156 " fill-opacity="1" fill-rule="nonzero"/><path fill="#d3bba3" d="M 522.167969 43.273438 L 405.679688 43.273438 L 405.679688 50.160156 L 522.167969 50.160156 L 522.167969 43.273438 " fill-opacity="1" fill-rule="nonzero"/><path fill="#e6d0be" d="M 412.113281 46.765625 C 412.113281 47.632812 411.378906 48.335938 410.472656 48.335938 C 409.566406 48.335938 408.835938 47.632812 408.835938 46.765625 C 408.835938 45.902344 409.566406 45.199219 410.472656 45.199219 C 411.378906 45.199219 412.113281 45.902344 412.113281 46.765625 " fill-opacity="1" fill-rule="nonzero"/><path fill="#e6d0be" d="M 417.410156 46.765625 C 417.410156 47.632812 416.675781 48.335938 415.769531 48.335938 C 414.863281 48.335938 414.128906 47.632812 414.128906 46.765625 C 414.128906 45.902344 414.863281 45.199219 415.769531 45.199219 C 416.675781 45.199219 417.410156 45.902344 417.410156 46.765625 " fill-opacity="1" fill-rule="nonzero"/><path fill="#e6d0be" d="M 422.707031 46.765625 C 422.707031 47.632812 421.972656 48.335938 421.070312 48.335938 C 420.164062 48.335938 419.425781 47.632812 419.425781 46.765625 C 419.425781 45.902344 420.164062 45.199219 421.070312 45.199219 C 421.972656 45.199219 422.707031 45.902344 422.707031 46.765625 " fill-opacity="1" fill-rule="nonzero"/><path fill="#d3bba3" d="M 450.246094 119.074219 L 409.652344 119.074219 C 409.402344 119.074219 409.203125 118.875 409.203125 118.628906 L 409.203125 78.945312 C 409.203125 78.699219 409.402344 78.496094 409.652344 78.496094 C 409.898438 78.496094 410.097656 78.699219 410.097656 78.945312 L 410.097656 118.183594 L 450.246094 118.183594 C 450.492188 118.183594 450.695312 118.382812 450.695312 118.628906 C 450.695312 118.875 450.492188 119.074219 450.246094 119.074219 " fill-opacity="1" fill-rule="nonzero"/><path fill="#e6d0be" d="M 413.363281 113.136719 L 419.34375 113.136719 L 419.34375 91.875 L 413.363281 91.875 L 413.363281 113.136719 " fill-opacity="1" fill-rule="nonzero"/><path fill="#e6d0be" d="M 423.234375 113.132812 L 429.214844 113.132812 L 429.214844 87.640625 L 423.234375 87.640625 L 423.234375 113.132812 " fill-opacity="1" fill-rule="nonzero"/><path fill="#e6d0be" d="M 433.101562 113.136719 L 439.082031 113.136719 L 439.082031 72.023438 L 433.101562 72.023438 L 433.101562 113.136719 " fill-opacity="1" fill-rule="nonzero"/><path fill="#e6d0be" d="M 442.972656 78.46875 L 442.972656 113.136719 L 448.957031 113.136719 L 448.957031 78.46875 L 442.972656 78.46875 " fill-opacity="1" fill-rule="nonzero"/><path fill="#e6d0be" d="M 452.859375 113.136719 L 458.835938 113.136719 L 458.835938 61.460938 L 452.859375 61.460938 L 452.859375 113.136719 " fill-opacity="1" fill-rule="nonzero"/><path fill="#e6d0be" d="M 462.726562 113.136719 L 468.707031 113.136719 L 468.707031 71.671875 L 462.726562 71.671875 L 462.726562 113.136719 " fill-opacity="1" fill-rule="nonzero"/><path fill="#e6d0be" d="M 472.597656 113.136719 L 478.578125 113.136719 L 478.578125 86.46875 L 472.597656 86.46875 L 472.597656 113.136719 " fill-opacity="1" fill-rule="nonzero"/><path fill="#e6d0be" d="M 482.464844 76.945312 L 482.464844 113.136719 L 488.445312 113.136719 L 488.445312 76.945312 L 482.464844 76.945312 " fill-opacity="1" fill-rule="nonzero"/><path fill="#e6d0be" d="M 492.34375 113.136719 L 498.324219 113.136719 L 498.324219 82.667969 L 492.34375 82.667969 L 492.34375 113.136719 " fill-opacity="1" fill-rule="nonzero"/><path fill="#e6d0be" d="M 502.210938 67.824219 L 502.210938 113.136719 L 508.191406 113.136719 L 508.191406 67.824219 L 502.210938 67.824219 " fill-opacity="1" fill-rule="nonzero"/><path fill="#e6d0be" d="M 512.09375 113.136719 L 518.074219 113.136719 L 518.074219 91.878906 L 512.09375 91.878906 L 512.09375 113.136719 " fill-opacity="1" fill-rule="nonzero"/><path fill="#ffffff" d="M 417.34375 186.515625 C 412.261719 186.515625 407.3125 188.015625 402.976562 190.921875 C 396.972656 194.949219 393.019531 201.101562 391.847656 208.242188 C 389.648438 221.660156 398.320312 234.558594 411.59375 237.605469 C 418.65625 239.230469 425.855469 237.90625 431.859375 233.875 C 437.867188 229.847656 441.820312 223.699219 442.992188 216.554688 C 445.191406 203.136719 436.515625 190.238281 423.246094 187.191406 C 421.28125 186.738281 419.300781 186.515625 417.34375 186.515625 Z M 417.496094 239.175781 C 415.472656 239.175781 413.425781 238.941406 411.390625 238.472656 C 397.664062 235.324219 388.691406 221.980469 390.96875 208.097656 C 392.179688 200.707031 396.265625 194.347656 402.476562 190.183594 C 408.691406 186.015625 416.136719 184.644531 423.445312 186.320312 C 437.175781 189.472656 446.148438 202.816406 443.871094 216.699219 C 442.660156 224.085938 438.570312 230.453125 432.359375 234.617188 C 427.875 237.625 422.75 239.175781 417.496094 239.175781 Z M 400.9375 257.261719 L 415.667969 260.15625 L 416.488281 255.988281 C 416.53125 255.777344 416.710938 255.628906 416.925781 255.628906 L 416.929688 255.628906 C 419.191406 255.652344 421.492188 255.5 423.75 255.167969 C 423.964844 255.136719 424.167969 255.261719 424.234375 255.464844 L 425.609375 259.480469 L 439.816406 254.632812 L 438.4375 250.605469 C 438.367188 250.402344 438.453125 250.179688 438.640625 250.074219 C 440.617188 248.957031 442.527344 247.683594 444.308594 246.273438 C 444.476562 246.140625 444.714844 246.144531 444.875 246.285156 L 448.085938 249.082031 L 457.960938 237.792969 L 454.757812 235 C 454.597656 234.859375 454.558594 234.625 454.667969 234.4375 C 455.828125 232.484375 456.839844 230.421875 457.671875 228.3125 C 457.753906 228.113281 457.960938 227.996094 458.171875 228.035156 L 462.347656 228.855469 L 465.242188 214.148438 L 461.070312 213.328125 C 460.859375 213.289062 460.707031 213.101562 460.707031 212.882812 C 460.734375 210.617188 460.582031 208.328125 460.25 206.078125 C 460.21875 205.867188 460.34375 205.664062 460.542969 205.589844 L 464.566406 204.21875 L 459.714844 190.035156 L 455.679688 191.410156 C 455.476562 191.480469 455.25 191.394531 455.148438 191.210938 C 454.03125 189.230469 452.75 187.328125 451.339844 185.546875 C 451.207031 185.378906 451.210938 185.136719 451.351562 184.980469 L 454.15625 181.773438 L 442.847656 171.917969 L 440.054688 175.113281 C 439.910156 175.273438 439.675781 175.3125 439.488281 175.203125 C 437.53125 174.042969 435.464844 173.035156 433.351562 172.203125 C 433.15625 172.121094 433.039062 171.910156 433.082031 171.703125 L 433.898438 167.535156 L 419.171875 164.644531 L 418.351562 168.8125 C 418.308594 169.019531 418.125 169.167969 417.914062 169.167969 L 417.90625 169.167969 C 415.628906 169.140625 413.34375 169.296875 411.089844 169.628906 C 410.878906 169.660156 410.671875 169.535156 410.605469 169.332031 L 409.226562 165.316406 L 395.027344 170.164062 L 396.40625 174.191406 C 396.472656 174.394531 396.390625 174.617188 396.199219 174.726562 C 394.21875 175.839844 392.3125 177.117188 390.53125 178.523438 C 390.363281 178.660156 390.125 178.652344 389.960938 178.515625 L 386.75 175.714844 L 376.878906 187.003906 L 380.082031 189.796875 C 380.242188 189.9375 380.28125 190.175781 380.171875 190.359375 C 379.011719 192.316406 377.996094 194.378906 377.167969 196.488281 C 377.089844 196.6875 376.878906 196.800781 376.664062 196.761719 L 372.492188 195.941406 L 369.597656 210.648438 L 373.769531 211.46875 C 373.980469 211.511719 374.132812 211.695312 374.128906 211.910156 C 374.101562 214.179688 374.257812 216.46875 374.589844 218.71875 C 374.617188 218.929688 374.496094 219.136719 374.292969 219.207031 L 370.269531 220.578125 L 375.125 234.761719 L 379.160156 233.386719 C 379.363281 233.316406 379.589844 233.402344 379.691406 233.589844 C 380.804688 235.5625 382.089844 237.472656 383.5 239.25 C 383.632812 239.417969 383.625 239.65625 383.484375 239.820312 L 380.683594 243.023438 L 391.988281 252.882812 L 394.785156 249.683594 C 394.929688 249.523438 395.164062 249.484375 395.351562 249.59375 C 397.308594 250.753906 399.375 251.761719 401.484375 252.597656 C 401.683594 252.675781 401.800781 252.886719 401.761719 253.09375 Z M 416.019531 261.121094 C 415.992188 261.121094 415.960938 261.121094 415.933594 261.113281 L 400.328125 258.050781 C 400.210938 258.03125 400.109375 257.960938 400.042969 257.863281 C 399.976562 257.765625 399.957031 257.644531 399.976562 257.527344 L 400.8125 253.285156 C 398.890625 252.511719 397.011719 251.589844 395.214844 250.550781 L 392.371094 253.800781 C 392.207031 253.988281 391.925781 254.007812 391.738281 253.847656 L 379.757812 243.402344 C 379.574219 243.238281 379.554688 242.960938 379.71875 242.773438 L 382.570312 239.507812 C 381.296875 237.875 380.132812 236.140625 379.097656 234.347656 L 374.996094 235.75 C 374.882812 235.785156 374.761719 235.78125 374.652344 235.726562 C 374.546875 235.675781 374.464844 235.582031 374.425781 235.472656 L 369.28125 220.445312 C 369.203125 220.214844 369.328125 219.957031 369.5625 219.878906 L 373.652344 218.480469 C 373.367188 216.425781 373.226562 214.34375 373.234375 212.273438 L 368.984375 211.4375 C 368.746094 211.390625 368.585938 211.15625 368.636719 210.914062 L 371.703125 195.332031 C 371.726562 195.214844 371.796875 195.113281 371.890625 195.050781 C 371.988281 194.980469 372.109375 194.960938 372.226562 194.980469 L 376.472656 195.816406 C 377.25 193.898438 378.171875 192.019531 379.214844 190.226562 L 375.953125 187.382812 C 375.867188 187.304688 375.8125 187.195312 375.804688 187.078125 C 375.796875 186.960938 375.835938 186.84375 375.914062 186.753906 L 386.375 174.792969 C 386.535156 174.609375 386.816406 174.585938 387 174.75 L 390.269531 177.597656 C 391.902344 176.328125 393.640625 175.164062 395.441406 174.128906 L 394.035156 170.035156 C 393.957031 169.800781 394.082031 169.546875 394.316406 169.464844 L 409.363281 164.328125 C 409.472656 164.292969 409.597656 164.296875 409.703125 164.351562 C 409.808594 164.402344 409.890625 164.496094 409.929688 164.605469 L 411.328125 168.691406 C 413.382812 168.410156 415.46875 168.265625 417.546875 168.277344 L 418.382812 164.035156 C 418.402344 163.917969 418.472656 163.816406 418.570312 163.75 C 418.667969 163.683594 418.785156 163.660156 418.90625 163.683594 L 434.511719 166.746094 C 434.753906 166.792969 434.910156 167.027344 434.863281 167.269531 L 434.027344 171.511719 C 435.949219 172.285156 437.828125 173.207031 439.625 174.25 L 442.46875 170.996094 C 442.546875 170.90625 442.65625 170.851562 442.773438 170.84375 C 442.890625 170.835938 443.007812 170.875 443.097656 170.949219 L 455.078125 181.398438 C 455.265625 181.554688 455.285156 181.839844 455.121094 182.023438 L 452.269531 185.285156 C 453.542969 186.921875 454.707031 188.652344 455.738281 190.449219 L 459.84375 189.050781 C 459.957031 189.011719 460.078125 189.019531 460.1875 189.070312 C 460.292969 189.121094 460.375 189.214844 460.414062 189.324219 L 465.554688 204.351562 C 465.636719 204.585938 465.511719 204.839844 465.277344 204.917969 L 461.183594 206.316406 C 461.46875 208.371094 461.613281 210.457031 461.605469 212.527344 L 465.851562 213.359375 C 465.96875 213.382812 466.070312 213.453125 466.136719 213.546875 C 466.203125 213.648438 466.226562 213.765625 466.203125 213.882812 L 463.136719 229.464844 C 463.089844 229.707031 462.855469 229.863281 462.613281 229.816406 L 458.367188 228.984375 C 457.585938 230.902344 456.667969 232.777344 455.625 234.574219 L 458.882812 237.410156 C 459.066406 237.574219 459.085938 237.855469 458.925781 238.042969 L 448.464844 250.007812 C 448.390625 250.09375 448.277344 250.148438 448.160156 250.160156 C 448.042969 250.164062 447.925781 250.125 447.839844 250.046875 L 444.570312 247.199219 C 442.933594 248.472656 441.195312 249.636719 439.398438 250.667969 L 440.800781 254.765625 C 440.84375 254.875 440.832031 255 440.777344 255.105469 C 440.730469 255.210938 440.636719 255.292969 440.523438 255.332031 L 425.480469 260.46875 C 425.367188 260.507812 425.242188 260.5 425.136719 260.449219 C 425.03125 260.394531 424.949219 260.304688 424.910156 260.191406 L 423.511719 256.105469 C 421.453125 256.390625 419.367188 256.535156 417.292969 256.523438 L 416.457031 260.761719 C 416.414062 260.976562 416.230469 261.121094 416.019531 261.121094 " fill-opacity="1" fill-rule="nonzero"/><path fill="#363e44" d="M 158.152344 239.492188 L 317.816406 239.492188 L 317.816406 118.859375 L 158.152344 118.859375 Z M 318.265625 240.386719 L 157.703125 240.386719 C 157.457031 240.386719 157.257812 240.1875 157.257812 239.941406 L 157.257812 118.414062 C 157.257812 118.167969 157.457031 117.964844 157.703125 117.964844 L 318.265625 117.964844 C 318.511719 117.964844 318.710938 118.167969 318.710938 118.414062 L 318.710938 239.941406 C 318.710938 240.1875 318.511719 240.386719 318.265625 240.386719 " fill-opacity="1" fill-rule="nonzero"/><path fill="#f7f1eb" d="M 162.742188 225.164062 L 162.742188 123.441406 L 313.226562 123.441406 L 313.226562 225.164062 L 162.742188 225.164062 " fill-opacity="1" fill-rule="nonzero"/><path fill="#ffffff" d="M 241.007812 231.953125 C 241.007812 233.621094 239.65625 234.972656 237.984375 234.972656 C 236.316406 234.972656 234.964844 233.621094 234.964844 231.953125 C 234.964844 230.289062 236.316406 228.9375 237.984375 228.9375 C 239.65625 228.9375 241.007812 230.289062 241.007812 231.953125 " fill-opacity="1" fill-rule="nonzero"/><path fill="#e6d0be" d="M 254.886719 242.347656 L 250.132812 242.347656 C 250.132812 245.910156 247.242188 248.796875 243.675781 248.796875 L 232.292969 248.796875 C 228.726562 248.796875 225.835938 245.910156 225.835938 242.347656 L 221.085938 242.347656 L 216.328125 267.574219 L 216.328125 269.683594 L 259.640625 269.683594 L 259.640625 267.574219 L 254.886719 242.347656 " fill-opacity="1" fill-rule="nonzero"/><path fill="#e6d0be" d="M 259.640625 272.769531 L 216.328125 272.769531 C 216.085938 272.769531 215.882812 272.566406 215.882812 272.320312 C 215.882812 272.074219 216.085938 271.875 216.328125 271.875 L 259.640625 271.875 C 259.886719 271.875 260.085938 272.074219 260.085938 272.320312 C 260.085938 272.566406 259.886719 272.769531 259.640625 272.769531 " fill-opacity="1" fill-rule="nonzero"/><path fill="#fdfcfb" d="M 162.742188 225.164062 L 313.226562 225.164062 L 313.226562 193.210938 L 162.742188 193.210938 Z M 162.742188 225.164062 " fill-opacity="1" fill-rule="nonzero"/><path fill="#d3bba3" d="M 313.164062 123.550781 L 162.632812 123.550781 L 162.632812 132.445312 L 313.164062 132.445312 L 313.164062 123.550781 " fill-opacity="1" fill-rule="nonzero"/><path fill="#e6d0be" d="M 170.945312 128.058594 C 170.945312 129.175781 169.996094 130.082031 168.828125 130.082031 C 167.65625 130.082031 166.707031 129.175781 166.707031 128.058594 C 166.707031 126.941406 167.65625 126.035156 168.828125 126.035156 C 169.996094 126.035156 170.945312 126.941406 170.945312 128.058594 " fill-opacity="1" fill-rule="nonzero"/><path fill="#e6d0be" d="M 177.792969 128.058594 C 177.792969 129.175781 176.84375 130.082031 175.671875 130.082031 C 174.503906 130.082031 173.554688 129.175781 173.554688 128.058594 C 173.554688 126.941406 174.503906 126.035156 175.671875 126.035156 C 176.84375 126.035156 177.792969 126.941406 177.792969 128.058594 " fill-opacity="1" fill-rule="nonzero"/><path fill="#e6d0be" d="M 184.636719 128.058594 C 184.636719 129.175781 183.6875 130.082031 182.519531 130.082031 C 181.347656 130.082031 180.398438 129.175781 180.398438 128.058594 C 180.398438 126.941406 181.347656 126.035156 182.519531 126.035156 C 183.6875 126.035156 184.636719 126.941406 184.636719 128.058594 " fill-opacity="1" fill-rule="nonzero"/><path fill="#d3bba3" d="M 220.226562 221.371094 L 167.765625 221.371094 C 167.519531 221.371094 167.320312 221.171875 167.320312 220.921875 L 167.320312 169.640625 C 167.320312 169.390625 167.519531 169.191406 167.765625 169.191406 C 168.011719 169.191406 168.210938 169.390625 168.210938 169.640625 L 168.210938 220.480469 L 220.226562 220.480469 C 220.472656 220.480469 220.671875 220.675781 220.671875 220.921875 C 220.671875 221.171875 220.472656 221.371094 220.226562 221.371094 " fill-opacity="1" fill-rule="nonzero"/><path fill="#efbc73" d="M 172.5625 213.824219 L 180.289062 213.824219 L 180.289062 186.351562 L 172.5625 186.351562 L 172.5625 213.824219 " fill-opacity="1" fill-rule="nonzero"/><path fill="#efbc73" d="M 185.316406 213.824219 L 193.046875 213.824219 L 193.046875 180.878906 L 185.316406 180.878906 L 185.316406 213.824219 " fill-opacity="1" fill-rule="nonzero"/><path fill="#efbc73" d="M 198.070312 213.824219 L 205.800781 213.824219 L 205.800781 160.695312 L 198.070312 160.695312 L 198.070312 213.824219 " fill-opacity="1" fill-rule="nonzero"/><path fill="#efbc73" d="M 210.824219 169.027344 L 210.824219 213.824219 L 218.554688 213.824219 L 218.554688 169.027344 L 210.824219 169.027344 " fill-opacity="1" fill-rule="nonzero"/><path fill="#efbc73" d="M 223.597656 213.824219 L 231.328125 213.824219 L 231.328125 147.046875 L 223.597656 147.046875 L 223.597656 213.824219 " fill-opacity="1" fill-rule="nonzero"/><path fill="#efbc73" d="M 236.351562 213.824219 L 244.082031 213.824219 L 244.082031 160.242188 L 236.351562 160.242188 L 236.351562 213.824219 " fill-opacity="1" fill-rule="nonzero"/><path fill="#efbc73" d="M 249.105469 213.824219 L 256.835938 213.824219 L 256.835938 187.929688 L 249.105469 187.929688 L 249.105469 213.824219 " fill-opacity="1" fill-rule="nonzero"/><path fill="#efbc73" d="M 261.859375 167.0625 L 261.859375 213.824219 L 269.589844 213.824219 L 269.589844 167.0625 L 261.859375 167.0625 " fill-opacity="1" fill-rule="nonzero"/><path fill="#efbc73" d="M 274.625 213.824219 L 282.351562 213.824219 L 282.351562 174.453125 L 274.625 174.453125 L 274.625 213.824219 " fill-opacity="1" fill-rule="nonzero"/><path fill="#efbc73" d="M 287.378906 155.269531 L 287.378906 213.824219 L 295.109375 213.824219 L 295.109375 155.269531 L 287.378906 155.269531 " fill-opacity="1" fill-rule="nonzero"/><path fill="#efbc73" d="M 300.152344 213.824219 L 307.878906 213.824219 L 307.878906 186.355469 L 300.152344 186.355469 L 300.152344 213.824219 " fill-opacity="1" fill-rule="nonzero"/><path fill="#e2a18d" d="M 409.226562 184.117188 C 409.226562 176.152344 402.761719 169.695312 394.789062 169.695312 L 394.558594 169.695312 C 395.820312 167.328125 396.539062 164.628906 396.539062 161.757812 C 396.539062 152.425781 388.964844 144.859375 379.621094 144.859375 C 378.789062 144.859375 377.96875 144.921875 377.167969 145.039062 C 377.222656 144.53125 377.253906 144.015625 377.253906 143.492188 C 377.253906 135.691406 370.921875 129.371094 363.113281 129.371094 C 359.003906 129.371094 355.308594 131.121094 352.726562 133.910156 C 350.746094 128.503906 345.546875 124.640625 339.445312 124.640625 C 334.039062 124.640625 329.347656 127.671875 326.964844 132.117188 C 324.570312 130.390625 321.628906 129.371094 318.445312 129.371094 C 310.386719 129.371094 303.859375 135.890625 303.859375 143.9375 C 303.859375 144.261719 303.875 144.585938 303.894531 144.910156 C 303.496094 144.878906 303.097656 144.859375 302.695312 144.859375 C 293.351562 144.859375 285.777344 152.425781 285.777344 161.757812 C 285.777344 164.632812 286.496094 167.339844 287.765625 169.710938 C 280.058594 170.011719 273.902344 176.34375 273.902344 184.117188 C 273.902344 190.292969 277.796875 195.558594 283.261719 197.613281 C 285.09375 207.378906 293.671875 214.773438 303.984375 214.773438 C 311.960938 214.773438 318.902344 210.347656 322.484375 203.824219 C 324.832031 205.855469 327.894531 207.089844 331.25 207.089844 C 336.941406 207.089844 341.804688 203.539062 343.742188 198.535156 L 394.789062 198.535156 C 402.761719 198.535156 409.226562 192.078125 409.226562 184.117188 " fill-opacity="1" fill-rule="nonzero"/><path fill="#363e44" d="M 342.804688 174.117188 L 322.457031 174.117188 C 322.210938 174.117188 322.011719 173.917969 322.011719 173.675781 C 322.011719 173.425781 322.210938 173.226562 322.457031 173.226562 L 342.804688 173.226562 C 346.800781 173.226562 350.050781 169.980469 350.050781 165.992188 C 350.050781 162.199219 346.960938 159.109375 343.164062 159.109375 L 319.671875 159.109375 C 315.382812 159.109375 311.894531 155.625 311.894531 151.339844 C 311.894531 147.058594 315.382812 143.570312 319.671875 143.570312 L 327.152344 143.570312 C 331.605469 143.570312 335.734375 140.984375 337.679688 136.980469 C 338.476562 135.328125 338.898438 133.488281 338.898438 131.652344 L 338.898438 114.335938 C 338.898438 114.089844 339.101562 113.890625 339.347656 113.890625 C 339.589844 113.890625 339.792969 114.089844 339.792969 114.335938 L 339.792969 131.652344 C 339.792969 133.625 339.339844 135.597656 338.480469 137.371094 C 336.390625 141.679688 331.945312 144.460938 327.152344 144.460938 L 319.671875 144.460938 C 315.875 144.460938 312.785156 147.546875 312.785156 151.339844 C 312.785156 155.132812 315.875 158.21875 319.671875 158.21875 L 343.164062 158.21875 C 347.453125 158.21875 350.945312 161.707031 350.945312 165.992188 C 350.945312 170.472656 347.292969 174.117188 342.804688 174.117188 " fill-opacity="1" fill-rule="nonzero"/><path fill="#363e44" d="M 301.515625 225.277344 C 301.269531 225.277344 301.070312 225.078125 301.070312 224.832031 L 301.070312 203.199219 C 301.070312 198.921875 304.554688 195.445312 308.839844 195.445312 L 320.890625 195.445312 C 324.679688 195.445312 327.765625 192.363281 327.765625 188.578125 C 327.765625 184.789062 324.679688 181.710938 320.890625 181.710938 L 308.839844 181.710938 C 304.5625 181.710938 301.082031 178.242188 301.070312 173.976562 L 301.070312 173.953125 C 301.082031 169.683594 304.5625 166.21875 308.839844 166.21875 L 336.371094 166.21875 C 336.617188 166.21875 336.816406 166.417969 336.816406 166.664062 C 336.816406 166.910156 336.617188 167.109375 336.371094 167.109375 L 308.839844 167.109375 C 305.050781 167.109375 301.96875 170.183594 301.964844 173.964844 C 301.96875 177.742188 305.050781 180.816406 308.839844 180.816406 L 320.890625 180.816406 C 325.171875 180.816406 328.660156 184.296875 328.660156 188.578125 C 328.660156 192.855469 325.171875 196.335938 320.890625 196.335938 L 308.839844 196.335938 C 305.046875 196.335938 301.964844 199.414062 301.964844 203.199219 L 301.964844 224.832031 C 301.964844 225.078125 301.761719 225.277344 301.515625 225.277344 " fill-opacity="1" fill-rule="nonzero"/><path fill="#363e44" d="M 313.132812 189.300781 L 293.800781 189.300781 C 288.101562 189.300781 283.464844 184.671875 283.464844 178.980469 C 283.464844 178.734375 283.664062 178.535156 283.910156 178.535156 C 284.160156 178.535156 284.359375 178.734375 284.359375 178.980469 C 284.359375 184.179688 288.59375 188.410156 293.800781 188.410156 L 313.132812 188.410156 C 313.378906 188.410156 313.578125 188.605469 313.578125 188.855469 C 313.578125 189.101562 313.378906 189.300781 313.132812 189.300781 " fill-opacity="1" fill-rule="nonzero"/><path fill="#363e44" d="M 304.851562 159.925781 L 303.867188 159.925781 C 299.121094 159.925781 295.261719 156.070312 295.261719 151.335938 C 295.261719 151.085938 295.460938 150.886719 295.707031 150.886719 C 295.953125 150.886719 296.15625 151.085938 296.15625 151.335938 C 296.15625 155.578125 299.613281 159.035156 303.867188 159.035156 L 304.851562 159.035156 C 305.101562 159.035156 305.300781 159.234375 305.300781 159.480469 C 305.300781 159.726562 305.101562 159.925781 304.851562 159.925781 " fill-opacity="1" fill-rule="nonzero"/><path fill="#363e44" d="M 348.753906 150.546875 L 331.417969 150.546875 C 331.171875 150.546875 330.972656 150.34375 330.972656 150.097656 C 330.972656 149.851562 331.171875 149.652344 331.417969 149.652344 L 348.753906 149.652344 C 358.570312 149.652344 366.621094 141.75 366.699219 132.039062 L 366.699219 87.632812 C 366.699219 76.464844 375.800781 67.378906 386.984375 67.378906 L 412.527344 67.378906 C 412.777344 67.378906 412.972656 67.578125 412.972656 67.824219 C 412.972656 68.070312 412.777344 68.269531 412.527344 68.269531 L 386.984375 68.269531 C 376.292969 68.269531 367.589844 76.957031 367.589844 87.632812 L 367.589844 132.046875 C 367.511719 142.246094 359.058594 150.546875 348.753906 150.546875 " fill-opacity="1" fill-rule="nonzero"/><path fill="#363e44" d="M 395.324219 188.109375 L 361.050781 188.109375 C 356.941406 188.109375 353.597656 184.769531 353.597656 180.667969 C 353.597656 176.566406 356.941406 173.226562 361.050781 173.226562 L 377.441406 173.226562 C 381.058594 173.226562 384.003906 170.289062 384.003906 166.675781 L 384.003906 166.375 C 384.003906 162.765625 381.058594 159.828125 377.441406 159.828125 L 358.738281 159.828125 C 358.496094 159.828125 358.292969 159.628906 358.292969 159.382812 C 358.292969 159.136719 358.496094 158.9375 358.738281 158.9375 L 377.441406 158.9375 C 381.550781 158.9375 384.894531 162.273438 384.894531 166.375 L 384.894531 166.675781 C 384.894531 170.78125 381.550781 174.121094 377.441406 174.121094 L 361.050781 174.121094 C 357.433594 174.121094 354.492188 177.054688 354.492188 180.667969 C 354.492188 184.277344 357.433594 187.21875 361.050781 187.21875 L 395.324219 187.21875 C 395.570312 187.21875 395.773438 187.417969 395.773438 187.664062 C 395.773438 187.910156 395.570312 188.109375 395.324219 188.109375 " fill-opacity="1" fill-rule="nonzero"/><path fill="#363e44" d="M 332.847656 215.585938 C 332.601562 215.585938 332.398438 215.386719 332.398438 215.140625 L 332.398438 198.109375 C 332.398438 198.054688 332.414062 198 332.433594 197.949219 L 335.007812 191.375 C 336.890625 186.574219 341.441406 183.46875 346.605469 183.46875 L 349.28125 183.46875 C 349.527344 183.46875 349.730469 183.671875 349.730469 183.917969 C 349.730469 184.164062 349.527344 184.363281 349.28125 184.363281 L 346.605469 184.363281 C 341.8125 184.363281 337.585938 187.242188 335.835938 191.699219 L 333.292969 198.195312 L 333.292969 215.140625 C 333.292969 215.386719 333.09375 215.585938 332.847656 215.585938 " fill-opacity="1" fill-rule="nonzero"/><path fill="#363e44" d="M 374.003906 167.109375 L 360.839844 167.109375 C 360.59375 167.109375 360.394531 166.910156 360.394531 166.664062 C 360.394531 166.417969 360.59375 166.21875 360.839844 166.21875 L 374.003906 166.21875 C 374.25 166.21875 374.449219 166.417969 374.449219 166.664062 C 374.449219 166.910156 374.25 167.109375 374.003906 167.109375 " fill-opacity="1" fill-rule="nonzero"/><path fill="#363e44" d="M 482.835938 242.984375 C 482.589844 242.984375 482.390625 242.785156 482.390625 242.539062 L 482.390625 217.484375 C 482.390625 197.042969 465.734375 180.414062 445.265625 180.414062 L 369 180.414062 C 368.753906 180.414062 368.550781 180.214844 368.550781 179.96875 C 368.550781 179.722656 368.753906 179.523438 369 179.523438 L 445.265625 179.523438 C 466.226562 179.523438 483.28125 196.550781 483.28125 217.484375 L 483.28125 242.539062 C 483.28125 242.785156 483.082031 242.984375 482.835938 242.984375 " fill-opacity="1" fill-rule="nonzero"/><path fill="#363e44" d="M 283.910156 179.425781 L 261.058594 179.425781 C 260.8125 179.425781 260.613281 179.226562 260.613281 178.980469 C 260.613281 178.734375 260.8125 178.535156 261.058594 178.535156 L 283.910156 178.535156 C 284.160156 178.535156 284.359375 178.734375 284.359375 178.980469 C 284.359375 179.226562 284.160156 179.425781 283.910156 179.425781 " fill-opacity="1" fill-rule="nonzero"/><path fill="#363e44" d="M 295.707031 151.78125 L 281.71875 151.78125 C 281.472656 151.78125 281.273438 151.582031 281.273438 151.335938 C 281.273438 151.085938 281.472656 150.886719 281.71875 150.886719 L 295.707031 150.886719 C 295.953125 150.886719 296.15625 151.085938 296.15625 151.335938 C 296.15625 151.582031 295.953125 151.78125 295.707031 151.78125 " fill-opacity="1" fill-rule="nonzero"/><path fill="#d87355" d="M 339.074219 107.140625 C 337.210938 107.140625 335.695312 108.65625 335.695312 110.515625 C 335.695312 112.375 337.210938 113.890625 339.074219 113.890625 C 340.9375 113.890625 342.457031 112.375 342.457031 110.515625 C 342.457031 108.65625 340.9375 107.140625 339.074219 107.140625 Z M 339.074219 114.78125 C 336.71875 114.78125 334.800781 112.867188 334.800781 110.515625 C 334.800781 108.164062 336.71875 106.25 339.074219 106.25 C 341.429688 106.25 343.347656 108.164062 343.347656 110.515625 C 343.347656 112.867188 341.429688 114.78125 339.074219 114.78125 " fill-opacity="1" fill-rule="nonzero"/><path fill="#d87355" d="M 416.351562 64.449219 C 414.488281 64.449219 412.972656 65.960938 412.972656 67.824219 C 412.972656 69.6875 414.488281 71.199219 416.351562 71.199219 C 418.214844 71.199219 419.734375 69.6875 419.734375 67.824219 C 419.734375 65.960938 418.214844 64.449219 416.351562 64.449219 Z M 416.351562 72.089844 C 413.996094 72.089844 412.082031 70.175781 412.082031 67.824219 C 412.082031 65.472656 413.996094 63.558594 416.351562 63.558594 C 418.710938 63.558594 420.625 65.472656 420.625 67.824219 C 420.625 70.175781 418.710938 72.089844 416.351562 72.089844 " fill-opacity="1" fill-rule="nonzero"/><path fill="#363e44" d="M 332.792969 216.207031 C 330.929688 216.207031 329.414062 217.71875 329.414062 219.582031 C 329.414062 221.441406 330.929688 222.957031 332.792969 222.957031 C 334.65625 222.957031 336.175781 221.441406 336.175781 219.582031 C 336.175781 217.71875 334.65625 216.207031 332.792969 216.207031 Z M 332.792969 223.847656 C 330.4375 223.847656 328.523438 221.933594 328.523438 219.582031 C 328.523438 217.230469 330.4375 215.316406 332.792969 215.316406 C 335.148438 215.316406 337.066406 217.230469 337.066406 219.582031 C 337.066406 221.933594 335.148438 223.847656 332.792969 223.847656 " fill-opacity="1" fill-rule="nonzero"/><path fill="#363e44" d="M 301.527344 225.441406 C 299.664062 225.441406 298.144531 226.957031 298.144531 228.816406 C 298.144531 230.675781 299.664062 232.191406 301.527344 232.191406 C 303.390625 232.191406 304.90625 230.675781 304.90625 228.816406 C 304.90625 226.957031 303.390625 225.441406 301.527344 225.441406 Z M 301.527344 233.082031 C 299.171875 233.082031 297.253906 231.167969 297.253906 228.816406 C 297.253906 226.464844 299.171875 224.550781 301.527344 224.550781 C 303.882812 224.550781 305.796875 226.464844 305.796875 228.816406 C 305.796875 231.167969 303.882812 233.082031 301.527344 233.082031 " fill-opacity="1" fill-rule="nonzero"/><path fill="#d87355" d="M 257.234375 175.605469 C 255.371094 175.605469 253.855469 177.121094 253.855469 178.980469 C 253.855469 180.839844 255.371094 182.355469 257.234375 182.355469 C 259.097656 182.355469 260.613281 180.839844 260.613281 178.980469 C 260.613281 177.121094 259.097656 175.605469 257.234375 175.605469 Z M 257.234375 183.246094 C 254.878906 183.246094 252.960938 181.332031 252.960938 178.980469 C 252.960938 176.628906 254.878906 174.714844 257.234375 174.714844 C 259.589844 174.714844 261.507812 176.628906 261.507812 178.980469 C 261.507812 181.332031 259.589844 183.246094 257.234375 183.246094 " fill-opacity="1" fill-rule="nonzero"/><path fill="#d87355" d="M 482.839844 242.984375 C 480.972656 242.984375 479.457031 244.496094 479.457031 246.359375 C 479.457031 248.21875 480.972656 249.734375 482.839844 249.734375 C 484.703125 249.734375 486.21875 248.21875 486.21875 246.359375 C 486.21875 244.496094 484.703125 242.984375 482.839844 242.984375 Z M 482.839844 250.625 C 480.480469 250.625 478.566406 248.710938 478.566406 246.359375 C 478.566406 244.003906 480.480469 242.09375 482.839844 242.09375 C 485.195312 242.09375 487.109375 244.003906 487.109375 246.359375 C 487.109375 248.710938 485.195312 250.625 482.839844 250.625 " fill-opacity="1" fill-rule="nonzero"/><path fill="#d87355" d="M 277.746094 147.960938 C 275.882812 147.960938 274.367188 149.472656 274.367188 151.335938 C 274.367188 153.195312 275.882812 154.707031 277.746094 154.707031 C 279.609375 154.707031 281.125 153.195312 281.125 151.335938 C 281.125 149.472656 279.609375 147.960938 277.746094 147.960938 Z M 277.746094 155.601562 C 275.390625 155.601562 273.472656 153.6875 273.472656 151.335938 C 273.472656 148.980469 275.390625 147.070312 277.746094 147.070312 C 280.101562 147.070312 282.019531 148.980469 282.019531 151.335938 C 282.019531 153.6875 280.101562 155.601562 277.746094 155.601562 " fill-opacity="1" fill-rule="nonzero"/><path fill="#e6d0be" d="M 415.113281 193.65625 L 268.75 193.65625 C 265.714844 201.972656 264.054688 210.949219 264.054688 220.308594 C 264.054688 263.257812 332.5625 329.277344 395.042969 329.277344 C 428.386719 329.277344 419.808594 263.257812 419.808594 220.308594 C 419.808594 210.949219 418.148438 201.972656 415.113281 193.65625 " fill-opacity="1" fill-rule="nonzero"/><path fill="#e6d0be" d="M 369.554688 325.878906 L 369.554688 362.308594 L 286.902344 362.308594 L 286.902344 252.660156 L 369.554688 252.660156 L 369.554688 325.878906 " fill-opacity="1" fill-rule="nonzero"/><path fill="#e6d0be" d="M 437.117188 261.027344 C 441.714844 270.90625 413.410156 273.4375 413.410156 273.4375 L 413.410156 226.921875 C 413.410156 226.921875 432.742188 251.613281 437.117188 261.027344 " fill-opacity="1" fill-rule="nonzero"/><path fill="#363e44" d="M 369.554688 326.324219 C 369.519531 326.324219 369.480469 326.320312 369.445312 326.308594 C 350.738281 321.476562 331.539062 311.660156 313.917969 297.929688 C 313.722656 297.78125 313.6875 297.5 313.839844 297.304688 C 313.992188 297.113281 314.273438 297.078125 314.46875 297.226562 C 331.992188 310.882812 351.078125 320.640625 369.667969 325.445312 C 369.90625 325.507812 370.050781 325.753906 369.988281 325.992188 C 369.9375 326.191406 369.753906 326.324219 369.554688 326.324219 " fill-opacity="1" fill-rule="nonzero"/><path fill="#363e44" d="M 329.9375 278.257812 C 321.53125 278.257812 312.632812 272.230469 307.191406 262.816406 C 303.617188 256.632812 302 249.808594 302.640625 243.597656 C 303.289062 237.335938 306.152344 232.441406 310.699219 229.820312 C 317.414062 225.949219 326.644531 227.878906 334.21875 234.738281 C 334.402344 234.902344 334.414062 235.183594 334.25 235.367188 C 334.082031 235.546875 333.800781 235.5625 333.617188 235.394531 C 326.339844 228.804688 317.515625 226.917969 311.148438 230.59375 C 306.851562 233.066406 304.148438 237.71875 303.53125 243.691406 C 302.90625 249.714844 304.480469 256.347656 307.964844 262.371094 C 313.3125 271.621094 322.046875 277.511719 330.226562 277.363281 C 330.460938 277.375 330.675781 277.558594 330.679688 277.804688 C 330.683594 278.046875 330.488281 278.253906 330.242188 278.257812 C 330.140625 278.257812 330.039062 278.257812 329.9375 278.257812 " fill-opacity="1" fill-rule="nonzero"/><path fill="#363e44" d="M 326.582031 266.160156 C 322.140625 266.160156 317.445312 262.988281 314.582031 258.03125 C 312.703125 254.78125 311.851562 251.191406 312.1875 247.921875 C 312.535156 244.601562 314.058594 242 316.480469 240.601562 C 320.050781 238.546875 324.941406 239.558594 328.945312 243.183594 C 329.128906 243.347656 329.144531 243.628906 328.976562 243.8125 C 328.8125 243.992188 328.53125 244.007812 328.347656 243.84375 C 324.636719 240.480469 320.152344 239.511719 316.929688 241.375 C 314.757812 242.625 313.390625 244.984375 313.078125 248.015625 C 312.761719 251.097656 313.566406 254.5 315.355469 257.585938 C 318.09375 262.324219 322.546875 265.34375 326.726562 265.269531 C 326.964844 265.261719 327.175781 265.460938 327.179688 265.703125 C 327.183594 265.953125 326.988281 266.15625 326.742188 266.160156 C 326.6875 266.160156 326.632812 266.160156 326.582031 266.160156 " fill-opacity="1" fill-rule="nonzero"/><path fill="#363e44" d="M 385.339844 242.859375 C 379.640625 242.859375 372.90625 241.695312 365.523438 238.203125 C 365.300781 238.097656 365.207031 237.832031 365.3125 237.609375 C 365.417969 237.386719 365.683594 237.292969 365.90625 237.398438 C 387.507812 247.617188 403.410156 237.53125 403.570312 237.425781 C 403.773438 237.292969 404.050781 237.351562 404.1875 237.558594 C 404.320312 237.761719 404.265625 238.039062 404.058594 238.171875 C 403.949219 238.242188 396.691406 242.859375 385.339844 242.859375 " fill-opacity="1" fill-rule="nonzero"/><path fill="#363e44" d="M 395.5 291.464844 C 392.25 291.464844 388.488281 290.480469 384.496094 287.527344 C 384.300781 287.382812 384.257812 287.105469 384.40625 286.90625 C 384.550781 286.707031 384.828125 286.664062 385.03125 286.8125 C 396.378906 295.210938 405.746094 286.925781 405.839844 286.84375 C 406.019531 286.675781 406.304688 286.691406 406.46875 286.871094 C 406.632812 287.054688 406.621094 287.335938 406.441406 287.5 C 406.371094 287.558594 401.960938 291.464844 395.5 291.464844 " fill-opacity="1" fill-rule="nonzero"/><path fill="#f2e6dc" d="M 368.082031 325.085938 C 367.839844 325.085938 367.640625 324.886719 367.636719 324.644531 L 367.304688 289.128906 C 368.230469 269.113281 362.378906 256.324219 357.300781 249.113281 C 351.820312 241.328125 346.078125 238.222656 346.019531 238.191406 C 345.875 238.117188 345.785156 237.964844 345.785156 237.800781 L 345.785156 193.519531 C 345.785156 193.273438 345.980469 193.074219 346.230469 193.074219 C 346.476562 193.074219 346.675781 193.273438 346.675781 193.519531 L 346.675781 237.539062 C 347.84375 238.214844 352.996094 241.449219 358.03125 248.601562 C 363.1875 255.925781 369.136719 268.902344 368.195312 289.144531 L 368.53125 324.636719 C 368.535156 324.882812 368.335938 325.082031 368.089844 325.085938 L 368.082031 325.085938 " fill-opacity="1" fill-rule="nonzero"/><path fill="#f2e6dc" d="M 343.558594 197.988281 C 343.558594 198.539062 343.109375 198.984375 342.5625 198.984375 C 342.011719 198.984375 341.566406 198.539062 341.566406 197.988281 C 341.566406 197.441406 342.011719 196.996094 342.5625 196.996094 C 343.109375 196.996094 343.558594 197.441406 343.558594 197.988281 " fill-opacity="1" fill-rule="nonzero"/><path fill="#f2e6dc" d="M 343.558594 211.363281 C 343.558594 211.910156 343.109375 212.355469 342.5625 212.355469 C 342.011719 212.355469 341.566406 211.910156 341.566406 211.363281 C 341.566406 210.8125 342.011719 210.367188 342.5625 210.367188 C 343.109375 210.367188 343.558594 210.8125 343.558594 211.363281 " fill-opacity="1" fill-rule="nonzero"/><path fill="#f2e6dc" d="M 343.558594 224.730469 C 343.558594 225.28125 343.109375 225.726562 342.5625 225.726562 C 342.011719 225.726562 341.566406 225.28125 341.566406 224.730469 C 341.566406 224.183594 342.011719 223.738281 342.5625 223.738281 C 343.109375 223.738281 343.558594 224.183594 343.558594 224.730469 " fill-opacity="1" fill-rule="nonzero"/><path fill="#f2e6dc" d="M 343.558594 238.105469 C 343.558594 238.652344 343.109375 239.097656 342.5625 239.097656 C 342.011719 239.097656 341.566406 238.652344 341.566406 238.105469 C 341.566406 237.554688 342.011719 237.109375 342.5625 237.109375 C 343.109375 237.109375 343.558594 237.554688 343.558594 238.105469 " fill-opacity="1" fill-rule="nonzero"/><path fill="#f2e6dc" d="M 353.375 248.355469 C 353.375 248.902344 352.929688 249.347656 352.382812 249.347656 C 351.832031 249.347656 351.386719 248.902344 351.386719 248.355469 C 351.386719 247.804688 351.832031 247.359375 352.382812 247.359375 C 352.929688 247.359375 353.375 247.804688 353.375 248.355469 " fill-opacity="1" fill-rule="nonzero"/><path fill="#f2e6dc" d="M 360.515625 259.941406 C 360.515625 260.492188 360.070312 260.9375 359.523438 260.9375 C 358.972656 260.9375 358.527344 260.492188 358.527344 259.941406 C 358.527344 259.394531 358.972656 258.949219 359.523438 258.949219 C 360.070312 258.949219 360.515625 259.394531 360.515625 259.941406 " fill-opacity="1" fill-rule="nonzero"/><path fill="#f2e6dc" d="M 364.535156 273.316406 C 364.535156 273.863281 364.089844 274.308594 363.539062 274.308594 C 362.988281 274.308594 362.542969 273.863281 362.542969 273.316406 C 362.542969 272.765625 362.988281 272.320312 363.539062 272.320312 C 364.089844 272.320312 364.535156 272.765625 364.535156 273.316406 " fill-opacity="1" fill-rule="nonzero"/><path fill="#f2e6dc" d="M 365.425781 286.6875 C 365.425781 287.234375 364.980469 287.679688 364.433594 287.679688 C 363.882812 287.679688 363.4375 287.234375 363.4375 286.6875 C 363.4375 286.136719 363.882812 285.695312 364.433594 285.695312 C 364.980469 285.695312 365.425781 286.136719 365.425781 286.6875 " fill-opacity="1" fill-rule="nonzero"/><path fill="#f2e6dc" d="M 365.425781 300.058594 C 365.425781 300.605469 364.980469 301.050781 364.433594 301.050781 C 363.882812 301.050781 363.4375 300.605469 363.4375 300.058594 C 363.4375 299.507812 363.882812 299.0625 364.433594 299.0625 C 364.980469 299.0625 365.425781 299.507812 365.425781 300.058594 " fill-opacity="1" fill-rule="nonzero"/><path fill="#f2e6dc" d="M 365.425781 313.429688 C 365.425781 313.980469 364.980469 314.421875 364.433594 314.421875 C 363.882812 314.421875 363.4375 313.980469 363.4375 313.429688 C 363.4375 312.882812 363.882812 312.4375 364.433594 312.4375 C 364.980469 312.4375 365.425781 312.882812 365.425781 313.429688 " fill-opacity="1" fill-rule="nonzero"/><path fill="#f2e6dc" d="M 346.234375 216.109375 L 264.136719 216.109375 C 263.890625 216.109375 263.691406 215.910156 263.691406 215.664062 C 263.691406 215.417969 263.890625 215.214844 264.136719 215.214844 L 346.234375 215.214844 C 346.480469 215.214844 346.679688 215.417969 346.679688 215.664062 C 346.679688 215.910156 346.480469 216.109375 346.234375 216.109375 " fill-opacity="1" fill-rule="nonzero"/><path fill="#f2e6dc" d="M 420.773438 273.160156 L 367.242188 273.160156 C 366.996094 273.160156 366.792969 272.960938 366.792969 272.714844 C 366.792969 272.46875 366.996094 272.269531 367.242188 272.269531 L 420.773438 272.269531 C 421.019531 272.269531 421.21875 272.46875 421.21875 272.714844 C 421.21875 272.960938 421.019531 273.160156 420.773438 273.160156 " fill-opacity="1" fill-rule="nonzero"/><path fill="#f2e6dc" d="M 384.191406 220.460938 C 369.53125 220.460938 357.605469 227.667969 357.605469 236.53125 C 357.605469 245.394531 369.53125 252.601562 384.191406 252.601562 C 398.855469 252.601562 410.78125 245.394531 410.78125 236.53125 C 410.78125 227.667969 398.855469 220.460938 384.191406 220.460938 Z M 384.191406 253.496094 C 369.039062 253.496094 356.710938 245.886719 356.710938 236.53125 C 356.710938 227.179688 369.039062 219.570312 384.191406 219.570312 C 399.347656 219.570312 411.675781 227.179688 411.675781 236.53125 C 411.675781 245.886719 399.347656 253.496094 384.191406 253.496094 " fill-opacity="1" fill-rule="nonzero"/><path fill="#e6d0be" d="M 216.46875 359.59375 C 249.421875 389.734375 293.328125 408.132812 341.539062 408.132812 C 389.75 408.132812 433.65625 389.734375 466.609375 359.59375 L 216.46875 359.59375 " fill-opacity="1" fill-rule="nonzero"/><path fill="#363e44" d="M 270.960938 330.097656 C 286.121094 340.714844 251.480469 351.136719 233.136719 353.65625 C 156.878906 364.121094 172.773438 297.765625 205.695312 301.640625 C 230.726562 304.589844 224.808594 287.621094 243.324219 287.621094 C 256.546875 287.621094 260.394531 290.894531 265.226562 303.871094 C 267.164062 309.070312 257.285156 320.523438 270.960938 330.097656 " fill-opacity="1" fill-rule="nonzero"/><path fill="#40484c" d="M 203.824219 328.132812 C 202.34375 328.132812 200.949219 327.867188 199.648438 327.332031 C 195.148438 325.492188 193.425781 321.160156 193.355469 320.976562 C 193.265625 320.746094 193.382812 320.488281 193.609375 320.398438 C 193.84375 320.308594 194.101562 320.421875 194.1875 320.652344 C 194.203125 320.695312 195.855469 324.820312 199.996094 326.511719 C 202.941406 327.714844 206.433594 327.425781 210.378906 325.652344 C 215.980469 323.132812 218.980469 319.492188 221.625 316.277344 C 224.863281 312.339844 227.675781 308.941406 234.046875 309.078125 C 234.292969 309.082031 234.488281 309.285156 234.484375 309.53125 C 234.480469 309.777344 234.265625 309.957031 234.027344 309.96875 C 228.066406 309.832031 225.535156 312.929688 222.3125 316.84375 C 219.605469 320.132812 216.539062 323.859375 210.742188 326.464844 C 208.273438 327.578125 205.960938 328.132812 203.824219 328.132812 " fill-opacity="1" fill-rule="nonzero"/><path fill="#84524d" d="M 272.398438 340.554688 C 272.398438 340.554688 288.269531 349.226562 302.824219 377.972656 C 317.769531 407.488281 288.269531 403.457031 288.269531 403.457031 C 288.269531 403.457031 271.054688 378.925781 260.273438 371.832031 C 251.035156 365.753906 272.398438 340.554688 272.398438 340.554688 " fill-opacity="1" fill-rule="nonzero"/><path fill="#84524d" d="M 157.082031 386.910156 C 157.746094 385.257812 165.664062 352.496094 191.75 340.554688 C 191.75 340.554688 195.457031 368.453125 195.457031 369.445312 C 195.457031 370.433594 182.5625 390.578125 182.5625 390.578125 L 157.082031 386.910156 " fill-opacity="1" fill-rule="nonzero"/><path fill="#ffffff" d="M 281.210938 343.949219 C 281.210938 343.949219 258.691406 328.164062 231.128906 329.742188 C 206.488281 331.148438 182.511719 341.578125 182.511719 341.578125 L 194.253906 371.382812 L 189.75 403.457031 L 276.433594 403.457031 L 271.074219 373.25 L 281.210938 343.949219 " fill-opacity="1" fill-rule="nonzero"/><path fill="#84524d" d="M 254.035156 367.324219 C 250.683594 366.125 237.558594 358.921875 231.789062 362.839844 C 225.972656 366.785156 223.808594 374.234375 224.101562 381.25 C 224.125 381.265625 224.144531 381.289062 224.164062 381.308594 C 225.054688 383.039062 226.652344 385.484375 229.445312 387.085938 C 232.632812 388.910156 234.320312 387.886719 237.980469 389.289062 C 244.160156 391.65625 245.378906 397.078125 247.476562 396.039062 C 248.917969 395.324219 248.347656 392.132812 247.066406 389.359375 C 245.75 386.511719 243.699219 385.222656 244.003906 384.808594 C 244.339844 384.355469 246.253906 385.933594 248.8125 387.679688 C 250.003906 388.488281 251.898438 392.726562 254.011719 392.039062 C 255.695312 391.492188 254.832031 386.597656 251.9375 383.367188 C 249.890625 381.078125 246.933594 380.679688 247.117188 380.152344 C 247.257812 379.753906 249.011719 380.035156 250.453125 380.726562 C 252.828125 381.867188 254.8125 386.179688 256.746094 385.507812 C 258.640625 384.855469 257.808594 380.59375 255.335938 377.449219 C 253.25 374.800781 249.933594 374.515625 250.160156 373.859375 C 250.316406 373.394531 251.828125 373.214844 254.964844 373.792969 C 257.582031 374.273438 262.359375 376.894531 263.273438 374.238281 C 264.042969 372 259.089844 369.128906 254.035156 367.324219 " fill-opacity="1" fill-rule="nonzero"/><path fill="#84524d" d="M 160.71875 376.710938 C 160.71875 376.710938 148.648438 397.582031 168.492188 404.398438 C 188.332031 411.214844 230.484375 381.167969 230.484375 381.167969 L 235.078125 361.742188 C 209.601562 361.71875 182.332031 366.683594 160.71875 376.710938 " fill-opacity="1" fill-rule="nonzero"/><path fill="#363e44" d="M 172.773438 372.277344 C 172.582031 372.277344 172.402344 372.152344 172.347656 371.953125 C 172.277344 371.71875 172.414062 371.472656 172.652344 371.402344 L 191.25 366.101562 C 191.488281 366.03125 191.734375 366.167969 191.800781 366.40625 C 191.871094 366.640625 191.730469 366.886719 191.496094 366.957031 L 172.898438 372.261719 C 172.855469 372.269531 172.816406 372.277344 172.773438 372.277344 " fill-opacity="1" fill-rule="nonzero"/><path fill="#363e44" d="M 338.828125 403.382812 C 337.480469 406.265625 334.582031 408.105469 331.398438 408.105469 L 280.257812 408.105469 L 303.164062 359.222656 L 359.523438 359.222656 L 338.828125 403.382812 " fill-opacity="1" fill-rule="nonzero"/><path fill="#363e44" d="M 246.6875 403.199219 C 246.6875 405.925781 248.898438 408.132812 251.628906 408.132812 L 298.785156 408.132812 L 301.09375 403.199219 L 246.6875 403.199219 " fill-opacity="1" fill-rule="nonzero"/><path fill="#40484c" d="M 326.625 381.085938 C 326.625 382.945312 325.117188 384.449219 323.257812 384.449219 C 321.398438 384.449219 319.890625 382.945312 319.890625 381.085938 C 319.890625 379.230469 321.398438 377.722656 323.257812 377.722656 C 325.117188 377.722656 326.625 379.230469 326.625 381.085938 " fill-opacity="1" fill-rule="nonzero"/><path fill="#84524d" d="M 247.472656 309.355469 C 245.039062 308.011719 240.871094 304.429688 239.527344 306.859375 L 223.761719 332.039062 C 222.417969 334.46875 230.484375 333.625 232.914062 334.964844 C 235.347656 336.304688 238.40625 335.425781 239.75 332.996094 L 249.441406 316.183594 C 250.785156 313.753906 249.902344 310.699219 247.472656 309.355469 " fill-opacity="1" fill-rule="nonzero"/><path fill="#84524d" d="M 245.652344 333.984375 C 245.652344 336.242188 239.5625 338.074219 232.054688 338.074219 C 224.546875 338.074219 218.457031 336.242188 218.457031 333.984375 C 218.457031 331.726562 224.546875 329.898438 232.054688 329.898438 C 239.5625 329.898438 245.652344 331.726562 245.652344 333.984375 " fill-opacity="1" fill-rule="nonzero"/><path fill="#84524d" d="M 249.886719 327.398438 C 245.265625 327.695312 240.015625 315.921875 240.015625 315.921875 L 241.523438 301.878906 C 244.941406 296.34375 252.207031 294.625 257.75 298.039062 C 263.292969 301.457031 265.011719 308.710938 261.59375 314.246094 C 261.59375 314.246094 254.59375 327.09375 249.886719 327.398438 " fill-opacity="1" fill-rule="nonzero"/><path fill="#84524d" d="M 258.8125 316.167969 C 258.8125 316.167969 259.808594 320.851562 259.179688 321.535156 C 258.425781 322.351562 254.941406 320.988281 254.941406 320.988281 C 254.941406 320.988281 258.882812 316.222656 258.8125 316.167969 " fill-opacity="1" fill-rule="nonzero"/><path fill="#ffffff" d="M 250.019531 310.164062 C 250.019531 310.164062 252.257812 310.292969 254.285156 311.542969 C 254.714844 311.808594 251.773438 314.75 251.484375 314.300781 C 250.21875 312.335938 250.019531 310.164062 250.019531 310.164062 " fill-opacity="1" fill-rule="nonzero"/><g clip-path="url(#2e613449fb)"><g clip-path="url(#0df5b5e825)"><path fill="#363e44" d="M 254.425781 311.507812 C 256.589844 310.996094 258.761719 312.332031 259.273438 314.496094 C 259.789062 316.65625 258.449219 318.828125 256.28125 319.339844 C 254.117188 319.851562 251.945312 318.511719 251.429688 316.351562 C 250.917969 314.1875 252.257812 312.019531 254.425781 311.507812 " fill-opacity="1" fill-rule="nonzero"/></g></g><path fill="#363e44" d="M 252.257812 321.882812 C 251.449219 321.882812 250.703125 321.417969 250.355469 320.6875 C 250.015625 319.96875 250.117188 319.105469 250.613281 318.484375 C 250.765625 318.289062 251.046875 318.257812 251.238281 318.410156 C 251.433594 318.5625 251.464844 318.84375 251.3125 319.035156 C 251.027344 319.394531 250.96875 319.894531 251.164062 320.304688 C 251.367188 320.730469 251.8125 321 252.28125 320.992188 C 252.535156 320.992188 252.730469 321.183594 252.738281 321.429688 C 252.742188 321.675781 252.546875 321.878906 252.296875 321.882812 L 252.257812 321.882812 " fill-opacity="1" fill-rule="nonzero"/><path fill="#363e44" d="M 246.460938 326.503906 C 246.355469 326.503906 246.25 326.46875 246.164062 326.390625 C 242.632812 323.246094 239.628906 316.558594 239.5 316.277344 C 239.398438 316.050781 239.5 315.789062 239.726562 315.6875 C 239.953125 315.589844 240.214844 315.6875 240.316406 315.914062 C 240.347656 315.980469 243.371094 322.707031 246.757812 325.726562 C 246.941406 325.890625 246.957031 326.171875 246.792969 326.355469 C 246.707031 326.457031 246.582031 326.503906 246.460938 326.503906 " fill-opacity="1" fill-rule="nonzero"/><path fill="#363e44" d="M 239.808594 309.363281 C 242.949219 309.433594 245.324219 307.191406 245.933594 306.773438 C 246.523438 306.367188 247.09375 305.84375 247.707031 305.109375 C 250.160156 302.164062 253.21875 302.90625 256.195312 307.035156 C 259.167969 311.164062 264.957031 312.253906 267.765625 308.710938 C 269.28125 306.804688 269.253906 302.988281 267.511719 300.960938 C 266.308594 299.558594 265.0625 299.882812 262.929688 297.738281 C 261.488281 296.285156 261.628906 295.710938 260.53125 295.058594 C 258.78125 294.023438 257.308594 294.816406 255.023438 294.777344 C 250.96875 294.703125 250.402344 292.113281 246.984375 291.65625 C 242.789062 291.09375 237.761719 294.21875 235.820312 298.582031 C 234.367188 301.839844 234.277344 306.808594 236.808594 308.59375 C 237.832031 309.320312 239.042969 309.347656 239.808594 309.363281 " fill-opacity="1" fill-rule="nonzero"/><path fill="#84524d" d="M 245.652344 308 C 245.652344 310.710938 243.449219 312.910156 240.734375 312.910156 C 238.019531 312.910156 235.820312 310.710938 235.820312 308 C 235.820312 305.289062 238.019531 303.089844 240.734375 303.089844 C 243.449219 303.089844 245.652344 305.289062 245.652344 308 " fill-opacity="1" fill-rule="nonzero"/><path fill="#e6d0be" d="M 449.515625 398.839844 L 520.464844 398.839844 L 520.464844 265.179688 L 449.515625 265.179688 L 449.515625 398.839844 " fill-opacity="1" fill-rule="nonzero"/><g clip-path="url(#911f655175)"><path fill="#363e44" d="M 452.621094 256.460938 C 448.449219 256.460938 445.054688 259.851562 445.054688 264.015625 L 445.054688 398.730469 C 445.054688 402.894531 448.449219 406.285156 452.621094 406.285156 L 517.855469 406.285156 C 522.027344 406.285156 525.421875 402.894531 525.421875 398.730469 L 525.421875 264.015625 C 525.421875 259.851562 522.027344 256.460938 517.855469 256.460938 Z M 517.855469 407.175781 L 452.621094 407.175781 C 447.953125 407.175781 444.164062 403.386719 444.164062 398.730469 L 444.164062 264.015625 C 444.164062 259.359375 447.953125 255.570312 452.621094 255.570312 L 517.855469 255.570312 C 522.519531 255.570312 526.316406 259.359375 526.316406 264.015625 L 526.316406 398.730469 C 526.316406 403.386719 522.519531 407.175781 517.855469 407.175781 " fill-opacity="1" fill-rule="nonzero"/></g><path fill="#8b865c" d="M 511.070312 325.878906 L 462.457031 325.878906 L 462.457031 285.164062 L 511.070312 285.164062 L 511.070312 325.878906 " fill-opacity="1" fill-rule="nonzero"/><path fill="#ffffff" d="M 505.261719 320.199219 L 456.648438 320.199219 L 456.648438 279.484375 L 505.261719 279.484375 L 505.261719 320.199219 " fill-opacity="1" fill-rule="nonzero"/><path fill="#8b865c" d="M 504.285156 347.070312 L 460.78125 347.070312 C 460.53125 347.070312 460.332031 346.871094 460.332031 346.621094 C 460.332031 346.375 460.53125 346.179688 460.78125 346.179688 L 504.285156 346.179688 C 504.53125 346.179688 504.730469 346.375 504.730469 346.621094 C 504.730469 346.871094 504.53125 347.070312 504.285156 347.070312 " fill-opacity="1" fill-rule="nonzero"/><path fill="#8b865c" d="M 495.042969 355.789062 L 460.777344 355.789062 C 460.535156 355.789062 460.332031 355.589844 460.332031 355.34375 C 460.332031 355.097656 460.535156 354.898438 460.777344 354.898438 L 495.042969 354.898438 C 495.292969 354.898438 495.492188 355.097656 495.492188 355.34375 C 495.492188 355.589844 495.292969 355.789062 495.042969 355.789062 " fill-opacity="1" fill-rule="nonzero"/><path fill="#8b865c" d="M 500.816406 363.6875 L 460.777344 363.6875 C 460.53125 363.6875 460.335938 363.488281 460.335938 363.242188 C 460.335938 362.996094 460.53125 362.796875 460.777344 362.796875 L 500.816406 362.796875 C 501.066406 362.796875 501.265625 362.996094 501.265625 363.242188 C 501.265625 363.488281 501.066406 363.6875 500.816406 363.6875 " fill-opacity="1" fill-rule="nonzero"/><path fill="#8b865c" d="M 488.324219 372 L 460.78125 372 C 460.53125 372 460.332031 371.800781 460.332031 371.550781 C 460.332031 371.304688 460.53125 371.105469 460.78125 371.105469 L 488.324219 371.105469 C 488.570312 371.105469 488.769531 371.304688 488.769531 371.550781 C 488.769531 371.800781 488.570312 372 488.324219 372 " fill-opacity="1" fill-rule="nonzero"/><path fill="#efbc73" d="M 476.167969 291.773438 C 476.929688 291.398438 477.722656 291.140625 478.519531 290.988281 L 478.21875 286.753906 C 476.863281 286.957031 475.523438 287.367188 474.234375 287.996094 C 471.109375 289.527344 468.851562 292.089844 467.675781 295.050781 L 471.839844 296.25 C 472.671875 294.371094 474.152344 292.757812 476.167969 291.773438 " fill-opacity="1" fill-rule="nonzero"/><path fill="#efbc73" d="M 471.597656 302.851562 C 471.0625 301.382812 470.945312 299.84375 471.195312 298.375 L 467.03125 297.179688 C 466.511719 299.648438 466.707031 302.277344 467.71875 304.75 L 471.597656 302.851562 " fill-opacity="1" fill-rule="nonzero"/><path fill="#d87355" d="M 492.863281 294.929688 L 488.984375 296.828125 C 490.515625 301.054688 488.621094 305.851562 484.417969 307.90625 C 480.210938 309.960938 475.152344 308.570312 472.613281 304.835938 L 468.734375 306.734375 C 472.351562 312.546875 480.011719 314.777344 486.347656 311.679688 C 492.679688 308.582031 495.449219 301.25 492.863281 294.929688 " fill-opacity="1" fill-rule="nonzero"/><path fill="#efbc73" d="M 480.78125 290.835938 C 483.625 290.988281 486.324219 292.425781 487.96875 294.84375 L 491.847656 292.945312 C 489.375 288.972656 485.015625 286.671875 480.480469 286.601562 L 480.78125 290.835938 " fill-opacity="1" fill-rule="nonzero"/><path fill="#e6d0be" d="M 298.699219 84.957031 C 297.402344 88.382812 294.675781 91.109375 291.242188 92.402344 C 279.585938 96.804688 268.714844 85.945312 273.121094 74.304688 C 274.417969 70.878906 277.148438 68.15625 280.578125 66.859375 C 292.234375 62.460938 303.105469 73.316406 298.699219 84.957031 Z M 310.964844 75.460938 L 308.496094 75.460938 C 308.273438 74.261719 307.960938 73.09375 307.558594 71.964844 L 309.695312 70.734375 L 305.519531 63.511719 L 303.378906 64.746094 C 302.59375 63.828125 301.734375 62.972656 300.816406 62.191406 L 302.050781 60.050781 L 294.820312 55.882812 L 293.585938 58.011719 C 292.457031 57.617188 291.289062 57.300781 290.085938 57.078125 L 290.085938 54.617188 L 281.734375 54.617188 L 281.734375 57.078125 C 280.53125 57.300781 279.363281 57.617188 278.234375 58.011719 L 277 55.882812 L 269.769531 60.050781 L 271.003906 62.191406 C 270.085938 62.972656 269.230469 63.828125 268.445312 64.746094 L 266.304688 63.511719 L 262.128906 70.734375 L 264.261719 71.964844 C 263.863281 73.09375 263.546875 74.261719 263.328125 75.460938 L 260.859375 75.460938 L 260.859375 83.800781 L 263.328125 83.800781 C 263.546875 85 263.863281 86.167969 264.261719 87.296875 L 262.128906 88.527344 L 266.304688 95.75 L 268.445312 94.519531 C 269.230469 95.433594 270.085938 96.292969 271.003906 97.074219 L 269.769531 99.210938 L 277 103.382812 L 278.234375 101.25 C 279.363281 101.648438 280.53125 101.960938 281.734375 102.183594 L 281.734375 104.648438 L 290.085938 104.648438 L 290.085938 102.183594 C 291.289062 101.960938 292.457031 101.648438 293.585938 101.25 L 294.820312 103.382812 L 302.050781 99.210938 L 300.816406 97.074219 C 301.734375 96.292969 302.59375 95.433594 303.378906 94.519531 L 305.519531 95.75 L 309.695312 88.527344 L 307.558594 87.296875 C 307.960938 86.167969 308.273438 85 308.496094 83.800781 L 310.964844 83.800781 L 310.964844 75.460938 " fill-opacity="1" fill-rule="nonzero"/><path fill="#f2e6dc" d="M 285.910156 98.316406 C 275.59375 98.316406 267.195312 89.9375 267.195312 79.632812 C 267.195312 70.457031 274.039062 62.515625 283.109375 61.152344 C 283.351562 61.117188 283.578125 61.285156 283.617188 61.527344 C 283.652344 61.769531 283.484375 61.996094 283.242188 62.035156 C 274.605469 63.328125 268.089844 70.894531 268.089844 79.632812 C 268.089844 89.445312 276.085938 97.425781 285.910156 97.425781 C 294.027344 97.425781 301.121094 91.953125 303.160156 84.117188 C 303.222656 83.878906 303.464844 83.738281 303.707031 83.796875 C 303.941406 83.859375 304.085938 84.101562 304.023438 84.339844 C 301.886719 92.570312 294.4375 98.316406 285.910156 98.316406 " fill-opacity="1" fill-rule="nonzero"/></svg>