<svg xmlns="http://www.w3.org/2000/svg" xmlns:xlink="http://www.w3.org/1999/xlink" width="900" zoomAndPan="magnify" viewBox="0 0 675 449.999984" height="600" preserveAspectRatio="xMidYMid meet" version="1.0"><defs><clipPath id="bf3419a1e5"><path d="M 141.726562 30 L 531 30 L 531 419 L 141.726562 419 Z M 141.726562 30 " clip-rule="nonzero"/></clipPath><clipPath id="0c11527e82"><path d="M 356.203125 258.097656 L 367.257812 258.097656 L 367.257812 268.722656 L 356.203125 268.722656 Z M 356.203125 258.097656 " clip-rule="nonzero"/></clipPath><clipPath id="dc515dc154"><path d="M 369.230469 256.140625 C 369.230469 256.140625 363.90625 256.457031 360.328125 259.929688 C 356.75 263.398438 356.273438 268.714844 356.273438 268.714844 C 356.273438 268.714844 361.597656 268.398438 365.175781 264.925781 C 368.753906 261.453125 369.230469 256.140625 369.230469 256.140625 " clip-rule="nonzero"/></clipPath></defs><rect x="-67.5" width="810" fill="#ffffff" y="-44.999998" height="539.99998" fill-opacity="1"/><rect x="-67.5" width="810" fill="#edf2f4" y="-44.999998" height="539.99998" fill-opacity="1"/><g clip-path="url(#bf3419a1e5)"><path fill="#f2e6dc" d="M 530.71875 224.515625 C 530.71875 331.921875 443.640625 418.992188 336.222656 418.992188 C 228.804688 418.992188 141.726562 331.921875 141.726562 224.515625 C 141.726562 117.109375 228.804688 30.035156 336.222656 30.035156 C 443.640625 30.035156 530.71875 117.109375 530.71875 224.515625 " fill-opacity="1" fill-rule="nonzero"/></g><path fill="#ffffff" d="M 347.140625 83.851562 C 343.03125 94.503906 331.195312 100.210938 320.304688 96.789062 C 308.277344 93.011719 301.957031 79.898438 306.492188 68.136719 C 310.597656 57.488281 322.433594 51.785156 333.328125 55.203125 C 345.351562 58.976562 351.671875 72.09375 347.140625 83.851562 Z M 367.636719 83.046875 L 363.839844 81.71875 C 364.148438 79.75 364.292969 77.777344 364.28125 75.824219 L 368.234375 75.074219 L 365.695312 61.691406 L 361.734375 62.441406 C 361.019531 60.605469 360.164062 58.824219 359.167969 57.121094 L 362.222656 54.488281 L 353.335938 44.171875 L 350.285156 46.792969 C 348.761719 45.570312 347.132812 44.453125 345.398438 43.46875 L 346.722656 39.667969 L 333.867188 35.175781 L 332.539062 38.976562 C 330.566406 38.667969 328.597656 38.523438 326.640625 38.535156 L 325.894531 34.582031 L 312.511719 37.121094 L 313.261719 41.082031 C 311.421875 41.792969 309.640625 42.652344 307.9375 43.648438 L 305.308594 40.589844 L 294.984375 49.480469 L 297.613281 52.527344 C 296.386719 54.050781 295.273438 55.683594 294.285156 57.414062 L 290.484375 56.089844 L 285.992188 68.945312 L 289.789062 70.273438 C 289.484375 72.242188 289.339844 74.214844 289.347656 76.167969 L 285.398438 76.917969 L 287.933594 90.300781 L 291.894531 89.550781 C 292.613281 91.390625 293.46875 93.167969 294.464844 94.871094 L 291.410156 97.5 L 300.296875 107.820312 L 303.34375 105.195312 C 304.867188 106.421875 306.5 107.535156 308.234375 108.523438 L 306.90625 112.324219 L 319.765625 116.816406 L 321.09375 113.019531 C 323.0625 113.324219 325.035156 113.46875 326.988281 113.460938 L 327.738281 117.410156 L 341.121094 114.875 L 340.367188 110.914062 C 342.207031 110.199219 343.988281 109.339844 345.691406 108.347656 L 348.324219 111.402344 L 358.644531 102.511719 L 356.019531 99.464844 C 357.246094 97.941406 358.359375 96.3125 359.347656 94.578125 L 363.144531 95.90625 L 367.636719 83.046875 " fill-opacity="1" fill-rule="nonzero"/><path fill="#f2e6dc" d="M 326.820312 106.261719 C 323.488281 106.261719 320.117188 105.710938 316.832031 104.566406 C 309.199219 101.898438 303.0625 96.421875 299.550781 89.136719 C 296.042969 81.855469 295.578125 73.644531 298.246094 66.015625 C 300.648438 59.128906 305.457031 53.347656 311.777344 49.734375 C 318.035156 46.152344 325.363281 44.917969 332.410156 46.25 C 332.664062 46.300781 332.832031 46.542969 332.78125 46.800781 C 332.734375 47.050781 332.492188 47.222656 332.238281 47.171875 C 318.109375 44.496094 303.878906 52.730469 299.128906 66.324219 C 296.542969 73.71875 296.996094 81.675781 300.394531 88.730469 C 303.800781 95.789062 309.746094 101.09375 317.140625 103.679688 C 329.753906 108.085938 343.75 103.421875 351.175781 92.335938 C 351.324219 92.121094 351.613281 92.0625 351.828125 92.210938 C 352.042969 92.351562 352.097656 92.644531 351.957031 92.855469 C 346.226562 101.414062 336.703125 106.261719 326.820312 106.261719 " fill-opacity="1" fill-rule="nonzero"/><path fill="#ffffff" d="M 488.832031 279.007812 C 484.71875 289.65625 472.886719 295.363281 461.992188 291.945312 C 449.96875 288.167969 443.644531 275.054688 448.183594 263.292969 C 452.289062 252.644531 464.125 246.9375 475.015625 250.359375 C 487.039062 254.132812 493.367188 267.25 488.832031 279.007812 Z M 509.328125 278.203125 L 505.527344 276.871094 C 505.835938 274.902344 505.980469 272.933594 505.972656 270.976562 L 509.921875 270.230469 L 507.386719 256.847656 L 503.425781 257.597656 C 502.710938 255.757812 501.851562 253.980469 500.859375 252.277344 L 503.914062 249.648438 L 495.023438 239.324219 L 491.976562 241.949219 C 490.449219 240.726562 488.820312 239.613281 487.085938 238.625 L 488.417969 234.824219 L 475.554688 230.332031 L 474.226562 234.128906 C 472.253906 233.824219 470.289062 233.679688 468.332031 233.6875 L 467.582031 229.738281 L 454.199219 232.273438 L 454.953125 236.234375 C 453.113281 236.949219 451.332031 237.808594 449.628906 238.800781 L 447 235.746094 L 436.675781 244.636719 L 439.300781 247.683594 C 438.074219 249.207031 436.960938 250.835938 435.972656 252.570312 L 432.175781 251.242188 L 427.679688 264.101562 L 431.480469 265.429688 C 431.175781 267.402344 431.03125 269.371094 431.035156 271.324219 L 427.085938 272.074219 L 429.625 285.457031 L 433.585938 284.703125 C 434.300781 286.542969 435.160156 288.324219 436.152344 290.027344 L 433.097656 292.65625 L 441.988281 302.976562 L 445.035156 300.351562 C 446.558594 301.578125 448.191406 302.691406 449.921875 303.679688 L 448.59375 307.476562 L 461.453125 311.972656 L 462.78125 308.171875 C 464.753906 308.480469 466.722656 308.625 468.679688 308.613281 L 469.425781 312.566406 L 482.808594 310.027344 L 482.058594 306.066406 C 483.898438 305.351562 485.675781 304.492188 487.382812 303.5 L 490.011719 306.554688 L 500.332031 297.667969 L 497.707031 294.617188 C 498.933594 293.097656 500.046875 291.464844 501.035156 289.734375 L 504.835938 291.058594 L 509.328125 278.203125 " fill-opacity="1" fill-rule="nonzero"/><path fill="#f2e6dc" d="M 468.515625 301.417969 C 465.175781 301.417969 461.804688 300.867188 458.523438 299.71875 C 450.890625 297.050781 444.753906 291.574219 441.242188 284.292969 C 437.734375 277.011719 437.265625 268.796875 439.9375 261.167969 C 442.339844 254.285156 447.148438 248.503906 453.472656 244.886719 C 459.726562 241.308594 467.054688 240.070312 474.101562 241.40625 C 474.355469 241.453125 474.523438 241.699219 474.476562 241.953125 C 474.425781 242.207031 474.183594 242.371094 473.925781 242.324219 C 459.800781 239.652344 445.570312 247.886719 440.820312 261.476562 C 438.234375 268.871094 438.683594 276.828125 442.089844 283.882812 C 445.492188 290.941406 451.4375 296.25 458.832031 298.835938 C 471.445312 303.242188 485.441406 298.578125 492.867188 287.492188 C 493.011719 287.277344 493.304688 287.21875 493.519531 287.363281 C 493.734375 287.507812 493.789062 287.796875 493.648438 288.011719 C 487.917969 296.566406 478.390625 301.417969 468.515625 301.417969 " fill-opacity="1" fill-rule="nonzero"/><path fill="#e6d0be" d="M 144.695312 270.644531 L 413.667969 270.644531 L 413.667969 66.792969 L 144.695312 66.792969 L 144.695312 270.644531 " fill-opacity="1" fill-rule="nonzero"/><path fill="#f2e6dc" d="M 405.226562 245.859375 L 405.226562 75.230469 L 153.132812 75.230469 L 153.132812 245.859375 L 405.226562 245.859375 " fill-opacity="1" fill-rule="nonzero"/><path fill="#f7f1eb" d="M 274.117188 257.25 C 274.117188 260.042969 276.382812 262.3125 279.179688 262.3125 C 281.976562 262.3125 284.242188 260.042969 284.242188 257.25 C 284.242188 254.453125 281.976562 252.1875 279.179688 252.1875 C 276.382812 252.1875 274.117188 254.453125 274.117188 257.25 " fill-opacity="1" fill-rule="nonzero"/><path fill="#e6d0be" d="M 144.695312 276.167969 C 144.695312 287.835938 154.152344 297.296875 165.824219 297.296875 L 447.753906 297.296875 C 459.425781 297.296875 468.882812 287.835938 468.882812 276.167969 L 144.695312 276.167969 " fill-opacity="1" fill-rule="nonzero"/><path fill="#f2e6dc" d="M 215.492188 295.574219 C 206 295.574219 198.273438 287.851562 198.273438 278.359375 C 198.273438 278.097656 198.484375 277.890625 198.742188 277.890625 C 199 277.890625 199.210938 278.097656 199.210938 278.359375 C 199.210938 287.335938 206.515625 294.636719 215.492188 294.636719 C 215.75 294.636719 215.960938 294.847656 215.960938 295.105469 C 215.960938 295.363281 215.75 295.574219 215.492188 295.574219 " fill-opacity="1" fill-rule="nonzero"/><path fill="#f2e6dc" d="M 314.566406 281.632812 C 314.808594 286.105469 318.527344 289.671875 323.058594 289.671875 L 354.667969 289.671875 C 359.203125 289.671875 362.921875 286.105469 363.164062 281.632812 L 314.566406 281.632812 M 354.667969 290.609375 L 323.058594 290.609375 C 317.851562 290.609375 313.613281 286.371094 313.613281 281.160156 C 313.613281 280.90625 313.824219 280.695312 314.085938 280.695312 L 363.644531 280.695312 C 363.90625 280.695312 364.113281 280.90625 364.113281 281.160156 C 364.113281 286.371094 359.878906 290.609375 354.667969 290.609375 " fill-opacity="1" fill-rule="nonzero"/><path fill="#ffffff" d="M 372.949219 159.320312 C 372.949219 159.320312 350.28125 182.53125 317.453125 195.523438 C 304.699219 200.570312 290.414062 192.253906 275.328125 192.253906 C 260.246094 192.253906 245.957031 200.570312 233.207031 195.523438 C 200.382812 182.53125 177.714844 159.320312 177.714844 159.320312 C 177.714844 159.320312 200.382812 136.105469 233.207031 123.113281 C 245.957031 118.066406 260.246094 132.296875 275.328125 132.296875 C 290.414062 132.296875 304.699219 118.066406 317.453125 123.113281 C 350.28125 136.105469 372.949219 159.320312 372.949219 159.320312 " fill-opacity="1" fill-rule="nonzero"/><path fill="#8b865c" d="M 233.207031 123.113281 C 224.84375 132.835938 219.785156 145.488281 219.785156 159.316406 C 219.785156 173.148438 224.84375 185.800781 233.207031 195.523438 C 245.960938 200.570312 260.246094 204.078125 275.332031 204.078125 C 290.417969 204.078125 304.703125 200.570312 317.453125 195.523438 C 325.820312 185.800781 330.878906 173.148438 330.878906 159.316406 C 330.878906 145.488281 325.820312 132.835938 317.453125 123.113281 C 304.703125 118.066406 290.417969 114.558594 275.332031 114.558594 C 260.246094 114.558594 245.960938 118.066406 233.207031 123.113281 " fill-opacity="1" fill-rule="nonzero"/><path fill="#efbc73" d="M 320.5625 160.058594 L 235.132812 160.058594 C 234.875 160.058594 234.664062 159.847656 234.664062 159.589844 C 234.664062 159.332031 234.875 159.121094 235.132812 159.121094 L 320.5625 159.121094 C 320.820312 159.121094 321.027344 159.332031 321.027344 159.589844 C 321.027344 159.847656 320.820312 160.058594 320.5625 160.058594 " fill-opacity="1" fill-rule="nonzero"/><path fill="#efbc73" d="M 317.886719 174.9375 C 317.832031 174.9375 317.777344 174.925781 317.722656 174.90625 L 231.347656 142.808594 C 231.105469 142.71875 230.980469 142.449219 231.070312 142.203125 C 231.160156 141.960938 231.429688 141.839844 231.671875 141.929688 L 318.046875 174.03125 C 318.292969 174.121094 318.414062 174.390625 318.324219 174.632812 C 318.253906 174.820312 318.074219 174.9375 317.886719 174.9375 " fill-opacity="1" fill-rule="nonzero"/><path fill="#efbc73" d="M 229.160156 165.90625 C 228.933594 165.90625 228.734375 165.738281 228.695312 165.507812 C 228.65625 165.25 228.832031 165.011719 229.089844 164.972656 L 320.160156 150.9375 C 320.417969 150.898438 320.65625 151.074219 320.699219 151.332031 C 320.734375 151.585938 320.5625 151.828125 320.304688 151.867188 L 229.230469 165.898438 C 229.207031 165.902344 229.183594 165.90625 229.160156 165.90625 " fill-opacity="1" fill-rule="nonzero"/><path fill="#efbc73" d="M 249.136719 189.183594 C 249.023438 189.183594 248.910156 189.144531 248.820312 189.0625 C 248.628906 188.886719 248.613281 188.589844 248.785156 188.398438 L 305.976562 124.945312 C 306.148438 124.75 306.441406 124.734375 306.636719 124.90625 C 306.828125 125.082031 306.84375 125.378906 306.667969 125.570312 L 249.484375 189.027344 C 249.390625 189.128906 249.261719 189.183594 249.136719 189.183594 " fill-opacity="1" fill-rule="nonzero"/><path fill="#efbc73" d="M 249.480469 197.535156 C 249.390625 197.535156 249.300781 197.507812 249.222656 197.457031 C 249.007812 197.316406 248.945312 197.023438 249.089844 196.808594 L 299.625 119.761719 C 299.769531 119.546875 300.058594 119.484375 300.277344 119.628906 C 300.492188 119.769531 300.554688 120.0625 300.410156 120.277344 L 249.871094 197.320312 C 249.78125 197.460938 249.632812 197.535156 249.480469 197.535156 " fill-opacity="1" fill-rule="nonzero"/><path fill="#efbc73" d="M 300.738281 183.519531 C 300.621094 183.519531 300.5 183.472656 300.40625 183.382812 L 251.15625 134.097656 C 250.972656 133.917969 250.972656 133.621094 251.15625 133.4375 C 251.339844 133.253906 251.636719 133.253906 251.820312 133.4375 L 301.070312 182.71875 C 301.253906 182.902344 301.253906 183.199219 301.070312 183.382812 C 300.980469 183.472656 300.859375 183.519531 300.738281 183.519531 " fill-opacity="1" fill-rule="nonzero"/><path fill="#efbc73" d="M 307.554688 183.59375 C 307.457031 183.59375 307.359375 183.5625 307.277344 183.503906 L 246.675781 139.054688 C 246.46875 138.902344 246.421875 138.609375 246.574219 138.402344 C 246.726562 138.191406 247.019531 138.144531 247.230469 138.300781 L 307.832031 182.746094 C 308.039062 182.898438 308.085938 183.191406 307.929688 183.402344 C 307.839844 183.523438 307.699219 183.59375 307.554688 183.59375 " fill-opacity="1" fill-rule="nonzero"/><path fill="#efbc73" d="M 282.800781 192.472656 C 282.582031 192.472656 282.382812 192.320312 282.34375 192.09375 L 269.398438 123.636719 C 269.347656 123.382812 269.515625 123.136719 269.769531 123.085938 C 270.023438 123.039062 270.269531 123.207031 270.316406 123.460938 L 283.265625 191.917969 C 283.308594 192.171875 283.144531 192.417969 282.890625 192.464844 C 282.859375 192.472656 282.832031 192.472656 282.800781 192.472656 " fill-opacity="1" fill-rule="nonzero"/><path fill="#efbc73" d="M 271.039062 198.207031 C 271.019531 198.207031 271 198.207031 270.980469 198.203125 C 270.722656 198.171875 270.542969 197.9375 270.574219 197.679688 L 280.238281 123.152344 C 280.269531 122.894531 280.507812 122.714844 280.761719 122.75 C 281.019531 122.78125 281.199219 123.015625 281.167969 123.273438 L 271.503906 197.800781 C 271.472656 198.035156 271.273438 198.207031 271.039062 198.207031 " fill-opacity="1" fill-rule="nonzero"/><path fill="#363e44" d="M 297.214844 159.316406 C 297.214844 171.402344 287.417969 181.199219 275.332031 181.199219 C 263.246094 181.199219 253.449219 171.402344 253.449219 159.316406 C 253.449219 147.234375 263.246094 137.433594 275.332031 137.433594 C 287.417969 137.433594 297.214844 147.234375 297.214844 159.316406 " fill-opacity="1" fill-rule="nonzero"/><path fill="#d3bba3" d="M 168.832031 130.863281 C 168.574219 130.863281 168.363281 130.652344 168.363281 130.394531 L 168.363281 92.722656 C 168.363281 92.464844 168.574219 92.253906 168.832031 92.253906 L 209.566406 92.253906 C 209.828125 92.253906 210.035156 92.464844 210.035156 92.722656 C 210.035156 92.984375 209.828125 93.191406 209.566406 93.191406 L 169.300781 93.191406 L 169.300781 130.394531 C 169.300781 130.652344 169.09375 130.863281 168.832031 130.863281 " fill-opacity="1" fill-rule="nonzero"/><path fill="#d3bba3" d="M 209.566406 231.117188 L 168.832031 231.117188 C 168.574219 231.117188 168.363281 230.90625 168.363281 230.648438 L 168.363281 192.003906 C 168.363281 191.746094 168.574219 191.535156 168.832031 191.535156 C 169.09375 191.535156 169.300781 191.746094 169.300781 192.003906 L 169.300781 230.179688 L 209.566406 230.179688 C 209.828125 230.179688 210.035156 230.390625 210.035156 230.648438 C 210.035156 230.90625 209.828125 231.117188 209.566406 231.117188 " fill-opacity="1" fill-rule="nonzero"/><path fill="#d3bba3" d="M 387.042969 130.863281 C 386.78125 130.863281 386.570312 130.652344 386.570312 130.394531 L 386.570312 93.191406 L 346.304688 93.191406 C 346.042969 93.191406 345.835938 92.984375 345.835938 92.722656 C 345.835938 92.464844 346.042969 92.253906 346.304688 92.253906 L 387.042969 92.253906 C 387.296875 92.253906 387.507812 92.464844 387.507812 92.722656 L 387.507812 130.394531 C 387.507812 130.652344 387.296875 130.863281 387.042969 130.863281 " fill-opacity="1" fill-rule="nonzero"/><path fill="#d3bba3" d="M 387.039062 231.117188 L 346.304688 231.117188 C 346.046875 231.117188 345.835938 230.90625 345.835938 230.648438 C 345.835938 230.390625 346.046875 230.179688 346.304688 230.179688 L 386.570312 230.179688 L 386.570312 192.003906 C 386.570312 191.746094 386.78125 191.535156 387.039062 191.535156 C 387.296875 191.535156 387.507812 191.746094 387.507812 192.003906 L 387.507812 230.648438 C 387.507812 230.90625 387.296875 231.117188 387.039062 231.117188 " fill-opacity="1" fill-rule="nonzero"/><path fill="#363e44" d="M 335.355469 288.445312 C 310.828125 305.640625 366.871094 322.535156 396.546875 326.617188 C 461 335.476562 484.761719 310.363281 485.167969 285.25 C 485.539062 262.292969 466.382812 239.335938 440.945312 242.332031 C 400.449219 247.109375 410.019531 219.621094 380.0625 219.621094 C 358.675781 219.621094 352.453125 224.917969 344.632812 245.945312 C 341.5 254.371094 357.476562 272.929688 335.355469 288.445312 " fill-opacity="1" fill-rule="nonzero"/><path fill="#e2a18d" d="M 333.03125 305.382812 C 333.03125 305.382812 307.351562 319.4375 283.800781 366.019531 C 259.625 413.839844 307.351562 407.304688 307.351562 407.304688 C 307.351562 407.304688 335.203125 367.5625 352.648438 356.066406 C 367.589844 346.21875 333.03125 305.382812 333.03125 305.382812 " fill-opacity="1" fill-rule="nonzero"/><path fill="#e2a18d" d="M 519.589844 380.496094 C 518.519531 377.820312 505.710938 324.734375 463.507812 305.382812 C 463.507812 305.382812 457.507812 350.589844 457.507812 352.195312 C 457.507812 353.800781 478.367188 386.4375 478.367188 386.4375 L 519.589844 380.496094 " fill-opacity="1" fill-rule="nonzero"/><path fill="#d87355" d="M 318.769531 310.886719 C 318.769531 310.886719 355.203125 285.316406 399.796875 287.867188 C 439.660156 290.148438 478.449219 307.042969 478.449219 307.042969 L 459.449219 355.339844 L 466.738281 407.304688 L 326.5 407.304688 L 335.167969 358.359375 L 318.769531 310.886719 " fill-opacity="1" fill-rule="nonzero"/><path fill="#e2a18d" d="M 362.738281 348.757812 C 368.15625 346.820312 389.394531 335.148438 398.730469 341.496094 C 408.136719 347.886719 411.640625 359.957031 411.164062 371.324219 C 411.128906 371.355469 411.09375 371.390625 411.058594 371.421875 C 409.621094 374.222656 407.035156 378.191406 402.515625 380.785156 C 397.363281 383.738281 394.632812 382.078125 388.710938 384.351562 C 378.714844 388.1875 376.742188 396.972656 373.347656 395.289062 C 371.015625 394.128906 371.941406 388.960938 374.015625 384.464844 C 376.140625 379.851562 379.457031 377.761719 378.964844 377.09375 C 378.421875 376.355469 375.328125 378.914062 371.183594 381.742188 C 369.261719 383.054688 366.195312 389.917969 362.777344 388.808594 C 360.050781 387.921875 361.449219 379.992188 366.128906 374.753906 C 369.441406 371.046875 374.222656 370.40625 373.925781 369.546875 C 373.703125 368.902344 370.863281 369.355469 368.53125 370.476562 C 364.6875 372.324219 361.476562 379.3125 358.351562 378.226562 C 355.289062 377.164062 356.632812 370.257812 360.632812 365.171875 C 364.003906 360.878906 369.371094 360.414062 369.007812 359.347656 C 368.75 358.597656 366.308594 358.304688 361.234375 359.242188 C 357 360.019531 349.273438 364.269531 347.792969 359.960938 C 346.546875 356.335938 354.5625 351.683594 362.738281 348.757812 " fill-opacity="1" fill-rule="nonzero"/><path fill="#e2a18d" d="M 513.707031 363.96875 C 513.707031 363.96875 533.234375 397.789062 501.132812 408.835938 C 469.035156 419.878906 400.839844 371.191406 400.839844 371.191406 L 393.40625 339.714844 C 434.625 339.679688 478.746094 347.726562 513.707031 363.96875 " fill-opacity="1" fill-rule="nonzero"/><path fill="#363e44" d="M 494.203125 356.535156 C 494.160156 356.535156 494.117188 356.527344 494.074219 356.515625 L 463.984375 347.921875 C 463.734375 347.851562 463.59375 347.589844 463.664062 347.34375 C 463.734375 347.09375 463.992188 346.949219 464.246094 347.019531 L 494.332031 355.613281 C 494.582031 355.6875 494.726562 355.945312 494.652344 356.195312 C 494.597656 356.402344 494.40625 356.535156 494.203125 356.535156 " fill-opacity="1" fill-rule="nonzero"/><path fill="#e2a18d" d="M 373.355469 254.832031 C 377.292969 252.660156 384.03125 246.855469 386.207031 250.789062 L 411.71875 291.589844 C 413.890625 295.527344 400.84375 294.15625 396.90625 296.328125 C 392.972656 298.503906 388.019531 297.078125 385.847656 293.140625 L 370.167969 265.898438 C 367.996094 261.964844 369.421875 257.007812 373.355469 254.832031 " fill-opacity="1" fill-rule="nonzero"/><path fill="#e2a18d" d="M 376.296875 294.742188 C 376.296875 298.398438 386.152344 301.367188 398.296875 301.367188 C 410.449219 301.367188 420.296875 298.398438 420.296875 294.742188 C 420.296875 291.082031 410.449219 288.117188 398.296875 288.117188 C 386.152344 288.117188 376.296875 291.082031 376.296875 294.742188 " fill-opacity="1" fill-rule="nonzero"/><path fill="#e2a18d" d="M 369.449219 284.066406 C 376.921875 284.550781 385.417969 265.472656 385.417969 265.472656 L 382.980469 242.722656 C 377.449219 233.753906 365.691406 230.96875 356.726562 236.503906 C 347.761719 242.035156 344.976562 253.789062 350.507812 262.757812 C 350.507812 262.757812 361.835938 283.574219 369.449219 284.066406 " fill-opacity="1" fill-rule="nonzero"/><path fill="#e2a18d" d="M 355.007812 265.875 C 355.007812 265.875 353.398438 273.457031 354.417969 274.566406 C 355.632812 275.894531 361.269531 273.679688 361.269531 273.679688 C 361.269531 273.679688 354.894531 265.960938 355.007812 265.875 " fill-opacity="1" fill-rule="nonzero"/><path fill="#ffffff" d="M 369.230469 256.140625 C 369.230469 256.140625 365.613281 256.355469 362.335938 258.378906 C 361.636719 258.808594 366.394531 263.574219 366.863281 262.851562 C 368.914062 259.664062 369.230469 256.140625 369.230469 256.140625 " fill-opacity="1" fill-rule="nonzero"/><g clip-path="url(#0c11527e82)"><g clip-path="url(#dc515dc154)"><path fill="#363e44" d="M 362.105469 258.320312 C 358.601562 257.488281 355.089844 259.65625 354.257812 263.160156 C 353.429688 266.667969 355.597656 270.179688 359.101562 271.011719 C 362.605469 271.839844 366.121094 269.671875 366.949219 266.167969 C 367.78125 262.664062 365.613281 259.148438 362.105469 258.320312 " fill-opacity="1" fill-rule="nonzero"/></g></g><path fill="#363e44" d="M 365.609375 274.882812 C 365.589844 274.882812 365.570312 274.882812 365.550781 274.882812 C 365.292969 274.875 365.085938 274.664062 365.089844 274.402344 C 365.09375 274.144531 365.3125 273.9375 365.570312 273.945312 C 366.445312 273.957031 367.242188 273.464844 367.613281 272.683594 C 367.96875 271.929688 367.863281 271.019531 367.339844 270.363281 C 367.179688 270.160156 367.210938 269.867188 367.417969 269.703125 C 367.617188 269.542969 367.914062 269.578125 368.074219 269.78125 C 368.816406 270.714844 368.96875 272.011719 368.460938 273.085938 C 367.941406 274.183594 366.824219 274.882812 365.609375 274.882812 " fill-opacity="1" fill-rule="nonzero"/><path fill="#363e44" d="M 374.992188 282.367188 C 374.863281 282.367188 374.734375 282.316406 374.644531 282.210938 C 374.46875 282.019531 374.488281 281.722656 374.679688 281.550781 C 380.199219 276.621094 385.113281 265.671875 385.164062 265.5625 C 385.269531 265.328125 385.546875 265.222656 385.78125 265.324219 C 386.019531 265.433594 386.125 265.707031 386.019531 265.945312 C 385.816406 266.402344 380.972656 277.183594 375.304688 282.25 C 375.214844 282.328125 375.101562 282.367188 374.992188 282.367188 " fill-opacity="1" fill-rule="nonzero"/><path fill="#363e44" d="M 411.207031 284.078125 C 411.207031 284.078125 405.710938 266.339844 393.40625 258.867188 C 381.101562 251.394531 377.816406 253.761719 372.976562 247.953125 C 369.003906 243.179688 364.058594 244.386719 359.246094 251.070312 C 354.429688 257.761719 345.066406 259.535156 340.519531 253.796875 C 337.703125 250.238281 336.507812 236.054688 354.078125 236.054688 C 361.675781 236.054688 370.417969 215.421875 390.554688 233.660156 C 405.738281 247.40625 411.207031 284.078125 411.207031 284.078125 " fill-opacity="1" fill-rule="nonzero"/><path fill="#e2a18d" d="M 376.300781 252.636719 C 376.300781 257.03125 379.863281 260.589844 384.253906 260.589844 C 388.648438 260.589844 392.207031 257.03125 392.207031 252.636719 C 392.207031 248.242188 388.648438 244.683594 384.253906 244.683594 C 379.863281 244.683594 376.300781 248.242188 376.300781 252.636719 " fill-opacity="1" fill-rule="nonzero"/><path fill="#40484c" d="M 443.972656 285.003906 C 440.550781 285.003906 436.84375 284.113281 432.882812 282.328125 C 423.5625 278.128906 418.617188 272.113281 414.253906 266.808594 C 409 260.414062 404.859375 255.367188 395.101562 255.570312 C 394.839844 255.582031 394.628906 255.371094 394.621094 255.113281 C 394.617188 254.855469 394.820312 254.640625 395.082031 254.636719 C 405.285156 254.414062 409.777344 259.882812 414.980469 266.210938 C 419.277344 271.4375 424.144531 277.363281 433.265625 281.472656 C 439.710938 284.375 445.433594 284.84375 450.265625 282.867188 C 457.066406 280.082031 459.769531 273.300781 459.796875 273.230469 C 459.890625 272.988281 460.164062 272.871094 460.402344 272.964844 C 460.640625 273.058594 460.765625 273.328125 460.671875 273.570312 C 460.558594 273.863281 457.808594 280.785156 450.632812 283.730469 C 448.554688 284.578125 446.332031 285.003906 443.972656 285.003906 " fill-opacity="1" fill-rule="nonzero"/><path fill="#f9f3ee" d="M 334.488281 412.371094 L 298.976562 407.605469 L 298.90625 407.511719 C 299.980469 407.578125 301 407.605469 301.9375 407.605469 C 305.152344 407.605469 307.351562 407.304688 307.351562 407.304688 C 307.351562 407.304688 319.097656 390.542969 332.109375 375.644531 L 326.503906 407.304688 L 335.40625 407.304688 L 334.488281 412.371094 M 278.140625 380.414062 L 256.191406 351.765625 L 320.828125 297.296875 L 329.304688 297.296875 C 329.328125 299.335938 330.273438 301.335938 331.949219 303.28125 C 323.621094 307.480469 318.769531 310.886719 318.769531 310.886719 L 320.292969 315.296875 C 310.660156 324.257812 296.902344 340.109375 283.800781 366.019531 C 281.03125 371.5 279.203125 376.269531 278.140625 380.414062 " fill-opacity="1" fill-rule="nonzero"/><path fill="#f3e8df" d="M 329.304688 297.296875 L 320.828125 297.296875 L 328.761719 290.609375 L 332.679688 290.609375 C 330.324219 292.859375 329.277344 295.097656 329.304688 297.296875 M 333.738281 289.671875 L 329.875 289.671875 L 339.414062 281.632812 L 342.679688 281.632812 C 340.90625 283.941406 338.519531 286.222656 335.351562 288.445312 C 334.769531 288.855469 334.234375 289.261719 333.738281 289.671875 M 343.367188 280.695312 L 340.527344 280.695312 L 345.761719 276.28125 C 345.171875 277.753906 344.386719 279.226562 343.367188 280.695312 " fill-opacity="1" fill-rule="nonzero"/><path fill="#f9f3ee" d="M 332.679688 290.609375 L 328.761719 290.609375 L 329.875 289.671875 L 333.738281 289.671875 C 333.363281 289.984375 333.007812 290.296875 332.679688 290.609375 M 342.679688 281.632812 L 339.414062 281.632812 L 340.527344 280.695312 L 343.367188 280.695312 C 343.148438 281.007812 342.921875 281.320312 342.679688 281.632812 " fill-opacity="1" fill-rule="nonzero"/><path fill="#9b9fa2" d="M 331.949219 303.28125 C 330.273438 301.335938 329.328125 299.335938 329.304688 297.296875 C 329.277344 295.097656 330.324219 292.859375 332.679688 290.609375 C 333.007812 290.296875 333.363281 289.984375 333.738281 289.671875 C 334.234375 289.261719 334.769531 288.855469 335.351562 288.445312 C 338.519531 286.222656 340.90625 283.941406 342.679688 281.632812 C 342.921875 281.320312 343.148438 281.007812 343.367188 280.695312 C 344.386719 279.226562 345.171875 277.753906 345.761719 276.28125 L 354.304688 269.082031 C 354.339844 269.132812 354.375 269.1875 354.410156 269.242188 C 354.089844 271.417969 353.859375 273.960938 354.417969 274.566406 C 354.695312 274.871094 355.214844 274.988281 355.839844 274.988281 C 356.535156 274.988281 357.367188 274.84375 358.171875 274.652344 C 358.519531 275.117188 358.875 275.574219 359.234375 276.027344 L 356.050781 293.5625 C 346.441406 296.515625 338.210938 300.121094 331.949219 303.28125 " fill-opacity="1" fill-rule="nonzero"/><path fill="#f1d0c6" d="M 301.9375 407.605469 C 301 407.605469 299.980469 407.578125 298.90625 407.511719 L 278.140625 380.414062 C 279.203125 376.269531 281.03125 371.5 283.800781 366.019531 C 296.902344 340.109375 310.660156 324.257812 320.292969 315.296875 L 335.167969 358.359375 L 332.109375 375.644531 C 319.097656 390.542969 307.351562 407.304688 307.351562 407.304688 C 307.351562 407.304688 305.152344 407.605469 301.9375 407.605469 " fill-opacity="1" fill-rule="nonzero"/><path fill="#ecb9aa" d="M 335.40625 407.304688 L 326.503906 407.304688 L 332.109375 375.644531 L 335.167969 358.359375 L 320.292969 315.296875 L 318.769531 310.886719 C 318.769531 310.886719 323.621094 307.480469 331.949219 303.28125 C 338.210938 300.121094 346.441406 296.515625 356.050781 293.5625 L 335.40625 407.304688 " fill-opacity="1" fill-rule="nonzero"/><path fill="#f1d0c6" d="M 359.234375 276.027344 C 358.875 275.574219 358.519531 275.117188 358.171875 274.652344 C 358.65625 274.535156 359.125 274.402344 359.550781 274.273438 L 359.234375 276.027344 M 359.949219 272.074219 C 359.128906 271.078125 358.0625 269.773438 357.125 268.613281 C 357.949219 268.492188 359.285156 268.222656 360.75 267.660156 L 359.949219 272.074219 M 354.410156 269.242188 C 354.375 269.1875 354.339844 269.132812 354.304688 269.082031 L 354.453125 268.957031 C 354.4375 269.050781 354.425781 269.144531 354.410156 269.242188 M 356.417969 267.734375 C 356.347656 267.644531 356.277344 267.558594 356.210938 267.472656 L 356.527344 267.207031 C 356.484375 267.398438 356.449219 267.578125 356.417969 267.734375 " fill-opacity="1" fill-rule="nonzero"/><path fill="#f1d0c6" d="M 355.839844 274.988281 C 355.214844 274.988281 354.695312 274.871094 354.417969 274.566406 C 353.859375 273.960938 354.089844 271.417969 354.410156 269.242188 C 354.425781 269.144531 354.4375 269.050781 354.453125 268.957031 L 356.210938 267.472656 C 356.277344 267.558594 356.347656 267.644531 356.417969 267.734375 C 356.304688 268.34375 356.273438 268.714844 356.273438 268.714844 C 356.273438 268.714844 356.589844 268.695312 357.125 268.613281 C 358.0625 269.773438 359.128906 271.078125 359.949219 272.074219 L 359.550781 274.273438 C 359.125 274.402344 358.65625 274.535156 358.171875 274.652344 C 357.367188 274.84375 356.535156 274.988281 355.839844 274.988281 " fill-opacity="1" fill-rule="nonzero"/><path fill="#9b9fa2" d="M 356.273438 268.714844 C 356.273438 268.714844 356.304688 268.34375 356.417969 267.734375 C 356.449219 267.578125 356.484375 267.398438 356.527344 267.207031 L 357.949219 266.011719 C 358.289062 265.726562 358.675781 265.597656 359.050781 265.597656 C 360.042969 265.597656 360.964844 266.480469 360.757812 267.632812 L 360.75 267.660156 C 359.285156 268.222656 357.949219 268.492188 357.125 268.613281 C 356.589844 268.695312 356.273438 268.714844 356.273438 268.714844 " fill-opacity="1" fill-rule="nonzero"/><path fill="#363e44" d="M 225.550781 407.191406 C 227.730469 411.859375 232.421875 414.84375 237.574219 414.84375 L 320.308594 414.84375 L 283.257812 335.640625 L 192.074219 335.640625 L 225.550781 407.191406 " fill-opacity="1" fill-rule="nonzero"/><path fill="#363e44" d="M 374.621094 406.890625 C 374.621094 411.304688 371.046875 414.878906 366.632812 414.878906 L 290.339844 414.878906 L 286.601562 406.890625 L 374.621094 406.890625 " fill-opacity="1" fill-rule="nonzero"/><path fill="#40484c" d="M 245.292969 371.0625 C 245.292969 374.070312 247.734375 376.511719 250.742188 376.511719 C 253.753906 376.511719 256.191406 374.070312 256.191406 371.0625 C 256.191406 368.050781 253.753906 365.613281 250.742188 365.613281 C 247.734375 365.613281 245.292969 368.050781 245.292969 371.0625 " fill-opacity="1" fill-rule="nonzero"/><path fill="#f7f1eb" d="M 447.824219 73.640625 C 432.335938 73.640625 419.734375 86.238281 419.734375 101.726562 C 419.734375 117.214844 432.335938 129.816406 447.824219 129.816406 C 463.3125 129.816406 475.914062 117.214844 475.914062 101.726562 C 475.914062 86.238281 463.3125 73.640625 447.824219 73.640625 Z M 447.824219 130.75 C 431.816406 130.75 418.796875 117.730469 418.796875 101.726562 C 418.796875 85.722656 431.816406 72.703125 447.824219 72.703125 C 463.828125 72.703125 476.851562 85.722656 476.851562 101.726562 C 476.851562 117.730469 463.828125 130.75 447.824219 130.75 " fill-opacity="1" fill-rule="nonzero"/><path fill="#ffffff" d="M 447.824219 101.90625 C 438.742188 101.90625 432.84375 105.382812 432.84375 110.957031 C 435.675781 116.335938 441.320312 120.007812 447.824219 120.007812 C 454.328125 120.007812 459.972656 116.335938 462.804688 110.957031 C 462.804688 105.675781 456.320312 101.90625 447.824219 101.90625 " fill-opacity="1" fill-rule="nonzero"/><path fill="#ffffff" d="M 455.550781 89.84375 C 455.550781 94.109375 452.089844 97.570312 447.824219 97.570312 C 443.554688 97.570312 440.097656 94.109375 440.097656 89.84375 C 440.097656 85.578125 443.554688 82.121094 447.824219 82.121094 C 452.089844 82.121094 455.550781 85.578125 455.550781 89.84375 " fill-opacity="1" fill-rule="nonzero"/><path fill="#f2e6dc" d="M 441.707031 63.605469 C 420.683594 67.070312 406.402344 86.996094 409.871094 108.015625 C 413.335938 129.035156 433.257812 143.316406 454.28125 139.851562 C 475.304688 136.386719 489.585938 116.460938 486.121094 95.441406 C 482.652344 74.421875 462.726562 60.140625 441.707031 63.605469 Z M 457.179688 157.441406 C 442.300781 159.898438 427.351562 156.410156 415.09375 147.621094 C 402.828125 138.835938 394.730469 125.796875 392.273438 110.914062 C 389.816406 96.035156 393.308594 81.085938 402.097656 68.828125 C 410.882812 56.570312 423.921875 48.464844 438.804688 46.015625 C 453.6875 43.558594 468.640625 47.046875 480.898438 55.835938 C 493.15625 64.621094 501.261719 77.660156 503.714844 92.539062 C 506.167969 107.421875 502.679688 122.371094 493.890625 134.628906 C 485.101562 146.886719 472.0625 154.992188 457.179688 157.441406 " fill-opacity="1" fill-rule="nonzero"/><path fill="#ffffff" d="M 441.347656 61.40625 C 419.109375 65.070312 404.003906 86.144531 407.671875 108.375 C 411.339844 130.609375 432.410156 145.714844 454.644531 142.046875 C 476.882812 138.382812 491.988281 117.308594 488.324219 95.074219 C 484.65625 72.84375 463.582031 57.738281 441.347656 61.40625 Z M 456.820312 155.242188 C 442.523438 157.601562 428.164062 154.25 416.394531 145.808594 C 404.617188 137.367188 396.832031 124.84375 394.472656 110.550781 C 392.117188 96.257812 395.464844 81.898438 403.910156 70.125 C 412.351562 58.347656 424.875 50.566406 439.171875 48.210938 C 453.46875 45.851562 467.828125 49.203125 479.597656 57.644531 C 491.378906 66.085938 499.160156 78.605469 501.519531 92.902344 C 503.875 107.195312 500.527344 121.554688 492.082031 133.328125 C 483.640625 145.105469 471.117188 152.886719 456.820312 155.242188 " fill-opacity="1" fill-rule="nonzero"/><path fill="#8b865c" d="M 451.871094 61.042969 C 468.84375 62.664062 483.464844 74.878906 487.664062 91.910156 L 500.890625 89.730469 C 497.96875 76.761719 490.496094 65.457031 479.597656 57.648438 C 471.382812 51.757812 461.914062 48.351562 452.082031 47.625 L 451.871094 61.042969 " fill-opacity="1" fill-rule="nonzero"/><path fill="#d87355" d="M 488.71875 98.289062 C 490.507812 119.304688 475.808594 138.5625 454.644531 142.050781 C 443.535156 143.882812 432.710938 141.027344 424.210938 134.9375 L 415.554688 145.195312 C 415.832031 145.402344 416.109375 145.609375 416.390625 145.808594 C 428.164062 154.25 442.523438 157.601562 456.820312 155.242188 C 471.113281 152.886719 483.640625 145.105469 492.082031 133.332031 C 499.894531 122.433594 503.339844 109.328125 501.945312 96.109375 L 488.71875 98.289062 " fill-opacity="1" fill-rule="nonzero"/><path fill="#efbc73" d="M 421.476562 70.644531 C 426.949219 65.960938 433.730469 62.664062 441.34375 61.40625 C 442.703125 61.183594 444.058594 61.03125 445.40625 60.945312 L 445.621094 47.535156 C 443.472656 47.632812 441.316406 47.855469 439.167969 48.210938 C 428.90625 49.902344 419.558594 54.390625 411.976562 61.144531 L 421.476562 70.644531 " fill-opacity="1" fill-rule="nonzero"/><path fill="#f7f1eb" d="M 403.910156 70.125 C 395.464844 81.902344 392.117188 96.257812 394.472656 110.550781 C 396.417969 122.355469 402.070312 132.949219 410.609375 141.035156 L 419.265625 130.769531 C 413.335938 124.917969 409.125 117.210938 407.671875 108.378906 C 405.636719 96.042969 409.382812 84.066406 416.914062 75.222656 L 407.417969 65.722656 C 406.183594 67.125 405.011719 68.589844 403.910156 70.125 " fill-opacity="1" fill-rule="nonzero"/><path fill="#d87355" d="M 527.816406 178.335938 L 440.21875 178.335938 L 440.21875 172.515625 L 527.816406 172.515625 L 527.816406 178.335938 " fill-opacity="1" fill-rule="nonzero"/><path fill="#8b865c" d="M 527.816406 190.921875 L 440.21875 190.921875 L 440.21875 185.101562 L 527.816406 185.101562 L 527.816406 190.921875 " fill-opacity="1" fill-rule="nonzero"/><path fill="#efbc73" d="M 527.816406 203.515625 L 440.21875 203.515625 L 440.21875 197.695312 L 527.816406 197.695312 L 527.816406 203.515625 " fill-opacity="1" fill-rule="nonzero"/><path fill="#f7f1eb" d="M 527.816406 215.636719 L 440.21875 215.636719 L 440.21875 209.8125 L 527.816406 209.8125 L 527.816406 215.636719 " fill-opacity="1" fill-rule="nonzero"/><path fill="#363e44" d="M 429.402344 175.425781 C 429.402344 173.816406 428.09375 172.511719 426.488281 172.511719 C 424.882812 172.511719 423.578125 173.816406 423.578125 175.425781 C 423.578125 177.03125 424.882812 178.335938 426.488281 178.335938 C 428.09375 178.335938 429.402344 177.03125 429.402344 175.425781 " fill-opacity="1" fill-rule="nonzero"/><path fill="#363e44" d="M 429.402344 187.304688 C 429.402344 185.699219 428.09375 184.394531 426.488281 184.394531 C 424.882812 184.394531 423.578125 185.699219 423.578125 187.304688 C 423.578125 188.914062 424.882812 190.214844 426.488281 190.214844 C 428.09375 190.214844 429.402344 188.914062 429.402344 187.304688 " fill-opacity="1" fill-rule="nonzero"/><path fill="#363e44" d="M 426.488281 203.515625 C 428.09375 203.515625 429.402344 202.210938 429.402344 200.605469 C 429.402344 198.996094 428.09375 197.691406 426.488281 197.691406 C 424.882812 197.691406 423.578125 198.996094 423.578125 200.605469 C 423.578125 202.210938 424.882812 203.515625 426.488281 203.515625 " fill-opacity="1" fill-rule="nonzero"/><path fill="#363e44" d="M 429.402344 212.722656 C 429.402344 211.117188 428.09375 209.8125 426.488281 209.8125 C 424.882812 209.8125 423.578125 211.117188 423.578125 212.722656 C 423.578125 214.332031 424.882812 215.632812 426.488281 215.632812 C 428.09375 215.632812 429.402344 214.332031 429.402344 212.722656 " fill-opacity="1" fill-rule="nonzero"/></svg>