<svg xmlns="http://www.w3.org/2000/svg" xmlns:xlink="http://www.w3.org/1999/xlink" width="900" zoomAndPan="magnify" viewBox="0 0 675 449.999984" height="600" preserveAspectRatio="xMidYMid meet" version="1.0"><defs><clipPath id="0135ae0673"><path d="M 126.769531 14.269531 L 548.269531 14.269531 L 548.269531 435.769531 L 126.769531 435.769531 Z M 126.769531 14.269531 " clip-rule="nonzero"/></clipPath></defs><rect x="-67.5" width="810" fill="#ffffff" y="-44.999998" height="539.99998" fill-opacity="1"/><rect x="-67.5" width="810" fill="#edf2f4" y="-44.999998" height="539.99998" fill-opacity="1"/><g clip-path="url(#0135ae0673)"><path fill="#f2e6dc" d="M 548.269531 225.019531 C 548.269531 341.414062 453.914062 435.769531 337.519531 435.769531 C 221.125 435.769531 126.769531 341.414062 126.769531 225.019531 C 126.769531 108.625 221.125 14.269531 337.519531 14.269531 C 453.914062 14.269531 548.269531 108.625 548.269531 225.019531 " fill-opacity="1" fill-rule="nonzero"/></g><path fill="#e6d0be" d="M 419.390625 311.769531 L 160.273438 311.769531 C 160.148438 311.769531 160.042969 311.667969 160.042969 311.539062 L 160.042969 141.496094 C 160.042969 141.367188 160.148438 141.265625 160.273438 141.265625 C 160.402344 141.265625 160.503906 141.367188 160.503906 141.496094 L 160.503906 311.308594 L 419.390625 311.308594 C 419.519531 311.308594 419.621094 311.414062 419.621094 311.539062 C 419.621094 311.667969 419.519531 311.769531 419.390625 311.769531 " fill-opacity="1" fill-rule="nonzero"/><path fill="#e6d0be" d="M 386.195312 284.746094 L 352.976562 284.746094 L 352.976562 252.277344 L 386.195312 252.277344 L 386.195312 284.746094 " fill-opacity="1" fill-rule="nonzero"/><path fill="#e6d0be" d="M 331.371094 284.746094 L 298.148438 284.746094 L 298.148438 226.515625 L 331.371094 226.515625 L 331.371094 284.746094 " fill-opacity="1" fill-rule="nonzero"/><path fill="#e6d0be" d="M 276.546875 284.746094 L 243.324219 284.746094 L 243.324219 193.289062 L 276.546875 193.289062 L 276.546875 284.746094 " fill-opacity="1" fill-rule="nonzero"/><path fill="#e6d0be" d="M 221.71875 164.210938 L 221.71875 284.746094 L 188.496094 284.746094 L 188.496094 164.210938 L 221.71875 164.210938 " fill-opacity="1" fill-rule="nonzero"/><path fill="#d3bba3" d="M 436.3125 113.46875 L 136.84375 113.46875 L 136.84375 132.347656 L 436.3125 132.347656 L 436.3125 113.46875 " fill-opacity="1" fill-rule="nonzero"/><path fill="#d3bba3" d="M 137.074219 325.941406 L 436.085938 325.941406 L 436.085938 113.699219 L 137.074219 113.699219 Z M 436.316406 326.402344 L 136.84375 326.402344 C 136.71875 326.402344 136.613281 326.300781 136.613281 326.171875 L 136.613281 113.46875 C 136.613281 113.339844 136.71875 113.238281 136.84375 113.238281 L 436.316406 113.238281 C 436.441406 113.238281 436.546875 113.339844 436.546875 113.46875 L 436.546875 326.171875 C 436.546875 326.300781 436.441406 326.402344 436.316406 326.402344 " fill-opacity="1" fill-rule="nonzero"/><path fill="#ffffff" d="M 153.6875 123.039062 C 153.6875 125.410156 151.765625 127.332031 149.394531 127.332031 C 147.023438 127.332031 145.101562 125.410156 145.101562 123.039062 C 145.101562 120.667969 147.023438 118.746094 149.394531 118.746094 C 151.765625 118.746094 153.6875 120.667969 153.6875 123.039062 " fill-opacity="1" fill-rule="nonzero"/><path fill="#ffffff" d="M 167.558594 123.039062 C 167.558594 125.410156 165.636719 127.332031 163.265625 127.332031 C 160.894531 127.332031 158.972656 125.410156 158.972656 123.039062 C 158.972656 120.667969 160.894531 118.746094 163.265625 118.746094 C 165.636719 118.746094 167.558594 120.667969 167.558594 123.039062 " fill-opacity="1" fill-rule="nonzero"/><path fill="#ffffff" d="M 181.429688 123.039062 C 181.429688 125.410156 179.507812 127.332031 177.136719 127.332031 C 174.765625 127.332031 172.84375 125.410156 172.84375 123.039062 C 172.84375 120.667969 174.765625 118.746094 177.136719 118.746094 C 179.507812 118.746094 181.429688 120.667969 181.429688 123.039062 " fill-opacity="1" fill-rule="nonzero"/><path fill="#d87355" d="M 376.179688 141.597656 L 354.277344 214.5625 L 290.675781 172.621094 L 308.128906 166.289062 C 303.640625 150.957031 294.636719 129.515625 276.109375 109.65625 C 238.839844 69.710938 190.492188 65.582031 179.113281 64.910156 C 187.492188 62.179688 246.015625 44.199219 301.742188 79.148438 C 335.316406 100.195312 351.445312 130.148438 358.644531 147.960938 L 376.179688 141.597656 " fill-opacity="1" fill-rule="nonzero"/><path fill="#776e42" d="M 530.101562 170.148438 L 419.164062 131.167969 L 423.480469 101.976562 L 534.417969 140.957031 L 530.101562 170.148438 " fill-opacity="1" fill-rule="nonzero"/><path fill="#efbc73" d="M 521.507812 160.105469 L 428.316406 127.359375 L 430.707031 111.183594 L 523.898438 143.929688 L 521.507812 160.105469 " fill-opacity="1" fill-rule="nonzero"/><path fill="#8b865c" d="M 498.484375 260.132812 L 387.546875 221.152344 L 419.203125 131.046875 L 530.144531 170.027344 L 498.484375 260.132812 " fill-opacity="1" fill-rule="nonzero"/><path fill="#efbc73" d="M 479.898438 246.898438 L 493.933594 251.828125 L 498.867188 237.792969 L 484.828125 232.859375 L 479.898438 246.898438 " fill-opacity="1" fill-rule="nonzero"/><path fill="#efbc73" d="M 487.464844 225.355469 L 501.503906 230.289062 L 506.433594 216.25 L 492.398438 211.320312 L 487.464844 225.355469 " fill-opacity="1" fill-rule="nonzero"/><path fill="#ffffff" d="M 495.03125 203.820312 L 509.066406 208.75 L 514 194.714844 L 499.960938 189.78125 L 495.03125 203.820312 " fill-opacity="1" fill-rule="nonzero"/><path fill="#ffffff" d="M 502.601562 182.277344 L 516.636719 187.207031 L 521.570312 173.175781 L 507.535156 168.242188 L 502.601562 182.277344 " fill-opacity="1" fill-rule="nonzero"/><path fill="#ffffff" d="M 458.921875 239.53125 L 472.957031 244.460938 L 477.890625 230.425781 L 463.855469 225.496094 L 458.921875 239.53125 " fill-opacity="1" fill-rule="nonzero"/><path fill="#ffffff" d="M 466.492188 217.988281 L 480.527344 222.917969 L 485.460938 208.886719 L 471.421875 203.957031 L 466.492188 217.988281 " fill-opacity="1" fill-rule="nonzero"/><path fill="#ffffff" d="M 474.0625 196.449219 L 488.09375 201.378906 L 493.027344 187.34375 L 478.992188 182.410156 L 474.0625 196.449219 " fill-opacity="1" fill-rule="nonzero"/><path fill="#ffffff" d="M 481.628906 174.90625 L 495.664062 179.839844 L 500.597656 165.800781 L 486.5625 160.871094 L 481.628906 174.90625 " fill-opacity="1" fill-rule="nonzero"/><path fill="#ffffff" d="M 437.949219 232.160156 L 451.988281 237.089844 L 456.917969 223.054688 L 442.882812 218.125 L 437.949219 232.160156 " fill-opacity="1" fill-rule="nonzero"/><path fill="#ffffff" d="M 445.519531 210.617188 L 459.558594 215.550781 L 464.488281 201.515625 L 450.449219 196.582031 L 445.519531 210.617188 " fill-opacity="1" fill-rule="nonzero"/><path fill="#ffffff" d="M 453.082031 189.078125 L 467.121094 194.011719 L 472.050781 179.972656 L 458.015625 175.046875 L 453.082031 189.078125 " fill-opacity="1" fill-rule="nonzero"/><path fill="#ffffff" d="M 460.652344 167.539062 L 474.691406 172.46875 L 479.621094 158.433594 L 465.582031 153.503906 L 460.652344 167.539062 " fill-opacity="1" fill-rule="nonzero"/><path fill="#ffffff" d="M 416.976562 224.789062 L 431.011719 229.722656 L 435.945312 215.6875 L 421.90625 210.753906 L 416.976562 224.789062 " fill-opacity="1" fill-rule="nonzero"/><path fill="#ffffff" d="M 424.542969 203.25 L 438.578125 208.179688 L 443.511719 194.148438 L 429.476562 189.210938 L 424.542969 203.25 " fill-opacity="1" fill-rule="nonzero"/><path fill="#ffffff" d="M 432.113281 181.707031 L 446.148438 186.640625 L 451.082031 172.601562 L 437.042969 167.671875 L 432.113281 181.707031 " fill-opacity="1" fill-rule="nonzero"/><path fill="#efbc73" d="M 439.683594 160.167969 L 453.71875 165.097656 L 458.648438 151.0625 L 444.613281 146.132812 L 439.683594 160.167969 " fill-opacity="1" fill-rule="nonzero"/><path fill="#ffffff" d="M 396.003906 217.421875 L 410.035156 222.351562 L 422.210938 187.710938 L 408.171875 182.78125 L 396.003906 217.421875 " fill-opacity="1" fill-rule="nonzero"/><path fill="#ffffff" d="M 411.140625 174.339844 L 425.171875 179.269531 L 430.105469 165.234375 L 416.070312 160.304688 L 411.140625 174.339844 " fill-opacity="1" fill-rule="nonzero"/><path fill="#efbc73" d="M 418.707031 152.800781 L 432.742188 157.730469 L 437.671875 143.695312 L 423.636719 138.765625 L 418.707031 152.800781 " fill-opacity="1" fill-rule="nonzero"/><path fill="#e0aa63" d="M 458.273438 96.402344 C 454.507812 100.132812 441.90625 93.515625 430.125 81.625 C 418.339844 69.730469 411.84375 57.066406 415.609375 53.335938 C 419.375 49.605469 431.980469 56.222656 443.761719 68.117188 C 455.542969 80.007812 462.042969 92.675781 458.273438 96.402344 " fill-opacity="1" fill-rule="nonzero"/><path fill="#e0aa63" d="M 458.039062 96.636719 L 415.375 53.570312 L 422.402344 46.609375 L 465.0625 89.675781 L 458.039062 96.636719 " fill-opacity="1" fill-rule="nonzero"/><path fill="#efbc73" d="M 464.933594 89.808594 C 461.167969 93.539062 448.5625 86.921875 436.785156 75.027344 C 425 63.136719 418.503906 50.46875 422.269531 46.738281 C 426.035156 43.007812 438.640625 49.625 450.417969 61.519531 C 462.203125 73.414062 468.699219 86.078125 464.933594 89.808594 " fill-opacity="1" fill-rule="nonzero"/><path fill="#ffffff" d="M 427.796875 48.480469 C 426.5625 48.480469 425.597656 48.796875 424.945312 49.441406 C 423.222656 51.144531 423.761719 55.085938 426.414062 60.253906 C 429.144531 65.578125 433.777344 71.667969 439.457031 77.402344 C 445.140625 83.140625 451.183594 87.828125 456.484375 90.613281 C 461.628906 93.3125 465.566406 93.882812 467.285156 92.183594 C 469.003906 90.480469 468.46875 86.539062 465.8125 81.367188 C 463.082031 76.042969 458.453125 69.953125 452.769531 64.21875 C 447.085938 58.484375 441.039062 53.792969 435.746094 51.011719 C 432.550781 49.332031 429.816406 48.480469 427.796875 48.480469 Z M 464.425781 93.613281 C 462.328125 93.613281 459.554688 92.742188 456.273438 91.015625 C 450.933594 88.21875 444.847656 83.496094 439.132812 77.730469 C 433.417969 71.960938 428.753906 65.828125 426.003906 60.464844 C 423.210938 55.027344 422.722656 50.996094 424.621094 49.113281 C 426.519531 47.234375 430.546875 47.761719 435.960938 50.605469 C 441.296875 53.40625 447.378906 58.128906 453.097656 63.894531 C 458.8125 69.664062 463.472656 75.792969 466.226562 81.15625 C 469.015625 86.597656 469.507812 90.628906 467.609375 92.507812 C 466.859375 93.25 465.785156 93.613281 464.425781 93.613281 " fill-opacity="1" fill-rule="nonzero"/><path fill="#e0aa63" d="M 520.628906 48.273438 C 520.945312 53.566406 507.648438 58.65625 490.9375 59.648438 C 474.226562 60.636719 460.425781 57.152344 460.113281 51.859375 C 459.796875 46.566406 473.09375 41.476562 489.800781 40.484375 C 506.511719 39.496094 520.3125 42.980469 520.628906 48.273438 " fill-opacity="1" fill-rule="nonzero"/><path fill="#e0aa63" d="M 520.648438 48.601562 L 460.128906 52.1875 L 459.546875 42.316406 L 520.0625 38.730469 L 520.648438 48.601562 " fill-opacity="1" fill-rule="nonzero"/><path fill="#efbc73" d="M 520.074219 38.917969 C 520.386719 44.207031 507.09375 49.304688 490.382812 50.292969 C 473.671875 51.28125 459.867188 47.796875 459.558594 42.503906 C 459.242188 37.210938 472.535156 32.121094 489.246094 31.128906 C 505.957031 30.140625 519.757812 33.625 520.074219 38.917969 " fill-opacity="1" fill-rule="nonzero"/><path fill="#ffffff" d="M 498.453125 30.976562 C 496.617188 30.976562 494.734375 31.03125 492.828125 31.144531 C 484.765625 31.625 477.25 33.066406 471.664062 35.207031 C 466.242188 37.285156 463.207031 39.859375 463.351562 42.277344 C 463.496094 44.691406 466.808594 46.894531 472.441406 48.316406 C 478.242188 49.78125 485.875 50.328125 493.933594 49.851562 C 501.996094 49.371094 509.507812 47.929688 515.09375 45.789062 C 520.519531 43.710938 523.550781 41.136719 523.410156 38.71875 C 523.265625 36.304688 519.953125 34.101562 514.316406 32.679688 C 509.890625 31.558594 504.394531 30.976562 498.453125 30.976562 Z M 488.308594 50.480469 C 482.332031 50.480469 476.792969 49.890625 472.328125 48.765625 C 466.402344 47.269531 463.050781 44.972656 462.894531 42.304688 C 462.734375 39.636719 465.792969 36.960938 471.5 34.777344 C 477.128906 32.621094 484.695312 31.167969 492.800781 30.6875 C 500.90625 30.207031 508.585938 30.753906 514.429688 32.234375 C 520.359375 33.730469 523.710938 36.023438 523.867188 38.691406 C 524.023438 41.359375 520.96875 44.035156 515.257812 46.21875 C 509.632812 48.375 502.066406 49.828125 493.964844 50.308594 C 492.046875 50.421875 490.15625 50.480469 488.308594 50.480469 " fill-opacity="1" fill-rule="nonzero"/><path fill="#ffffff" d="M 468.761719 315.082031 C 468.761719 315.082031 544.839844 345.007812 538.277344 375.019531 C 532.363281 402.035156 459.578125 370.050781 459.578125 370.050781 L 468.761719 315.082031 " fill-opacity="1" fill-rule="nonzero"/><path fill="#363e44" d="M 518.953125 386.089844 C 516.878906 386.089844 514.648438 385.964844 512.265625 385.714844 C 505.46875 385.015625 497.417969 383.308594 488.335938 380.648438 C 472.882812 376.121094 459.617188 370.320312 459.484375 370.261719 C 459.367188 370.210938 459.316406 370.074219 459.367188 369.957031 C 459.417969 369.84375 459.554688 369.789062 459.667969 369.839844 C 459.800781 369.898438 473.046875 375.691406 488.472656 380.207031 C 508.847656 386.175781 523.757812 387.21875 531.597656 383.230469 C 535.070312 381.464844 537.242188 378.683594 538.050781 374.96875 C 540.191406 365.191406 533.734375 354.367188 518.863281 342.804688 C 506.542969 333.21875 491.105469 325.214844 480.328125 320.191406 C 480.214844 320.136719 480.164062 320 480.214844 319.882812 C 480.269531 319.769531 480.40625 319.71875 480.519531 319.773438 C 491.320312 324.808594 506.792969 332.828125 519.148438 342.441406 C 534.171875 354.125 540.679688 365.101562 538.503906 375.066406 C 537.65625 378.925781 535.402344 381.808594 531.804688 383.640625 C 528.605469 385.269531 524.296875 386.089844 518.953125 386.089844 " fill-opacity="1" fill-rule="nonzero"/><path fill="#ffffff" d="M 469.332031 315.128906 C 469.332031 315.128906 436.558594 304.761719 408.667969 311.183594 C 380.789062 317.605469 361.453125 327.832031 361.453125 327.832031 L 374.371094 362.203125 L 377.5625 427.179688 L 473.167969 393.753906 L 466.027344 365.605469 L 469.332031 315.128906 " fill-opacity="1" fill-rule="nonzero"/><path fill="#e2a18d" d="M 339.078125 379.5625 C 352.496094 381.164062 384.289062 383.367188 387.386719 383.707031 C 393.167969 384.339844 429.144531 388.152344 428.84375 393.046875 C 428.671875 395.917969 417.945312 394.703125 415.921875 394.460938 C 417.460938 395.460938 427.582031 400.484375 426.972656 402.835938 C 425.929688 406.878906 414.160156 401.066406 414.003906 401.101562 C 415.667969 401.960938 424.890625 405.519531 424.550781 407.3125 C 423.824219 411.144531 414.222656 408.132812 412.089844 407.722656 C 412.253906 408.054688 420.183594 410.402344 419.789062 412.96875 C 419.476562 415.003906 407.972656 414.273438 405.285156 414.203125 C 400.144531 413.644531 386.601562 413.757812 376.8125 413.691406 C 353.828125 413.527344 338.101562 405.464844 338.101562 405.464844 C 338.101562 405.464844 332.941406 383.472656 339.078125 379.5625 " fill-opacity="1" fill-rule="nonzero"/><path fill="#363e44" d="M 416.015625 394.484375 C 415.984375 394.484375 415.949219 394.480469 415.917969 394.460938 C 414.835938 393.929688 413.703125 393.464844 412.5625 393.085938 C 410.503906 392.402344 408.363281 391.976562 406.183594 391.8125 C 406.054688 391.804688 405.960938 391.695312 405.972656 391.566406 C 405.980469 391.441406 406.082031 391.34375 406.21875 391.351562 C 408.433594 391.519531 410.613281 391.953125 412.707031 392.648438 C 413.867188 393.03125 415.019531 393.503906 416.117188 394.046875 C 416.234375 394.105469 416.28125 394.242188 416.226562 394.355469 C 416.1875 394.4375 416.101562 394.484375 416.015625 394.484375 " fill-opacity="1" fill-rule="nonzero"/><path fill="#363e44" d="M 414.136719 401.195312 C 414.109375 401.195312 414.085938 401.191406 414.058594 401.183594 C 413.820312 401.097656 413.578125 401.011719 413.328125 400.929688 C 411.273438 400.25 409.125 399.820312 406.949219 399.660156 C 406.824219 399.648438 406.730469 399.539062 406.738281 399.410156 C 406.746094 399.285156 406.855469 399.1875 406.984375 399.199219 C 409.199219 399.363281 411.382812 399.796875 413.472656 400.492188 C 413.726562 400.574219 413.976562 400.664062 414.214844 400.75 C 414.335938 400.792969 414.394531 400.929688 414.351562 401.046875 C 414.320312 401.140625 414.230469 401.195312 414.136719 401.195312 " fill-opacity="1" fill-rule="nonzero"/><path fill="#363e44" d="M 411.957031 407.875 C 411.9375 407.875 411.921875 407.871094 411.902344 407.867188 C 410.527344 407.539062 409.109375 407.316406 407.6875 407.214844 C 407.5625 407.203125 407.46875 407.09375 407.476562 406.964844 C 407.484375 406.839844 407.589844 406.742188 407.722656 406.753906 C 409.167969 406.859375 410.609375 407.085938 412.011719 407.421875 C 412.132812 407.449219 412.210938 407.574219 412.179688 407.699219 C 412.15625 407.800781 412.058594 407.875 411.957031 407.875 " fill-opacity="1" fill-rule="nonzero"/><path fill="#363e44" d="M 424.21875 332.535156 C 424.179688 332.535156 424.144531 332.523438 424.109375 332.507812 L 410.683594 325.390625 C 410.570312 325.332031 410.527344 325.191406 410.585938 325.078125 C 410.648438 324.964844 410.785156 324.925781 410.898438 324.984375 L 424.03125 331.941406 L 426.679688 309.300781 C 426.695312 309.171875 426.808594 309.082031 426.933594 309.097656 C 427.058594 309.113281 427.152344 309.226562 427.136719 309.355469 L 424.449219 332.332031 C 424.441406 332.40625 424.394531 332.472656 424.328125 332.507812 C 424.292969 332.523438 424.253906 332.535156 424.21875 332.535156 " fill-opacity="1" fill-rule="nonzero"/><path fill="#363e44" d="M 391.609375 334.113281 C 391.582031 334.113281 391.546875 334.109375 391.519531 334.097656 C 391.445312 334.0625 391.394531 333.996094 391.382812 333.914062 L 388.988281 315.664062 C 388.972656 315.539062 389.0625 315.421875 389.1875 315.40625 C 389.316406 315.390625 389.429688 315.476562 389.445312 315.605469 L 391.789062 333.476562 L 402.84375 325.671875 C 402.949219 325.597656 403.09375 325.621094 403.164062 325.726562 C 403.238281 325.832031 403.214844 325.972656 403.109375 326.046875 L 391.742188 334.074219 C 391.703125 334.101562 391.660156 334.113281 391.609375 334.113281 " fill-opacity="1" fill-rule="nonzero"/><path fill="#ffffff" d="M 380.363281 369.019531 L 360.765625 372.773438 L 375.402344 376.804688 L 376.839844 413.796875 C 376.839844 413.796875 304.332031 414.332031 304.609375 380.519531 C 304.808594 355.921875 363.378906 326.886719 363.378906 326.886719 L 380.363281 369.019531 " fill-opacity="1" fill-rule="nonzero"/><path fill="#e2a18d" d="M 493.894531 354.394531 C 466.804688 349.152344 457.519531 346.1875 430.425781 340.941406 C 427.460938 338.839844 419.390625 332.980469 408.621094 332.886719 C 397.84375 332.796875 387.75 340.050781 388.683594 342.695312 C 389.121094 343.929688 391.761719 345.945312 394.820312 343.929688 C 398.488281 341.511719 400.855469 341.53125 403.875 341.285156 C 403.527344 341.617188 401.371094 342.988281 401.558594 345.25 C 401.746094 347.550781 403.820312 349.214844 404.132812 349.488281 C 403.320312 351.066406 402.664062 352.4375 403.453125 354.546875 C 404.390625 357.042969 406.96875 357.769531 406.96875 357.769531 C 406.96875 357.769531 406.492188 361.136719 408.503906 364.191406 C 411.089844 368.117188 415.855469 369.304688 417.304688 367.488281 C 417.875 366.773438 418.433594 364.746094 416.152344 362.117188 C 417.277344 362.886719 421.128906 367.597656 425.296875 369.179688 C 428.761719 370.496094 432.304688 369.03125 433.542969 368.765625 C 455.554688 378.480469 464.429688 378.761719 486.445312 388.480469 C 490.050781 375.390625 490.292969 367.484375 493.894531 354.394531 " fill-opacity="1" fill-rule="nonzero"/><path fill="#363e44" d="M 404.144531 341.289062 C 404.046875 341.289062 403.957031 341.222656 403.929688 341.125 C 403.886719 341.003906 403.957031 340.878906 404.078125 340.835938 C 404.757812 340.628906 405.460938 340.496094 406.167969 340.445312 C 407.023438 340.386719 407.886719 340.445312 408.726562 340.617188 C 408.851562 340.644531 408.929688 340.765625 408.902344 340.890625 C 408.878906 341.015625 408.753906 341.097656 408.628906 341.070312 C 407.832031 340.902344 407.015625 340.847656 406.203125 340.90625 C 405.527344 340.953125 404.859375 341.078125 404.214844 341.277344 C 404.191406 341.285156 404.167969 341.289062 404.144531 341.289062 " fill-opacity="1" fill-rule="nonzero"/><path fill="#363e44" d="M 404.089844 349.960938 C 404.015625 349.960938 403.941406 349.921875 403.898438 349.855469 C 403.828125 349.75 403.859375 349.605469 403.964844 349.535156 C 404.566406 349.152344 405.207031 348.835938 405.875 348.597656 C 406.683594 348.3125 407.527344 348.140625 408.386719 348.082031 C 408.511719 348.074219 408.621094 348.167969 408.628906 348.296875 C 408.636719 348.425781 408.542969 348.53125 408.414062 348.542969 C 407.597656 348.59375 406.796875 348.761719 406.03125 349.035156 C 405.394531 349.257812 404.785156 349.558594 404.214844 349.921875 C 404.175781 349.949219 404.132812 349.960938 404.089844 349.960938 " fill-opacity="1" fill-rule="nonzero"/><path fill="#363e44" d="M 407.246094 357.675781 C 407.199219 357.675781 407.15625 357.660156 407.117188 357.636719 C 407.011719 357.5625 406.984375 357.417969 407.058594 357.3125 C 407.605469 356.519531 408.550781 355.796875 409.472656 355.476562 C 411.128906 354.898438 412.609375 355.316406 413.347656 355.617188 C 413.464844 355.664062 413.519531 355.800781 413.46875 355.917969 C 413.425781 356.035156 413.289062 356.09375 413.171875 356.042969 C 412.496094 355.765625 411.136719 355.382812 409.625 355.914062 C 408.789062 356.199219 407.933594 356.855469 407.4375 357.574219 C 407.390625 357.640625 407.320312 357.675781 407.246094 357.675781 " fill-opacity="1" fill-rule="nonzero"/><path fill="#363e44" d="M 416.277344 362.378906 C 416.265625 362.378906 416.253906 362.378906 416.242188 362.375 L 412.785156 361.800781 C 412.65625 361.78125 412.574219 361.660156 412.59375 361.535156 C 412.617188 361.410156 412.734375 361.324219 412.859375 361.347656 L 416.316406 361.921875 C 416.441406 361.941406 416.527344 362.058594 416.507812 362.1875 C 416.488281 362.300781 416.390625 362.378906 416.277344 362.378906 " fill-opacity="1" fill-rule="nonzero"/><path fill="#ffffff" d="M 535.886719 375.828125 C 540.800781 349.933594 453.917969 340.785156 453.917969 340.785156 L 444.996094 378.621094 C 444.996094 378.621094 529.339844 410.300781 535.886719 375.828125 " fill-opacity="1" fill-rule="nonzero"/><path fill="#363e44" d="M 520.753906 357.265625 C 520.71875 357.265625 520.683594 357.257812 520.652344 357.242188 C 497.183594 345.679688 454.328125 341.058594 453.898438 341.015625 C 453.769531 341 453.675781 340.886719 453.691406 340.761719 C 453.707031 340.632812 453.820312 340.542969 453.945312 340.554688 C 454.375 340.601562 497.3125 345.230469 520.855469 356.828125 C 520.96875 356.886719 521.015625 357.023438 520.960938 357.136719 C 520.921875 357.21875 520.839844 357.265625 520.753906 357.265625 " fill-opacity="1" fill-rule="nonzero"/><path fill="#363e44" d="M 504.570312 389.640625 C 497.5 389.640625 489.515625 388.921875 480.75 387.5 C 461.582031 384.386719 445.085938 378.894531 444.921875 378.839844 C 444.8125 378.800781 444.746094 378.683594 444.769531 378.566406 L 445.863281 373.933594 C 445.890625 373.8125 446.015625 373.734375 446.144531 373.765625 C 446.265625 373.792969 446.339844 373.917969 446.3125 374.042969 L 445.269531 378.46875 C 447.199219 379.101562 462.835938 384.125 480.828125 387.046875 C 492.054688 388.871094 501.992188 389.527344 510.359375 389.003906 C 520.789062 388.351562 528.789062 385.851562 534.132812 381.574219 C 534.234375 381.496094 534.378906 381.511719 534.457031 381.609375 C 534.535156 381.710938 534.519531 381.855469 534.421875 381.933594 C 529 386.273438 520.914062 388.808594 510.386719 389.464844 C 508.523438 389.582031 506.582031 389.640625 504.570312 389.640625 " fill-opacity="1" fill-rule="nonzero"/><path fill="#363e44" d="M 375.542969 376.816406 C 375.523438 376.816406 375.503906 376.816406 375.488281 376.808594 L 331.8125 365.949219 C 331.6875 365.917969 331.613281 365.792969 331.644531 365.667969 C 331.675781 365.546875 331.796875 365.472656 331.921875 365.503906 L 375.597656 376.363281 C 375.722656 376.394531 375.796875 376.519531 375.765625 376.640625 C 375.742188 376.746094 375.644531 376.816406 375.542969 376.816406 " fill-opacity="1" fill-rule="nonzero"/><path fill="#363e44" d="M 375.640625 382.667969 C 375.515625 382.667969 375.414062 382.570312 375.410156 382.445312 L 373.882812 347.074219 C 373.878906 346.945312 373.976562 346.839844 374.105469 346.832031 C 374.230469 346.828125 374.339844 346.929688 374.34375 347.054688 L 375.871094 382.429688 C 375.875 382.554688 375.773438 382.660156 375.648438 382.667969 C 375.644531 382.667969 375.640625 382.667969 375.640625 382.667969 " fill-opacity="1" fill-rule="nonzero"/><path fill="#363e44" d="M 317.3125 358.394531 C 317.253906 358.394531 317.195312 358.375 317.152344 358.332031 C 317.058594 358.242188 317.058594 358.097656 317.148438 358.003906 C 331.703125 343.109375 376.832031 320.832031 377.285156 320.609375 C 377.402344 320.550781 377.539062 320.601562 377.59375 320.714844 C 377.648438 320.828125 377.605469 320.96875 377.488281 321.023438 C 377.035156 321.246094 331.976562 343.488281 317.476562 358.328125 C 317.433594 358.371094 317.375 358.394531 317.3125 358.394531 " fill-opacity="1" fill-rule="nonzero"/><path fill="#e2a18d" d="M 397.820312 314.082031 L 405.933594 333.074219 L 420.5 309.304688 L 410.78125 280.335938 L 392.21875 283.757812 L 397.820312 314.082031 " fill-opacity="1" fill-rule="nonzero"/><path fill="#e2a18d" d="M 396.46875 266.546875 C 395.660156 266.589844 387.886719 267.128906 384.058594 273.078125 C 381.210938 277.507812 381.5625 282.585938 383.4375 291.011719 C 385.640625 300.933594 388.347656 306.554688 391.535156 308.097656 C 396.570312 310.527344 409.167969 301.457031 412.976562 291.925781 C 415.726562 285.039062 414.0625 276.96875 409.191406 271.3125 C 404.339844 265.675781 396.988281 266.519531 396.46875 266.546875 " fill-opacity="1" fill-rule="nonzero"/><path fill="#363e44" d="M 397.640625 308.058594 C 397.550781 308.058594 397.464844 308.003906 397.429688 307.917969 C 397.378906 307.800781 397.433594 307.664062 397.550781 307.617188 C 402.941406 305.347656 410.136719 298.9375 412.847656 292.140625 C 412.898438 292.023438 413.03125 291.964844 413.148438 292.011719 C 413.265625 292.058594 413.324219 292.191406 413.277344 292.308594 C 410.414062 299.480469 403.128906 305.765625 397.730469 308.039062 C 397.699219 308.050781 397.667969 308.058594 397.640625 308.058594 " fill-opacity="1" fill-rule="nonzero"/><path fill="#ffffff" d="M 398.554688 284.292969 C 398.554688 284.292969 398.085938 287.375 396.097656 290.011719 C 395.675781 290.5625 392.003906 286.125 392.660156 285.785156 C 395.53125 284.289062 398.554688 284.292969 398.554688 284.292969 " fill-opacity="1" fill-rule="nonzero"/><path fill="#363e44" d="M 386.832031 294.347656 C 386.832031 294.347656 387.515625 289.839844 390.753906 287.058594 C 391.355469 286.546875 392 286.128906 392.65625 285.785156 C 394.40625 286.476562 395.753906 288.03125 396.105469 290 C 395.683594 290.558594 395.195312 291.097656 394.628906 291.582031 C 391.394531 294.355469 386.832031 294.347656 386.832031 294.347656 " fill-opacity="1" fill-rule="nonzero"/><path fill="#e2a18d" d="M 385 292.992188 C 385.132812 293.617188 385.234375 294.550781 384.9375 295.574219 C 384.585938 296.8125 383.917969 297.265625 384.042969 297.996094 C 384.128906 298.484375 384.574219 299.132812 386.308594 299.726562 L 385 292.992188 " fill-opacity="1" fill-rule="nonzero"/><path fill="#363e44" d="M 385.890625 299.480469 C 385.863281 299.480469 385.839844 299.476562 385.816406 299.46875 C 384.640625 299.074219 384.011719 298.578125 383.902344 297.957031 C 383.832031 297.5625 383.996094 297.257812 384.1875 296.910156 C 384.324219 296.660156 384.480469 296.371094 384.59375 295.972656 C 384.761719 295.382812 384.773438 294.75 384.628906 294.082031 C 384.605469 293.957031 384.683594 293.835938 384.808594 293.808594 C 384.929688 293.78125 385.054688 293.863281 385.078125 293.988281 C 385.238281 294.726562 385.226562 295.4375 385.039062 296.097656 C 384.914062 296.546875 384.734375 296.871094 384.59375 297.132812 C 384.410156 297.464844 384.316406 297.652344 384.355469 297.875 C 384.433594 298.304688 384.988281 298.703125 385.964844 299.03125 C 386.085938 299.074219 386.148438 299.203125 386.109375 299.324219 C 386.074219 299.417969 385.984375 299.480469 385.890625 299.480469 " fill-opacity="1" fill-rule="nonzero"/><path fill="#9e6c5a" d="M 384.582031 265.550781 C 387.402344 262.113281 392.183594 260.089844 397.144531 259.574219 L 392.011719 262.648438 L 400.636719 259.460938 C 404.679688 259.621094 408.558594 260.804688 411.3125 263.066406 C 418.597656 269.058594 419.820312 276.027344 415.113281 293.378906 C 413.390625 288.707031 411.625 281.601562 408.042969 280.863281 C 405.726562 280.386719 403.710938 281.324219 402.785156 281.84375 C 400.886719 277.238281 399.578125 272.832031 395.144531 273.160156 C 390.4375 273.503906 384.019531 279.460938 383.636719 280.015625 C 383.339844 279.042969 379.566406 271.667969 384.582031 265.550781 " fill-opacity="1" fill-rule="nonzero"/><path fill="#e2a18d" d="M 402.554688 281.964844 C 401.539062 285.351562 403.03125 288.789062 405.894531 289.648438 C 408.753906 290.511719 411.898438 288.464844 412.914062 285.082031 C 413.929688 281.695312 412.4375 278.253906 409.574219 277.394531 C 406.714844 276.539062 403.574219 278.582031 402.554688 281.964844 " fill-opacity="1" fill-rule="nonzero"/><path fill="#363e44" d="M 410.125 285.15625 C 410.089844 285.15625 410.054688 285.148438 410.023438 285.132812 C 409.90625 285.074219 409.859375 284.9375 409.917969 284.820312 C 410.007812 284.640625 410.085938 284.445312 410.148438 284.246094 C 410.625 282.652344 409.933594 281.027344 408.605469 280.628906 C 408.285156 280.53125 407.949219 280.515625 407.609375 280.574219 C 407.484375 280.59375 407.367188 280.511719 407.347656 280.386719 C 407.324219 280.257812 407.40625 280.140625 407.53125 280.117188 C 407.941406 280.050781 408.347656 280.074219 408.738281 280.1875 C 410.308594 280.660156 411.140625 282.542969 410.585938 284.378906 C 410.519531 284.605469 410.433594 284.820312 410.332031 285.027344 C 410.289062 285.109375 410.207031 285.15625 410.125 285.15625 " fill-opacity="1" fill-rule="nonzero"/><path fill="#9e6c5a" d="M 402.371094 278.496094 C 401.5625 278.597656 404.128906 287.5625 402.03125 291.628906 C 399.046875 297.414062 392.210938 298.9375 385.933594 299.808594 C 385.1875 302.941406 382.273438 316.066406 387.078125 318.941406 C 392.035156 321.898438 404.792969 313.707031 408.058594 302.578125 C 410.941406 292.753906 403.660156 278.332031 402.371094 278.496094 " fill-opacity="1" fill-rule="nonzero"/><path fill="#363e44" d="M 391.484375 302.816406 C 391.210938 302.816406 390.929688 302.769531 390.660156 302.675781 C 390.539062 302.632812 390.480469 302.5 390.519531 302.378906 C 390.5625 302.261719 390.695312 302.199219 390.816406 302.242188 C 391.609375 302.523438 392.492188 302.277344 392.957031 301.632812 C 393.542969 300.824219 393.117188 299.828125 393.113281 299.820312 C 393.0625 299.703125 393.117188 299.566406 393.230469 299.515625 C 393.347656 299.464844 393.484375 299.515625 393.535156 299.632812 C 393.554688 299.683594 394.070312 300.882812 393.328125 301.902344 C 392.90625 302.492188 392.210938 302.816406 391.484375 302.816406 " fill-opacity="1" fill-rule="nonzero"/><path fill="#363e44" d="M 301.0625 421.789062 L 430.992188 421.789062 C 433.933594 421.789062 436.320312 419.40625 436.320312 416.460938 L 436.320312 416.417969 L 295.738281 416.417969 L 295.738281 416.460938 C 295.738281 419.40625 298.121094 421.789062 301.0625 421.789062 " fill-opacity="1" fill-rule="nonzero"/><path fill="#363e44" d="M 287.261719 416.398438 L 395.882812 416.398438 L 366.792969 339.3125 L 258.171875 339.3125 L 287.261719 416.398438 " fill-opacity="1" fill-rule="nonzero"/><path fill="#f2e6dc" d="M 319.832031 377.050781 C 320.53125 379.300781 322.414062 380.714844 324.039062 380.210938 C 325.664062 379.707031 326.414062 377.476562 325.71875 375.226562 C 325.019531 372.976562 323.136719 371.5625 321.511719 372.066406 C 319.886719 372.566406 319.136719 374.800781 319.832031 377.050781 " fill-opacity="1" fill-rule="nonzero"/></svg>