<svg xmlns="http://www.w3.org/2000/svg" xmlns:xlink="http://www.w3.org/1999/xlink" width="900" zoomAndPan="magnify" viewBox="0 0 675 449.999984" height="600" preserveAspectRatio="xMidYMid meet" version="1.0"><defs><clipPath id="fcd0754427"><path d="M 142 29.25 L 534.269531 29.25 L 534.269531 420.75 L 142 420.75 Z M 142 29.25 " clip-rule="nonzero"/></clipPath><clipPath id="cbdb38da50"><path d="M 280.617188 112.042969 L 287.457031 112.042969 L 287.457031 116.539062 L 280.617188 116.539062 Z M 280.617188 112.042969 " clip-rule="nonzero"/></clipPath><clipPath id="175913cafa"><path d="M 279.03125 115.902344 C 279.03125 115.902344 281.980469 116.992188 284.734375 115.960938 C 287.488281 114.929688 289 112.171875 289 112.171875 C 289 112.171875 286.050781 111.085938 283.296875 112.113281 C 280.542969 113.144531 279.03125 115.902344 279.03125 115.902344 Z M 279.03125 115.902344 " clip-rule="nonzero"/></clipPath><clipPath id="c74601cc94"><path d="M 265.433594 112.042969 L 272 112.042969 L 272 116.539062 L 265.433594 116.539062 Z M 265.433594 112.042969 " clip-rule="nonzero"/></clipPath><clipPath id="8af4fecda5"><path d="M 273.675781 115.902344 C 273.675781 115.902344 270.722656 116.992188 267.96875 115.960938 C 265.214844 114.929688 263.703125 112.171875 263.703125 112.171875 C 263.703125 112.171875 266.652344 111.085938 269.40625 112.113281 C 272.160156 113.144531 273.675781 115.902344 273.675781 115.902344 Z M 273.675781 115.902344 " clip-rule="nonzero"/></clipPath><clipPath id="810e02dd9b"><path d="M 140.519531 288 L 310 288 L 310 300 L 140.519531 300 Z M 140.519531 288 " clip-rule="nonzero"/></clipPath><clipPath id="aaa6fbd194"><path d="M 140.519531 288 L 310 288 L 310 409 L 140.519531 409 Z M 140.519531 288 " clip-rule="nonzero"/></clipPath></defs><rect x="-67.5" width="810" fill="#ffffff" y="-44.999998" height="539.99998" fill-opacity="1"/><rect x="-67.5" width="810" fill="#edf2f4" y="-44.999998" height="539.99998" fill-opacity="1"/><g clip-path="url(#fcd0754427)"><path fill="#f2e6dc" d="M 534.214844 225 C 534.214844 333.113281 446.621094 420.75 338.566406 420.75 C 230.515625 420.75 142.921875 333.113281 142.921875 225 C 142.921875 116.890625 230.515625 29.25 338.566406 29.25 C 446.621094 29.25 534.214844 116.890625 534.214844 225 " fill-opacity="1" fill-rule="nonzero"/></g><path fill="#ffffff" d="M 391.03125 285.933594 C 391.722656 292.644531 389.484375 299.375 384.910156 304.328125 C 369.378906 321.160156 342.566406 312.210938 340.222656 289.414062 C 339.53125 282.703125 341.769531 275.972656 346.34375 271.019531 C 361.875 254.1875 388.6875 263.136719 391.03125 285.933594 Z M 398.152344 264.003906 L 394.65625 265.753906 C 393.492188 264.203125 392.214844 262.769531 390.847656 261.453125 L 392.996094 258.191406 L 381.957031 250.894531 L 379.800781 254.164062 C 378.039062 253.417969 376.21875 252.808594 374.359375 252.347656 L 374.59375 248.4375 L 361.386719 247.640625 L 361.15625 251.542969 C 359.273438 251.777344 357.390625 252.15625 355.53125 252.695312 L 353.78125 249.199219 L 341.953125 255.113281 L 343.699219 258.613281 C 342.15625 259.777344 340.722656 261.054688 339.40625 262.421875 L 336.144531 260.265625 L 328.863281 271.308594 L 332.128906 273.46875 C 331.382812 275.234375 330.777344 277.054688 330.316406 278.914062 L 326.410156 278.679688 L 325.621094 291.890625 L 329.519531 292.125 C 329.753906 294.011719 330.136719 295.894531 330.675781 297.753906 L 327.183594 299.503906 L 333.101562 311.339844 L 336.597656 309.59375 C 337.761719 311.140625 339.039062 312.578125 340.40625 313.894531 L 338.253906 317.15625 L 349.292969 324.453125 L 351.449219 321.183594 C 353.214844 321.929688 355.035156 322.535156 356.894531 323 L 356.664062 326.910156 L 369.867188 327.707031 L 370.097656 323.804688 C 371.980469 323.570312 373.863281 323.1875 375.722656 322.652344 L 377.472656 326.148438 L 389.300781 320.234375 L 387.550781 316.734375 C 389.097656 315.570312 390.53125 314.292969 391.847656 312.925781 L 395.109375 315.078125 L 402.390625 304.035156 L 399.125 301.878906 C 399.871094 300.113281 400.472656 298.292969 400.9375 296.429688 L 404.84375 296.664062 L 405.632812 283.457031 L 401.730469 283.21875 C 401.5 281.335938 401.117188 279.453125 400.578125 277.589844 L 404.070312 275.84375 L 398.152344 264.003906 " fill-opacity="1" fill-rule="nonzero"/><path fill="#f2e6dc" d="M 365.691406 316.835938 C 354.988281 316.835938 344.667969 310.925781 339.558594 300.710938 C 336.417969 294.425781 335.648438 287.21875 337.390625 280.421875 C 339.113281 273.695312 343.175781 267.800781 348.824219 263.828125 C 348.921875 263.757812 349.054688 263.78125 349.121094 263.878906 C 349.191406 263.976562 349.167969 264.109375 349.070312 264.179688 C 337.554688 272.273438 333.632812 287.898438 339.941406 300.519531 C 344.972656 310.582031 355.148438 316.40625 365.691406 316.410156 C 370 316.410156 374.371094 315.4375 378.480469 313.378906 C 390.183594 307.527344 396.449219 294.507812 393.726562 281.714844 C 393.703125 281.601562 393.777344 281.488281 393.890625 281.460938 C 394.003906 281.4375 394.121094 281.511719 394.144531 281.625 C 396.910156 294.609375 390.546875 307.820312 378.671875 313.761719 C 374.503906 315.847656 370.0625 316.835938 365.691406 316.835938 " fill-opacity="1" fill-rule="nonzero"/><path fill="#e6d0be" d="M 527.425781 266.179688 L 379.554688 266.179688 L 379.554688 274.699219 L 527.425781 274.699219 L 527.425781 266.179688 " fill-opacity="1" fill-rule="nonzero"/><path fill="#e6d0be" d="M 379.765625 355.542969 L 527.210938 355.542969 L 527.210938 266.394531 L 379.765625 266.394531 Z M 527.425781 355.972656 L 379.550781 355.972656 C 379.4375 355.972656 379.339844 355.875 379.339844 355.757812 L 379.339844 266.179688 C 379.339844 266.0625 379.4375 265.964844 379.550781 265.964844 L 527.425781 265.964844 C 527.542969 265.964844 527.636719 266.0625 527.636719 266.179688 L 527.636719 355.757812 C 527.636719 355.875 527.542969 355.972656 527.425781 355.972656 " fill-opacity="1" fill-rule="nonzero"/><path fill="#ffffff" d="M 387.152344 270.5 C 387.152344 271.570312 386.285156 272.4375 385.214844 272.4375 C 384.144531 272.4375 383.277344 271.570312 383.277344 270.5 C 383.277344 269.429688 384.144531 268.5625 385.214844 268.5625 C 386.285156 268.5625 387.152344 269.429688 387.152344 270.5 " fill-opacity="1" fill-rule="nonzero"/><path fill="#ffffff" d="M 393.414062 270.5 C 393.414062 271.570312 392.542969 272.4375 391.476562 272.4375 C 390.402344 272.4375 389.539062 271.570312 389.539062 270.5 C 389.539062 269.429688 390.402344 268.5625 391.476562 268.5625 C 392.542969 268.5625 393.414062 269.429688 393.414062 270.5 " fill-opacity="1" fill-rule="nonzero"/><path fill="#ffffff" d="M 399.671875 270.5 C 399.671875 271.570312 398.800781 272.4375 397.734375 272.4375 C 396.664062 272.4375 395.796875 271.570312 395.796875 270.5 C 395.796875 269.429688 396.664062 268.5625 397.734375 268.5625 C 398.800781 268.5625 399.671875 269.429688 399.671875 270.5 " fill-opacity="1" fill-rule="nonzero"/><path fill="#d87355" d="M 428.5 335.25 C 428.5 339.128906 425.359375 342.273438 421.480469 342.273438 C 417.605469 342.273438 414.460938 339.128906 414.460938 335.25 C 414.460938 331.371094 417.605469 328.226562 421.480469 328.226562 C 425.359375 328.226562 428.5 331.371094 428.5 335.25 " fill-opacity="1" fill-rule="nonzero"/><path fill="#363e44" d="M 517.242188 328.441406 L 432.285156 328.441406 C 432.167969 328.441406 432.070312 328.34375 432.070312 328.226562 C 432.070312 328.109375 432.167969 328.011719 432.285156 328.011719 L 517.242188 328.011719 C 517.363281 328.011719 517.457031 328.109375 517.457031 328.226562 C 517.457031 328.34375 517.363281 328.441406 517.242188 328.441406 " fill-opacity="1" fill-rule="nonzero"/><path fill="#363e44" d="M 517.242188 335.464844 L 459.828125 335.464844 C 459.710938 335.464844 459.613281 335.367188 459.613281 335.25 C 459.613281 335.132812 459.710938 335.035156 459.828125 335.035156 L 517.242188 335.035156 C 517.363281 335.035156 517.457031 335.132812 517.457031 335.25 C 517.457031 335.367188 517.363281 335.464844 517.242188 335.464844 " fill-opacity="1" fill-rule="nonzero"/><path fill="#363e44" d="M 451.5625 335.464844 L 432.285156 335.464844 C 432.167969 335.464844 432.074219 335.367188 432.074219 335.25 C 432.074219 335.132812 432.167969 335.035156 432.285156 335.035156 L 451.5625 335.035156 C 451.675781 335.035156 451.773438 335.132812 451.773438 335.25 C 451.773438 335.367188 451.675781 335.464844 451.5625 335.464844 " fill-opacity="1" fill-rule="nonzero"/><path fill="#363e44" d="M 517.242188 342.488281 L 493.941406 342.488281 C 493.824219 342.488281 493.726562 342.390625 493.726562 342.273438 C 493.726562 342.15625 493.824219 342.058594 493.941406 342.058594 L 517.242188 342.058594 C 517.363281 342.058594 517.457031 342.15625 517.457031 342.273438 C 517.457031 342.390625 517.363281 342.488281 517.242188 342.488281 " fill-opacity="1" fill-rule="nonzero"/><path fill="#363e44" d="M 478.453125 342.488281 L 432.285156 342.488281 C 432.167969 342.488281 432.070312 342.390625 432.070312 342.273438 C 432.070312 342.152344 432.167969 342.058594 432.285156 342.058594 L 478.453125 342.058594 C 478.570312 342.058594 478.664062 342.152344 478.664062 342.273438 C 478.664062 342.390625 478.570312 342.488281 478.453125 342.488281 " fill-opacity="1" fill-rule="nonzero"/><path fill="#efbc73" d="M 511.378906 312.734375 L 413.089844 312.734375 L 413.089844 231.9375 L 511.378906 231.9375 L 511.378906 312.734375 " fill-opacity="1" fill-rule="nonzero"/><path fill="#ffffff" d="M 464.121094 283.980469 L 464.121094 293.945312 L 460.351562 293.945312 L 460.351562 283.980469 C 458.292969 283.214844 456.824219 281.234375 456.824219 278.910156 C 456.824219 275.921875 459.246094 273.496094 462.234375 273.496094 C 465.222656 273.496094 467.648438 275.921875 467.648438 278.910156 C 467.648438 281.234375 466.175781 283.214844 464.121094 283.980469 Z M 438.628906 264.304688 L 438.628906 282.714844 C 438.628906 295.757812 449.199219 306.332031 462.234375 306.332031 C 475.273438 306.332031 485.84375 295.757812 485.84375 282.714844 L 485.84375 264.304688 L 438.628906 264.304688 " fill-opacity="1" fill-rule="nonzero"/><path fill="#363e44" d="M 483.242188 259.566406 C 483.121094 259.566406 483.027344 259.472656 483.027344 259.351562 C 483.027344 247.882812 473.699219 238.550781 462.234375 238.550781 C 450.769531 238.550781 441.441406 247.882812 441.441406 259.351562 C 441.441406 259.472656 441.347656 259.566406 441.226562 259.566406 C 441.109375 259.566406 441.011719 259.472656 441.011719 259.351562 C 441.011719 247.644531 450.53125 238.121094 462.234375 238.121094 C 473.933594 238.121094 483.453125 247.644531 483.453125 259.351562 C 483.453125 259.472656 483.359375 259.566406 483.242188 259.566406 " fill-opacity="1" fill-rule="nonzero"/><path fill="#776e42" d="M 328.507812 189.226562 L 331.207031 258.28125 L 228.816406 258.28125 L 225.757812 191.964844 L 225.691406 190.550781 L 328.507812 189.226562 " fill-opacity="1" fill-rule="nonzero"/><path fill="#84524d" d="M 284.757812 256.808594 L 252.777344 236.414062 L 241.265625 268.089844 L 272.71875 273.546875 L 284.757812 256.808594 " fill-opacity="1" fill-rule="nonzero"/><path fill="#d3bba3" d="M 339.941406 274.699219 L 270.875 274.699219 L 275.511719 249.042969 C 275.511719 249.042969 304.808594 236.414062 336.828125 255.164062 C 336.828125 255.164062 344.722656 264.816406 339.941406 274.699219 " fill-opacity="1" fill-rule="nonzero"/><path fill="#363e44" d="M 290.859375 268.207031 C 290.742188 268.207031 290.644531 268.109375 290.644531 267.992188 L 290.644531 252.257812 C 290.644531 252.140625 290.742188 252.042969 290.859375 252.042969 C 290.976562 252.042969 291.070312 252.140625 291.070312 252.257812 L 291.070312 267.992188 C 291.070312 268.109375 290.976562 268.207031 290.859375 268.207031 " fill-opacity="1" fill-rule="nonzero"/><path fill="#363e44" d="M 295.320312 268.207031 C 295.203125 268.207031 295.105469 268.109375 295.105469 267.992188 L 295.105469 252.257812 C 295.105469 252.140625 295.203125 252.042969 295.320312 252.042969 C 295.4375 252.042969 295.535156 252.140625 295.535156 252.257812 L 295.535156 267.992188 C 295.535156 268.109375 295.4375 268.207031 295.320312 268.207031 " fill-opacity="1" fill-rule="nonzero"/><path fill="#8b865c" d="M 269.039062 230.953125 L 249.640625 274.699219 C 249.640625 274.699219 195.683594 263.316406 158.160156 239.828125 C 145.046875 231.621094 140.816406 214.457031 148.625 201.101562 C 148.738281 200.914062 148.847656 200.722656 148.960938 200.53125 C 155.636719 189.371094 169.152344 184.3125 181.605469 188.050781 C 201.550781 194.03125 238.75 207.402344 269.039062 230.953125 " fill-opacity="1" fill-rule="nonzero"/><path fill="#84524d" d="M 267.488281 256.808594 L 299.46875 236.414062 L 310.984375 268.089844 L 281.375 274.699219 L 267.488281 256.808594 " fill-opacity="1" fill-rule="nonzero"/><path fill="#ffffff" d="M 213.046875 274.699219 L 281.375 274.699219 L 276.734375 250.457031 C 276.734375 250.457031 251.46875 235.753906 221.296875 247.074219 C 221.296875 247.074219 217.277344 255.675781 213.046875 274.699219 " fill-opacity="1" fill-rule="nonzero"/><path fill="#363e44" d="M 261.390625 268.207031 C 261.273438 268.207031 261.175781 268.109375 261.175781 267.992188 L 261.175781 252.257812 C 261.175781 252.140625 261.273438 252.042969 261.390625 252.042969 C 261.507812 252.042969 261.605469 252.140625 261.605469 252.257812 L 261.605469 267.992188 C 261.605469 268.109375 261.507812 268.207031 261.390625 268.207031 " fill-opacity="1" fill-rule="nonzero"/><path fill="#363e44" d="M 256.929688 268.207031 C 256.808594 268.207031 256.714844 268.109375 256.714844 267.992188 L 256.714844 252.257812 C 256.714844 252.140625 256.808594 252.042969 256.929688 252.042969 C 257.046875 252.042969 257.140625 252.140625 257.140625 252.257812 L 257.140625 267.992188 C 257.140625 268.109375 257.046875 268.207031 256.929688 268.207031 " fill-opacity="1" fill-rule="nonzero"/><path fill="#8b865c" d="M 283.207031 230.953125 L 302.609375 274.699219 C 302.609375 274.699219 356.5625 263.316406 394.089844 239.828125 C 407.203125 231.621094 411.433594 214.457031 403.621094 201.101562 C 403.511719 200.914062 403.398438 200.722656 403.285156 200.53125 C 396.609375 189.371094 383.097656 184.3125 370.640625 188.050781 C 350.699219 194.03125 313.5 207.402344 283.207031 230.953125 " fill-opacity="1" fill-rule="nonzero"/><path fill="#efbc73" d="M 203.269531 205.765625 L 197.851562 204.8125 C 188.148438 203.109375 182.035156 193.425781 184.621094 183.914062 C 187.089844 174.84375 190.648438 163.738281 195.292969 154.125 C 199.859375 144.679688 208.582031 137.914062 218.871094 135.914062 C 240.570312 131.691406 284.675781 125.914062 330.1875 136.453125 C 339.558594 138.625 347.558594 144.738281 352.050781 153.25 C 355.90625 160.558594 360.421875 170.386719 363.574219 181.21875 C 366.5625 191.484375 360.308594 202.164062 349.929688 204.726562 L 325.699219 199.464844 L 203.269531 205.765625 " fill-opacity="1" fill-rule="nonzero"/><path fill="#84524d" d="M 190.34375 185.707031 C 189.949219 187.140625 189.707031 188.703125 189.691406 190.394531 C 189.621094 198.023438 194.488281 204.832031 201.601562 207.574219 L 237.128906 217.058594 L 244.859375 190.667969 L 208.300781 176.808594 C 200.867188 173.992188 192.472656 178.046875 190.34375 185.707031 " fill-opacity="1" fill-rule="nonzero"/><path fill="#84524d" d="M 356.75 194.039062 C 356.253906 195.441406 355.554688 196.859375 354.601562 198.253906 C 350.285156 204.546875 342.398438 207.335938 335 205.503906 L 299.195312 196.640625 L 309.234375 166.839844 L 347.136719 176.453125 C 354.839844 178.40625 359.390625 186.539062 356.75 194.039062 " fill-opacity="1" fill-rule="nonzero"/><path fill="#363e44" d="M 321.9375 211.78125 L 229.726562 211.78125 L 229.726562 156.46875 L 321.9375 156.46875 L 321.9375 211.78125 " fill-opacity="1" fill-rule="nonzero"/><path fill="#363e44" d="M 321.9375 218.953125 L 229.726562 218.953125 L 229.726562 213.289062 L 321.9375 213.289062 L 321.9375 218.953125 " fill-opacity="1" fill-rule="nonzero"/><path fill="#40484c" d="M 271.035156 186.617188 L 280.628906 186.617188 L 280.628906 177.015625 L 271.035156 177.015625 Z M 280.84375 187.046875 L 270.820312 187.046875 C 270.699219 187.046875 270.605469 186.949219 270.605469 186.832031 L 270.605469 176.800781 C 270.605469 176.683594 270.699219 176.589844 270.820312 176.589844 L 280.84375 176.589844 C 280.960938 176.589844 281.054688 176.683594 281.054688 176.800781 L 281.054688 186.832031 C 281.054688 186.949219 280.960938 187.046875 280.84375 187.046875 " fill-opacity="1" fill-rule="nonzero"/><path fill="#40484c" d="M 317.945312 161.125 L 233.714844 161.125 C 233.597656 161.125 233.503906 161.027344 233.503906 160.910156 C 233.503906 160.792969 233.597656 160.699219 233.714844 160.699219 L 317.945312 160.699219 C 318.066406 160.699219 318.15625 160.792969 318.15625 160.910156 C 318.15625 161.027344 318.066406 161.125 317.945312 161.125 " fill-opacity="1" fill-rule="nonzero"/><path fill="#84524d" d="M 262.886719 111.519531 C 264.921875 114.269531 264.679688 117.90625 262.339844 119.640625 C 260 121.375 256.453125 120.550781 254.414062 117.800781 C 252.378906 115.050781 252.625 111.417969 254.960938 109.679688 C 257.300781 107.945312 260.847656 108.769531 262.886719 111.519531 " fill-opacity="1" fill-rule="nonzero"/><path fill="#84524d" d="M 288.03125 110.242188 C 286.285156 113.183594 286.898438 116.777344 289.402344 118.261719 C 291.90625 119.75 295.347656 118.570312 297.097656 115.628906 C 298.847656 112.6875 298.230469 109.09375 295.726562 107.605469 C 293.226562 106.117188 289.78125 107.300781 288.03125 110.242188 " fill-opacity="1" fill-rule="nonzero"/><path fill="#363e44" d="M 291.007812 103.566406 C 290.554688 94.832031 283.113281 88.121094 274.386719 88.574219 C 265.660156 89.03125 258.953125 96.472656 259.40625 105.207031 L 259.9375 115.453125 L 291.539062 113.8125 L 291.007812 103.566406 " fill-opacity="1" fill-rule="nonzero"/><path fill="#84524d" d="M 274.550781 145.203125 C 268.441406 144.921875 263.714844 139.742188 263.996094 133.628906 L 265.023438 111.242188 L 287.144531 112.257812 L 286.117188 134.644531 C 285.835938 140.757812 280.660156 145.484375 274.550781 145.203125 " fill-opacity="1" fill-rule="nonzero"/><path fill="#84524d" d="M 290.90625 113.1875 C 291.40625 123.054688 285.011719 131.398438 276.621094 131.824219 C 268.226562 132.253906 261.015625 124.601562 260.515625 114.734375 C 260.015625 104.871094 266.410156 99.238281 274.800781 98.808594 C 283.195312 98.382812 290.402344 103.324219 290.90625 113.1875 " fill-opacity="1" fill-rule="nonzero"/><path fill="#363e44" d="M 275.945312 132.054688 C 272.070312 132.054688 268.367188 130.378906 265.453125 127.285156 C 265.371094 127.199219 265.375 127.066406 265.460938 126.984375 C 265.546875 126.902344 265.683594 126.90625 265.765625 126.992188 C 268.761719 130.171875 272.617188 131.8125 276.609375 131.609375 C 280.601562 131.410156 284.269531 129.386719 286.929688 125.917969 C 287 125.820312 287.132812 125.804688 287.226562 125.875 C 287.320312 125.949219 287.339844 126.082031 287.269531 126.175781 C 284.53125 129.746094 280.753906 131.828125 276.628906 132.039062 C 276.402344 132.050781 276.171875 132.054688 275.945312 132.054688 " fill-opacity="1" fill-rule="nonzero"/><path fill="#363e44" d="M 290.902344 118.191406 L 290.863281 118.1875 C 290.75 118.164062 290.671875 118.054688 290.695312 117.941406 C 290.972656 116.394531 291.074219 114.796875 290.992188 113.195312 C 290.921875 111.769531 290.703125 110.359375 290.347656 109 C 290.316406 108.886719 290.386719 108.769531 290.5 108.742188 C 290.613281 108.710938 290.730469 108.777344 290.761719 108.894531 C 291.125 110.277344 291.347656 111.71875 291.421875 113.175781 C 291.503906 114.808594 291.398438 116.4375 291.113281 118.015625 C 291.09375 118.117188 291.003906 118.191406 290.902344 118.191406 " fill-opacity="1" fill-rule="nonzero"/><path fill="#363e44" d="M 260.980469 119.605469 C 260.886719 119.605469 260.800781 119.542969 260.773438 119.449219 C 260.34375 117.933594 260.082031 116.351562 260 114.746094 C 259.925781 113.261719 260.003906 111.777344 260.234375 110.335938 C 260.253906 110.21875 260.363281 110.140625 260.480469 110.160156 C 260.597656 110.175781 260.675781 110.289062 260.65625 110.402344 C 260.433594 111.816406 260.355469 113.269531 260.429688 114.722656 C 260.507812 116.296875 260.761719 117.847656 261.1875 119.332031 C 261.21875 119.445312 261.152344 119.566406 261.039062 119.597656 C 261.019531 119.601562 261 119.605469 260.980469 119.605469 " fill-opacity="1" fill-rule="nonzero"/><path fill="#ffffff" d="M 286.628906 111.699219 C 285.710938 111.671875 284.027344 111.886719 283.15625 112.171875 C 282.316406 112.4375 281.589844 112.933594 280.808594 113.699219 C 279.648438 114.78125 279.03125 115.902344 279.03125 115.902344 C 279.03125 115.902344 280.660156 116.503906 282.621094 116.390625 C 283.304688 116.351562 283.785156 115.414062 284.496094 115.148438 C 285.363281 114.824219 286.347656 115.140625 286.960938 114.613281 C 288.292969 113.464844 289 112.171875 289 112.171875 C 289 112.171875 288.003906 111.804688 286.628906 111.699219 " fill-opacity="1" fill-rule="nonzero"/><g clip-path="url(#cbdb38da50)"><g clip-path="url(#175913cafa)"><path fill="#363e44" d="M 282.074219 117.9375 C 283.5 119.011719 285.527344 118.722656 286.597656 117.296875 C 287.671875 115.871094 287.386719 113.84375 285.960938 112.769531 C 284.535156 111.699219 282.507812 111.984375 281.4375 113.414062 C 280.363281 114.835938 280.648438 116.863281 282.074219 117.9375 " fill-opacity="1" fill-rule="nonzero"/></g></g><path fill="#ffffff" d="M 266.078125 111.699219 C 266.996094 111.671875 268.679688 111.886719 269.550781 112.171875 C 270.386719 112.4375 271.117188 112.933594 271.894531 113.699219 C 273.054688 114.78125 273.675781 115.902344 273.675781 115.902344 C 273.675781 115.902344 272.046875 116.503906 270.082031 116.390625 C 269.402344 116.351562 268.921875 115.414062 268.210938 115.148438 C 267.34375 114.824219 266.355469 115.140625 265.742188 114.613281 C 264.414062 113.464844 263.703125 112.171875 263.703125 112.171875 C 263.703125 112.171875 264.703125 111.804688 266.078125 111.699219 " fill-opacity="1" fill-rule="nonzero"/><g clip-path="url(#c74601cc94)"><g clip-path="url(#8af4fecda5)"><path fill="#363e44" d="M 270.632812 117.9375 C 269.203125 119.011719 267.179688 118.722656 266.109375 117.296875 C 265.035156 115.871094 265.320312 113.84375 266.75 112.769531 C 268.175781 111.699219 270.199219 111.984375 271.269531 113.414062 C 272.34375 114.835938 272.058594 116.863281 270.632812 117.9375 " fill-opacity="1" fill-rule="nonzero"/></g></g><path fill="#363e44" d="M 276.765625 120.773438 C 276.703125 120.773438 276.636719 120.742188 276.597656 120.6875 C 276.523438 120.597656 276.542969 120.460938 276.636719 120.390625 C 277.066406 120.054688 277.289062 119.730469 277.296875 119.417969 C 277.300781 119.167969 277.164062 118.972656 276.984375 118.730469 C 276.792969 118.457031 276.570312 118.152344 276.472656 117.683594 C 276.386719 117.261719 276.425781 116.816406 276.585938 116.351562 C 276.625 116.242188 276.746094 116.183594 276.855469 116.222656 C 276.96875 116.261719 277.027344 116.382812 276.988281 116.496094 C 276.851562 116.882812 276.820312 117.25 276.890625 117.59375 C 276.972656 117.972656 277.15625 118.230469 277.332031 118.476562 C 277.527344 118.75 277.734375 119.035156 277.722656 119.429688 C 277.714844 119.875 277.4375 120.3125 276.898438 120.726562 C 276.855469 120.757812 276.8125 120.773438 276.765625 120.773438 " fill-opacity="1" fill-rule="nonzero"/><path fill="#363e44" d="M 274.398438 123.257812 C 273.796875 123.257812 272.898438 123.136719 272.019531 122.566406 C 271.464844 122.207031 270.988281 121.710938 270.648438 121.128906 C 270.585938 121.027344 270.621094 120.894531 270.722656 120.835938 C 270.824219 120.777344 270.957031 120.808594 271.015625 120.910156 C 271.324219 121.4375 271.75 121.882812 272.253906 122.210938 C 273.210938 122.828125 274.203125 122.855469 274.707031 122.816406 C 274.824219 122.808594 274.929688 122.894531 274.9375 123.011719 C 274.945312 123.128906 274.859375 123.234375 274.742188 123.242188 C 274.644531 123.25 274.527344 123.257812 274.398438 123.257812 " fill-opacity="1" fill-rule="nonzero"/><path fill="#363e44" d="M 274.046875 96.304688 C 274.046875 96.304688 302.527344 68.296875 285.722656 60.578125 C 271.289062 53.949219 272.761719 90.824219 274.046875 96.304688 " fill-opacity="1" fill-rule="nonzero"/><path fill="#363e44" d="M 273.984375 95.726562 C 273.984375 95.726562 282.851562 48.761719 264.542969 51.390625 C 248.828125 53.648438 269.933594 91.8125 273.984375 95.726562 " fill-opacity="1" fill-rule="nonzero"/><path fill="#363e44" d="M 271.660156 93.640625 C 271.660156 93.640625 262.722656 60.195312 249.84375 73.480469 C 238.789062 84.882812 266.066406 93.023438 271.660156 93.640625 " fill-opacity="1" fill-rule="nonzero"/><path fill="#363e44" d="M 267.378906 92.472656 C 267.378906 92.472656 255.144531 86.78125 254.699219 93.015625 C 254.316406 98.371094 265.796875 93.53125 267.378906 92.472656 " fill-opacity="1" fill-rule="nonzero"/><path fill="#363e44" d="M 305.304688 151.378906 C 305.1875 151.378906 305.089844 151.28125 305.089844 151.164062 L 305.089844 89.097656 C 305.089844 88.980469 305.1875 88.886719 305.304688 88.886719 L 367.828125 88.886719 C 367.945312 88.886719 368.042969 88.980469 368.042969 89.097656 C 368.042969 89.21875 367.945312 89.3125 367.828125 89.3125 L 305.519531 89.3125 L 305.519531 151.164062 C 305.519531 151.28125 305.421875 151.378906 305.304688 151.378906 " fill-opacity="1" fill-rule="nonzero"/><path fill="#363e44" d="M 413.683594 117.546875 L 367.945312 117.546875 C 367.832031 117.546875 367.734375 117.453125 367.734375 117.332031 L 367.734375 62.640625 C 367.734375 62.523438 367.832031 62.429688 367.945312 62.429688 L 413.683594 62.429688 C 413.800781 62.429688 413.898438 62.523438 413.898438 62.640625 C 413.898438 62.761719 413.800781 62.855469 413.683594 62.855469 L 368.160156 62.855469 L 368.160156 117.121094 L 413.683594 117.121094 C 413.800781 117.121094 413.898438 117.214844 413.898438 117.332031 C 413.898438 117.453125 413.800781 117.546875 413.683594 117.546875 " fill-opacity="1" fill-rule="nonzero"/><path fill="#e6d0be" d="M 382.164062 95.152344 L 353.253906 95.152344 L 353.253906 82.25 L 382.164062 82.25 L 382.164062 95.152344 " fill-opacity="1" fill-rule="nonzero"/><path fill="#363e44" d="M 460.796875 79.398438 L 415.0625 79.398438 C 414.941406 79.398438 414.847656 79.300781 414.847656 79.1875 L 414.847656 47.9375 C 414.847656 47.820312 414.941406 47.722656 415.0625 47.722656 L 460.796875 47.722656 C 460.914062 47.722656 461.011719 47.820312 461.011719 47.9375 C 461.011719 48.054688 460.914062 48.152344 460.796875 48.152344 L 415.273438 48.152344 L 415.273438 78.972656 L 460.796875 78.972656 C 460.914062 78.972656 461.011719 79.066406 461.011719 79.1875 C 461.011719 79.300781 460.914062 79.398438 460.796875 79.398438 " fill-opacity="1" fill-rule="nonzero"/><path fill="#efbc73" d="M 429.277344 68.722656 L 400.363281 68.722656 L 400.363281 55.820312 L 429.277344 55.820312 L 429.277344 68.722656 " fill-opacity="1" fill-rule="nonzero"/><path fill="#efbc73" d="M 490.054688 54.597656 L 461.140625 54.597656 L 461.140625 41.695312 L 490.054688 41.695312 L 490.054688 54.597656 " fill-opacity="1" fill-rule="nonzero"/><path fill="#e6d0be" d="M 490.054688 85.640625 L 461.140625 85.640625 L 461.140625 72.734375 L 490.054688 72.734375 L 490.054688 85.640625 " fill-opacity="1" fill-rule="nonzero"/><path fill="#363e44" d="M 461.496094 133.066406 L 415.757812 133.066406 C 415.644531 133.066406 415.542969 132.972656 415.542969 132.855469 L 415.542969 101.605469 C 415.542969 101.488281 415.644531 101.390625 415.757812 101.390625 L 461.496094 101.390625 C 461.613281 101.390625 461.710938 101.488281 461.710938 101.605469 C 461.710938 101.722656 461.613281 101.816406 461.496094 101.816406 L 415.976562 101.816406 L 415.976562 132.640625 L 461.496094 132.640625 C 461.613281 132.640625 461.710938 132.734375 461.710938 132.855469 C 461.710938 132.972656 461.613281 133.066406 461.496094 133.066406 " fill-opacity="1" fill-rule="nonzero"/><path fill="#d3bba3" d="M 429.976562 122.394531 L 401.0625 122.394531 L 401.0625 109.492188 L 429.976562 109.492188 L 429.976562 122.394531 " fill-opacity="1" fill-rule="nonzero"/><path fill="#efbc73" d="M 490.753906 108.265625 L 461.84375 108.265625 L 461.84375 95.359375 L 490.753906 95.359375 L 490.753906 108.265625 " fill-opacity="1" fill-rule="nonzero"/><path fill="#d3bba3" d="M 490.753906 139.304688 L 461.84375 139.304688 L 461.84375 126.402344 L 490.753906 126.402344 L 490.753906 139.304688 " fill-opacity="1" fill-rule="nonzero"/><g clip-path="url(#810e02dd9b)"><path fill="#ffffff" d="M 309.285156 288.464844 L 140.769531 288.464844 L 140.769531 299.089844 L 309.285156 299.089844 L 309.285156 288.464844 " fill-opacity="1" fill-rule="nonzero"/></g><g clip-path="url(#aaa6fbd194)"><path fill="#ffffff" d="M 140.984375 408.007812 L 309.074219 408.007812 L 309.074219 288.675781 L 140.984375 288.675781 Z M 309.285156 408.433594 L 140.769531 408.433594 C 140.652344 408.433594 140.558594 408.335938 140.558594 408.21875 L 140.558594 288.464844 C 140.558594 288.347656 140.652344 288.25 140.769531 288.25 L 309.285156 288.25 C 309.40625 288.25 309.5 288.347656 309.5 288.464844 L 309.5 408.21875 C 309.5 408.335938 309.40625 408.433594 309.285156 408.433594 " fill-opacity="1" fill-rule="nonzero"/></g><path fill="#efbc73" d="M 150.25 293.851562 C 150.25 295.1875 149.167969 296.269531 147.832031 296.269531 C 146.5 296.269531 145.417969 295.1875 145.417969 293.851562 C 145.417969 292.515625 146.5 291.433594 147.832031 291.433594 C 149.167969 291.433594 150.25 292.515625 150.25 293.851562 " fill-opacity="1" fill-rule="nonzero"/><path fill="#efbc73" d="M 158.054688 293.851562 C 158.054688 295.1875 156.972656 296.269531 155.640625 296.269531 C 154.304688 296.269531 153.222656 295.1875 153.222656 293.851562 C 153.222656 292.515625 154.304688 291.433594 155.640625 291.433594 C 156.972656 291.433594 158.054688 292.515625 158.054688 293.851562 " fill-opacity="1" fill-rule="nonzero"/><path fill="#efbc73" d="M 165.863281 293.851562 C 165.863281 295.1875 164.78125 296.269531 163.445312 296.269531 C 162.109375 296.269531 161.03125 295.1875 161.03125 293.851562 C 161.03125 292.515625 162.109375 291.433594 163.445312 291.433594 C 164.78125 291.433594 165.863281 292.515625 165.863281 293.851562 " fill-opacity="1" fill-rule="nonzero"/><path fill="#d87355" d="M 192.488281 343.796875 L 269.371094 343.796875 L 269.371094 334.359375 L 192.488281 334.359375 Z M 269.585938 344.226562 L 192.277344 344.226562 C 192.15625 344.226562 192.0625 344.128906 192.0625 344.011719 L 192.0625 334.144531 C 192.0625 334.023438 192.15625 333.929688 192.277344 333.929688 L 269.585938 333.929688 C 269.703125 333.929688 269.800781 334.023438 269.800781 334.144531 L 269.800781 344.011719 C 269.800781 344.128906 269.703125 344.226562 269.585938 344.226562 " fill-opacity="1" fill-rule="nonzero"/><path fill="#f7f1eb" d="M 225.859375 396.988281 L 148.828125 396.988281 L 148.828125 351.535156 L 225.859375 351.535156 L 225.859375 396.988281 " fill-opacity="1" fill-rule="nonzero"/><path fill="#e6d0be" d="M 198.386719 370.976562 C 198.386719 377.078125 193.441406 382.027344 187.34375 382.027344 C 181.246094 382.027344 176.300781 377.078125 176.300781 370.976562 C 176.300781 364.875 181.246094 359.929688 187.34375 359.929688 C 193.441406 359.929688 198.386719 364.875 198.386719 370.976562 " fill-opacity="1" fill-rule="nonzero"/><path fill="#ffffff" d="M 193.851562 370.976562 L 183.453125 364.972656 L 183.453125 376.984375 Z M 193.851562 370.976562 " fill-opacity="1" fill-rule="nonzero"/><path fill="#e6d0be" d="M 220.886719 392.847656 L 152.496094 392.847656 L 152.496094 389.882812 L 220.886719 389.882812 L 220.886719 392.847656 " fill-opacity="1" fill-rule="nonzero"/><path fill="#efbc73" d="M 225.355469 327.667969 L 148.046875 327.667969 L 148.046875 304.960938 L 225.355469 304.960938 L 225.355469 327.667969 " fill-opacity="1" fill-rule="nonzero"/><path fill="#363e44" d="M 163.136719 322.609375 L 163.109375 322.605469 C 163.027344 322.597656 162.957031 322.535156 162.929688 322.453125 L 159.523438 310.636719 C 159.492188 310.523438 159.554688 310.40625 159.667969 310.371094 C 159.78125 310.339844 159.902344 310.40625 159.933594 310.519531 L 163.207031 321.863281 L 167.425781 314.832031 C 167.5 314.703125 167.714844 314.703125 167.789062 314.832031 L 172.007812 321.863281 L 175.28125 310.519531 C 175.316406 310.40625 175.433594 310.339844 175.546875 310.371094 C 175.660156 310.40625 175.726562 310.523438 175.691406 310.636719 L 172.285156 322.453125 C 172.257812 322.535156 172.1875 322.597656 172.105469 322.605469 C 172.019531 322.617188 171.9375 322.578125 171.894531 322.503906 L 167.609375 315.359375 L 163.320312 322.503906 C 163.28125 322.570312 163.210938 322.609375 163.136719 322.609375 " fill-opacity="1" fill-rule="nonzero"/><path fill="#363e44" d="M 191.386719 322.609375 C 191.3125 322.609375 191.242188 322.570312 191.203125 322.503906 L 186.917969 315.359375 L 182.628906 322.503906 C 182.585938 322.578125 182.503906 322.617188 182.417969 322.605469 C 182.335938 322.597656 182.265625 322.535156 182.242188 322.453125 L 178.832031 310.636719 C 178.796875 310.523438 178.863281 310.40625 178.976562 310.371094 C 179.089844 310.339844 179.210938 310.40625 179.242188 310.519531 L 182.515625 321.863281 L 186.734375 314.832031 C 186.808594 314.703125 187.023438 314.703125 187.101562 314.832031 L 191.316406 321.863281 L 194.589844 310.519531 C 194.621094 310.40625 194.742188 310.339844 194.855469 310.371094 C 194.96875 310.40625 195.035156 310.523438 195 310.636719 L 191.589844 322.453125 C 191.566406 322.535156 191.5 322.597656 191.414062 322.605469 L 191.386719 322.609375 " fill-opacity="1" fill-rule="nonzero"/><path fill="#363e44" d="M 201.753906 322.609375 L 201.726562 322.605469 C 201.640625 322.597656 201.570312 322.535156 201.546875 322.453125 L 198.140625 310.636719 C 198.105469 310.523438 198.171875 310.40625 198.285156 310.371094 C 198.398438 310.339844 198.515625 310.40625 198.550781 310.519531 L 201.824219 321.863281 L 206.042969 314.832031 C 206.117188 314.703125 206.332031 314.703125 206.40625 314.832031 L 210.625 321.863281 L 213.898438 310.519531 C 213.933594 310.40625 214.050781 310.339844 214.164062 310.371094 C 214.277344 310.40625 214.34375 310.523438 214.308594 310.636719 L 210.898438 322.453125 C 210.875 322.535156 210.804688 322.597656 210.722656 322.605469 C 210.636719 322.617188 210.554688 322.578125 210.511719 322.503906 L 206.222656 315.359375 L 201.9375 322.503906 C 201.898438 322.570312 201.828125 322.609375 201.753906 322.609375 " fill-opacity="1" fill-rule="nonzero"/><path fill="#e6d0be" d="M 342.8125 414.507812 L 284.40625 414.507812 L 284.40625 356.070312 L 342.8125 356.070312 L 342.8125 414.507812 " fill-opacity="1" fill-rule="nonzero"/><path fill="#ffffff" d="M 295.988281 373.4375 C 295.933594 373.4375 295.878906 373.417969 295.835938 373.375 L 290.507812 368.042969 C 290.425781 367.960938 290.425781 367.824219 290.507812 367.738281 L 295.835938 362.40625 C 295.921875 362.324219 296.054688 362.324219 296.140625 362.40625 C 296.222656 362.492188 296.222656 362.625 296.140625 362.710938 L 290.960938 367.890625 L 296.140625 373.070312 C 296.222656 373.15625 296.222656 373.289062 296.140625 373.375 C 296.097656 373.417969 296.042969 373.4375 295.988281 373.4375 " fill-opacity="1" fill-rule="nonzero"/><path fill="#ffffff" d="M 304.71875 373.4375 C 304.664062 373.4375 304.609375 373.417969 304.566406 373.375 C 304.484375 373.289062 304.484375 373.15625 304.566406 373.070312 L 309.746094 367.890625 L 304.566406 362.710938 C 304.484375 362.625 304.484375 362.492188 304.566406 362.40625 C 304.648438 362.324219 304.785156 362.324219 304.871094 362.40625 L 310.199219 367.738281 C 310.238281 367.78125 310.261719 367.832031 310.261719 367.890625 C 310.261719 367.945312 310.238281 368.003906 310.199219 368.042969 L 304.871094 373.375 C 304.828125 373.417969 304.773438 373.4375 304.71875 373.4375 " fill-opacity="1" fill-rule="nonzero"/><path fill="#ffffff" d="M 298.074219 373.109375 C 298.042969 373.109375 298.011719 373.101562 297.980469 373.089844 C 297.875 373.039062 297.828125 372.910156 297.878906 372.804688 L 302.480469 362.761719 C 302.527344 362.652344 302.65625 362.605469 302.761719 362.65625 C 302.867188 362.707031 302.914062 362.832031 302.867188 362.9375 L 298.265625 372.984375 C 298.230469 373.0625 298.152344 373.109375 298.074219 373.109375 " fill-opacity="1" fill-rule="nonzero"/><path fill="#f2e6dc" d="M 339.210938 374.855469 L 316.644531 374.855469 L 316.644531 361.003906 L 339.210938 361.003906 L 339.210938 374.855469 " fill-opacity="1" fill-rule="nonzero"/><path fill="#ffffff" d="M 320.691406 380.191406 L 290.347656 380.191406 C 290.230469 380.191406 290.136719 380.097656 290.136719 379.976562 C 290.136719 379.859375 290.230469 379.765625 290.347656 379.765625 L 320.691406 379.765625 C 320.808594 379.765625 320.90625 379.859375 320.90625 379.976562 C 320.90625 380.097656 320.808594 380.191406 320.691406 380.191406 " fill-opacity="1" fill-rule="nonzero"/><path fill="#ffffff" d="M 338.152344 386.015625 L 311.464844 386.015625 C 311.347656 386.015625 311.25 385.917969 311.25 385.800781 C 311.25 385.683594 311.347656 385.585938 311.464844 385.585938 L 338.152344 385.585938 C 338.269531 385.585938 338.367188 385.683594 338.367188 385.800781 C 338.367188 385.917969 338.269531 386.015625 338.152344 386.015625 " fill-opacity="1" fill-rule="nonzero"/><path fill="#ffffff" d="M 305.644531 386.015625 L 290.347656 386.015625 C 290.230469 386.015625 290.136719 385.917969 290.136719 385.800781 C 290.136719 385.683594 290.230469 385.585938 290.347656 385.585938 L 305.644531 385.585938 C 305.761719 385.585938 305.859375 385.683594 305.859375 385.800781 C 305.859375 385.917969 305.761719 386.015625 305.644531 386.015625 " fill-opacity="1" fill-rule="nonzero"/><path fill="#ffffff" d="M 338.152344 391.839844 L 324.738281 391.839844 C 324.621094 391.839844 324.527344 391.746094 324.527344 391.625 C 324.527344 391.507812 324.621094 391.410156 324.738281 391.410156 L 338.152344 391.410156 C 338.269531 391.410156 338.367188 391.507812 338.367188 391.625 C 338.367188 391.746094 338.269531 391.839844 338.152344 391.839844 " fill-opacity="1" fill-rule="nonzero"/><path fill="#ffffff" d="M 318.917969 391.839844 L 290.347656 391.839844 C 290.230469 391.839844 290.136719 391.746094 290.136719 391.625 C 290.136719 391.507812 290.230469 391.410156 290.347656 391.410156 L 318.917969 391.410156 C 319.039062 391.410156 319.132812 391.507812 319.132812 391.625 C 319.132812 391.746094 319.039062 391.839844 318.917969 391.839844 " fill-opacity="1" fill-rule="nonzero"/><path fill="#ffffff" d="M 329.421875 397.664062 L 290.347656 397.664062 C 290.230469 397.664062 290.136719 397.566406 290.136719 397.449219 C 290.136719 397.332031 290.230469 397.234375 290.347656 397.234375 L 329.421875 397.234375 C 329.539062 397.234375 329.636719 397.332031 329.636719 397.449219 C 329.636719 397.566406 329.539062 397.664062 329.421875 397.664062 " fill-opacity="1" fill-rule="nonzero"/><path fill="#363e44" d="M 499.152344 202.425781 C 499.117188 203.917969 497.875 205.09375 496.386719 205.058594 C 494.894531 205.019531 493.71875 203.78125 493.757812 202.289062 C 493.792969 200.800781 495.035156 199.621094 496.519531 199.660156 C 498.015625 199.691406 499.191406 200.933594 499.152344 202.425781 Z M 532.46875 214.476562 L 533.035156 192.089844 L 499.851562 191.242188 L 487.402344 202.128906 L 499.285156 213.632812 L 532.46875 214.476562 " fill-opacity="1" fill-rule="nonzero"/><path fill="#d3bba3" d="M 471.109375 168.007812 L 471.085938 168.007812 C 470.746094 167.972656 470.394531 167.960938 470.042969 167.964844 L 470.039062 167.964844 C 469.921875 167.964844 469.828125 167.871094 469.824219 167.75 C 469.824219 167.632812 469.917969 167.539062 470.035156 167.535156 C 470.40625 167.53125 470.769531 167.546875 471.128906 167.582031 C 471.246094 167.59375 471.332031 167.699219 471.320312 167.816406 C 471.308594 167.925781 471.214844 168.007812 471.109375 168.007812 Z M 467.722656 168.292969 C 467.625 168.292969 467.535156 168.230469 467.515625 168.132812 C 467.484375 168.023438 467.550781 167.902344 467.664062 167.875 C 468.015625 167.777344 468.378906 167.703125 468.730469 167.648438 C 468.847656 167.628906 468.957031 167.710938 468.972656 167.828125 C 468.992188 167.941406 468.914062 168.054688 468.796875 168.070312 C 468.460938 168.125 468.113281 168.199219 467.773438 168.285156 Z M 473.386719 168.566406 C 473.359375 168.566406 473.332031 168.5625 473.308594 168.550781 C 472.984375 168.421875 472.652344 168.316406 472.316406 168.230469 C 472.203125 168.199219 472.132812 168.082031 472.160156 167.96875 C 472.191406 167.855469 472.308594 167.785156 472.421875 167.816406 C 472.773438 167.902344 473.125 168.019531 473.464844 168.152344 C 473.574219 168.195312 473.628906 168.320312 473.585938 168.429688 C 473.550781 168.515625 473.46875 168.566406 473.386719 168.566406 Z M 465.53125 169.140625 C 465.453125 169.140625 465.378906 169.097656 465.339844 169.023438 C 465.285156 168.921875 465.332031 168.789062 465.4375 168.738281 C 465.757812 168.570312 466.09375 168.421875 466.425781 168.285156 C 466.535156 168.242188 466.660156 168.296875 466.703125 168.40625 C 466.746094 168.515625 466.695312 168.640625 466.582031 168.683594 C 466.265625 168.8125 465.945312 168.957031 465.628906 169.117188 C 465.597656 169.136719 465.5625 169.140625 465.53125 169.140625 Z M 475.4375 169.699219 C 475.394531 169.699219 475.351562 169.6875 475.3125 169.660156 C 475.222656 169.597656 475.132812 169.535156 475.042969 169.472656 C 474.84375 169.335938 474.640625 169.210938 474.433594 169.09375 C 474.332031 169.03125 474.296875 168.90625 474.355469 168.800781 C 474.414062 168.699219 474.542969 168.660156 474.648438 168.722656 C 474.859375 168.84375 475.074219 168.976562 475.28125 169.117188 C 475.378906 169.183594 475.46875 169.246094 475.5625 169.3125 C 475.65625 169.382812 475.679688 169.515625 475.613281 169.609375 C 475.570312 169.667969 475.503906 169.699219 475.4375 169.699219 Z M 463.546875 170.394531 C 463.484375 170.394531 463.417969 170.367188 463.375 170.3125 C 463.304688 170.214844 463.324219 170.082031 463.417969 170.011719 C 463.707031 169.789062 464.007812 169.582031 464.304688 169.386719 C 464.402344 169.324219 464.539062 169.351562 464.601562 169.453125 C 464.664062 169.550781 464.636719 169.683594 464.539062 169.746094 C 464.246094 169.933594 463.957031 170.136719 463.675781 170.351562 C 463.636719 170.378906 463.59375 170.394531 463.546875 170.394531 Z M 477.21875 171.234375 C 477.164062 171.234375 477.105469 171.210938 477.066406 171.167969 C 476.828125 170.917969 476.570312 170.675781 476.304688 170.441406 C 476.214844 170.367188 476.207031 170.230469 476.28125 170.140625 C 476.363281 170.050781 476.496094 170.042969 476.585938 170.121094 C 476.863281 170.359375 477.125 170.613281 477.371094 170.867188 C 477.457031 170.953125 477.453125 171.089844 477.371094 171.171875 C 477.324219 171.210938 477.273438 171.234375 477.21875 171.234375 Z M 461.789062 171.957031 C 461.734375 171.957031 461.683594 171.933594 461.644531 171.894531 C 461.554688 171.8125 461.554688 171.679688 461.636719 171.59375 C 461.886719 171.328125 462.152344 171.078125 462.414062 170.839844 C 462.503906 170.761719 462.636719 170.765625 462.714844 170.855469 C 462.796875 170.941406 462.789062 171.078125 462.703125 171.15625 C 462.445312 171.390625 462.191406 171.636719 461.945312 171.890625 C 461.898438 171.933594 461.84375 171.957031 461.789062 171.957031 Z M 478.664062 173.082031 C 478.589844 173.082031 478.519531 173.046875 478.480469 172.984375 C 478.296875 172.6875 478.097656 172.398438 477.886719 172.121094 C 477.8125 172.027344 477.832031 171.890625 477.925781 171.820312 C 478.019531 171.75 478.152344 171.765625 478.226562 171.859375 C 478.445312 172.148438 478.652344 172.449219 478.84375 172.753906 C 478.90625 172.855469 478.875 172.988281 478.773438 173.050781 C 478.742188 173.070312 478.699219 173.082031 478.664062 173.082031 Z M 460.265625 173.746094 C 460.222656 173.746094 460.175781 173.730469 460.136719 173.699219 C 460.042969 173.628906 460.023438 173.496094 460.097656 173.402344 C 460.3125 173.113281 460.539062 172.828125 460.765625 172.554688 C 460.84375 172.464844 460.976562 172.449219 461.070312 172.53125 C 461.160156 172.605469 461.167969 172.742188 461.09375 172.832031 C 460.871094 173.097656 460.652344 173.375 460.4375 173.65625 C 460.394531 173.710938 460.332031 173.746094 460.265625 173.746094 Z M 479.683594 175.195312 C 479.597656 175.195312 479.515625 175.144531 479.480469 175.054688 C 479.363281 174.722656 479.226562 174.398438 479.082031 174.085938 C 479.03125 173.980469 479.074219 173.851562 479.183594 173.800781 C 479.289062 173.753906 479.417969 173.796875 479.46875 173.902344 C 479.621094 174.226562 479.761719 174.5625 479.882812 174.910156 C 479.925781 175.019531 479.867188 175.144531 479.757812 175.183594 C 479.734375 175.191406 479.707031 175.195312 479.683594 175.195312 Z M 458.96875 175.703125 C 458.929688 175.703125 458.894531 175.695312 458.859375 175.675781 C 458.757812 175.613281 458.722656 175.484375 458.78125 175.382812 C 458.964844 175.070312 459.15625 174.761719 459.351562 174.464844 C 459.414062 174.367188 459.550781 174.335938 459.644531 174.402344 C 459.746094 174.46875 459.773438 174.601562 459.707031 174.699219 C 459.515625 174.992188 459.332031 175.292969 459.152344 175.597656 C 459.109375 175.664062 459.039062 175.703125 458.96875 175.703125 Z M 480.28125 177.46875 C 480.179688 177.46875 480.089844 177.394531 480.070312 177.289062 C 480.011719 176.9375 479.9375 176.59375 479.851562 176.261719 C 479.820312 176.144531 479.894531 176.03125 480.007812 176 C 480.121094 175.972656 480.238281 176.042969 480.265625 176.15625 C 480.351562 176.5 480.429688 176.855469 480.492188 177.21875 C 480.511719 177.332031 480.433594 177.445312 480.320312 177.464844 Z M 457.882812 177.789062 C 457.851562 177.789062 457.820312 177.78125 457.789062 177.769531 C 457.683594 177.71875 457.636719 177.59375 457.683594 177.484375 C 457.835938 177.15625 458 176.832031 458.160156 176.515625 C 458.214844 176.410156 458.34375 176.371094 458.445312 176.421875 C 458.550781 176.480469 458.597656 176.605469 458.539062 176.710938 C 458.382812 177.019531 458.222656 177.34375 458.074219 177.664062 C 458.039062 177.742188 457.960938 177.789062 457.882812 177.789062 Z M 480.527344 179.808594 C 480.414062 179.808594 480.320312 179.71875 480.3125 179.605469 C 480.296875 179.242188 480.273438 178.886719 480.242188 178.546875 C 480.230469 178.429688 480.3125 178.324219 480.429688 178.316406 C 480.550781 178.300781 480.65625 178.386719 480.664062 178.503906 C 480.699219 178.851562 480.722656 179.214844 480.742188 179.585938 C 480.746094 179.707031 480.65625 179.800781 480.535156 179.808594 Z M 456.992188 179.96875 C 456.96875 179.96875 456.945312 179.960938 456.921875 179.953125 C 456.808594 179.914062 456.75 179.792969 456.792969 179.683594 C 456.914062 179.339844 457.039062 179 457.175781 178.671875 C 457.21875 178.5625 457.34375 178.511719 457.453125 178.554688 C 457.5625 178.597656 457.613281 178.722656 457.570312 178.832031 C 457.441406 179.15625 457.3125 179.488281 457.191406 179.824219 C 457.160156 179.910156 457.078125 179.96875 456.992188 179.96875 Z M 480.511719 182.160156 L 480.503906 182.160156 C 480.382812 182.15625 480.292969 182.054688 480.296875 181.9375 C 480.316406 181.574219 480.328125 181.214844 480.332031 180.875 C 480.332031 180.757812 480.429688 180.660156 480.546875 180.664062 C 480.664062 180.667969 480.761719 180.761719 480.757812 180.882812 C 480.753906 181.226562 480.742188 181.589844 480.722656 181.960938 C 480.71875 182.074219 480.625 182.160156 480.511719 182.160156 Z M 456.289062 182.210938 L 456.230469 182.203125 C 456.121094 182.171875 456.050781 182.054688 456.082031 181.9375 C 456.175781 181.597656 456.277344 181.246094 456.382812 180.90625 C 456.417969 180.792969 456.539062 180.730469 456.648438 180.765625 C 456.761719 180.800781 456.824219 180.921875 456.789062 181.035156 C 456.6875 181.367188 456.589844 181.710938 456.492188 182.050781 C 456.46875 182.148438 456.382812 182.210938 456.289062 182.210938 Z M 455.753906 184.5 L 455.710938 184.496094 C 455.597656 184.476562 455.519531 184.363281 455.542969 184.246094 C 455.613281 183.890625 455.6875 183.535156 455.769531 183.195312 C 455.792969 183.078125 455.90625 183.003906 456.023438 183.035156 C 456.140625 183.058594 456.210938 183.171875 456.183594 183.289062 C 456.105469 183.628906 456.03125 183.980469 455.960938 184.328125 C 455.945312 184.429688 455.851562 184.5 455.753906 184.5 Z M 480.324219 184.507812 L 480.304688 184.503906 C 480.1875 184.496094 480.097656 184.386719 480.113281 184.273438 C 480.148438 183.917969 480.183594 183.566406 480.214844 183.210938 C 480.222656 183.09375 480.320312 183.007812 480.445312 183.015625 C 480.5625 183.027344 480.648438 183.128906 480.636719 183.246094 C 480.609375 183.605469 480.574219 183.960938 480.535156 184.320312 C 480.527344 184.425781 480.433594 184.507812 480.324219 184.507812 Z M 455.375 186.820312 L 455.347656 186.820312 C 455.230469 186.804688 455.148438 186.699219 455.160156 186.578125 C 455.210938 186.222656 455.261719 185.867188 455.316406 185.515625 C 455.335938 185.398438 455.445312 185.320312 455.5625 185.339844 C 455.675781 185.355469 455.757812 185.464844 455.742188 185.582031 C 455.683594 185.929688 455.632812 186.28125 455.585938 186.636719 C 455.574219 186.746094 455.480469 186.820312 455.375 186.820312 Z M 480.039062 186.84375 L 480.007812 186.84375 C 479.894531 186.828125 479.808594 186.71875 479.828125 186.605469 C 479.875 186.25 479.921875 185.894531 479.960938 185.546875 C 479.980469 185.425781 480.082031 185.34375 480.203125 185.355469 C 480.320312 185.375 480.402344 185.480469 480.390625 185.597656 C 480.34375 185.953125 480.296875 186.304688 480.25 186.660156 C 480.234375 186.769531 480.144531 186.84375 480.039062 186.84375 Z M 455.136719 189.160156 L 455.125 189.160156 C 455.007812 189.15625 454.917969 189.050781 454.929688 188.933594 C 454.953125 188.570312 454.984375 188.214844 455.019531 187.863281 C 455.027344 187.746094 455.132812 187.660156 455.25 187.671875 C 455.367188 187.683594 455.453125 187.789062 455.441406 187.90625 C 455.40625 188.253906 455.378906 188.605469 455.351562 188.964844 C 455.34375 189.074219 455.25 189.160156 455.136719 189.160156 Z M 479.714844 189.179688 L 479.683594 189.175781 C 479.566406 189.15625 479.484375 189.050781 479.503906 188.933594 L 479.648438 187.875 C 479.667969 187.753906 479.773438 187.675781 479.890625 187.691406 C 480.007812 187.707031 480.089844 187.816406 480.074219 187.929688 L 479.925781 188.992188 C 479.910156 189.097656 479.820312 189.179688 479.714844 189.179688 Z M 479.410156 191.507812 L 479.386719 191.507812 C 479.273438 191.496094 479.1875 191.386719 479.199219 191.269531 C 479.242188 190.917969 479.28125 190.5625 479.328125 190.203125 C 479.34375 190.089844 479.449219 190.007812 479.566406 190.019531 C 479.6875 190.035156 479.769531 190.144531 479.753906 190.261719 C 479.707031 190.617188 479.664062 190.96875 479.625 191.320312 C 479.613281 191.429688 479.519531 191.507812 479.410156 191.507812 Z M 455.039062 191.515625 L 455.035156 191.515625 C 454.917969 191.511719 454.824219 191.414062 454.824219 191.292969 C 454.828125 190.933594 454.839844 190.578125 454.855469 190.222656 C 454.859375 190.101562 454.960938 190.011719 455.078125 190.015625 C 455.195312 190.019531 455.289062 190.121094 455.28125 190.238281 C 455.265625 190.589844 455.253906 190.945312 455.253906 191.304688 C 455.25 191.421875 455.152344 191.515625 455.039062 191.515625 Z M 479.210938 193.851562 L 479.195312 193.851562 C 479.078125 193.847656 478.988281 193.746094 478.996094 193.628906 C 479.011719 193.289062 479.039062 192.929688 479.070312 192.554688 C 479.082031 192.4375 479.179688 192.347656 479.300781 192.359375 C 479.417969 192.371094 479.503906 192.472656 479.496094 192.589844 C 479.464844 192.960938 479.441406 193.316406 479.421875 193.652344 C 479.414062 193.765625 479.320312 193.851562 479.210938 193.851562 Z M 455.058594 193.867188 C 454.941406 193.867188 454.847656 193.773438 454.84375 193.660156 C 454.835938 193.296875 454.824219 192.9375 454.820312 192.585938 C 454.820312 192.46875 454.914062 192.371094 455.035156 192.367188 C 455.144531 192.367188 455.246094 192.460938 455.25 192.578125 C 455.253906 192.929688 455.261719 193.285156 455.273438 193.644531 C 455.277344 193.765625 455.183594 193.859375 455.066406 193.867188 Z M 479.195312 196.207031 C 479.082031 196.207031 478.988281 196.117188 478.980469 196.003906 C 478.964844 195.679688 478.957031 195.335938 478.957031 194.988281 L 478.957031 194.925781 C 478.957031 194.804688 479.050781 194.710938 479.167969 194.710938 C 479.289062 194.710938 479.382812 194.804688 479.382812 194.925781 L 479.382812 194.988281 C 479.382812 195.332031 479.390625 195.664062 479.410156 195.980469 C 479.414062 196.101562 479.324219 196.199219 479.207031 196.207031 Z M 479.511719 198.535156 C 479.414062 198.535156 479.328125 198.46875 479.304688 198.371094 C 479.226562 198.03125 479.15625 197.671875 479.105469 197.300781 C 479.085938 197.183594 479.167969 197.074219 479.285156 197.058594 C 479.402344 197.039062 479.511719 197.121094 479.527344 197.238281 C 479.578125 197.597656 479.644531 197.945312 479.71875 198.269531 C 479.746094 198.386719 479.675781 198.5 479.558594 198.53125 Z M 480.328125 200.734375 C 480.253906 200.734375 480.179688 200.695312 480.140625 200.621094 C 479.972656 200.304688 479.820312 199.972656 479.6875 199.621094 C 479.644531 199.515625 479.699219 199.390625 479.808594 199.347656 C 479.917969 199.304688 480.042969 199.359375 480.085938 199.472656 C 480.210938 199.800781 480.359375 200.121094 480.519531 200.417969 C 480.574219 200.519531 480.535156 200.652344 480.429688 200.707031 C 480.398438 200.726562 480.363281 200.734375 480.328125 200.734375 Z M 481.734375 202.613281 C 481.675781 202.613281 481.621094 202.59375 481.578125 202.550781 C 481.320312 202.285156 481.074219 202.003906 480.859375 201.722656 C 480.789062 201.632812 480.804688 201.496094 480.898438 201.425781 C 480.992188 201.351562 481.125 201.371094 481.199219 201.464844 C 481.40625 201.730469 481.636719 201.996094 481.882812 202.25 C 481.96875 202.335938 481.964844 202.472656 481.882812 202.554688 C 481.839844 202.59375 481.785156 202.613281 481.734375 202.613281 Z M 495.78125 202.710938 C 495.710938 202.710938 495.644531 202.679688 495.601562 202.617188 C 495.535156 202.519531 495.558594 202.386719 495.65625 202.320312 C 495.957031 202.117188 496.242188 201.902344 496.507812 201.695312 C 496.601562 201.621094 496.738281 201.636719 496.808594 201.726562 C 496.882812 201.824219 496.863281 201.957031 496.773438 202.03125 C 496.5 202.246094 496.203125 202.460938 495.898438 202.671875 C 495.863281 202.699219 495.820312 202.710938 495.78125 202.710938 Z M 493.757812 203.914062 C 493.679688 203.914062 493.601562 203.871094 493.5625 203.792969 C 493.511719 203.691406 493.554688 203.5625 493.65625 203.507812 C 493.96875 203.347656 494.28125 203.179688 494.585938 203 C 494.691406 202.941406 494.820312 202.976562 494.882812 203.078125 C 494.9375 203.179688 494.90625 203.308594 494.800781 203.371094 C 494.492188 203.554688 494.167969 203.730469 493.855469 203.890625 C 493.820312 203.90625 493.789062 203.914062 493.757812 203.914062 Z M 483.558594 204.089844 C 483.519531 204.089844 483.476562 204.078125 483.445312 204.058594 C 483.136719 203.867188 482.835938 203.65625 482.550781 203.429688 C 482.457031 203.355469 482.441406 203.21875 482.515625 203.128906 C 482.589844 203.035156 482.726562 203.019531 482.816406 203.09375 C 483.089844 203.3125 483.378906 203.511719 483.667969 203.695312 C 483.769531 203.753906 483.800781 203.890625 483.738281 203.992188 C 483.695312 204.054688 483.628906 204.089844 483.558594 204.089844 Z M 491.585938 204.820312 C 491.496094 204.820312 491.414062 204.761719 491.382812 204.667969 C 491.34375 204.558594 491.40625 204.4375 491.519531 204.398438 C 491.847656 204.292969 492.179688 204.171875 492.507812 204.035156 C 492.617188 203.992188 492.742188 204.042969 492.785156 204.152344 C 492.832031 204.261719 492.777344 204.386719 492.671875 204.433594 C 492.332031 204.574219 491.988281 204.699219 491.652344 204.808594 C 491.628906 204.816406 491.609375 204.820312 491.585938 204.820312 Z M 485.695312 205.054688 C 485.675781 205.054688 485.65625 205.050781 485.636719 205.046875 C 485.515625 205.011719 485.394531 204.96875 485.273438 204.929688 C 485.050781 204.855469 484.824219 204.765625 484.605469 204.667969 C 484.496094 204.621094 484.445312 204.496094 484.492188 204.390625 C 484.542969 204.28125 484.667969 204.230469 484.777344 204.28125 C 484.984375 204.371094 485.199219 204.453125 485.414062 204.527344 C 485.527344 204.566406 485.640625 204.601562 485.757812 204.636719 C 485.867188 204.667969 485.933594 204.789062 485.898438 204.898438 C 485.875 204.992188 485.785156 205.054688 485.695312 205.054688 Z M 489.296875 205.332031 C 489.1875 205.332031 489.09375 205.25 489.082031 205.144531 C 489.066406 205.027344 489.152344 204.917969 489.269531 204.90625 C 489.609375 204.867188 489.953125 204.808594 490.304688 204.734375 C 490.417969 204.707031 490.53125 204.777344 490.558594 204.894531 C 490.582031 205.011719 490.507812 205.125 490.394531 205.148438 C 490.035156 205.226562 489.671875 205.289062 489.316406 205.328125 Z M 488.015625 205.398438 L 488.011719 205.398438 C 487.644531 205.394531 487.277344 205.367188 486.917969 205.320312 C 486.800781 205.304688 486.722656 205.191406 486.738281 205.078125 C 486.753906 204.960938 486.859375 204.878906 486.976562 204.894531 C 487.316406 204.9375 487.667969 204.964844 488.015625 204.96875 C 488.136719 204.96875 488.230469 205.070312 488.226562 205.1875 C 488.226562 205.304688 488.132812 205.398438 488.015625 205.398438 " fill-opacity="1" fill-rule="nonzero"/><path fill="#ffffff" d="M 510.484375 208.347656 C 510.417969 208.347656 510.359375 208.320312 510.316406 208.265625 L 505.027344 201.621094 C 504.953125 201.527344 504.96875 201.390625 505.0625 201.320312 L 511.707031 196.027344 C 511.796875 195.953125 511.933594 195.96875 512.003906 196.058594 C 512.078125 196.152344 512.0625 196.285156 511.96875 196.363281 L 505.496094 201.519531 L 510.648438 208 C 510.722656 208.089844 510.707031 208.222656 510.613281 208.300781 C 510.578125 208.332031 510.53125 208.347656 510.484375 208.347656 " fill-opacity="1" fill-rule="nonzero"/><path fill="#ffffff" d="M 520.253906 209.457031 C 520.191406 209.457031 520.128906 209.429688 520.085938 209.375 C 520.011719 209.285156 520.027344 209.152344 520.121094 209.078125 L 526.59375 203.917969 L 521.4375 197.441406 C 521.367188 197.34375 521.382812 197.214844 521.476562 197.136719 C 521.5625 197.0625 521.703125 197.082031 521.773438 197.171875 L 527.0625 203.820312 C 527.097656 203.863281 527.113281 203.917969 527.109375 203.972656 C 527.101562 204.035156 527.074219 204.082031 527.027344 204.117188 L 520.382812 209.414062 C 520.347656 209.441406 520.300781 209.457031 520.253906 209.457031 " fill-opacity="1" fill-rule="nonzero"/><path fill="#ffffff" d="M 518 208.871094 C 517.910156 208.871094 517.824219 208.816406 517.796875 208.722656 L 513.921875 196.894531 C 513.886719 196.785156 513.949219 196.664062 514.058594 196.625 C 514.171875 196.589844 514.292969 196.652344 514.328125 196.761719 L 518.203125 208.589844 C 518.242188 208.703125 518.175781 208.824219 518.066406 208.863281 C 518.042969 208.867188 518.023438 208.871094 518 208.871094 " fill-opacity="1" fill-rule="nonzero"/><path fill="#ffffff" d="M 447.871094 150.8125 C 460.988281 155.488281 467.832031 169.917969 463.160156 183.046875 C 458.488281 196.167969 444.066406 203.015625 430.949219 198.339844 C 417.835938 193.664062 410.988281 179.234375 415.660156 166.109375 C 420.332031 152.984375 434.757812 146.140625 447.871094 150.8125 " fill-opacity="1" fill-rule="nonzero"/><path fill="#f7f1eb" d="M 439.390625 149.550781 C 435.738281 149.550781 432.097656 150.367188 428.695312 151.980469 C 422.664062 154.84375 418.105469 159.886719 415.867188 166.183594 C 413.621094 172.476562 413.96875 179.265625 416.828125 185.300781 C 419.691406 191.335938 424.734375 195.894531 431.019531 198.136719 C 444.007812 202.765625 458.332031 195.960938 462.957031 182.972656 C 467.585938 169.980469 460.785156 155.644531 447.800781 151.015625 C 445.058594 150.039062 442.222656 149.550781 439.390625 149.550781 Z M 439.386719 200.015625 C 436.5625 200.015625 433.6875 199.542969 430.878906 198.539062 C 424.480469 196.257812 419.351562 191.625 416.441406 185.480469 C 413.53125 179.34375 413.179688 172.4375 415.460938 166.039062 C 417.742188 159.636719 422.375 154.507812 428.507812 151.59375 C 434.644531 148.683594 441.546875 148.332031 447.945312 150.613281 C 461.152344 155.320312 468.066406 169.902344 463.363281 183.113281 C 459.660156 193.515625 449.839844 200.015625 439.386719 200.015625 " fill-opacity="1" fill-rule="nonzero"/><path fill="#d3bba3" d="M 431.652344 156.488281 L 430.410156 157.335938 L 434.117188 162.792969 L 430.402344 165.316406 L 426.695312 159.863281 L 425.453125 160.707031 L 426.003906 168.191406 L 432.753906 171.457031 L 438.957031 167.238281 L 438.40625 159.753906 L 431.652344 156.488281 " fill-opacity="1" fill-rule="nonzero"/><path fill="#d3bba3" d="M 447.164062 192.667969 L 448.410156 191.820312 L 444.703125 186.363281 L 448.414062 183.839844 L 452.121094 189.296875 L 453.367188 188.449219 L 452.816406 180.964844 L 446.066406 177.699219 L 439.863281 181.917969 L 440.410156 189.402344 L 447.164062 192.667969 " fill-opacity="1" fill-rule="nonzero"/><path fill="#d3bba3" d="M 446.828125 181.410156 L 443.035156 183.992188 L 432.664062 168.726562 L 436.457031 166.148438 L 446.828125 181.410156 " fill-opacity="1" fill-rule="nonzero"/><path fill="#e6d0be" d="M 193.019531 91.164062 C 186.4375 94.050781 178.765625 91.046875 175.882812 84.460938 C 173.003906 77.875 176.003906 70.199219 182.585938 67.316406 C 189.167969 64.433594 196.839844 67.4375 199.71875 74.023438 C 202.601562 80.609375 199.601562 88.285156 193.019531 91.164062 Z M 216.625 73.445312 L 211.613281 61.988281 L 206.167969 64.371094 C 204.917969 62.820312 203.484375 61.453125 201.921875 60.289062 L 204.085938 54.75 L 192.445312 50.195312 L 190.28125 55.734375 C 188.34375 55.527344 186.363281 55.558594 184.390625 55.851562 L 182.007812 50.402344 L 170.558594 55.417969 L 172.941406 60.863281 C 171.390625 62.117188 170.023438 63.550781 168.859375 65.113281 L 163.324219 62.949219 L 158.773438 74.59375 L 164.308594 76.761719 C 164.101562 78.703125 164.132812 80.679688 164.421875 82.652344 L 158.980469 85.035156 L 163.992188 96.496094 L 169.433594 94.113281 C 170.6875 95.660156 172.117188 97.027344 173.683594 98.191406 L 171.519531 103.730469 L 183.160156 108.289062 L 185.324219 102.75 C 187.261719 102.957031 189.238281 102.921875 191.210938 102.632812 L 193.59375 108.078125 L 205.046875 103.066406 L 202.664062 97.621094 C 204.214844 96.367188 205.582031 94.933594 206.742188 93.367188 L 212.277344 95.53125 L 216.832031 83.886719 L 211.296875 81.722656 C 211.503906 79.78125 211.46875 77.804688 211.179688 75.828125 L 216.625 73.445312 " fill-opacity="1" fill-rule="nonzero"/></svg>