<svg xmlns="http://www.w3.org/2000/svg" xmlns:xlink="http://www.w3.org/1999/xlink" width="900" zoomAndPan="magnify" viewBox="0 0 675 449.999984" height="600" preserveAspectRatio="xMidYMid meet" version="1.0"><defs><clipPath id="d4ae93ede6"><path d="M 149 31.84375 L 535.886719 31.84375 L 535.886719 418.09375 L 149 418.09375 Z M 149 31.84375 " clip-rule="nonzero"/></clipPath></defs><rect x="-67.5" width="810" fill="#ffffff" y="-44.999998" height="539.99998" fill-opacity="1"/><rect x="-67.5" width="810" fill="#edf2f4" y="-44.999998" height="539.99998" fill-opacity="1"/><g clip-path="url(#d4ae93ede6)"><path fill="#f2e6dc" d="M 535.867188 224.96875 C 535.867188 331.628906 449.359375 418.09375 342.640625 418.09375 C 235.925781 418.09375 149.417969 331.628906 149.417969 224.96875 C 149.417969 118.3125 235.925781 31.847656 342.640625 31.847656 C 449.359375 31.847656 535.867188 118.3125 535.867188 224.96875 " fill-opacity="1" fill-rule="nonzero"/></g><path fill="#f7f1eb" d="M 380.640625 397.234375 L 149.417969 397.234375 L 149.417969 218.117188 L 380.640625 218.117188 L 380.640625 397.234375 " fill-opacity="1" fill-rule="nonzero"/><path fill="#e6d0be" d="M 398.195312 368.703125 C 401.832031 378.40625 396.925781 389.226562 387.234375 392.871094 C 377.539062 396.511719 366.726562 391.601562 363.085938 381.898438 C 359.449219 372.195312 364.355469 361.375 374.046875 357.730469 C 383.742188 354.085938 394.550781 359 398.195312 368.703125 Z M 374.515625 333.335938 L 357.652344 339.675781 L 360.664062 347.699219 C 358.335938 349.382812 356.261719 351.339844 354.464844 353.503906 L 346.667969 349.960938 L 339.21875 366.378906 L 347.015625 369.921875 C 346.570312 372.699219 346.46875 375.550781 346.730469 378.414062 L 338.714844 381.429688 L 345.050781 398.308594 L 353.066406 395.296875 C 354.75 397.625 356.703125 399.703125 358.863281 401.5 L 355.324219 409.308594 L 371.726562 416.761719 L 375.269531 408.957031 C 378.042969 409.402344 380.890625 409.507812 383.753906 409.242188 L 386.761719 417.265625 L 403.628906 410.925781 L 400.617188 402.902344 C 402.945312 401.214844 405.019531 399.261719 406.816406 397.097656 L 414.613281 400.640625 L 422.0625 384.222656 L 414.265625 380.675781 C 414.710938 377.898438 414.8125 375.046875 414.550781 372.183594 L 422.566406 369.171875 L 416.230469 352.289062 L 408.214844 355.304688 C 406.53125 352.972656 404.578125 350.894531 402.414062 349.097656 L 405.957031 341.292969 L 389.550781 333.839844 L 386.011719 341.644531 C 383.238281 341.199219 380.386719 341.097656 377.527344 341.359375 L 374.515625 333.335938 " fill-opacity="1" fill-rule="nonzero"/><path fill="#d87355" d="M 382.855469 380.125 C 384.082031 381.347656 384.082031 383.335938 382.855469 384.5625 C 381.632812 385.785156 379.648438 385.785156 378.425781 384.5625 C 377.199219 383.335938 377.199219 381.347656 378.425781 380.125 C 379.648438 378.898438 381.632812 378.898438 382.855469 380.125 " fill-opacity="1" fill-rule="nonzero"/><path fill="#363e44" d="M 385.320312 378.125 C 385.199219 378.125 385.082031 378.078125 384.992188 377.988281 C 383.828125 376.824219 382.285156 376.183594 380.640625 376.1875 C 378.996094 376.1875 377.453125 376.824219 376.289062 377.988281 C 376.109375 378.167969 375.8125 378.167969 375.632812 377.988281 C 375.449219 377.808594 375.449219 377.511719 375.632812 377.328125 C 376.96875 375.992188 378.746094 375.253906 380.640625 375.253906 C 382.53125 375.253906 384.3125 375.988281 385.648438 377.328125 C 385.832031 377.511719 385.832031 377.808594 385.648438 377.988281 C 385.558594 378.078125 385.4375 378.125 385.320312 378.125 " fill-opacity="1" fill-rule="nonzero"/><path fill="#363e44" d="M 389.0625 374.375 C 388.945312 374.375 388.824219 374.332031 388.734375 374.242188 C 386.570312 372.078125 383.695312 370.886719 380.640625 370.886719 C 377.585938 370.886719 374.710938 372.078125 372.546875 374.242188 C 372.367188 374.421875 372.070312 374.421875 371.890625 374.242188 C 371.707031 374.058594 371.707031 373.765625 371.890625 373.582031 C 374.226562 371.242188 377.335938 369.957031 380.640625 369.957031 C 383.949219 369.957031 387.054688 371.242188 389.394531 373.582031 C 389.574219 373.765625 389.574219 374.058594 389.394531 374.242188 C 389.300781 374.332031 389.183594 374.375 389.0625 374.375 " fill-opacity="1" fill-rule="nonzero"/><path fill="#363e44" d="M 392.804688 370.628906 C 392.6875 370.628906 392.566406 370.585938 392.476562 370.496094 C 389.3125 367.328125 385.109375 365.585938 380.640625 365.585938 C 376.167969 365.585938 371.964844 367.328125 368.804688 370.496094 C 368.621094 370.675781 368.328125 370.675781 368.144531 370.496094 C 367.964844 370.3125 367.964844 370.019531 368.144531 369.835938 C 371.484375 366.496094 375.921875 364.65625 380.640625 364.65625 C 385.359375 364.65625 389.796875 366.496094 393.136719 369.835938 C 393.316406 370.019531 393.316406 370.3125 393.136719 370.496094 C 393.042969 370.585938 392.925781 370.628906 392.804688 370.628906 " fill-opacity="1" fill-rule="nonzero"/><path fill="#ffffff" d="M 497.671875 325.542969 L 359.933594 325.542969 C 353.375 325.542969 348.0625 320.226562 348.0625 313.675781 L 348.0625 65.589844 C 348.0625 59.035156 353.375 53.722656 359.933594 53.722656 L 497.671875 53.722656 C 504.230469 53.722656 509.546875 59.035156 509.546875 65.589844 L 509.546875 313.675781 C 509.546875 320.226562 504.230469 325.542969 497.671875 325.542969 " fill-opacity="1" fill-rule="nonzero"/><path fill="#d3bba3" d="M 509.546875 83.234375 C 509.285156 83.234375 509.078125 83.027344 509.078125 82.769531 L 509.078125 65.589844 C 509.078125 59.304688 503.957031 54.191406 497.671875 54.191406 L 431.375 54.191406 C 431.117188 54.191406 430.910156 53.980469 430.910156 53.722656 C 430.910156 53.464844 431.117188 53.257812 431.375 53.257812 L 497.671875 53.257812 C 504.472656 53.257812 510.007812 58.789062 510.007812 65.589844 L 510.007812 82.769531 C 510.007812 83.027344 509.800781 83.234375 509.546875 83.234375 " fill-opacity="1" fill-rule="nonzero"/><path fill="#efbc73" d="M 355.628906 66.550781 L 355.628906 313.121094 L 501.972656 313.121094 L 501.972656 66.550781 L 355.628906 66.550781 " fill-opacity="1" fill-rule="nonzero"/><path fill="#d3bba3" d="M 445.136719 60.667969 L 412.472656 60.667969 C 412.214844 60.667969 412.007812 60.460938 412.007812 60.203125 C 412.007812 59.945312 412.214844 59.734375 412.472656 59.734375 L 445.136719 59.734375 C 445.394531 59.734375 445.601562 59.945312 445.601562 60.203125 C 445.601562 60.460938 445.394531 60.667969 445.136719 60.667969 " fill-opacity="1" fill-rule="nonzero"/><path fill="#363e44" d="M 327.5625 214.433594 L 351.640625 214.433594 L 341.589844 249.585938 L 386.585938 214.433594 L 527.648438 214.433594 L 527.648438 87.960938 L 327.5625 87.960938 Z M 339.910156 252.082031 L 350.40625 215.367188 L 326.632812 215.367188 L 326.632812 87.027344 L 528.578125 87.027344 L 528.578125 215.367188 L 386.90625 215.367188 L 339.910156 252.082031 " fill-opacity="1" fill-rule="nonzero"/><path fill="#ffffff" d="M 466.609375 145.855469 L 390.632812 145.855469 C 380.0625 145.855469 371.492188 137.289062 371.492188 126.722656 L 371.492188 126.6875 C 371.492188 116.117188 380.0625 107.550781 390.632812 107.550781 L 466.609375 107.550781 C 477.179688 107.550781 485.75 116.117188 485.75 126.6875 L 485.75 126.722656 C 485.75 137.289062 477.179688 145.855469 466.609375 145.855469 " fill-opacity="1" fill-rule="nonzero"/><path fill="#363e44" d="M 393.03125 105.488281 C 382.730469 105.488281 374.355469 113.863281 374.355469 124.160156 C 374.355469 134.488281 382.730469 142.863281 393.03125 142.863281 L 469.003906 142.863281 C 479.300781 142.863281 487.675781 134.488281 487.675781 124.195312 C 487.675781 113.863281 479.300781 105.488281 469.003906 105.488281 Z M 469.003906 143.796875 L 393.03125 143.796875 C 382.21875 143.796875 373.421875 135 373.421875 124.195312 C 373.421875 113.351562 382.21875 104.558594 393.03125 104.558594 L 469.003906 104.558594 C 479.8125 104.558594 488.609375 113.351562 488.609375 124.160156 C 488.609375 135 479.8125 143.796875 469.003906 143.796875 " fill-opacity="1" fill-rule="nonzero"/><path fill="#363e44" d="M 416.457031 125.773438 C 416.457031 130.261719 412.816406 133.898438 408.328125 133.898438 C 403.839844 133.898438 400.199219 130.261719 400.199219 125.773438 C 400.199219 121.289062 403.839844 117.652344 408.328125 117.652344 C 412.816406 117.652344 416.457031 121.289062 416.457031 125.773438 " fill-opacity="1" fill-rule="nonzero"/><path fill="#363e44" d="M 457.042969 125.773438 C 457.042969 130.261719 453.40625 133.898438 448.917969 133.898438 C 444.429688 133.898438 440.789062 130.261719 440.789062 125.773438 C 440.789062 121.289062 444.429688 117.652344 448.917969 117.652344 C 453.40625 117.652344 457.042969 121.289062 457.042969 125.773438 " fill-opacity="1" fill-rule="nonzero"/><path fill="#f2e6dc" d="M 411.332031 186.933594 C 411.332031 192 407.222656 196.109375 402.152344 196.109375 C 397.082031 196.109375 392.972656 192 392.972656 186.933594 C 392.972656 181.867188 397.082031 177.757812 402.152344 177.757812 C 407.222656 177.757812 411.332031 181.867188 411.332031 186.933594 " fill-opacity="1" fill-rule="nonzero"/><path fill="#f2e6dc" d="M 436.785156 186.933594 C 436.785156 192 432.675781 196.109375 427.605469 196.109375 C 422.53125 196.109375 418.421875 192 418.421875 186.933594 C 418.421875 181.863281 422.53125 177.753906 427.605469 177.753906 C 432.675781 177.753906 436.785156 181.863281 436.785156 186.933594 " fill-opacity="1" fill-rule="nonzero"/><path fill="#f2e6dc" d="M 462.238281 186.933594 C 462.238281 192.003906 458.128906 196.109375 453.054688 196.109375 C 447.988281 196.109375 443.878906 192.003906 443.878906 186.933594 C 443.878906 181.867188 447.988281 177.757812 453.054688 177.757812 C 458.128906 177.757812 462.238281 181.867188 462.238281 186.933594 " fill-opacity="1" fill-rule="nonzero"/><path fill="#363e44" d="M 451.042969 166.238281 C 450.78125 166.238281 450.578125 166.027344 450.578125 165.773438 C 450.578125 165.515625 450.78125 165.304688 451.042969 165.304688 C 457.789062 165.304688 463.28125 159.820312 463.28125 153.074219 C 463.28125 152.816406 463.492188 152.605469 463.75 152.605469 C 464.003906 152.605469 464.210938 152.816406 464.210938 153.074219 C 464.210938 160.332031 458.304688 166.238281 451.042969 166.238281 " fill-opacity="1" fill-rule="nonzero"/><path fill="#f7f1eb" d="M 428.070312 285.757812 L 508.152344 285.757812 L 508.152344 234.199219 L 428.070312 234.199219 Z M 508.617188 286.691406 L 427.605469 286.691406 C 427.347656 286.691406 427.136719 286.484375 427.136719 286.226562 L 427.136719 233.734375 C 427.136719 233.476562 427.347656 233.269531 427.605469 233.269531 L 508.617188 233.269531 C 508.875 233.269531 509.082031 233.476562 509.082031 233.734375 L 509.082031 286.226562 C 509.082031 286.484375 508.875 286.691406 508.617188 286.691406 " fill-opacity="1" fill-rule="nonzero"/><path fill="#8b865c" d="M 469.933594 273.132812 L 437.328125 273.132812 L 437.328125 245.230469 L 469.933594 245.230469 L 469.933594 273.132812 " fill-opacity="1" fill-rule="nonzero"/><path fill="#ffffff" d="M 466.035156 269.242188 L 433.433594 269.242188 L 433.433594 241.335938 L 466.035156 241.335938 L 466.035156 269.242188 " fill-opacity="1" fill-rule="nonzero"/><path fill="#363e44" d="M 502.785156 245.628906 L 473.609375 245.628906 C 473.351562 245.628906 473.140625 245.421875 473.140625 245.160156 C 473.140625 244.90625 473.351562 244.699219 473.609375 244.699219 L 502.785156 244.699219 C 503.042969 244.699219 503.25 244.90625 503.25 245.160156 C 503.25 245.421875 503.042969 245.628906 502.785156 245.628906 " fill-opacity="1" fill-rule="nonzero"/><path fill="#363e44" d="M 496.585938 251.605469 L 473.605469 251.605469 C 473.351562 251.605469 473.140625 251.398438 473.140625 251.140625 C 473.140625 250.882812 473.351562 250.671875 473.605469 250.671875 L 496.585938 250.671875 C 496.84375 250.671875 497.050781 250.882812 497.050781 251.140625 C 497.050781 251.398438 496.84375 251.605469 496.585938 251.605469 " fill-opacity="1" fill-rule="nonzero"/><path fill="#363e44" d="M 500.460938 257.019531 L 473.609375 257.019531 C 473.351562 257.019531 473.140625 256.8125 473.140625 256.554688 C 473.140625 256.296875 473.351562 256.085938 473.609375 256.085938 L 500.460938 256.085938 C 500.71875 256.085938 500.925781 256.296875 500.925781 256.554688 C 500.925781 256.8125 500.71875 257.019531 500.460938 257.019531 " fill-opacity="1" fill-rule="nonzero"/><path fill="#363e44" d="M 492.082031 262.714844 L 473.605469 262.714844 C 473.347656 262.714844 473.140625 262.507812 473.140625 262.25 C 473.140625 261.992188 473.347656 261.785156 473.605469 261.785156 L 492.082031 261.785156 C 492.339844 261.785156 492.542969 261.992188 492.542969 262.25 C 492.542969 262.507812 492.339844 262.714844 492.082031 262.714844 " fill-opacity="1" fill-rule="nonzero"/><path fill="#e2a18d" d="M 287.894531 261.742188 C 302.207031 268.667969 344.734375 286.121094 337.203125 303.886719 C 330.980469 318.582031 290.316406 299.757812 275.65625 293.804688 C 279.738281 283.117188 283.816406 272.429688 287.894531 261.742188 " fill-opacity="1" fill-rule="nonzero"/><path fill="#e2a18d" d="M 314.789062 286.542969 L 314.792969 286.539062 C 338.933594 270.695312 355.757812 258.996094 361.09375 255.585938 C 361.652344 255.230469 362.636719 254.597656 364.089844 254.148438 C 369.476562 252.492188 372.691406 256.054688 379.152344 256.894531 C 386.480469 257.851562 391.148438 254.234375 392.167969 255.824219 C 392.878906 256.929688 391.5 258.785156 387.542969 261.246094 C 390.765625 259.722656 395.226562 257.851562 396.0625 259.632812 C 396.921875 261.746094 391.9375 264.5625 388.835938 266.121094 C 392.589844 264.234375 395.148438 264.355469 395.363281 265.464844 C 395.707031 267.210938 393.140625 269.351562 388.089844 271.648438 L 388.089844 271.652344 C 392.019531 271.039062 393.066406 271.472656 393.019531 272.503906 C 392.933594 274.382812 388.746094 276.195312 384.792969 277.226562 C 380.347656 278.390625 376.496094 277.75 374.074219 277.289062 C 358.316406 290.136719 341.257812 306.0625 330.753906 309.078125 C 323.632812 311.121094 309.515625 301.46875 314.789062 286.542969 " fill-opacity="1" fill-rule="nonzero"/><path fill="#e2a18d" d="M 373.046875 257.507812 C 378.890625 253.109375 380.066406 250.285156 379.339844 249.382812 C 378.121094 247.863281 371.59375 249.574219 362.242188 254.921875 C 365.1875 255.914062 370.101562 256.515625 373.046875 257.507812 " fill-opacity="1" fill-rule="nonzero"/><path fill="#363e44" d="M 317.695312 285.699219 C 317.550781 285.699219 317.40625 285.628906 317.316406 285.503906 C 317.167969 285.292969 317.214844 285.003906 317.425781 284.851562 C 318.863281 283.828125 320.398438 282.683594 322.023438 281.472656 L 323.464844 280.402344 C 323.671875 280.25 323.964844 280.292969 324.117188 280.5 C 324.273438 280.707031 324.226562 280.996094 324.019531 281.152344 L 322.582031 282.222656 C 320.949219 283.433594 319.410156 284.578125 317.964844 285.609375 C 317.882812 285.671875 317.789062 285.699219 317.695312 285.699219 " fill-opacity="1" fill-rule="nonzero"/><path fill="#363e44" d="M 374.910156 256.644531 C 374.863281 256.644531 374.816406 256.636719 374.769531 256.621094 C 373.921875 256.351562 373.132812 256.058594 372.367188 255.777344 C 370.785156 255.195312 369.292969 254.640625 367.761719 254.464844 C 367.507812 254.433594 367.320312 254.203125 367.351562 253.949219 C 367.382812 253.695312 367.613281 253.507812 367.867188 253.539062 C 369.511719 253.730469 371.058594 254.300781 372.691406 254.90625 C 373.445312 255.183594 374.226562 255.472656 375.054688 255.738281 C 375.296875 255.816406 375.433594 256.078125 375.351562 256.324219 C 375.289062 256.519531 375.105469 256.644531 374.910156 256.644531 " fill-opacity="1" fill-rule="nonzero"/><path fill="#363e44" d="M 382.21875 262.550781 C 381.777344 262.550781 381.332031 262.53125 380.890625 262.492188 C 380.632812 262.46875 380.445312 262.242188 380.464844 261.984375 C 380.488281 261.730469 380.714844 261.539062 380.972656 261.5625 C 381.832031 261.640625 382.699219 261.636719 383.554688 261.554688 C 384.792969 261.433594 386.019531 261.152344 387.191406 260.703125 C 387.429688 260.613281 387.703125 260.734375 387.792969 260.976562 C 387.882812 261.214844 387.761719 261.484375 387.523438 261.578125 C 386.273438 262.050781 384.96875 262.355469 383.644531 262.484375 C 383.171875 262.527344 382.695312 262.550781 382.21875 262.550781 " fill-opacity="1" fill-rule="nonzero"/><path fill="#363e44" d="M 383.996094 267.160156 C 383.550781 267.160156 383.105469 267.140625 382.660156 267.101562 C 382.40625 267.078125 382.214844 266.855469 382.238281 266.597656 C 382.261719 266.339844 382.484375 266.152344 382.746094 266.171875 C 383.605469 266.25 384.472656 266.246094 385.328125 266.164062 C 386.566406 266.046875 387.792969 265.761719 388.964844 265.316406 C 389.203125 265.222656 389.472656 265.347656 389.566406 265.585938 C 389.65625 265.828125 389.535156 266.097656 389.296875 266.1875 C 388.046875 266.660156 386.742188 266.964844 385.417969 267.09375 C 384.945312 267.136719 384.46875 267.160156 383.996094 267.160156 " fill-opacity="1" fill-rule="nonzero"/><path fill="#363e44" d="M 382.839844 273.058594 C 382.394531 273.058594 381.953125 273.039062 381.507812 273 C 381.253906 272.976562 381.0625 272.75 381.085938 272.496094 C 381.109375 272.238281 381.332031 272.050781 381.59375 272.070312 C 382.453125 272.148438 383.320312 272.148438 384.175781 272.066406 C 385.414062 271.945312 386.640625 271.660156 387.8125 271.214844 C 388.050781 271.125 388.320312 271.242188 388.414062 271.484375 C 388.503906 271.726562 388.382812 271.992188 388.140625 272.085938 C 386.890625 272.558594 385.589844 272.863281 384.265625 272.992188 C 383.792969 273.035156 383.316406 273.058594 382.839844 273.058594 " fill-opacity="1" fill-rule="nonzero"/><path fill="#363e44" d="M 362.769531 271.863281 C 362.671875 271.863281 362.570312 271.832031 362.488281 271.765625 C 362.285156 271.609375 362.242188 271.320312 362.398438 271.113281 C 363.085938 270.207031 365.050781 268.019531 368.375 267.292969 C 371.917969 266.519531 374.734375 267.867188 375.78125 268.488281 C 376.003906 268.617188 376.078125 268.902344 375.945312 269.125 C 375.816406 269.347656 375.53125 269.421875 375.308594 269.289062 C 374.355469 268.726562 371.792969 267.5 368.570312 268.203125 C 365.550781 268.863281 363.765625 270.851562 363.140625 271.679688 C 363.050781 271.800781 362.910156 271.863281 362.769531 271.863281 " fill-opacity="1" fill-rule="nonzero"/><path fill="#e2a18d" d="M 208.691406 283.601562 C 200.269531 297.078125 167.128906 347.324219 152.898438 334.289062 C 139.175781 321.71875 170.625 281.921875 178.117188 267.996094 C 188.308594 273.195312 198.5 278.394531 208.691406 283.601562 " fill-opacity="1" fill-rule="nonzero"/><path fill="#363e44" d="M 308.730469 268.4375 C 308.730469 268.4375 269.730469 243.816406 239.21875 244.996094 C 208.3125 246.191406 186.953125 254.550781 166.472656 275.898438 L 192.730469 306.632812 C 192.730469 309.042969 181.910156 397.019531 181.910156 397.019531 L 317.460938 397.367188 L 290.664062 310.875 L 308.730469 268.4375 " fill-opacity="1" fill-rule="nonzero"/><path fill="#ffffff" d="M 221.527344 352.328125 L 284.097656 352.328125 L 284.097656 295.1875 L 275.304688 286.449219 L 265.445312 276.617188 L 221.527344 276.617188 Z M 284.5625 353.257812 L 221.0625 353.257812 C 220.804688 353.257812 220.597656 353.046875 220.597656 352.792969 L 220.597656 276.148438 C 220.597656 275.890625 220.804688 275.683594 221.0625 275.683594 L 265.636719 275.683594 C 265.761719 275.683594 265.878906 275.734375 265.964844 275.820312 L 275.960938 285.789062 L 284.890625 294.664062 C 284.980469 294.753906 285.03125 294.871094 285.03125 294.996094 L 285.03125 352.792969 C 285.03125 353.046875 284.820312 353.257812 284.5625 353.257812 " fill-opacity="1" fill-rule="nonzero"/><path fill="#ffffff" d="M 275.632812 307.984375 L 253.179688 307.984375 C 252.925781 307.984375 252.714844 307.773438 252.714844 307.519531 C 252.714844 307.257812 252.925781 307.050781 253.179688 307.050781 L 275.632812 307.050781 C 275.890625 307.050781 276.097656 307.257812 276.097656 307.519531 C 276.097656 307.773438 275.890625 307.984375 275.632812 307.984375 " fill-opacity="1" fill-rule="nonzero"/><path fill="#ffffff" d="M 248.285156 307.984375 L 235.417969 307.984375 C 235.160156 307.984375 234.953125 307.773438 234.953125 307.519531 C 234.953125 307.257812 235.160156 307.050781 235.417969 307.050781 L 248.285156 307.050781 C 248.542969 307.050781 248.75 307.257812 248.75 307.519531 C 248.75 307.773438 248.542969 307.984375 248.285156 307.984375 " fill-opacity="1" fill-rule="nonzero"/><path fill="#ffffff" d="M 275.632812 316.953125 L 264.347656 316.953125 C 264.089844 316.953125 263.882812 316.746094 263.882812 316.488281 C 263.882812 316.230469 264.089844 316.019531 264.347656 316.019531 L 275.632812 316.019531 C 275.890625 316.019531 276.097656 316.230469 276.097656 316.488281 C 276.097656 316.746094 275.890625 316.953125 275.632812 316.953125 " fill-opacity="1" fill-rule="nonzero"/><path fill="#ffffff" d="M 259.453125 316.953125 L 235.417969 316.953125 C 235.160156 316.953125 234.953125 316.746094 234.953125 316.488281 C 234.953125 316.230469 235.160156 316.019531 235.417969 316.019531 L 259.453125 316.019531 C 259.707031 316.019531 259.917969 316.230469 259.917969 316.488281 C 259.917969 316.746094 259.707031 316.953125 259.453125 316.953125 " fill-opacity="1" fill-rule="nonzero"/><path fill="#ffffff" d="M 268.289062 325.921875 L 235.417969 325.921875 C 235.160156 325.921875 234.953125 325.714844 234.953125 325.457031 C 234.953125 325.199219 235.160156 324.992188 235.417969 324.992188 L 268.289062 324.992188 C 268.546875 324.992188 268.753906 325.199219 268.753906 325.457031 C 268.753906 325.714844 268.546875 325.921875 268.289062 325.921875 " fill-opacity="1" fill-rule="nonzero"/><path fill="#ffffff" d="M 266.101562 294.527344 L 283.386719 294.527344 L 266.101562 277.25 Z M 284.511719 295.460938 L 265.636719 295.460938 C 265.378906 295.460938 265.171875 295.253906 265.171875 294.996094 L 265.171875 276.125 C 265.171875 275.9375 265.285156 275.769531 265.457031 275.695312 C 265.632812 275.621094 265.832031 275.664062 265.964844 275.796875 L 284.839844 294.664062 C 284.972656 294.796875 285.015625 295 284.941406 295.171875 C 284.871094 295.347656 284.699219 295.460938 284.511719 295.460938 " fill-opacity="1" fill-rule="nonzero"/><path fill="#e2a18d" d="M 158.367188 309.980469 C 187.015625 313.625 207.410156 315.664062 213.679688 316.539062 C 214.335938 316.632812 215.496094 316.789062 216.890625 317.394531 C 222.066406 319.632812 222.1875 324.429688 226.554688 329.265625 C 231.503906 334.753906 237.402344 335.039062 237.144531 336.910156 C 236.964844 338.210938 234.710938 338.726562 230.101562 338.023438 C 233.542969 338.960938 238.152344 340.4375 237.625 342.335938 C 236.90625 344.496094 231.285156 343.398438 227.917969 342.570312 C 231.992188 343.574219 233.859375 345.328125 233.304688 346.3125 C 232.429688 347.863281 229.085938 347.820312 223.753906 346.285156 C 227.140625 348.375 227.648438 349.386719 226.945312 350.136719 C 225.660156 351.511719 221.296875 350.164062 217.625 348.382812 C 213.488281 346.382812 210.976562 343.390625 209.4375 341.46875 L 209.433594 341.46875 C 189.105469 340.996094 165.789062 342.015625 155.847656 337.480469 C 149.105469 334.40625 144.652344 317.898438 158.367188 309.980469 " fill-opacity="1" fill-rule="nonzero"/><path fill="#363e44" d="M 174.4375 312.316406 C 174.417969 312.316406 174.398438 312.3125 174.378906 312.308594 C 172.296875 312.058594 169.976562 311.933594 167.734375 311.816406 C 165.445312 311.695312 163.277344 311.578125 161.363281 311.335938 C 161.109375 311.304688 160.929688 311.070312 160.960938 310.8125 C 160.992188 310.558594 161.230469 310.378906 161.484375 310.410156 C 163.363281 310.652344 165.511719 310.765625 167.785156 310.886719 C 170.042969 311.003906 172.375 311.128906 174.492188 311.386719 C 174.746094 311.417969 174.929688 311.648438 174.898438 311.90625 C 174.871094 312.140625 174.667969 312.316406 174.4375 312.316406 " fill-opacity="1" fill-rule="nonzero"/><path fill="#e2a18d" d="M 221.515625 325.765625 C 228.816406 326.222656 231.546875 324.839844 231.582031 323.679688 C 231.640625 321.734375 225.570312 318.792969 214.984375 316.777344 C 216.578125 319.445312 219.921875 323.097656 221.515625 325.765625 " fill-opacity="1" fill-rule="nonzero"/><path fill="#363e44" d="M 223.796875 326.433594 C 223.640625 326.433594 223.488281 326.355469 223.398438 326.210938 C 222.933594 325.457031 222.523438 324.722656 222.125 324.007812 C 221.304688 322.539062 220.527344 321.148438 219.476562 320.019531 C 219.304688 319.832031 219.3125 319.535156 219.503906 319.359375 C 219.691406 319.183594 219.984375 319.195312 220.160156 319.386719 C 221.285156 320.597656 222.089844 322.035156 222.9375 323.554688 C 223.332031 324.257812 223.738281 324.984375 224.191406 325.722656 C 224.328125 325.941406 224.257812 326.226562 224.039062 326.363281 C 223.964844 326.410156 223.878906 326.433594 223.796875 326.433594 " fill-opacity="1" fill-rule="nonzero"/><path fill="#363e44" d="M 230.03125 338.289062 C 229.976562 338.289062 229.925781 338.28125 229.871094 338.261719 C 228.613281 337.808594 227.421875 337.191406 226.335938 336.429688 C 225.585938 335.90625 224.878906 335.308594 224.234375 334.648438 C 224.054688 334.464844 224.058594 334.167969 224.242188 333.988281 C 224.425781 333.808594 224.722656 333.8125 224.902344 333.996094 C 225.503906 334.613281 226.167969 335.175781 226.871094 335.667969 C 227.890625 336.382812 229.007812 336.960938 230.1875 337.386719 C 230.429688 337.472656 230.554688 337.738281 230.46875 337.980469 C 230.398438 338.171875 230.21875 338.289062 230.03125 338.289062 " fill-opacity="1" fill-rule="nonzero"/><path fill="#363e44" d="M 228.378906 342.945312 C 228.328125 342.945312 228.273438 342.9375 228.222656 342.917969 C 226.964844 342.46875 225.773438 341.851562 224.683594 341.085938 C 223.933594 340.5625 223.230469 339.960938 222.585938 339.304688 C 222.40625 339.121094 222.410156 338.824219 222.59375 338.644531 C 222.777344 338.464844 223.074219 338.46875 223.253906 338.652344 C 223.855469 339.269531 224.515625 339.832031 225.21875 340.324219 C 226.242188 341.039062 227.355469 341.617188 228.535156 342.042969 C 228.777344 342.128906 228.90625 342.394531 228.816406 342.636719 C 228.75 342.828125 228.570312 342.945312 228.378906 342.945312 " fill-opacity="1" fill-rule="nonzero"/><path fill="#363e44" d="M 223.667969 346.679688 C 223.617188 346.679688 223.5625 346.671875 223.511719 346.652344 C 222.253906 346.199219 221.0625 345.585938 219.972656 344.820312 C 219.222656 344.296875 218.519531 343.695312 217.875 343.039062 C 217.695312 342.855469 217.699219 342.558594 217.882812 342.378906 C 218.066406 342.199219 218.359375 342.203125 218.542969 342.386719 C 219.144531 343 219.804688 343.566406 220.507812 344.058594 C 221.53125 344.773438 222.644531 345.351562 223.824219 345.773438 C 224.066406 345.863281 224.195312 346.128906 224.105469 346.371094 C 224.039062 346.558594 223.859375 346.679688 223.667969 346.679688 " fill-opacity="1" fill-rule="nonzero"/><path fill="#84524d" d="M 235.074219 227.59375 C 235.542969 234.964844 229.945312 241.320312 222.570312 241.789062 C 215.199219 242.253906 208.839844 236.660156 208.371094 229.289062 C 207.902344 221.921875 213.5 215.566406 220.875 215.097656 C 228.246094 214.628906 234.605469 220.222656 235.074219 227.59375 " fill-opacity="1" fill-rule="nonzero"/><path fill="#84524d" d="M 233.902344 228.605469 L 233.90625 228.605469 Z M 218.027344 214.554688 C 213.917969 214.554688 210.519531 216.1875 209.382812 219.121094 C 208.574219 221.214844 209.035156 223.671875 210.6875 226.039062 C 212.378906 228.460938 215.097656 230.488281 218.34375 231.742188 C 224.984375 234.3125 231.769531 232.828125 233.46875 228.4375 C 234.277344 226.339844 233.816406 223.886719 232.164062 221.519531 C 230.472656 219.097656 227.753906 217.070312 224.507812 215.816406 C 222.300781 214.960938 220.074219 214.554688 218.027344 214.554688 Z M 224.78125 233.921875 C 222.628906 233.921875 220.308594 233.5 218.007812 232.609375 C 214.589844 231.289062 211.71875 229.144531 209.921875 226.570312 C 208.089844 223.941406 207.589844 221.175781 208.515625 218.785156 C 210.398438 213.914062 217.726562 212.191406 224.84375 214.945312 C 228.261719 216.265625 231.132812 218.414062 232.929688 220.988281 C 234.761719 223.613281 235.261719 226.378906 234.335938 228.773438 C 233.058594 232.070312 229.292969 233.921875 224.78125 233.921875 " fill-opacity="1" fill-rule="nonzero"/><path fill="#e2a18d" d="M 257.953125 250.878906 C 257.953125 254.519531 250.757812 257.46875 241.882812 257.46875 C 233.007812 257.46875 225.8125 254.519531 225.8125 250.878906 C 225.8125 247.242188 233.007812 244.292969 241.882812 244.292969 C 250.757812 244.292969 257.953125 247.242188 257.953125 250.878906 " fill-opacity="1" fill-rule="nonzero"/><path fill="#e2a18d" d="M 257.964844 236.015625 C 253.472656 239.65625 239.605469 231.433594 239.605469 231.433594 L 230.988281 216.015625 C 230.472656 207.898438 236.636719 200.902344 244.753906 200.386719 C 252.871094 199.871094 259.871094 206.03125 260.390625 214.144531 C 260.390625 214.144531 262.542969 232.3125 257.964844 236.015625 " fill-opacity="1" fill-rule="nonzero"/><path fill="#e2a18d" d="M 232.882812 252.984375 L 250.730469 252.984375 L 250.730469 215.757812 L 232.882812 215.757812 L 232.882812 252.984375 " fill-opacity="1" fill-rule="nonzero"/><path fill="#e2a18d" d="M 258.945312 218.117188 C 258.945312 218.117188 263.34375 222.171875 263.195312 223.328125 C 263.019531 224.707031 258.480469 225.828125 258.480469 225.828125 C 258.480469 225.828125 259.054688 218.121094 258.945312 218.117188 " fill-opacity="1" fill-rule="nonzero"/><path fill="#ffffff" d="M 245.640625 218.332031 C 245.640625 218.332031 248.015625 216.851562 250.984375 216.664062 C 251.613281 216.625 250.746094 221.75 250.125 221.5 C 247.414062 220.410156 245.640625 218.332031 245.640625 218.332031 " fill-opacity="1" fill-rule="nonzero"/><path fill="#363e44" d="M 252.9375 216.746094 C 252.273438 216.644531 251.617188 216.625 250.988281 216.664062 C 249.84375 218.058594 249.570312 219.894531 250.125 221.5 C 250.742188 221.746094 251.410156 221.945312 252.113281 222.054688 C 255.917969 222.644531 259.414062 220.46875 259.414062 220.46875 C 259.414062 220.46875 256.742188 217.335938 252.9375 216.746094 " fill-opacity="1" fill-rule="nonzero"/><path fill="#363e44" d="M 254.871094 229.074219 C 254.445312 229.074219 254.019531 228.964844 253.636719 228.75 C 252.804688 228.28125 252.296875 227.359375 252.351562 226.402344 C 252.363281 226.144531 252.589844 225.945312 252.839844 225.960938 C 253.097656 225.976562 253.296875 226.195312 253.28125 226.453125 C 253.25 227.058594 253.566406 227.640625 254.09375 227.9375 C 254.636719 228.246094 255.320312 228.199219 255.828125 227.828125 C 256.035156 227.671875 256.328125 227.71875 256.480469 227.925781 C 256.632812 228.132812 256.589844 228.425781 256.382812 228.578125 C 255.9375 228.90625 255.402344 229.074219 254.871094 229.074219 " fill-opacity="1" fill-rule="nonzero"/><path fill="#363e44" d="M 250.976562 237.296875 C 250.953125 237.296875 250.925781 237.292969 250.898438 237.289062 C 245.09375 236.285156 239.574219 232.234375 239.34375 232.058594 C 239.136719 231.90625 239.09375 231.617188 239.246094 231.410156 C 239.398438 231.203125 239.691406 231.15625 239.898438 231.3125 C 239.953125 231.351562 245.472656 235.40625 251.058594 236.371094 C 251.308594 236.414062 251.480469 236.65625 251.4375 236.910156 C 251.398438 237.136719 251.199219 237.296875 250.976562 237.296875 " fill-opacity="1" fill-rule="nonzero"/><path fill="#84524d" d="M 228.265625 224.5625 C 224.617188 221.65625 225.582031 211.707031 229.527344 206.101562 C 234.609375 198.871094 245.109375 196.328125 252.570312 198.71875 C 254.40625 199.308594 258.46875 201.207031 259.273438 204.195312 C 260.785156 209.800781 251.394531 217.570312 247.949219 219.738281 C 242.695312 223.050781 232.273438 227.757812 228.265625 224.5625 " fill-opacity="1" fill-rule="nonzero"/><path fill="#84524d" d="M 236.703125 226.695312 C 233.238281 226.695312 229.703125 225.882812 226.386719 224.226562 C 226.15625 224.113281 226.0625 223.832031 226.179688 223.601562 C 226.292969 223.371094 226.574219 223.277344 226.804688 223.394531 C 234.527344 227.25 243.503906 226.339844 249.675781 221.074219 C 256.652344 215.125 256.652344 206.328125 256.582031 204.625 C 256.574219 204.367188 256.773438 204.148438 257.03125 204.136719 C 257.289062 204.125 257.503906 204.328125 257.515625 204.585938 C 257.585938 206.363281 257.585938 215.550781 250.28125 221.785156 C 246.480469 225.027344 241.664062 226.695312 236.703125 226.695312 " fill-opacity="1" fill-rule="nonzero"/><path fill="#ffffff" d="M 237.523438 45.203125 L 318.011719 45.203125 L 318.011719 96.21875 L 308.433594 96.21875 L 312.546875 110.613281 L 294.128906 96.21875 L 237.523438 96.21875 L 237.523438 45.203125 " fill-opacity="1" fill-rule="nonzero"/><path fill="#363e44" d="M 233.769531 95.757812 L 290.070312 95.757812 L 307.484375 109.363281 L 303.597656 95.757812 L 313.328125 95.757812 L 313.328125 45.671875 L 233.769531 45.671875 Z M 309.171875 111.859375 L 289.75 96.691406 L 232.835938 96.691406 L 232.835938 44.738281 L 314.261719 44.738281 L 314.261719 96.691406 L 304.832031 96.691406 L 309.171875 111.859375 " fill-opacity="1" fill-rule="nonzero"/><path fill="#f2e6dc" d="M 280.417969 77.460938 L 309.089844 77.460938 L 309.089844 56.148438 L 280.417969 56.148438 L 280.417969 77.460938 " fill-opacity="1" fill-rule="nonzero"/><path fill="#f2e6dc" d="M 240.253906 61.519531 L 274.25 61.519531 L 274.25 56.144531 L 240.253906 56.144531 L 240.253906 61.519531 " fill-opacity="1" fill-rule="nonzero"/><path fill="#f2e6dc" d="M 246.957031 74.792969 L 274.25 74.792969 L 274.25 69.417969 L 246.957031 69.417969 L 246.957031 74.792969 " fill-opacity="1" fill-rule="nonzero"/><path fill="#f2e6dc" d="M 240.253906 88.0625 L 307.15625 88.0625 L 307.15625 82.6875 L 240.253906 82.6875 L 240.253906 88.0625 " fill-opacity="1" fill-rule="nonzero"/><path fill="#363e44" d="M 478.691406 337.96875 C 478.582031 337.96875 478.472656 337.933594 478.386719 337.855469 C 478.1875 337.6875 478.167969 337.390625 478.335938 337.195312 L 480.597656 334.597656 C 480.769531 334.40625 481.0625 334.386719 481.257812 334.554688 C 481.449219 334.722656 481.472656 335.015625 481.300781 335.210938 L 479.042969 337.808594 C 478.949219 337.914062 478.820312 337.96875 478.691406 337.96875 " fill-opacity="1" fill-rule="nonzero"/><path fill="#363e44" d="M 477.804688 346.613281 C 477.691406 346.613281 477.574219 346.570312 477.484375 346.488281 C 477.296875 346.308594 477.289062 346.015625 477.464844 345.828125 L 480.363281 342.75 C 480.539062 342.558594 480.832031 342.550781 481.019531 342.726562 C 481.207031 342.902344 481.214844 343.199219 481.039062 343.386719 L 478.144531 346.464844 C 478.050781 346.5625 477.929688 346.613281 477.804688 346.613281 " fill-opacity="1" fill-rule="nonzero"/><path fill="#363e44" d="M 475.65625 357.660156 C 475.519531 357.660156 475.382812 357.59375 475.289062 357.476562 C 475.132812 357.273438 475.171875 356.984375 475.371094 356.824219 L 479.71875 353.4375 C 479.921875 353.28125 480.214844 353.316406 480.375 353.519531 C 480.53125 353.722656 480.496094 354.015625 480.292969 354.175781 L 475.945312 357.558594 C 475.859375 357.625 475.757812 357.660156 475.65625 357.660156 " fill-opacity="1" fill-rule="nonzero"/><path fill="#363e44" d="M 474.179688 365.558594 C 474.035156 365.558594 473.886719 365.488281 473.796875 365.355469 C 473.652344 365.144531 473.707031 364.851562 473.917969 364.707031 L 476.914062 362.675781 C 477.125 362.53125 477.417969 362.585938 477.558594 362.800781 C 477.707031 363.011719 477.652344 363.300781 477.4375 363.449219 L 474.441406 365.476562 C 474.363281 365.535156 474.273438 365.558594 474.179688 365.558594 " fill-opacity="1" fill-rule="nonzero"/><path fill="#363e44" d="M 471.648438 373.441406 C 471.476562 373.441406 471.308594 373.34375 471.230469 373.175781 C 471.117188 372.945312 471.210938 372.667969 471.445312 372.554688 L 474.65625 370.980469 C 474.890625 370.867188 475.167969 370.964844 475.28125 371.195312 C 475.394531 371.425781 475.300781 371.703125 475.066406 371.820312 L 471.851562 373.390625 C 471.785156 373.425781 471.71875 373.441406 471.648438 373.441406 " fill-opacity="1" fill-rule="nonzero"/><path fill="#8b865c" d="M 489.984375 359.933594 C 486.578125 375.878906 476.160156 387.175781 466.714844 385.160156 C 457.269531 383.144531 452.378906 368.582031 455.78125 352.632812 C 459.1875 336.683594 469.609375 325.390625 479.050781 327.40625 C 488.492188 329.421875 493.390625 343.980469 489.984375 359.933594 " fill-opacity="1" fill-rule="nonzero"/><path fill="#776e42" d="M 479.054688 327.402344 C 479.023438 327.398438 478.996094 327.398438 478.960938 327.390625 L 466.628906 385.132812 C 466.65625 385.140625 466.6875 385.152344 466.71875 385.160156 C 472.15625 386.320312 479.324219 374.332031 482.734375 358.382812 C 486.140625 342.433594 484.492188 328.5625 479.054688 327.402344 " fill-opacity="1" fill-rule="nonzero"/><path fill="#363e44" d="M 462.035156 378.578125 C 461.824219 378.578125 461.632812 378.425781 461.582031 378.210938 C 460.246094 372.101562 460.609375 363.308594 462.582031 354.082031 C 464.722656 344.0625 468.421875 335.226562 472.476562 330.449219 C 472.648438 330.25 472.941406 330.230469 473.136719 330.394531 C 473.332031 330.558594 473.355469 330.855469 473.1875 331.050781 C 469.226562 335.714844 465.605469 344.398438 463.492188 354.28125 C 461.578125 363.242188 461.203125 372.113281 462.492188 378.011719 C 462.546875 378.261719 462.390625 378.511719 462.136719 378.5625 C 462.105469 378.574219 462.070312 378.578125 462.035156 378.578125 " fill-opacity="1" fill-rule="nonzero"/><path fill="#363e44" d="M 473.695312 381.332031 C 473.597656 381.332031 473.5 381.300781 473.414062 381.234375 C 473.210938 381.082031 473.167969 380.789062 473.324219 380.582031 C 476.980469 375.75 480.328125 367.414062 482.277344 358.285156 C 484.453125 348.109375 484.621094 338.226562 482.722656 332.496094 C 482.640625 332.253906 482.773438 331.988281 483.015625 331.90625 C 483.261719 331.828125 483.523438 331.957031 483.605469 332.203125 C 485.554688 338.082031 485.394531 348.148438 483.1875 358.480469 C 481.210938 367.734375 477.800781 376.210938 474.066406 381.144531 C 473.976562 381.269531 473.835938 381.332031 473.695312 381.332031 " fill-opacity="1" fill-rule="nonzero"/><path fill="#363e44" d="M 462.761719 343.40625 C 462.621094 343.40625 462.484375 343.339844 462.394531 343.222656 L 459.019531 338.804688 C 458.863281 338.601562 458.902344 338.308594 459.105469 338.152344 C 459.3125 337.996094 459.601562 338.035156 459.761719 338.238281 L 463.132812 342.65625 C 463.289062 342.859375 463.25 343.152344 463.042969 343.308594 C 462.960938 343.375 462.859375 343.40625 462.761719 343.40625 " fill-opacity="1" fill-rule="nonzero"/><path fill="#363e44" d="M 460.019531 354.320312 C 459.902344 354.320312 459.785156 354.28125 459.695312 354.191406 L 453.894531 348.640625 C 453.707031 348.464844 453.703125 348.167969 453.878906 347.984375 C 454.058594 347.796875 454.355469 347.789062 454.539062 347.96875 L 460.339844 353.519531 C 460.523438 353.695312 460.535156 353.992188 460.355469 354.179688 C 460.265625 354.273438 460.140625 354.320312 460.019531 354.320312 " fill-opacity="1" fill-rule="nonzero"/><path fill="#363e44" d="M 457.949219 362.097656 C 457.839844 362.097656 457.734375 362.058594 457.644531 361.984375 L 453.472656 358.425781 C 453.277344 358.257812 453.257812 357.960938 453.421875 357.769531 C 453.589844 357.570312 453.882812 357.546875 454.078125 357.714844 L 458.25 361.277344 C 458.445312 361.441406 458.46875 361.734375 458.300781 361.933594 C 458.210938 362.039062 458.078125 362.097656 457.949219 362.097656 " fill-opacity="1" fill-rule="nonzero"/><path fill="#363e44" d="M 457.800781 370.484375 C 457.710938 370.484375 457.621094 370.460938 457.539062 370.402344 L 452.695312 367.109375 C 452.480469 366.96875 452.425781 366.675781 452.570312 366.464844 C 452.714844 366.253906 453.003906 366.195312 453.214844 366.339844 L 458.0625 369.632812 C 458.277344 369.777344 458.332031 370.066406 458.183594 370.28125 C 458.09375 370.414062 457.949219 370.484375 457.800781 370.484375 " fill-opacity="1" fill-rule="nonzero"/><path fill="#363e44" d="M 487.660156 339.882812 C 487.5 339.882812 487.347656 339.804688 487.257812 339.660156 C 487.121094 339.4375 487.195312 339.152344 487.414062 339.019531 L 491.191406 336.742188 C 491.414062 336.609375 491.695312 336.679688 491.832031 336.902344 C 491.964844 337.121094 491.890625 337.410156 491.671875 337.542969 L 487.898438 339.816406 C 487.824219 339.863281 487.738281 339.882812 487.660156 339.882812 " fill-opacity="1" fill-rule="nonzero"/><path fill="#363e44" d="M 485.664062 359.792969 C 485.46875 359.792969 485.292969 359.675781 485.222656 359.484375 C 485.136719 359.242188 485.261719 358.976562 485.503906 358.890625 L 493.070312 356.191406 C 493.3125 356.101562 493.578125 356.230469 493.664062 356.472656 C 493.753906 356.714844 493.625 356.980469 493.382812 357.066406 L 485.820312 359.765625 C 485.769531 359.785156 485.710938 359.792969 485.664062 359.792969 " fill-opacity="1" fill-rule="nonzero"/><path fill="#363e44" d="M 482.277344 373.667969 C 482.054688 373.667969 481.859375 373.511719 481.820312 373.285156 C 481.769531 373.03125 481.941406 372.792969 482.191406 372.746094 L 487.964844 371.71875 C 488.21875 371.671875 488.457031 371.839844 488.503906 372.09375 C 488.550781 372.34375 488.378906 372.589844 488.125 372.632812 L 482.359375 373.664062 C 482.332031 373.667969 482.304688 373.667969 482.277344 373.667969 " fill-opacity="1" fill-rule="nonzero"/><path fill="#363e44" d="M 477.804688 346.613281 C 477.691406 346.613281 477.574219 346.570312 477.484375 346.488281 C 477.296875 346.308594 477.289062 346.015625 477.464844 345.828125 L 480.363281 342.75 C 480.539062 342.558594 480.832031 342.550781 481.019531 342.726562 C 481.207031 342.902344 481.214844 343.199219 481.039062 343.386719 L 478.144531 346.464844 C 478.050781 346.5625 477.929688 346.613281 477.804688 346.613281 " fill-opacity="1" fill-rule="nonzero"/><path fill="#363e44" d="M 474.179688 365.558594 C 474.035156 365.558594 473.886719 365.488281 473.796875 365.355469 C 473.652344 365.144531 473.707031 364.851562 473.917969 364.707031 L 476.914062 362.675781 C 477.125 362.53125 477.417969 362.585938 477.558594 362.800781 C 477.707031 363.011719 477.652344 363.300781 477.4375 363.449219 L 474.441406 365.476562 C 474.363281 365.535156 474.273438 365.558594 474.179688 365.558594 " fill-opacity="1" fill-rule="nonzero"/><path fill="#363e44" d="M 474.832031 337.148438 C 474.632812 337.148438 474.449219 337.019531 474.386719 336.816406 L 473.382812 333.519531 C 473.308594 333.277344 473.445312 333.015625 473.695312 332.941406 C 473.941406 332.863281 474.203125 333.003906 474.273438 333.25 L 475.277344 336.546875 C 475.351562 336.792969 475.214844 337.050781 474.96875 337.125 C 474.921875 337.140625 474.878906 337.148438 474.832031 337.148438 " fill-opacity="1" fill-rule="nonzero"/><path fill="#363e44" d="M 469.558594 356.355469 C 469.390625 356.355469 469.226562 356.265625 469.148438 356.109375 L 466.5625 351.242188 C 466.441406 351.015625 466.527344 350.734375 466.753906 350.613281 C 466.980469 350.492188 467.261719 350.578125 467.382812 350.808594 L 469.96875 355.671875 C 470.089844 355.898438 470.003906 356.179688 469.777344 356.300781 C 469.707031 356.339844 469.632812 356.355469 469.558594 356.355469 " fill-opacity="1" fill-rule="nonzero"/><path fill="#363e44" d="M 466.769531 372.398438 C 466.636719 372.398438 466.507812 372.34375 466.414062 372.230469 L 464.121094 369.480469 C 463.957031 369.285156 463.980469 368.988281 464.183594 368.824219 C 464.378906 368.660156 464.671875 368.6875 464.839844 368.886719 L 467.128906 371.632812 C 467.292969 371.832031 467.265625 372.125 467.070312 372.289062 C 466.984375 372.363281 466.878906 372.398438 466.769531 372.398438 " fill-opacity="1" fill-rule="nonzero"/><path fill="#363e44" d="M 448.179688 351.214844 L 448.132812 351.210938 C 447.875 351.183594 447.6875 350.953125 447.714844 350.699219 L 448 347.996094 C 448.027344 347.742188 448.257812 347.554688 448.515625 347.582031 C 448.769531 347.609375 448.953125 347.839844 448.925781 348.09375 L 448.640625 350.796875 C 448.617188 351.035156 448.417969 351.214844 448.179688 351.214844 " fill-opacity="1" fill-rule="nonzero"/><path fill="#363e44" d="M 451.519531 357.199219 C 451.496094 357.199219 451.476562 357.199219 451.453125 357.195312 C 451.199219 357.15625 451.019531 356.921875 451.058594 356.667969 L 451.539062 353.367188 C 451.574219 353.113281 451.808594 352.9375 452.066406 352.972656 C 452.320312 353.011719 452.496094 353.246094 452.457031 353.503906 L 451.980469 356.800781 C 451.949219 357.035156 451.746094 357.199219 451.519531 357.199219 " fill-opacity="1" fill-rule="nonzero"/><path fill="#363e44" d="M 455.132812 365.308594 C 455.089844 365.308594 455.042969 365.300781 454.996094 365.289062 C 454.75 365.210938 454.609375 364.953125 454.6875 364.707031 L 455.964844 360.550781 C 456.039062 360.304688 456.300781 360.167969 456.546875 360.242188 C 456.792969 360.316406 456.933594 360.578125 456.855469 360.824219 L 455.578125 364.980469 C 455.515625 365.179688 455.332031 365.308594 455.132812 365.308594 " fill-opacity="1" fill-rule="nonzero"/><path fill="#363e44" d="M 457.757812 371.082031 C 457.703125 371.082031 457.644531 371.070312 457.59375 371.050781 C 457.351562 370.957031 457.230469 370.691406 457.324219 370.449219 L 458.335938 367.78125 C 458.425781 367.542969 458.695312 367.421875 458.9375 367.511719 C 459.175781 367.605469 459.296875 367.875 459.207031 368.113281 L 458.191406 370.78125 C 458.121094 370.96875 457.945312 371.082031 457.757812 371.082031 " fill-opacity="1" fill-rule="nonzero"/><path fill="#363e44" d="M 459.683594 377.320312 C 459.609375 377.320312 459.53125 377.300781 459.460938 377.261719 C 459.230469 377.136719 459.148438 376.855469 459.273438 376.628906 L 460.640625 374.160156 C 460.765625 373.933594 461.046875 373.851562 461.273438 373.976562 C 461.5 374.101562 461.582031 374.386719 461.457031 374.609375 L 460.089844 377.082031 C 460.003906 377.234375 459.847656 377.320312 459.683594 377.320312 " fill-opacity="1" fill-rule="nonzero"/><path fill="#776e42" d="M 465.628906 360.132812 C 470.648438 371.980469 469.03125 383.992188 462.015625 386.960938 C 455 389.929688 445.246094 382.730469 440.226562 370.882812 C 435.207031 359.035156 436.824219 347.023438 443.839844 344.058594 C 450.855469 341.085938 460.613281 348.289062 465.628906 360.132812 " fill-opacity="1" fill-rule="nonzero"/><path fill="#8b865c" d="M 443.839844 344.058594 C 443.820312 344.066406 443.800781 344.082031 443.777344 344.089844 L 461.945312 386.984375 C 461.96875 386.976562 461.992188 386.96875 462.011719 386.960938 C 466.054688 385.25 465.261719 374.261719 460.242188 362.414062 C 455.222656 350.566406 447.882812 342.347656 443.839844 344.058594 " fill-opacity="1" fill-rule="nonzero"/><path fill="#363e44" d="M 455.800781 384.984375 C 455.6875 384.984375 455.574219 384.945312 455.484375 384.863281 C 451.847656 381.507812 448.09375 375.648438 445.1875 368.785156 C 442.027344 361.328125 440.414062 353.925781 440.871094 348.988281 C 440.898438 348.730469 441.128906 348.542969 441.382812 348.566406 C 441.636719 348.589844 441.824219 348.816406 441.800781 349.074219 C 441.355469 353.863281 442.941406 361.097656 446.042969 368.421875 C 448.859375 375.070312 452.625 380.957031 456.117188 384.175781 C 456.308594 384.351562 456.320312 384.648438 456.140625 384.835938 C 456.050781 384.933594 455.925781 384.984375 455.800781 384.984375 " fill-opacity="1" fill-rule="nonzero"/><path fill="#363e44" d="M 464.578125 381.496094 L 464.5625 381.496094 C 464.308594 381.484375 464.101562 381.269531 464.113281 381.011719 C 464.289062 376.25 462.679688 369.367188 459.8125 362.59375 C 456.617188 355.050781 452.265625 348.605469 448.457031 345.769531 C 448.25 345.613281 448.207031 345.324219 448.363281 345.117188 C 448.511719 344.910156 448.808594 344.867188 449.015625 345.019531 C 452.949219 347.949219 457.414062 354.542969 460.671875 362.230469 C 463.589844 369.121094 465.226562 376.15625 465.042969 381.046875 C 465.039062 381.296875 464.828125 381.496094 464.578125 381.496094 " fill-opacity="1" fill-rule="nonzero"/><path fill="#363e44" d="M 439.003906 355.097656 C 438.949219 355.097656 438.894531 355.089844 438.839844 355.070312 L 435.578125 353.867188 C 435.335938 353.78125 435.214844 353.511719 435.300781 353.273438 C 435.390625 353.027344 435.660156 352.90625 435.898438 352.996094 L 439.164062 354.195312 C 439.40625 354.28125 439.53125 354.550781 439.441406 354.792969 C 439.371094 354.980469 439.191406 355.097656 439.003906 355.097656 " fill-opacity="1" fill-rule="nonzero"/><path fill="#363e44" d="M 443.515625 370.226562 C 443.492188 370.226562 443.464844 370.222656 443.445312 370.21875 L 437.179688 369.257812 C 436.925781 369.214844 436.753906 368.980469 436.789062 368.726562 C 436.832031 368.472656 437.066406 368.296875 437.320312 368.335938 L 443.585938 369.300781 C 443.839844 369.339844 444.011719 369.574219 443.976562 369.832031 C 443.9375 370.0625 443.738281 370.226562 443.515625 370.226562 " fill-opacity="1" fill-rule="nonzero"/><path fill="#363e44" d="M 444.777344 381.738281 C 444.523438 381.738281 444.3125 381.535156 444.3125 381.277344 C 444.308594 381.019531 444.515625 380.808594 444.773438 380.804688 L 449.390625 380.742188 L 449.398438 380.742188 C 449.652344 380.742188 449.859375 380.945312 449.863281 381.203125 C 449.871094 381.460938 449.664062 381.671875 449.40625 381.675781 L 444.785156 381.738281 L 444.777344 381.738281 " fill-opacity="1" fill-rule="nonzero"/><path fill="#363e44" d="M 458.808594 354.117188 C 458.742188 354.117188 458.667969 354.101562 458.601562 354.070312 C 458.371094 353.953125 458.277344 353.671875 458.390625 353.445312 L 460.347656 349.519531 C 460.460938 349.289062 460.738281 349.195312 460.972656 349.308594 C 461.199219 349.421875 461.296875 349.703125 461.179688 349.933594 L 459.226562 353.855469 C 459.144531 354.023438 458.980469 354.117188 458.808594 354.117188 " fill-opacity="1" fill-rule="nonzero"/><path fill="#363e44" d="M 465.328125 367.878906 C 465.230469 367.878906 465.125 367.84375 465.039062 367.777344 C 464.839844 367.617188 464.804688 367.324219 464.964844 367.121094 L 467.667969 363.742188 C 467.828125 363.539062 468.121094 363.507812 468.320312 363.667969 C 468.523438 363.828125 468.554688 364.121094 468.394531 364.324219 L 465.695312 367.703125 C 465.601562 367.816406 465.464844 367.878906 465.328125 367.878906 " fill-opacity="1" fill-rule="nonzero"/><path fill="#363e44" d="M 448.179688 351.214844 L 448.132812 351.210938 C 447.875 351.183594 447.6875 350.953125 447.714844 350.699219 L 448 347.996094 C 448.027344 347.742188 448.257812 347.554688 448.515625 347.582031 C 448.769531 347.609375 448.953125 347.839844 448.925781 348.09375 L 448.640625 350.796875 C 448.617188 351.035156 448.417969 351.214844 448.179688 351.214844 " fill-opacity="1" fill-rule="nonzero"/><path fill="#363e44" d="M 455.132812 365.308594 C 455.089844 365.308594 455.042969 365.300781 454.996094 365.289062 C 454.75 365.210938 454.609375 364.953125 454.6875 364.707031 L 455.964844 360.550781 C 456.039062 360.304688 456.300781 360.167969 456.546875 360.242188 C 456.792969 360.316406 456.933594 360.578125 456.855469 360.824219 L 455.578125 364.980469 C 455.515625 365.179688 455.332031 365.308594 455.132812 365.308594 " fill-opacity="1" fill-rule="nonzero"/><path fill="#363e44" d="M 459.683594 377.320312 C 459.609375 377.320312 459.53125 377.300781 459.460938 377.261719 C 459.230469 377.136719 459.148438 376.855469 459.273438 376.628906 L 460.640625 374.160156 C 460.765625 373.933594 461.046875 373.851562 461.273438 373.976562 C 461.5 374.101562 461.582031 374.386719 461.457031 374.609375 L 460.089844 377.082031 C 460.003906 377.234375 459.847656 377.320312 459.683594 377.320312 " fill-opacity="1" fill-rule="nonzero"/><path fill="#363e44" d="M 447.289062 358.988281 C 447.195312 358.988281 447.097656 358.960938 447.015625 358.902344 L 444.3125 356.945312 C 444.105469 356.796875 444.058594 356.503906 444.210938 356.296875 C 444.359375 356.085938 444.652344 356.042969 444.859375 356.191406 L 447.5625 358.144531 C 447.769531 358.296875 447.820312 358.589844 447.667969 358.796875 C 447.578125 358.921875 447.433594 358.988281 447.289062 358.988281 " fill-opacity="1" fill-rule="nonzero"/><path fill="#363e44" d="M 452.925781 373.128906 C 452.859375 373.128906 452.796875 373.113281 452.738281 373.089844 L 450.117188 371.960938 C 449.878906 371.859375 449.769531 371.585938 449.871094 371.347656 C 449.972656 371.113281 450.25 371.003906 450.488281 371.105469 L 453.105469 372.234375 C 453.34375 372.335938 453.453125 372.609375 453.351562 372.847656 C 453.273438 373.019531 453.101562 373.128906 452.925781 373.128906 " fill-opacity="1" fill-rule="nonzero"/><path fill="#363e44" d="M 483.421875 397.132812 L 442.683594 397.132812 L 438.023438 377.300781 L 488.078125 377.300781 L 483.421875 397.132812 " fill-opacity="1" fill-rule="nonzero"/><path fill="#efbc73" d="M 485.726562 320.789062 C 485.726562 325.710938 482.542969 329.703125 478.617188 329.703125 C 474.691406 329.703125 471.507812 325.710938 471.507812 320.789062 L 474.480469 322.46875 L 476.679688 320.269531 L 478.875 322.078125 L 481.332031 320.140625 L 483.144531 321.949219 L 485.726562 320.789062 " fill-opacity="1" fill-rule="nonzero"/><path fill="#d87355" d="M 288.042969 191.769531 L 170.164062 191.769531 L 170.164062 130.765625 L 288.042969 130.765625 L 288.042969 191.769531 " fill-opacity="1" fill-rule="nonzero"/><path fill="#f7f1eb" d="M 251.703125 154.882812 L 179.613281 154.882812 L 179.613281 139.808594 L 251.703125 139.808594 L 251.703125 154.882812 " fill-opacity="1" fill-rule="nonzero"/><path fill="#ffffff" d="M 278.484375 164.507812 L 229.027344 164.507812 C 228.769531 164.507812 228.5625 164.300781 228.5625 164.039062 C 228.5625 163.785156 228.769531 163.578125 229.027344 163.578125 L 278.484375 163.578125 C 278.742188 163.578125 278.949219 163.785156 278.949219 164.039062 C 278.949219 164.300781 278.742188 164.507812 278.484375 164.507812 " fill-opacity="1" fill-rule="nonzero"/><path fill="#ffffff" d="M 211.339844 164.507812 L 179.613281 164.507812 C 179.355469 164.507812 179.148438 164.300781 179.148438 164.039062 C 179.148438 163.785156 179.355469 163.578125 179.613281 163.578125 L 211.339844 163.578125 C 211.597656 163.578125 211.804688 163.785156 211.804688 164.039062 C 211.804688 164.300781 211.597656 164.507812 211.339844 164.507812 " fill-opacity="1" fill-rule="nonzero"/><path fill="#ffffff" d="M 278.484375 172.878906 L 251.703125 172.878906 C 251.445312 172.878906 251.238281 172.671875 251.238281 172.414062 C 251.238281 172.15625 251.445312 171.949219 251.703125 171.949219 L 278.484375 171.949219 C 278.742188 171.949219 278.949219 172.15625 278.949219 172.414062 C 278.949219 172.671875 278.742188 172.878906 278.484375 172.878906 " fill-opacity="1" fill-rule="nonzero"/><path fill="#ffffff" d="M 243.765625 172.878906 L 179.613281 172.878906 C 179.355469 172.878906 179.148438 172.671875 179.148438 172.414062 C 179.148438 172.15625 179.355469 171.949219 179.613281 171.949219 L 243.765625 171.949219 C 244.023438 171.949219 244.230469 172.15625 244.230469 172.414062 C 244.230469 172.671875 244.023438 172.878906 243.765625 172.878906 " fill-opacity="1" fill-rule="nonzero"/><path fill="#ffffff" d="M 278.484375 181.25 L 259.558594 181.25 C 259.300781 181.25 259.09375 181.042969 259.09375 180.785156 C 259.09375 180.527344 259.300781 180.320312 259.558594 180.320312 L 278.484375 180.320312 C 278.742188 180.320312 278.949219 180.527344 278.949219 180.785156 C 278.949219 181.042969 278.742188 181.25 278.484375 181.25 " fill-opacity="1" fill-rule="nonzero"/><path fill="#ffffff" d="M 251.703125 181.25 L 198.683594 181.25 C 198.425781 181.25 198.21875 181.042969 198.21875 180.785156 C 198.21875 180.527344 198.425781 180.320312 198.683594 180.320312 L 251.703125 180.320312 C 251.960938 180.320312 252.167969 180.527344 252.167969 180.785156 C 252.167969 181.042969 251.960938 181.25 251.703125 181.25 " fill-opacity="1" fill-rule="nonzero"/><path fill="#ffffff" d="M 192.871094 181.25 L 179.613281 181.25 C 179.355469 181.25 179.148438 181.042969 179.148438 180.785156 C 179.148438 180.527344 179.355469 180.320312 179.613281 180.320312 L 192.871094 180.320312 C 193.128906 180.320312 193.335938 180.527344 193.335938 180.785156 C 193.335938 181.042969 193.128906 181.25 192.871094 181.25 " fill-opacity="1" fill-rule="nonzero"/><path fill="#d87355" d="M 310.417969 126.589844 C 310.417969 129.015625 312.390625 130.984375 314.816406 130.984375 C 317.246094 130.984375 319.21875 129.015625 319.21875 126.589844 C 319.21875 124.160156 317.246094 122.191406 314.816406 122.191406 C 312.390625 122.191406 310.417969 124.160156 310.417969 126.589844 " fill-opacity="1" fill-rule="nonzero"/><path fill="#d87355" d="M 310.144531 126.917969 L 170.886719 126.917969 C 170.628906 126.917969 170.417969 126.710938 170.417969 126.453125 C 170.417969 126.195312 170.628906 125.988281 170.886719 125.988281 L 310.144531 125.988281 C 310.402344 125.988281 310.613281 126.195312 310.613281 126.453125 C 310.613281 126.710938 310.402344 126.917969 310.144531 126.917969 " fill-opacity="1" fill-rule="nonzero"/></svg>