<svg xmlns="http://www.w3.org/2000/svg" xmlns:xlink="http://www.w3.org/1999/xlink" width="900" zoomAndPan="magnify" viewBox="0 0 675 449.999984" height="600" preserveAspectRatio="xMidYMid meet" version="1.0"><defs><clipPath id="0ed5e062e1"><path d="M 135 22.5 L 540 22.5 L 540 427.5 L 135 427.5 Z M 135 22.5 " clip-rule="nonzero"/></clipPath><clipPath id="05fb11ec1a"><path d="M 163 22.5 L 256 22.5 L 256 109 L 163 109 Z M 163 22.5 " clip-rule="nonzero"/></clipPath></defs><rect x="-67.5" width="810" fill="#ffffff" y="-44.999998" height="539.99998" fill-opacity="1"/><rect x="-67.5" width="810" fill="#edf2f4" y="-44.999998" height="539.99998" fill-opacity="1"/><g clip-path="url(#0ed5e062e1)"><path fill="#f2e6dc" d="M 540 225 C 540 336.835938 449.335938 427.5 337.5 427.5 C 225.664062 427.5 135 336.835938 135 225 C 135 113.164062 225.664062 22.5 337.5 22.5 C 449.335938 22.5 540 113.164062 540 225 " fill-opacity="1" fill-rule="nonzero"/></g><path fill="#efbc73" d="M 259.769531 281.402344 L 268.117188 281.402344 L 268.117188 228.820312 L 259.769531 228.820312 L 259.769531 281.402344 " fill-opacity="1" fill-rule="nonzero"/><path fill="#363e44" d="M 258.332031 231.097656 L 268.285156 231.097656 L 268.285156 223.976562 L 259.46875 223.976562 C 257.238281 223.976562 255.429688 225.785156 255.429688 228.015625 L 255.429688 228.199219 C 255.429688 229.800781 256.730469 231.097656 258.332031 231.097656 " fill-opacity="1" fill-rule="nonzero"/><path fill="#efbc73" d="M 254.761719 331.480469 L 274.128906 331.480469 L 274.128906 284.074219 L 254.761719 284.074219 L 254.761719 331.480469 " fill-opacity="1" fill-rule="nonzero"/><path fill="#363e44" d="M 257.101562 283.070312 C 257.101562 287.3125 260.539062 290.75 264.78125 290.75 C 269.019531 290.75 272.457031 287.3125 272.457031 283.070312 C 272.457031 278.828125 269.019531 275.390625 264.78125 275.390625 C 260.539062 275.390625 257.101562 278.828125 257.101562 283.070312 " fill-opacity="1" fill-rule="nonzero"/><path fill="#ffffff" d="M 265.78125 274.878906 C 261.816406 274.878906 258.589844 278.101562 258.589844 282.070312 C 258.589844 286.035156 261.816406 289.261719 265.78125 289.261719 C 269.746094 289.261719 272.972656 286.035156 272.972656 282.070312 C 272.972656 278.101562 269.746094 274.878906 265.78125 274.878906 Z M 265.78125 290.234375 C 261.277344 290.234375 257.613281 286.574219 257.613281 282.070312 C 257.613281 277.566406 261.277344 273.902344 265.78125 273.902344 C 270.285156 273.902344 273.949219 277.566406 273.949219 282.070312 C 273.949219 286.574219 270.285156 290.234375 265.78125 290.234375 " fill-opacity="1" fill-rule="nonzero"/><path fill="#363e44" d="M 242.410156 336.820312 L 287.816406 336.820312 L 287.816406 334.964844 C 287.816406 324.003906 278.929688 315.121094 267.972656 315.121094 L 263.554688 315.121094 C 251.875 315.121094 242.410156 324.585938 242.410156 336.265625 L 242.410156 336.820312 " fill-opacity="1" fill-rule="nonzero"/><path fill="#ffffff" d="M 245.402344 336.335938 L 289.832031 336.335938 L 289.832031 334.964844 C 289.832031 324.292969 281.148438 315.609375 270.476562 315.609375 L 266.058594 315.609375 C 254.667969 315.609375 245.402344 324.875 245.402344 336.265625 Z M 290.316406 337.3125 L 244.914062 337.3125 C 244.644531 337.3125 244.425781 337.089844 244.425781 336.820312 L 244.425781 336.265625 C 244.425781 324.335938 254.128906 314.632812 266.058594 314.632812 L 270.476562 314.632812 C 281.6875 314.632812 290.808594 323.753906 290.808594 334.964844 L 290.808594 336.820312 C 290.808594 337.089844 290.589844 337.3125 290.316406 337.3125 " fill-opacity="1" fill-rule="nonzero"/><path fill="#363e44" d="M 365.636719 241.527344 L 345.222656 211.441406 L 312.652344 224.234375 L 341.855469 224.925781 L 365.636719 241.527344 " fill-opacity="1" fill-rule="nonzero"/><path fill="#363e44" d="M 361.015625 249.882812 L 326.644531 257.207031 L 312.6875 224.210938 L 333.679688 245.261719 L 361.015625 249.882812 " fill-opacity="1" fill-rule="nonzero"/><path fill="#363e44" d="M 313.28125 224.808594 C 313.164062 224.808594 313.046875 224.765625 312.953125 224.683594 C 300.8125 213.585938 291.527344 199.558594 286.109375 184.121094 C 280.664062 168.597656 279.253906 152.003906 282.027344 136.125 C 282.074219 135.859375 282.328125 135.683594 282.59375 135.726562 C 282.859375 135.773438 283.035156 136.027344 282.988281 136.292969 C 277.441406 168.03125 289.175781 201.625 313.609375 223.960938 C 313.8125 224.144531 313.824219 224.453125 313.640625 224.652344 C 313.546875 224.757812 313.414062 224.808594 313.28125 224.808594 " fill-opacity="1" fill-rule="nonzero"/><path fill="#e0aa63" d="M 312.222656 215.648438 L 306.515625 227.203125 C 305.605469 229.046875 306.398438 231.304688 308.28125 232.242188 C 310.164062 233.183594 312.429688 232.457031 313.339844 230.613281 L 319.050781 219.054688 C 319.957031 217.214844 319.167969 214.957031 317.28125 214.015625 C 315.398438 213.074219 313.132812 213.804688 312.222656 215.648438 " fill-opacity="1" fill-rule="nonzero"/><path fill="#e0aa63" d="M 222.015625 150.195312 L 236.210938 146.554688 C 233.710938 136.867188 233.144531 126.988281 234.53125 117.1875 C 235.613281 109.5625 237.867188 102.152344 241.230469 95.167969 L 228.015625 88.851562 C 224 97.191406 221.3125 106.035156 220.023438 115.144531 C 218.363281 126.855469 219.035156 138.644531 222.015625 150.195312 " fill-opacity="1" fill-rule="nonzero"/><path fill="#363e44" d="M 235.652344 112.214844 C 235.632812 112.214844 235.609375 112.214844 235.589844 112.210938 L 220.972656 110.34375 C 220.703125 110.308594 220.515625 110.0625 220.550781 109.796875 C 220.582031 109.53125 220.824219 109.34375 221.09375 109.375 L 235.714844 111.242188 C 235.980469 111.277344 236.167969 111.519531 236.136719 111.785156 C 236.101562 112.035156 235.894531 112.214844 235.652344 112.214844 " fill-opacity="1" fill-rule="nonzero"/><path fill="#363e44" d="M 234.574219 118.128906 L 234.546875 118.128906 L 219.929688 117.335938 C 219.660156 117.320312 219.453125 117.089844 219.46875 116.824219 C 219.480469 116.554688 219.71875 116.335938 219.980469 116.359375 L 234.601562 117.15625 C 234.871094 117.167969 235.074219 117.398438 235.058594 117.667969 C 235.046875 117.929688 234.832031 118.128906 234.574219 118.128906 " fill-opacity="1" fill-rule="nonzero"/><path fill="#363e44" d="M 219.417969 123.789062 C 219.152344 123.789062 218.933594 123.578125 218.929688 123.308594 C 218.921875 123.039062 219.136719 122.816406 219.40625 122.808594 L 234.027344 122.53125 L 234.035156 122.53125 C 234.300781 122.53125 234.519531 122.742188 234.523438 123.007812 C 234.527344 123.277344 234.3125 123.5 234.042969 123.507812 L 219.425781 123.789062 L 219.417969 123.789062 " fill-opacity="1" fill-rule="nonzero"/><path fill="#e0aa63" d="M 160.199219 239.105469 L 256.535156 239.105469 L 256.535156 127.238281 L 160.199219 127.238281 L 160.199219 239.105469 " fill-opacity="1" fill-rule="nonzero"/><path fill="#efbc73" d="M 188.816406 239.105469 L 285.152344 239.105469 L 285.152344 127.238281 L 188.816406 127.238281 L 188.816406 239.105469 " fill-opacity="1" fill-rule="nonzero"/><path fill="#ffffff" d="M 209.753906 238.070312 L 286.980469 238.070312 L 286.980469 151.472656 L 209.753906 151.472656 Z M 287.46875 239.046875 L 209.269531 239.046875 C 209 239.046875 208.78125 238.828125 208.78125 238.558594 L 208.78125 150.988281 C 208.78125 150.71875 209 150.496094 209.269531 150.496094 L 287.46875 150.496094 C 287.738281 150.496094 287.957031 150.71875 287.957031 150.988281 L 287.957031 238.558594 C 287.957031 238.828125 287.738281 239.046875 287.46875 239.046875 " fill-opacity="1" fill-rule="nonzero"/><g clip-path="url(#05fb11ec1a)"><path fill="#e0aa63" d="M 163.53125 96.851562 L 244.667969 108.902344 L 255.71875 34.996094 L 174.578125 22.945312 L 163.53125 96.851562 " fill-opacity="1" fill-rule="nonzero"/></g><path fill="#efbc73" d="M 189.828125 100.761719 L 285.113281 114.914062 L 296.167969 41.007812 L 200.882812 26.855469 L 189.828125 100.761719 " fill-opacity="1" fill-rule="nonzero"/><path fill="#363e44" d="M 223.289062 76.242188 L 284.015625 85.261719 C 291.90625 86.429688 299.253906 81 300.429688 73.125 C 301.609375 65.242188 296.164062 57.894531 288.269531 56.722656 L 227.539062 47.707031 C 219.652344 46.53125 212.304688 51.964844 211.125 59.84375 C 209.945312 67.722656 215.390625 75.066406 223.289062 76.242188 " fill-opacity="1" fill-rule="nonzero"/><path fill="#ffffff" d="M 232.097656 49.027344 C 225.300781 49.027344 219.332031 54.003906 218.296875 60.90625 C 217.746094 64.585938 218.664062 68.257812 220.878906 71.253906 C 223.097656 74.25 226.355469 76.203125 230.050781 76.753906 L 290.777344 85.773438 C 298.386719 86.902344 305.503906 81.640625 306.636719 74.042969 C 307.191406 70.367188 306.269531 66.691406 304.054688 63.703125 C 301.835938 60.703125 298.582031 58.75 294.886719 58.203125 L 234.15625 49.183594 C 233.464844 49.078125 232.777344 49.027344 232.097656 49.027344 Z M 292.839844 86.902344 C 292.113281 86.902344 291.375 86.847656 290.636719 86.738281 L 229.90625 77.71875 C 225.953125 77.128906 222.46875 75.039062 220.09375 71.832031 C 217.726562 68.628906 216.742188 64.699219 217.332031 60.761719 C 218.546875 52.632812 226.164062 47.007812 234.300781 48.214844 L 295.03125 57.238281 C 298.980469 57.824219 302.464844 59.914062 304.839844 63.121094 C 307.210938 66.320312 308.191406 70.253906 307.601562 74.1875 C 306.5 81.578125 300.105469 86.902344 292.839844 86.902344 " fill-opacity="1" fill-rule="nonzero"/><path fill="#ffffff" d="M 284.601562 62.945312 C 284.347656 62.945312 284.136719 62.75 284.117188 62.492188 C 284.09375 62.226562 284.296875 61.992188 284.5625 61.96875 C 284.734375 61.957031 284.90625 61.945312 285.082031 61.945312 C 285.363281 61.921875 285.570312 62.152344 285.578125 62.417969 C 285.585938 62.6875 285.371094 62.910156 285.101562 62.917969 C 284.949219 62.921875 284.792969 62.929688 284.640625 62.941406 Z M 287.988281 63.355469 C 287.9375 63.355469 287.882812 63.347656 287.832031 63.332031 C 287.6875 63.28125 287.539062 63.238281 287.386719 63.199219 C 287.128906 63.128906 286.976562 62.859375 287.046875 62.597656 C 287.117188 62.335938 287.382812 62.1875 287.644531 62.253906 C 287.8125 62.300781 287.976562 62.351562 288.140625 62.40625 C 288.394531 62.492188 288.535156 62.765625 288.449219 63.023438 C 288.382812 63.226562 288.191406 63.355469 287.988281 63.355469 Z M 281.769531 63.683594 C 281.585938 63.683594 281.40625 63.578125 281.324219 63.398438 C 281.210938 63.15625 281.320312 62.867188 281.566406 62.753906 C 281.722656 62.679688 281.882812 62.613281 282.042969 62.550781 C 282.292969 62.449219 282.578125 62.574219 282.675781 62.828125 C 282.773438 63.078125 282.648438 63.363281 282.398438 63.460938 C 282.253906 63.515625 282.113281 63.574219 281.972656 63.640625 C 281.90625 63.671875 281.835938 63.683594 281.769531 63.683594 Z M 290.558594 64.75 C 290.453125 64.75 290.34375 64.71875 290.253906 64.644531 C 290.136719 64.550781 290.011719 64.457031 289.886719 64.367188 C 289.664062 64.210938 289.613281 63.910156 289.769531 63.6875 C 289.921875 63.46875 290.226562 63.414062 290.445312 63.570312 C 290.589844 63.671875 290.730469 63.773438 290.863281 63.882812 C 291.074219 64.050781 291.109375 64.359375 290.941406 64.566406 C 290.84375 64.6875 290.703125 64.75 290.558594 64.75 Z M 279.355469 65.34375 C 279.230469 65.34375 279.105469 65.296875 279.011719 65.199219 C 278.820312 65.007812 278.824219 64.699219 279.015625 64.507812 C 279.136719 64.386719 279.265625 64.273438 279.394531 64.15625 C 279.597656 63.980469 279.90625 64 280.085938 64.203125 C 280.261719 64.402344 280.242188 64.714844 280.039062 64.890625 C 279.921875 64.992188 279.808594 65.097656 279.699219 65.203125 C 279.605469 65.300781 279.480469 65.34375 279.355469 65.34375 Z M 292.5 66.941406 C 292.335938 66.941406 292.175781 66.859375 292.082031 66.710938 C 292.003906 66.582031 291.917969 66.449219 291.832031 66.324219 C 291.675781 66.101562 291.730469 65.796875 291.953125 65.644531 C 292.171875 65.492188 292.476562 65.546875 292.632812 65.765625 C 292.730469 65.910156 292.824219 66.050781 292.914062 66.199219 C 293.058594 66.429688 292.984375 66.730469 292.757812 66.871094 C 292.675781 66.921875 292.585938 66.941406 292.5 66.941406 Z M 277.660156 67.726562 C 277.585938 67.726562 277.519531 67.710938 277.449219 67.679688 C 277.207031 67.566406 277.101562 67.273438 277.21875 67.027344 C 277.292969 66.871094 277.371094 66.71875 277.453125 66.566406 C 277.585938 66.332031 277.882812 66.246094 278.117188 66.375 C 278.351562 66.503906 278.4375 66.800781 278.308594 67.039062 C 278.234375 67.171875 278.167969 67.308594 278.097656 67.445312 C 278.015625 67.625 277.839844 67.726562 277.660156 67.726562 Z M 293.574219 69.667969 C 293.347656 69.667969 293.144531 69.507812 293.097656 69.273438 C 293.066406 69.125 293.03125 68.972656 292.992188 68.824219 C 292.921875 68.566406 293.078125 68.300781 293.339844 68.226562 C 293.597656 68.160156 293.863281 68.316406 293.933594 68.578125 C 293.980469 68.742188 294.019531 68.910156 294.054688 69.082031 C 294.105469 69.34375 293.933594 69.605469 293.671875 69.660156 C 293.640625 69.664062 293.605469 69.667969 293.574219 69.667969 Z M 276.878906 70.582031 L 276.835938 70.578125 C 276.566406 70.554688 276.367188 70.320312 276.394531 70.050781 C 276.410156 69.878906 276.429688 69.707031 276.453125 69.535156 L 276.941406 69.574219 L 277.425781 69.648438 L 277.417969 69.683594 C 277.398438 69.832031 277.378906 69.984375 277.363281 70.136719 C 277.34375 70.390625 277.128906 70.582031 276.878906 70.582031 Z M 293.644531 72.585938 C 293.625 72.585938 293.601562 72.582031 293.578125 72.582031 C 293.3125 72.542969 293.125 72.304688 293.164062 72.039062 L 293.167969 72.007812 C 293.1875 71.867188 293.203125 71.722656 293.21875 71.574219 C 293.246094 71.308594 293.480469 71.105469 293.75 71.132812 C 294.015625 71.160156 294.214844 71.394531 294.191406 71.664062 C 294.175781 71.828125 294.15625 71.996094 294.128906 72.160156 C 294.09375 72.40625 293.882812 72.585938 293.644531 72.585938 Z M 277.125 73.5 C 276.910156 73.5 276.710938 73.355469 276.65625 73.136719 C 276.609375 72.96875 276.570312 72.800781 276.535156 72.632812 C 276.480469 72.367188 276.652344 72.109375 276.914062 72.054688 C 277.179688 72 277.4375 72.171875 277.492188 72.433594 C 277.523438 72.585938 277.558594 72.738281 277.597656 72.882812 C 277.667969 73.148438 277.511719 73.414062 277.253906 73.484375 C 277.210938 73.496094 277.167969 73.5 277.125 73.5 Z M 292.710938 75.367188 C 292.632812 75.367188 292.550781 75.347656 292.476562 75.308594 C 292.238281 75.179688 292.152344 74.882812 292.285156 74.644531 C 292.359375 74.511719 292.425781 74.375 292.492188 74.234375 C 292.609375 73.992188 292.898438 73.886719 293.144531 74 C 293.386719 74.113281 293.488281 74.40625 293.375 74.648438 C 293.300781 74.808594 293.222656 74.960938 293.140625 75.113281 C 293.050781 75.273438 292.882812 75.367188 292.710938 75.367188 Z M 278.363281 76.152344 C 278.210938 76.152344 278.058594 76.078125 277.964844 75.945312 C 277.867188 75.800781 277.769531 75.65625 277.679688 75.511719 C 277.539062 75.28125 277.609375 74.980469 277.839844 74.839844 C 278.066406 74.699219 278.371094 74.765625 278.511719 74.996094 C 278.589844 75.128906 278.675781 75.257812 278.765625 75.382812 C 278.917969 75.605469 278.867188 75.910156 278.644531 76.0625 C 278.558594 76.121094 278.460938 76.152344 278.363281 76.152344 Z M 290.882812 77.648438 C 290.746094 77.648438 290.613281 77.59375 290.511719 77.480469 C 290.335938 77.28125 290.355469 76.972656 290.558594 76.792969 C 290.675781 76.695312 290.785156 76.589844 290.898438 76.480469 C 291.089844 76.292969 291.398438 76.292969 291.585938 76.484375 C 291.773438 76.675781 291.773438 76.980469 291.582031 77.175781 C 291.457031 77.296875 291.332031 77.414062 291.203125 77.527344 C 291.109375 77.609375 290.996094 77.648438 290.882812 77.648438 Z M 280.433594 78.222656 C 280.335938 78.222656 280.238281 78.195312 280.152344 78.132812 C 280.011719 78.035156 279.871094 77.933594 279.738281 77.824219 C 279.527344 77.65625 279.492188 77.351562 279.65625 77.140625 C 279.824219 76.925781 280.132812 76.890625 280.34375 77.058594 C 280.464844 77.15625 280.585938 77.246094 280.710938 77.335938 C 280.933594 77.488281 280.988281 77.796875 280.832031 78.015625 C 280.738281 78.152344 280.585938 78.222656 280.433594 78.222656 Z M 288.382812 79.171875 C 288.1875 79.171875 288.003906 79.054688 287.925781 78.863281 C 287.828125 78.613281 287.953125 78.328125 288.199219 78.230469 C 288.34375 78.175781 288.488281 78.113281 288.628906 78.046875 C 288.875 77.9375 289.164062 78.042969 289.273438 78.289062 C 289.386719 78.535156 289.28125 78.824219 289.035156 78.9375 C 288.878906 79.007812 288.722656 79.078125 288.558594 79.136719 C 288.5 79.164062 288.441406 79.171875 288.382812 79.171875 Z M 283.085938 79.460938 C 283.042969 79.460938 283.003906 79.457031 282.957031 79.445312 C 282.789062 79.398438 282.625 79.351562 282.460938 79.296875 C 282.207031 79.210938 282.066406 78.9375 282.152344 78.679688 C 282.238281 78.421875 282.511719 78.28125 282.769531 78.367188 C 282.914062 78.417969 283.0625 78.464844 283.210938 78.5 C 283.472656 78.570312 283.628906 78.839844 283.554688 79.101562 C 283.5 79.320312 283.300781 79.460938 283.085938 79.460938 Z M 285.511719 79.753906 C 285.246094 79.753906 285.03125 79.542969 285.023438 79.277344 C 285.015625 79.007812 285.230469 78.78125 285.5 78.777344 C 285.652344 78.773438 285.804688 78.765625 285.960938 78.753906 C 286.230469 78.726562 286.464844 78.925781 286.484375 79.195312 C 286.511719 79.46875 286.3125 79.703125 286.039062 79.722656 C 285.871094 79.738281 285.695312 79.746094 285.523438 79.753906 L 285.511719 79.753906 " fill-opacity="1" fill-rule="nonzero"/><path fill="#ffffff" d="M 232.75 55.242188 C 232.5 55.242188 232.285156 55.046875 232.265625 54.792969 C 232.242188 54.523438 232.445312 54.289062 232.710938 54.269531 C 232.882812 54.253906 233.054688 54.246094 233.230469 54.242188 C 233.515625 54.25 233.722656 54.449219 233.726562 54.71875 C 233.734375 54.988281 233.519531 55.210938 233.25 55.21875 C 233.097656 55.222656 232.941406 55.230469 232.789062 55.242188 Z M 236.136719 55.65625 C 236.085938 55.65625 236.03125 55.648438 235.980469 55.628906 C 235.835938 55.582031 235.6875 55.535156 235.539062 55.496094 C 235.277344 55.425781 235.125 55.15625 235.195312 54.898438 C 235.265625 54.636719 235.53125 54.484375 235.792969 54.554688 C 235.960938 54.597656 236.125 54.648438 236.289062 54.703125 C 236.546875 54.789062 236.683594 55.066406 236.597656 55.320312 C 236.53125 55.523438 236.339844 55.65625 236.136719 55.65625 Z M 229.917969 55.980469 C 229.734375 55.980469 229.554688 55.878906 229.472656 55.699219 C 229.363281 55.453125 229.46875 55.164062 229.714844 55.050781 C 229.871094 54.980469 230.03125 54.910156 230.191406 54.847656 C 230.441406 54.75 230.726562 54.875 230.824219 55.125 C 230.921875 55.378906 230.796875 55.660156 230.546875 55.761719 C 230.402344 55.8125 230.261719 55.875 230.121094 55.9375 C 230.054688 55.96875 229.984375 55.980469 229.917969 55.980469 Z M 238.707031 57.050781 C 238.601562 57.050781 238.492188 57.015625 238.402344 56.941406 C 238.285156 56.847656 238.160156 56.753906 238.035156 56.667969 C 237.8125 56.511719 237.761719 56.207031 237.917969 55.988281 C 238.074219 55.769531 238.375 55.714844 238.597656 55.871094 C 238.738281 55.96875 238.878906 56.074219 239.011719 56.179688 C 239.222656 56.347656 239.257812 56.65625 239.089844 56.867188 C 238.992188 56.988281 238.851562 57.050781 238.707031 57.050781 Z M 227.507812 57.644531 C 227.382812 57.644531 227.253906 57.597656 227.160156 57.5 C 226.96875 57.308594 226.972656 56.996094 227.164062 56.808594 C 227.289062 56.6875 227.414062 56.570312 227.542969 56.457031 C 227.746094 56.277344 228.054688 56.296875 228.234375 56.5 C 228.410156 56.703125 228.390625 57.011719 228.1875 57.191406 C 228.070312 57.289062 227.957031 57.394531 227.851562 57.503906 C 227.753906 57.597656 227.628906 57.644531 227.507812 57.644531 Z M 240.648438 59.238281 C 240.484375 59.238281 240.324219 59.15625 240.234375 59.007812 C 240.152344 58.878906 240.066406 58.75 239.980469 58.621094 C 239.824219 58.398438 239.878906 58.09375 240.101562 57.941406 C 240.324219 57.789062 240.625 57.84375 240.78125 58.066406 C 240.878906 58.207031 240.972656 58.351562 241.0625 58.5 C 241.207031 58.726562 241.132812 59.027344 240.902344 59.167969 C 240.824219 59.21875 240.734375 59.238281 240.648438 59.238281 Z M 225.808594 60.023438 C 225.738281 60.023438 225.664062 60.011719 225.597656 59.980469 C 225.355469 59.863281 225.25 59.570312 225.367188 59.328125 C 225.441406 59.171875 225.519531 59.015625 225.605469 58.867188 C 225.734375 58.628906 226.027344 58.546875 226.265625 58.675781 C 226.5 58.804688 226.589844 59.101562 226.457031 59.335938 C 226.382812 59.46875 226.3125 59.609375 226.25 59.746094 C 226.164062 59.921875 225.988281 60.023438 225.808594 60.023438 Z M 241.722656 61.964844 C 241.496094 61.964844 241.292969 61.804688 241.246094 61.574219 C 241.214844 61.421875 241.179688 61.269531 241.140625 61.125 C 241.070312 60.863281 241.226562 60.597656 241.488281 60.527344 C 241.75 60.457031 242.015625 60.613281 242.085938 60.875 C 242.128906 61.039062 242.167969 61.210938 242.203125 61.378906 C 242.253906 61.644531 242.085938 61.902344 241.820312 61.953125 C 241.789062 61.960938 241.757812 61.964844 241.722656 61.964844 Z M 225.027344 62.878906 L 224.984375 62.878906 C 224.714844 62.855469 224.519531 62.617188 224.542969 62.351562 C 224.558594 62.175781 224.578125 62.007812 224.605469 61.832031 L 225.09375 61.871094 L 225.570312 61.972656 C 225.546875 62.128906 225.527344 62.285156 225.515625 62.433594 C 225.492188 62.691406 225.277344 62.878906 225.027344 62.878906 Z M 241.792969 64.882812 C 241.773438 64.882812 241.75 64.878906 241.726562 64.878906 C 241.460938 64.839844 241.273438 64.601562 241.3125 64.335938 L 241.316406 64.300781 C 241.335938 64.167969 241.355469 64.019531 241.367188 63.875 C 241.394531 63.605469 241.632812 63.40625 241.898438 63.429688 C 242.167969 63.457031 242.363281 63.691406 242.339844 63.960938 C 242.324219 64.128906 242.304688 64.292969 242.28125 64.460938 C 242.242188 64.703125 242.035156 64.882812 241.792969 64.882812 Z M 225.273438 65.796875 C 225.058594 65.796875 224.863281 65.652344 224.804688 65.433594 C 224.761719 65.265625 224.71875 65.101562 224.683594 64.929688 C 224.632812 64.664062 224.800781 64.410156 225.066406 64.351562 C 225.328125 64.300781 225.585938 64.472656 225.640625 64.734375 C 225.671875 64.886719 225.707031 65.035156 225.746094 65.183594 C 225.816406 65.445312 225.660156 65.710938 225.402344 65.78125 C 225.359375 65.792969 225.316406 65.796875 225.273438 65.796875 Z M 240.859375 67.664062 C 240.78125 67.664062 240.703125 67.644531 240.625 67.601562 C 240.390625 67.472656 240.304688 67.179688 240.433594 66.941406 C 240.507812 66.808594 240.574219 66.671875 240.640625 66.53125 C 240.757812 66.289062 241.046875 66.183594 241.289062 66.300781 C 241.535156 66.414062 241.640625 66.707031 241.523438 66.949219 C 241.449219 67.105469 241.371094 67.261719 241.289062 67.410156 C 241.199219 67.574219 241.035156 67.664062 240.859375 67.664062 Z M 226.515625 68.453125 C 226.359375 68.453125 226.207031 68.378906 226.113281 68.242188 C 226.015625 68.101562 225.921875 67.957031 225.828125 67.808594 C 225.6875 67.582031 225.757812 67.277344 225.988281 67.136719 C 226.21875 66.996094 226.515625 67.066406 226.660156 67.296875 C 226.742188 67.425781 226.824219 67.558594 226.914062 67.683594 C 227.066406 67.90625 227.015625 68.207031 226.792969 68.363281 C 226.707031 68.421875 226.609375 68.453125 226.515625 68.453125 Z M 239.03125 69.945312 C 238.894531 69.945312 238.761719 69.894531 238.664062 69.78125 C 238.488281 69.578125 238.507812 69.269531 238.707031 69.09375 C 238.824219 68.992188 238.9375 68.886719 239.046875 68.777344 C 239.238281 68.589844 239.546875 68.589844 239.734375 68.78125 C 239.925781 68.972656 239.925781 69.28125 239.734375 69.472656 C 239.609375 69.59375 239.480469 69.710938 239.351562 69.824219 C 239.261719 69.90625 239.144531 69.945312 239.03125 69.945312 Z M 228.582031 70.519531 C 228.484375 70.519531 228.386719 70.492188 228.300781 70.433594 C 228.160156 70.335938 228.023438 70.230469 227.886719 70.121094 C 227.675781 69.957031 227.640625 69.648438 227.808594 69.441406 C 227.972656 69.226562 228.28125 69.191406 228.492188 69.355469 C 228.613281 69.453125 228.738281 69.546875 228.863281 69.632812 C 229.082031 69.789062 229.136719 70.097656 228.980469 70.316406 C 228.886719 70.449219 228.734375 70.519531 228.582031 70.519531 Z M 236.53125 71.46875 C 236.335938 71.46875 236.152344 71.355469 236.078125 71.164062 C 235.976562 70.910156 236.101562 70.628906 236.351562 70.527344 C 236.496094 70.472656 236.636719 70.410156 236.777344 70.347656 C 237.023438 70.234375 237.3125 70.34375 237.425781 70.585938 C 237.539062 70.832031 237.429688 71.121094 237.183594 71.234375 C 237.027344 71.304688 236.871094 71.375 236.710938 71.4375 C 236.648438 71.460938 236.589844 71.46875 236.53125 71.46875 Z M 231.234375 71.761719 C 231.191406 71.761719 231.152344 71.753906 231.109375 71.742188 C 230.941406 71.699219 230.773438 71.648438 230.613281 71.59375 C 230.355469 71.511719 230.214844 71.234375 230.300781 70.980469 C 230.386719 70.722656 230.660156 70.582031 230.917969 70.667969 C 231.0625 70.714844 231.210938 70.757812 231.359375 70.800781 C 231.621094 70.871094 231.773438 71.136719 231.707031 71.398438 C 231.648438 71.617188 231.449219 71.761719 231.234375 71.761719 Z M 233.660156 72.050781 C 233.394531 72.050781 233.179688 71.839844 233.171875 71.574219 C 233.167969 71.304688 233.378906 71.082031 233.648438 71.074219 C 233.804688 71.074219 233.957031 71.0625 234.109375 71.050781 C 234.378906 71.019531 234.613281 71.226562 234.636719 71.496094 C 234.660156 71.765625 234.460938 72 234.191406 72.023438 C 234.019531 72.039062 233.847656 72.046875 233.671875 72.050781 L 233.660156 72.050781 " fill-opacity="1" fill-rule="nonzero"/><path fill="#efbc73" d="M 172.285156 170.425781 L 172.59375 170.425781 C 175.746094 170.425781 178.296875 167.871094 178.296875 164.722656 L 178.296875 148.914062 C 178.296875 145.765625 175.746094 143.210938 172.59375 143.210938 L 172.285156 143.210938 C 169.136719 143.210938 166.582031 145.765625 166.582031 148.914062 L 166.582031 164.722656 C 166.582031 167.871094 169.136719 170.425781 172.285156 170.425781 " fill-opacity="1" fill-rule="nonzero"/><path fill="#363e44" d="M 254.460938 256.199219 L 234.042969 227.359375 L 201.476562 239.621094 L 230.675781 240.285156 L 254.460938 256.199219 " fill-opacity="1" fill-rule="nonzero"/><path fill="#363e44" d="M 249.839844 264.210938 L 215.46875 271.230469 L 201.511719 239.597656 L 222.503906 259.777344 L 249.839844 264.210938 " fill-opacity="1" fill-rule="nonzero"/><path fill="#363e44" d="M 202.105469 240.191406 C 201.988281 240.191406 201.875 240.152344 201.785156 240.074219 C 189.640625 229.433594 180.355469 215.980469 174.9375 201.179688 C 169.488281 186.292969 168.074219 170.378906 170.851562 155.152344 C 170.898438 154.886719 171.15625 154.707031 171.417969 154.761719 C 171.683594 154.804688 171.859375 155.0625 171.8125 155.328125 C 166.265625 185.742188 178 217.933594 202.425781 239.339844 C 202.628906 239.515625 202.648438 239.824219 202.472656 240.027344 C 202.375 240.136719 202.242188 240.191406 202.105469 240.191406 " fill-opacity="1" fill-rule="nonzero"/><path fill="#e0aa63" d="M 201.046875 231.390625 L 195.339844 242.46875 C 194.429688 244.234375 195.21875 246.394531 197.105469 247.300781 C 198.988281 248.203125 201.253906 247.503906 202.164062 245.738281 L 207.871094 234.65625 C 208.78125 232.890625 207.992188 230.730469 206.105469 229.828125 C 204.222656 228.925781 201.957031 229.625 201.046875 231.390625 " fill-opacity="1" fill-rule="nonzero"/><path fill="#efbc73" d="M 170.621094 281.402344 L 178.964844 281.402344 L 178.964844 228.820312 L 170.621094 228.820312 L 170.621094 281.402344 " fill-opacity="1" fill-rule="nonzero"/><path fill="#363e44" d="M 169.179688 231.097656 L 179.132812 231.097656 L 179.132812 223.976562 L 170.320312 223.976562 C 168.089844 223.976562 166.28125 225.785156 166.28125 228.015625 L 166.28125 228.199219 C 166.28125 229.800781 167.578125 231.097656 169.179688 231.097656 " fill-opacity="1" fill-rule="nonzero"/><path fill="#efbc73" d="M 165.613281 331.480469 L 184.976562 331.480469 L 184.976562 284.074219 L 165.613281 284.074219 L 165.613281 331.480469 " fill-opacity="1" fill-rule="nonzero"/><path fill="#363e44" d="M 167.953125 283.070312 C 167.953125 287.3125 171.390625 290.75 175.628906 290.75 C 179.871094 290.75 183.308594 287.3125 183.308594 283.070312 C 183.308594 278.828125 179.871094 275.390625 175.628906 275.390625 C 171.390625 275.390625 167.953125 278.828125 167.953125 283.070312 " fill-opacity="1" fill-rule="nonzero"/><path fill="#ffffff" d="M 176.632812 274.878906 C 172.667969 274.878906 169.441406 278.101562 169.441406 282.070312 C 169.441406 286.035156 172.667969 289.261719 176.632812 289.261719 C 180.597656 289.261719 183.824219 286.035156 183.824219 282.070312 C 183.824219 278.101562 180.597656 274.878906 176.632812 274.878906 Z M 176.632812 290.234375 C 172.128906 290.234375 168.464844 286.574219 168.464844 282.070312 C 168.464844 277.566406 172.128906 273.902344 176.632812 273.902344 C 181.136719 273.902344 184.796875 277.566406 184.796875 282.070312 C 184.796875 286.574219 181.136719 290.234375 176.632812 290.234375 " fill-opacity="1" fill-rule="nonzero"/><path fill="#363e44" d="M 153.261719 336.820312 L 198.664062 336.820312 L 198.664062 334.964844 C 198.664062 324.003906 189.78125 315.121094 178.824219 315.121094 L 174.40625 315.121094 C 162.726562 315.121094 153.261719 324.585938 153.261719 336.265625 L 153.261719 336.820312 " fill-opacity="1" fill-rule="nonzero"/><path fill="#ffffff" d="M 156.253906 336.335938 L 200.683594 336.335938 L 200.683594 334.964844 C 200.683594 324.292969 192 315.609375 181.324219 315.609375 L 176.910156 315.609375 C 165.519531 315.609375 156.253906 324.875 156.253906 336.265625 Z M 201.167969 337.3125 L 155.761719 337.3125 C 155.496094 337.3125 155.277344 337.089844 155.277344 336.820312 L 155.277344 336.265625 C 155.277344 324.335938 164.980469 314.632812 176.910156 314.632812 L 181.324219 314.632812 C 192.535156 314.632812 201.65625 323.753906 201.65625 334.964844 L 201.65625 336.820312 C 201.65625 337.089844 201.4375 337.3125 201.167969 337.3125 " fill-opacity="1" fill-rule="nonzero"/><path fill="#e6d0be" d="M 386.523438 82.746094 C 383.839844 87.390625 379.257812 90.6875 373.996094 91.746094 C 356.121094 95.351562 342.992188 77.078125 352.117188 61.289062 C 354.800781 56.640625 359.382812 53.347656 364.644531 52.289062 C 382.519531 48.683594 395.644531 66.953125 386.523438 82.746094 Z M 406.480469 71.914062 L 402.917969 71.332031 C 402.882812 69.542969 402.703125 67.78125 402.390625 66.050781 L 405.769531 64.777344 L 401.453125 53.347656 L 398.066406 54.625 C 397.152344 53.113281 396.121094 51.675781 394.976562 50.320312 L 397.269531 47.523438 L 387.8125 39.785156 L 385.527344 42.578125 C 383.992188 41.726562 382.375 41 380.691406 40.394531 L 381.273438 36.832031 L 369.21875 34.855469 L 368.632812 38.417969 C 366.847656 38.453125 365.082031 38.628906 363.355469 38.941406 L 362.082031 35.566406 L 350.652344 39.882812 L 351.929688 43.265625 C 350.414062 44.183594 348.976562 45.21875 347.625 46.359375 L 344.824219 44.066406 L 337.085938 53.523438 L 339.878906 55.808594 C 339.03125 57.34375 338.300781 58.960938 337.695312 60.644531 L 334.132812 60.058594 L 332.15625 72.117188 L 335.722656 72.703125 C 335.757812 74.492188 335.933594 76.253906 336.246094 77.980469 L 332.871094 79.253906 L 337.1875 90.6875 L 340.570312 89.40625 C 341.484375 90.921875 342.523438 92.363281 343.664062 93.710938 L 341.371094 96.511719 L 350.824219 104.25 L 353.109375 101.460938 C 354.648438 102.304688 356.261719 103.035156 357.945312 103.640625 L 357.363281 107.199219 L 369.417969 109.175781 L 370.003906 105.613281 C 371.796875 105.582031 373.558594 105.402344 375.28125 105.089844 L 376.558594 108.46875 L 387.988281 104.148438 L 386.710938 100.765625 C 388.222656 99.851562 389.664062 98.816406 391.015625 97.675781 L 393.8125 99.964844 L 401.550781 90.507812 L 398.761719 88.222656 C 399.609375 86.6875 400.339844 85.074219 400.941406 83.390625 L 404.503906 83.972656 L 406.480469 71.914062 " fill-opacity="1" fill-rule="nonzero"/><path fill="#f2e6dc" d="M 369.339844 99.234375 C 367.875 99.234375 366.398438 99.121094 364.917969 98.875 C 350.109375 96.449219 340.035156 82.425781 342.460938 67.617188 C 344.601562 54.546875 356.101562 44.796875 369.289062 44.796875 C 369.410156 44.796875 369.527344 44.796875 369.648438 44.800781 C 369.917969 44.804688 370.132812 45.023438 370.132812 45.292969 C 370.128906 45.5625 369.90625 45.777344 369.644531 45.777344 L 369.636719 45.777344 C 369.519531 45.777344 369.40625 45.773438 369.289062 45.773438 C 356.574219 45.773438 345.488281 55.175781 343.425781 67.773438 C 341.085938 82.054688 350.796875 95.574219 365.074219 97.910156 C 376.871094 99.847656 388.488281 93.570312 393.316406 82.652344 C 393.425781 82.40625 393.714844 82.292969 393.957031 82.402344 C 394.207031 82.511719 394.316406 82.800781 394.210938 83.046875 C 389.804688 93 379.964844 99.234375 369.339844 99.234375 " fill-opacity="1" fill-rule="nonzero"/><path fill="#f7f1eb" d="M 438.816406 95.652344 C 437.363281 98.164062 434.886719 99.945312 432.046875 100.515625 C 422.386719 102.460938 415.289062 92.589844 420.21875 84.054688 C 421.671875 81.542969 424.148438 79.761719 426.992188 79.1875 C 436.652344 77.242188 443.746094 87.117188 438.816406 95.652344 Z M 449.605469 89.796875 L 447.675781 89.484375 C 447.660156 88.515625 447.5625 87.5625 447.394531 86.628906 L 449.214844 85.941406 L 446.886719 79.761719 L 445.054688 80.453125 C 444.5625 79.632812 444.003906 78.859375 443.382812 78.128906 L 444.621094 76.613281 L 439.515625 72.429688 L 438.28125 73.941406 C 437.445312 73.480469 436.574219 73.085938 435.664062 72.761719 L 435.980469 70.835938 L 429.464844 69.769531 L 429.144531 71.695312 C 428.183594 71.710938 427.226562 71.808594 426.296875 71.976562 L 425.605469 70.152344 L 419.425781 72.484375 L 420.121094 74.316406 C 419.300781 74.808594 418.523438 75.371094 417.789062 75.988281 L 416.28125 74.75 L 412.097656 79.855469 L 413.605469 81.09375 C 413.148438 81.925781 412.75 82.796875 412.429688 83.707031 L 410.5 83.390625 L 409.429688 89.90625 L 411.359375 90.222656 C 411.378906 91.191406 411.472656 92.144531 411.640625 93.074219 L 409.816406 93.765625 L 412.148438 99.945312 L 413.980469 99.25 C 414.472656 100.070312 415.035156 100.847656 415.652344 101.578125 L 414.414062 103.089844 L 419.523438 107.273438 L 420.757812 105.765625 C 421.589844 106.222656 422.460938 106.617188 423.371094 106.941406 L 423.054688 108.871094 L 429.574219 109.9375 L 429.886719 108.011719 C 430.855469 107.992188 431.808594 107.898438 432.742188 107.730469 L 433.429688 109.554688 L 439.609375 107.21875 L 438.917969 105.390625 C 439.734375 104.894531 440.511719 104.335938 441.242188 103.71875 L 442.753906 104.957031 L 446.941406 99.847656 L 445.429688 98.613281 C 445.886719 97.785156 446.285156 96.910156 446.609375 96 L 448.535156 96.316406 L 449.605469 89.796875 " fill-opacity="1" fill-rule="nonzero"/><path fill="#f2e6dc" d="M 429.527344 104.785156 C 428.726562 104.785156 427.914062 104.722656 427.101562 104.589844 C 418.980469 103.257812 413.449219 95.5625 414.78125 87.4375 C 415.953125 80.265625 422.265625 74.914062 429.503906 74.914062 C 429.570312 74.914062 429.632812 74.914062 429.703125 74.917969 C 429.972656 74.921875 430.1875 75.140625 430.179688 75.410156 C 430.179688 75.679688 429.960938 75.890625 429.695312 75.890625 L 429.6875 75.890625 C 429.625 75.890625 429.566406 75.890625 429.503906 75.890625 C 422.742188 75.890625 416.84375 80.890625 415.746094 87.59375 C 414.5 95.1875 419.667969 102.382812 427.261719 103.625 C 433.535156 104.65625 439.714844 101.316406 442.285156 95.507812 C 442.394531 95.261719 442.679688 95.152344 442.925781 95.257812 C 443.171875 95.371094 443.285156 95.65625 443.175781 95.902344 C 440.761719 101.367188 435.359375 104.785156 429.527344 104.785156 " fill-opacity="1" fill-rule="nonzero"/><path fill="#d3bba3" d="M 510.050781 179.914062 L 510.058594 179.914062 Z M 499.074219 162.605469 C 497.882812 162.605469 496.667969 162.777344 495.460938 163.128906 C 492.472656 163.996094 489.992188 166.109375 488.667969 168.925781 C 486.578125 173.367188 487.171875 178.34375 490.226562 181.921875 C 493.277344 185.5 498.101562 186.871094 502.816406 185.503906 C 505.808594 184.636719 508.285156 182.523438 509.613281 179.707031 C 511.703125 175.265625 511.109375 170.285156 508.054688 166.707031 C 505.78125 164.046875 502.53125 162.605469 499.074219 162.605469 Z M 499.199219 187.003906 C 495.464844 187.003906 491.945312 185.4375 489.484375 182.554688 C 486.179688 178.683594 485.527344 173.300781 487.785156 168.511719 C 489.230469 165.4375 491.929688 163.136719 495.191406 162.191406 C 500.28125 160.714844 505.492188 162.199219 508.796875 166.074219 C 512.101562 169.945312 512.753906 175.328125 510.492188 180.121094 C 509.046875 183.191406 506.351562 185.496094 503.089844 186.441406 C 501.789062 186.820312 500.484375 187.003906 499.199219 187.003906 Z M 494.234375 195.679688 L 500.628906 196.191406 L 500.761719 194.496094 C 500.78125 194.261719 500.96875 194.074219 501.199219 194.046875 C 502.238281 193.945312 503.273438 193.75 504.28125 193.484375 C 504.503906 193.421875 504.742188 193.53125 504.847656 193.742188 L 505.574219 195.273438 L 511.367188 192.511719 L 510.632812 190.976562 C 510.53125 190.765625 510.597656 190.507812 510.789062 190.375 C 511.628906 189.761719 512.433594 189.078125 513.171875 188.34375 C 513.335938 188.175781 513.597656 188.152344 513.789062 188.285156 L 515.191406 189.246094 L 518.828125 183.960938 L 517.429688 183 C 517.234375 182.867188 517.164062 182.617188 517.261719 182.398438 C 517.6875 181.445312 518.035156 180.449219 518.304688 179.445312 C 518.367188 179.21875 518.578125 179.074219 518.816406 179.085938 L 520.507812 179.21875 L 521.011719 172.824219 L 519.320312 172.691406 C 519.085938 172.671875 518.898438 172.488281 518.875 172.253906 C 518.769531 171.222656 518.578125 170.1875 518.304688 169.175781 C 518.246094 168.949219 518.355469 168.710938 518.566406 168.609375 L 520.097656 167.878906 L 517.335938 162.085938 L 515.800781 162.820312 C 515.589844 162.921875 515.335938 162.855469 515.199219 162.664062 C 514.585938 161.824219 513.898438 161.023438 513.167969 160.285156 C 512.996094 160.121094 512.976562 159.855469 513.109375 159.664062 L 514.074219 158.261719 L 508.785156 154.628906 L 507.824219 156.023438 C 507.691406 156.21875 507.4375 156.289062 507.226562 156.191406 C 506.269531 155.765625 505.277344 155.417969 504.273438 155.148438 C 504.046875 155.089844 503.890625 154.875 503.914062 154.636719 L 504.046875 152.945312 L 497.648438 152.441406 L 497.515625 154.136719 C 497.5 154.367188 497.316406 154.554688 497.078125 154.578125 C 496.042969 154.6875 495.007812 154.878906 494 155.148438 C 493.773438 155.210938 493.535156 155.101562 493.433594 154.886719 L 492.703125 153.355469 L 486.914062 156.117188 L 487.644531 157.652344 C 487.746094 157.863281 487.679688 158.117188 487.492188 158.257812 C 486.648438 158.867188 485.847656 159.554688 485.109375 160.289062 C 484.941406 160.457031 484.679688 160.476562 484.488281 160.34375 L 483.089844 159.382812 L 479.453125 164.667969 L 480.847656 165.628906 C 481.039062 165.765625 481.109375 166.015625 481.015625 166.230469 C 480.59375 167.183594 480.238281 168.175781 479.972656 169.179688 C 479.914062 169.410156 479.703125 169.5625 479.464844 169.542969 L 477.773438 169.40625 L 477.265625 175.804688 L 478.957031 175.9375 C 479.191406 175.957031 479.382812 176.140625 479.40625 176.375 C 479.511719 177.410156 479.703125 178.445312 479.972656 179.453125 C 480.035156 179.679688 479.921875 179.921875 479.710938 180.023438 L 478.183594 180.75 L 480.941406 186.542969 L 482.472656 185.8125 C 482.691406 185.707031 482.941406 185.773438 483.082031 185.964844 C 483.691406 186.808594 484.375 187.609375 485.113281 188.34375 C 485.277344 188.511719 485.304688 188.773438 485.171875 188.964844 L 484.207031 190.367188 L 489.496094 194.003906 L 490.453125 192.605469 C 490.585938 192.410156 490.839844 192.339844 491.054688 192.4375 C 492.007812 192.863281 493 193.214844 494.007812 193.484375 C 494.234375 193.542969 494.386719 193.757812 494.367188 193.992188 Z M 501.078125 197.199219 L 501.039062 197.199219 L 493.667969 196.617188 C 493.402344 196.59375 493.203125 196.363281 493.222656 196.089844 L 493.363281 194.316406 C 492.574219 194.089844 491.792969 193.8125 491.03125 193.492188 L 490.023438 194.960938 C 489.949219 195.0625 489.835938 195.136719 489.707031 195.160156 C 489.578125 195.183594 489.449219 195.15625 489.339844 195.082031 L 483.253906 190.894531 C 483.144531 190.824219 483.070312 190.710938 483.046875 190.578125 C 483.023438 190.457031 483.050781 190.324219 483.125 190.214844 L 484.136719 188.742188 C 483.570312 188.152344 483.03125 187.519531 482.535156 186.867188 L 480.921875 187.632812 C 480.804688 187.6875 480.671875 187.695312 480.550781 187.65625 C 480.425781 187.609375 480.328125 187.519531 480.269531 187.402344 L 477.089844 180.730469 C 477.035156 180.613281 477.027344 180.480469 477.070312 180.355469 C 477.117188 180.234375 477.203125 180.132812 477.320312 180.078125 L 478.925781 179.3125 C 478.730469 178.511719 478.582031 177.695312 478.480469 176.878906 L 476.703125 176.742188 C 476.4375 176.71875 476.234375 176.484375 476.253906 176.214844 L 476.835938 168.84375 C 476.847656 168.71875 476.910156 168.597656 477.003906 168.515625 C 477.105469 168.429688 477.234375 168.390625 477.363281 168.398438 L 479.136719 168.539062 C 479.363281 167.746094 479.640625 166.964844 479.960938 166.203125 L 478.496094 165.199219 C 478.277344 165.046875 478.21875 164.738281 478.371094 164.519531 L 482.558594 158.425781 C 482.710938 158.207031 483.015625 158.148438 483.238281 158.300781 L 484.710938 159.316406 C 485.304688 158.742188 485.933594 158.207031 486.585938 157.707031 L 485.820312 156.097656 C 485.707031 155.855469 485.808594 155.5625 486.050781 155.449219 L 492.726562 152.265625 C 492.96875 152.148438 493.261719 152.253906 493.375 152.496094 L 494.140625 154.101562 C 494.941406 153.90625 495.753906 153.753906 496.578125 153.65625 L 496.714844 151.878906 C 496.726562 151.75 496.789062 151.632812 496.882812 151.546875 C 496.984375 151.460938 497.113281 151.421875 497.242188 151.429688 L 504.609375 152.011719 C 504.878906 152.035156 505.078125 152.269531 505.058594 152.539062 L 504.917969 154.3125 C 505.707031 154.542969 506.492188 154.816406 507.25 155.140625 L 508.257812 153.671875 C 508.332031 153.566406 508.445312 153.492188 508.570312 153.46875 C 508.699219 153.445312 508.828125 153.472656 508.933594 153.546875 L 515.027344 157.738281 C 515.132812 157.808594 515.207031 157.921875 515.234375 158.046875 C 515.253906 158.175781 515.226562 158.308594 515.152344 158.414062 L 514.140625 159.886719 C 514.710938 160.476562 515.25 161.109375 515.746094 161.765625 L 517.359375 160.996094 C 517.472656 160.941406 517.609375 160.933594 517.730469 160.980469 C 517.851562 161.023438 517.953125 161.109375 518.003906 161.226562 L 521.1875 167.898438 C 521.304688 168.144531 521.199219 168.433594 520.957031 168.550781 L 519.351562 169.316406 C 519.546875 170.117188 519.699219 170.933594 519.800781 171.75 L 521.574219 171.890625 C 521.84375 171.910156 522.046875 172.144531 522.023438 172.414062 L 521.441406 179.785156 C 521.429688 179.914062 521.371094 180.03125 521.273438 180.117188 C 521.175781 180.203125 521.042969 180.242188 520.917969 180.234375 L 519.140625 180.089844 C 518.910156 180.882812 518.636719 181.664062 518.3125 182.421875 L 519.78125 183.433594 C 520.007812 183.589844 520.058594 183.890625 519.90625 184.113281 L 515.71875 190.203125 C 515.566406 190.425781 515.265625 190.480469 515.039062 190.328125 L 513.570312 189.316406 C 512.976562 189.886719 512.347656 190.425781 511.6875 190.921875 L 512.457031 192.53125 C 512.574219 192.777344 512.46875 193.070312 512.226562 193.183594 L 505.554688 196.363281 C 505.308594 196.480469 505.023438 196.378906 504.902344 196.132812 L 504.136719 194.523438 C 503.335938 194.726562 502.519531 194.875 501.707031 194.972656 L 501.5625 196.75 C 501.554688 196.878906 501.492188 197.003906 501.394531 197.085938 C 501.308594 197.160156 501.195312 197.199219 501.078125 197.199219 " fill-opacity="1" fill-rule="nonzero"/><path fill="#f7f1eb" d="M 494.132812 233.292969 C 492.96875 235.765625 490.785156 237.632812 488.15625 238.394531 C 479.246094 240.980469 471.808594 232.269531 475.765625 223.871094 C 476.929688 221.398438 479.117188 219.535156 481.738281 218.773438 C 490.652344 216.183594 498.089844 224.898438 494.132812 233.292969 Z M 503.800781 226.953125 L 501.96875 226.808594 C 501.871094 225.902344 501.707031 225.015625 501.476562 224.148438 L 503.132812 223.363281 L 500.457031 217.746094 L 498.796875 218.539062 C 498.265625 217.808594 497.679688 217.121094 497.042969 216.484375 L 498.085938 214.96875 L 492.960938 211.445312 L 491.921875 212.957031 C 491.105469 212.59375 490.257812 212.292969 489.375 212.058594 L 489.519531 210.222656 L 483.316406 209.734375 L 483.175781 211.566406 C 482.265625 211.660156 481.382812 211.828125 480.515625 212.058594 L 479.730469 210.398438 L 474.113281 213.074219 L 474.90625 214.738281 C 474.175781 215.265625 473.488281 215.851562 472.855469 216.488281 L 471.335938 215.445312 L 467.808594 220.570312 L 469.324219 221.613281 C 468.960938 222.425781 468.65625 223.277344 468.421875 224.160156 L 466.589844 224.011719 L 466.101562 230.214844 L 467.933594 230.359375 C 468.027344 231.265625 468.191406 232.152344 468.421875 233.015625 L 466.765625 233.804688 L 469.441406 239.417969 L 471.105469 238.628906 C 471.632812 239.359375 472.21875 240.042969 472.855469 240.679688 L 471.8125 242.195312 L 476.9375 245.722656 L 477.980469 244.210938 C 478.792969 244.570312 479.644531 244.875 480.523438 245.109375 L 480.378906 246.941406 L 486.582031 247.429688 L 486.726562 245.597656 C 487.632812 245.507812 488.515625 245.339844 489.382812 245.109375 L 490.171875 246.765625 L 495.785156 244.089844 L 494.992188 242.429688 C 495.722656 241.898438 496.410156 241.3125 497.046875 240.675781 L 498.5625 241.722656 L 502.085938 236.59375 L 500.574219 235.554688 C 500.9375 234.738281 501.242188 233.890625 501.476562 233.007812 L 503.308594 233.152344 L 503.800781 226.953125 " fill-opacity="1" fill-rule="nonzero"/><path fill="#f2e6dc" d="M 484.957031 242.679688 C 484.589844 242.679688 484.214844 242.664062 483.839844 242.636719 C 480.085938 242.339844 476.671875 240.597656 474.230469 237.734375 C 471.785156 234.871094 470.605469 231.226562 470.898438 227.472656 C 471.445312 220.574219 477.050781 215.007812 483.941406 214.519531 C 484.21875 214.496094 484.445312 214.703125 484.464844 214.972656 C 484.484375 215.242188 484.28125 215.476562 484.011719 215.496094 C 477.597656 215.945312 472.378906 221.128906 471.871094 227.550781 C 471.300781 234.761719 476.703125 241.09375 483.917969 241.660156 C 489.871094 242.132812 495.398438 238.523438 497.347656 232.878906 C 497.4375 232.625 497.714844 232.492188 497.96875 232.578125 C 498.226562 232.667969 498.359375 232.945312 498.273438 233.195312 C 496.296875 238.90625 490.925781 242.679688 484.957031 242.679688 " fill-opacity="1" fill-rule="nonzero"/><path fill="#e2a18d" d="M 454.851562 292.167969 L 469.132812 282.652344 L 463.738281 274.558594 L 444.640625 279.375 L 454.851562 292.167969 " fill-opacity="1" fill-rule="nonzero"/><path fill="#d3bba3" d="M 439.183594 314.839844 L 481.253906 297.5625 L 470.058594 281.828125 L 449.429688 290.300781 C 439.824219 294.246094 435.238281 305.234375 439.183594 314.839844 " fill-opacity="1" fill-rule="nonzero"/><path fill="#ffffff" d="M 451.132812 294.140625 C 451.070312 294.140625 451.007812 294.128906 450.945312 294.101562 L 446.210938 292.125 C 445.960938 292.023438 445.84375 291.734375 445.949219 291.488281 C 446.054688 291.234375 446.339844 291.121094 446.585938 291.226562 L 451.320312 293.203125 C 451.570312 293.304688 451.6875 293.589844 451.585938 293.839844 C 451.503906 294.027344 451.324219 294.140625 451.132812 294.140625 " fill-opacity="1" fill-rule="nonzero"/><path fill="#ffffff" d="M 447.789062 296.851562 C 447.726562 296.851562 447.664062 296.835938 447.601562 296.8125 L 442.871094 294.835938 C 442.621094 294.730469 442.503906 294.445312 442.605469 294.195312 C 442.710938 293.945312 442.996094 293.832031 443.246094 293.933594 L 447.976562 295.910156 C 448.226562 296.015625 448.34375 296.300781 448.242188 296.550781 C 448.164062 296.738281 447.980469 296.851562 447.789062 296.851562 " fill-opacity="1" fill-rule="nonzero"/><path fill="#e2a18d" d="M 388.992188 287.902344 L 406.144531 288.222656 L 406.328125 278.496094 L 389.171875 278.175781 L 388.992188 287.902344 " fill-opacity="1" fill-rule="nonzero"/><path fill="#d3bba3" d="M 363.070312 297.097656 L 407.6875 308.289062 L 408.019531 288.765625 L 386.144531 283.28125 C 375.960938 280.722656 365.625 286.910156 363.070312 297.097656 " fill-opacity="1" fill-rule="nonzero"/><path fill="#ffffff" d="M 385.519531 287.515625 C 385.355469 287.515625 385.191406 287.433594 385.101562 287.277344 L 382.433594 282.828125 C 382.296875 282.597656 382.375 282.296875 382.601562 282.160156 C 382.835938 282.019531 383.132812 282.097656 383.273438 282.328125 L 385.9375 286.777344 C 386.078125 287.007812 386.003906 287.308594 385.769531 287.449219 C 385.691406 287.492188 385.605469 287.515625 385.519531 287.515625 " fill-opacity="1" fill-rule="nonzero"/><path fill="#ffffff" d="M 381.171875 287.714844 C 381.003906 287.714844 380.84375 287.632812 380.75 287.476562 L 378.085938 283.027344 C 377.949219 282.796875 378.023438 282.496094 378.253906 282.359375 C 378.488281 282.21875 378.785156 282.296875 378.925781 282.527344 L 381.589844 286.976562 C 381.726562 287.207031 381.652344 287.507812 381.421875 287.644531 C 381.34375 287.695312 381.253906 287.714844 381.171875 287.714844 " fill-opacity="1" fill-rule="nonzero"/><path fill="#8b865c" d="M 418.101562 197.503906 C 418.101562 197.503906 413.355469 236.308594 418.773438 248.089844 C 424.054688 259.574219 446.894531 283.746094 446.894531 283.746094 L 466.863281 275.121094 L 444.46875 237.300781 L 450.242188 192.796875 L 418.101562 197.503906 " fill-opacity="1" fill-rule="nonzero"/><path fill="#8b865c" d="M 402.132812 185.421875 C 402.132812 185.421875 384.316406 220.1875 382.371094 233.007812 C 380.476562 245.507812 386.480469 279.464844 386.480469 279.464844 L 408.964844 284.324219 L 410.925781 236.984375 L 433.039062 195.421875 L 402.132812 185.421875 " fill-opacity="1" fill-rule="nonzero"/><path fill="#e2a18d" d="M 398.164062 131.984375 C 395.183594 135.957031 390.546875 138.664062 387.53125 142.382812 C 373.632812 159.535156 361.578125 173.527344 371.511719 180.203125 C 378.671875 185.015625 398.808594 162.140625 413.679688 143.742188 C 407.996094 139.433594 403.847656 136.289062 398.164062 131.984375 " fill-opacity="1" fill-rule="nonzero"/><path fill="#e2a18d" d="M 384.753906 167.234375 C 377.152344 162.820312 359.773438 151.527344 358.03125 150.492188 C 354.777344 148.558594 337.046875 138.648438 335.34375 141.082031 C 334.53125 142.242188 337.859375 144.308594 339.007812 144.976562 C 337.816406 144.898438 333.28125 144.109375 332.734375 145.609375 C 332.089844 147.367188 337.347656 149.144531 337.414062 149.222656 C 336.214844 149.023438 331.464844 148.03125 331.011719 149.136719 C 330.421875 150.574219 334.558594 152.835938 335.828125 153.457031 C 335.613281 153.566406 331.246094 151.960938 330.46875 153.648438 C 329.898438 154.886719 333.695312 156.957031 335.339844 157.859375 C 338.230469 159.578125 365.789062 178.105469 372.398438 180.644531 C 375.089844 181.675781 386.414062 171.691406 384.753906 167.234375 " fill-opacity="1" fill-rule="nonzero"/><path fill="#363e44" d="M 382.066406 165.765625 C 381.980469 165.765625 381.894531 165.742188 381.8125 165.691406 C 380.550781 164.925781 379 164.007812 377.203125 162.949219 C 376.1875 162.347656 375.082031 161.699219 373.886719 160.988281 C 373.65625 160.851562 373.578125 160.550781 373.714844 160.320312 C 373.851562 160.085938 374.152344 160.011719 374.382812 160.148438 C 375.578125 160.859375 376.683594 161.511719 377.699219 162.109375 C 379.5 163.171875 381.050781 164.089844 382.320312 164.859375 C 382.550781 165 382.625 165.296875 382.484375 165.53125 C 382.390625 165.679688 382.230469 165.765625 382.066406 165.765625 " fill-opacity="1" fill-rule="nonzero"/><path fill="#363e44" d="M 342.050781 146.199219 C 341.960938 146.199219 341.867188 146.171875 341.785156 146.121094 C 340.761719 145.460938 339.054688 145.121094 338.722656 145.058594 C 338.457031 145.011719 338.285156 144.753906 338.335938 144.492188 C 338.382812 144.226562 338.636719 144.046875 338.902344 144.097656 C 339.414062 144.195312 341.164062 144.558594 342.3125 145.300781 C 342.542969 145.445312 342.605469 145.746094 342.460938 145.972656 C 342.367188 146.117188 342.210938 146.199219 342.050781 146.199219 " fill-opacity="1" fill-rule="nonzero"/><path fill="#363e44" d="M 340.019531 150.605469 C 339.925781 150.605469 339.835938 150.582031 339.753906 150.527344 C 338.855469 149.953125 337.222656 149.375 337.03125 149.320312 C 336.773438 149.238281 336.628906 148.964844 336.707031 148.710938 C 336.785156 148.449219 337.058594 148.304688 337.316406 148.382812 C 337.539062 148.449219 339.261719 149.050781 340.28125 149.707031 C 340.507812 149.851562 340.574219 150.15625 340.429688 150.382812 C 340.335938 150.527344 340.179688 150.605469 340.019531 150.605469 " fill-opacity="1" fill-rule="nonzero"/><path fill="#363e44" d="M 348.242188 153.230469 C 348.1875 153.230469 348.128906 153.21875 348.074219 153.199219 C 344.558594 151.90625 341.191406 149.863281 341.597656 148.21875 C 342 146.578125 345.902344 146.382812 349.117188 146.714844 C 349.382812 146.742188 349.578125 146.984375 349.554688 147.25 C 349.523438 147.519531 349.277344 147.703125 349.015625 147.6875 C 344.9375 147.261719 342.667969 147.949219 342.542969 148.449219 C 342.40625 149.003906 344.253906 150.753906 348.410156 152.285156 C 348.664062 152.378906 348.792969 152.65625 348.699219 152.910156 C 348.628906 153.105469 348.441406 153.230469 348.242188 153.230469 " fill-opacity="1" fill-rule="nonzero"/><path fill="#ffffff" d="M 465.757812 142.640625 C 451.1875 129.386719 435.277344 123.042969 413.632812 126.03125 C 395.003906 128.605469 384.714844 139.96875 376.539062 153.46875 C 382.214844 156.863281 391.957031 161.265625 394.535156 162.585938 C 394.039062 172.160156 391.441406 194.886719 391.210938 201.246094 C 401.414062 200.894531 452.085938 196.039062 452.085938 196.039062 L 447.238281 154.78125 L 448.800781 157.210938 C 448.800781 157.210938 461.636719 153.695312 465.757812 142.640625 " fill-opacity="1" fill-rule="nonzero"/><path fill="#d87355" d="M 308.714844 111.6875 L 332.070312 125.535156 L 325.117188 137.269531 L 301.761719 123.417969 L 298.3125 129.234375 L 311.621094 152.910156 L 338.773438 153.222656 L 340.886719 149.664062 L 398.613281 183.890625 L 444.113281 211.613281 C 448.566406 214.324219 454.371094 212.90625 457.078125 208.453125 C 459.789062 203.996094 458.371094 198.191406 453.921875 195.484375 L 408.242188 167.648438 L 408.132812 167.582031 L 408.121094 167.578125 L 350.511719 133.421875 L 352.621094 129.859375 L 339.316406 106.183594 L 312.160156 105.871094 L 308.714844 111.6875 " fill-opacity="1" fill-rule="nonzero"/><path fill="#e2a18d" d="M 449.398438 155.773438 L 449.757812 156.609375 C 460.105469 171.386719 462.878906 186.800781 474.230469 180.933594 C 480.003906 177.953125 473.144531 157.789062 464.324219 144.191406 L 449.398438 155.773438 " fill-opacity="1" fill-rule="nonzero"/><path fill="#e2a18d" d="M 474.644531 180.6875 C 467.984375 184.484375 452.746094 194.199219 451.222656 195.089844 C 448.367188 196.753906 430.5625 207.347656 429.300781 203.71875 C 428.898438 202.554688 433.574219 200.386719 434.578125 199.816406 C 433.539062 199.875 426.9375 203.082031 426.257812 201.261719 C 425.527344 199.3125 433.15625 196.207031 433.210938 196.140625 C 432.164062 196.308594 427.125 198.746094 426.425781 197.421875 C 425.554688 195.78125 430.742188 193.007812 431.851562 192.476562 C 431.664062 192.378906 427.824219 194.347656 427.15625 192.882812 C 426.667969 191.8125 430.011719 189.445312 431.453125 188.667969 C 433.988281 187.191406 457.929688 172.316406 463.96875 167.1875 C 465.878906 165.566406 475.429688 176.777344 474.644531 180.6875 " fill-opacity="1" fill-rule="nonzero"/><path fill="#363e44" d="M 433.199219 196.734375 C 432.988281 196.734375 432.792969 196.597656 432.730469 196.382812 C 432.652344 196.125 432.804688 195.851562 433.0625 195.777344 C 433.195312 195.738281 433.332031 195.695312 433.46875 195.652344 C 434.609375 195.277344 435.703125 194.761719 436.726562 194.117188 C 436.953125 193.972656 437.253906 194.039062 437.398438 194.265625 C 437.542969 194.496094 437.472656 194.796875 437.246094 194.941406 C 436.15625 195.628906 434.988281 196.179688 433.773438 196.578125 C 433.625 196.625 433.480469 196.667969 433.335938 196.714844 C 433.289062 196.726562 433.242188 196.734375 433.199219 196.734375 " fill-opacity="1" fill-rule="nonzero"/><path fill="#363e44" d="M 431.941406 192.953125 C 431.75 192.953125 431.570312 192.84375 431.488281 192.65625 C 431.386719 192.410156 431.5 192.121094 431.75 192.015625 C 432.472656 191.710938 433.171875 191.34375 433.839844 190.921875 C 434.066406 190.777344 434.371094 190.84375 434.511719 191.074219 C 434.65625 191.300781 434.589844 191.605469 434.363281 191.746094 C 433.648438 192.191406 432.902344 192.585938 432.132812 192.914062 C 432.066406 192.941406 432.003906 192.953125 431.941406 192.953125 " fill-opacity="1" fill-rule="nonzero"/><path fill="#363e44" d="M 434.601562 200.429688 C 434.371094 200.429688 434.167969 200.265625 434.121094 200.03125 C 434.074219 199.761719 434.253906 199.511719 434.515625 199.460938 C 435.171875 199.34375 435.828125 199.179688 436.464844 198.96875 C 437.601562 198.597656 438.695312 198.078125 439.71875 197.4375 C 439.949219 197.292969 440.25 197.359375 440.390625 197.589844 C 440.535156 197.816406 440.46875 198.117188 440.242188 198.261719 C 439.152344 198.949219 437.984375 199.5 436.765625 199.898438 C 436.089844 200.117188 435.390625 200.296875 434.691406 200.421875 C 434.660156 200.425781 434.628906 200.429688 434.601562 200.429688 " fill-opacity="1" fill-rule="nonzero"/><path fill="#363e44" d="M 458.292969 171.601562 C 458.136719 171.601562 457.984375 171.527344 457.890625 171.386719 C 457.742188 171.164062 457.796875 170.859375 458.019531 170.710938 C 459.640625 169.609375 460.460938 168.960938 463.011719 166.878906 C 463.222656 166.710938 463.527344 166.742188 463.699219 166.949219 C 463.871094 167.160156 463.835938 167.464844 463.628906 167.636719 C 461.054688 169.738281 460.21875 170.394531 458.570312 171.515625 C 458.484375 171.574219 458.390625 171.601562 458.292969 171.601562 " fill-opacity="1" fill-rule="nonzero"/><path fill="#e2a18d" d="M 421.210938 136.40625 L 422.539062 136.238281 C 425.796875 135.832031 428.113281 132.859375 427.707031 129.601562 L 425.992188 115.816406 C 425.589844 112.554688 422.617188 110.238281 419.355469 110.644531 L 418.027344 110.808594 C 414.769531 111.214844 412.453125 114.1875 412.855469 117.449219 L 414.570312 131.234375 C 414.976562 134.496094 417.949219 136.808594 421.210938 136.40625 " fill-opacity="1" fill-rule="nonzero"/><path fill="#e2a18d" d="M 418.625 92.394531 C 417.957031 92.257812 411.496094 91.023438 407.097656 94.867188 C 403.824219 97.730469 403.019531 101.777344 402.742188 108.777344 C 402.414062 117.015625 403.683594 121.203125 406.265625 122.683594 C 410.316406 125 421.507812 122.441406 426.660156 115.785156 C 430.378906 110.980469 430.753906 104.304688 427.988281 98.835938 C 425.234375 93.386719 419.058594 92.484375 418.625 92.394531 " fill-opacity="1" fill-rule="nonzero"/><path fill="#363e44" d="M 413.710938 123.941406 C 413.5 123.941406 413.304688 123.804688 413.242188 123.59375 C 413.164062 123.335938 413.3125 123.0625 413.570312 122.988281 C 415.96875 122.277344 418.417969 121.152344 420.660156 119.738281 C 420.886719 119.59375 421.1875 119.660156 421.332031 119.886719 C 421.476562 120.117188 421.40625 120.417969 421.179688 120.5625 C 418.867188 122.027344 416.332031 123.1875 413.847656 123.921875 C 413.800781 123.9375 413.757812 123.941406 413.710938 123.941406 " fill-opacity="1" fill-rule="nonzero"/><path fill="#363e44" d="M 421.652344 113.347656 C 421.527344 113.347656 421.398438 113.296875 421.304688 113.199219 C 421.117188 113.007812 421.121094 112.699219 421.308594 112.511719 C 422.152344 111.679688 422.199219 110.554688 421.714844 110.027344 C 421.28125 109.554688 420.46875 109.644531 420.378906 109.65625 C 420.109375 109.6875 419.867188 109.5 419.832031 109.234375 C 419.796875 108.964844 419.988281 108.722656 420.253906 108.6875 C 420.484375 108.65625 421.683594 108.550781 422.429688 109.367188 C 423.335938 110.355469 423.140625 112.078125 421.996094 113.203125 C 421.902344 113.300781 421.777344 113.347656 421.652344 113.347656 " fill-opacity="1" fill-rule="nonzero"/><path fill="#363e44" d="M 403.679688 114.5 C 403.554688 114.5 403.433594 114.457031 403.34375 114.367188 C 402.730469 113.789062 402.480469 113.25 402.574219 112.722656 C 402.644531 112.328125 402.882812 112.097656 403.09375 111.898438 C 403.21875 111.777344 403.347656 111.65625 403.46875 111.484375 C 403.679688 111.167969 403.796875 110.78125 403.816406 110.332031 C 403.824219 110.0625 404.050781 109.839844 404.324219 109.863281 C 404.59375 109.875 404.800781 110.101562 404.792969 110.371094 C 404.765625 111.007812 404.59375 111.5625 404.273438 112.035156 C 404.097656 112.292969 403.914062 112.464844 403.765625 112.605469 C 403.609375 112.757812 403.546875 112.820312 403.535156 112.890625 C 403.507812 113.058594 403.683594 113.347656 404.011719 113.65625 C 404.207031 113.84375 404.21875 114.152344 404.03125 114.347656 C 403.933594 114.449219 403.808594 114.5 403.679688 114.5 " fill-opacity="1" fill-rule="nonzero"/><path fill="#363e44" d="M 408.195312 118.96875 C 407.976562 118.96875 407.777344 118.824219 407.71875 118.605469 C 407.652344 118.34375 407.808594 118.078125 408.070312 118.007812 C 408.386719 117.925781 408.96875 117.710938 409.34375 117.167969 C 409.671875 116.699219 409.753906 116.132812 409.742188 115.773438 C 409.421875 116.113281 408.941406 116.59375 408.15625 116.816406 C 407.542969 116.988281 406.878906 117.023438 406.238281 116.910156 C 405.972656 116.859375 405.796875 116.605469 405.84375 116.339844 C 405.894531 116.078125 406.140625 115.898438 406.414062 115.945312 C 406.90625 116.035156 407.417969 116.011719 407.886719 115.878906 C 408.457031 115.71875 408.804688 115.351562 409.078125 115.058594 C 409.347656 114.773438 409.683594 114.414062 410.144531 114.605469 C 410.308594 114.671875 410.523438 114.835938 410.640625 115.230469 C 410.824219 115.855469 410.714844 116.914062 410.144531 117.726562 C 409.585938 118.527344 408.761719 118.835938 408.316406 118.953125 C 408.277344 118.964844 408.234375 118.96875 408.195312 118.96875 " fill-opacity="1" fill-rule="nonzero"/><path fill="#9d6c5b" d="M 401.308594 86.8125 C 402.429688 86.640625 403.648438 86.460938 404.894531 86.28125 C 404.90625 87.046875 405.101562 87.96875 405.761719 88.824219 C 407.253906 90.777344 409.667969 90.511719 409.769531 90.496094 C 409.484375 90.308594 408.03125 89.316406 407.648438 87.394531 C 407.539062 86.839844 407.542969 86.332031 407.597656 85.890625 C 409.5 85.613281 411.386719 85.339844 413.0625 85.085938 C 413.25 85.722656 413.628906 86.625 414.441406 87.3125 C 416.328125 88.910156 418.816406 88.054688 421.363281 88.253906 C 424.328125 88.484375 427.804688 90.722656 427.957031 95.171875 C 429.648438 95.894531 432.597656 98.195312 433.050781 103.410156 C 433.761719 111.675781 426.910156 117.140625 426.285156 117.65625 C 425.558594 117.183594 424.535156 116.050781 422.929688 114.398438 C 423.09375 114.261719 423.261719 114.117188 423.410156 113.957031 C 425.132812 112.160156 425.277344 109.511719 423.738281 108.035156 C 422.464844 106.816406 420.4375 106.789062 418.804688 107.828125 C 418.539062 107.050781 418.328125 106.226562 418.183594 105.355469 C 417.917969 103.703125 417.957031 102.179688 418.125 100.863281 C 410.867188 101.71875 404.054688 98.59375 402.023438 93.660156 C 400.941406 91.019531 400.855469 88.515625 401.308594 86.8125 " fill-opacity="1" fill-rule="nonzero"/><path fill="#ffffff" d="M 414.253906 107.394531 C 414.253906 107.394531 413.117188 109.996094 410.929688 110.683594 C 408.734375 111.371094 406.316406 109.886719 406.316406 109.886719 C 406.316406 109.886719 406.609375 109.210938 407.1875 108.464844 C 407.742188 107.734375 409.925781 109.375 409.925781 109.375 C 409.925781 109.375 411.351562 106.390625 412.109375 106.558594 C 413.332031 106.828125 414.253906 107.394531 414.253906 107.394531 " fill-opacity="1" fill-rule="nonzero"/><path fill="#363e44" d="M 407.269531 108.808594 C 407.238281 108.695312 407.210938 108.578125 407.1875 108.460938 C 407.746094 107.734375 408.570312 106.933594 409.648438 106.59375 C 410.484375 106.332031 411.359375 106.386719 412.113281 106.554688 C 412.238281 106.75 412.34375 106.964844 412.414062 107.195312 C 412.859375 108.617188 412.070312 110.128906 410.648438 110.574219 C 409.230469 111.019531 407.71875 110.230469 407.269531 108.808594 " fill-opacity="1" fill-rule="nonzero"/><path fill="#ffffff" d="M 303.878906 284.011719 C 303.878906 284.011719 222.613281 281.417969 222.546875 284.28125 L 220.414062 373.546875 L 350.5625 373.546875 L 352.699219 284.285156 C 352.761719 281.417969 303.878906 284.011719 303.878906 284.011719 " fill-opacity="1" fill-rule="nonzero"/><path fill="#e6d0be" d="M 352.929688 274.605469 L 222.777344 274.605469 L 222.546875 284.285156 L 352.695312 284.285156 L 352.929688 274.605469 " fill-opacity="1" fill-rule="nonzero"/><path fill="#ffffff" d="M 231.582031 279.511719 C 231.550781 280.726562 230.511719 281.714844 229.253906 281.714844 C 228 281.714844 227.003906 280.726562 227.035156 279.511719 C 227.0625 278.296875 228.105469 277.308594 229.359375 277.308594 C 230.617188 277.308594 231.609375 278.296875 231.582031 279.511719 " fill-opacity="1" fill-rule="nonzero"/><path fill="#ffffff" d="M 238.929688 279.511719 C 238.898438 280.726562 237.859375 281.714844 236.601562 281.714844 C 235.347656 281.714844 234.351562 280.726562 234.382812 279.511719 C 234.410156 278.296875 235.453125 277.308594 236.707031 277.308594 C 237.960938 277.308594 238.957031 278.296875 238.929688 279.511719 " fill-opacity="1" fill-rule="nonzero"/><path fill="#ffffff" d="M 246.277344 279.511719 C 246.246094 280.726562 245.207031 281.714844 243.949219 281.714844 C 242.691406 281.714844 241.699219 280.726562 241.726562 279.511719 C 241.757812 278.296875 242.796875 277.308594 244.054688 277.308594 C 245.308594 277.308594 246.304688 278.296875 246.277344 279.511719 " fill-opacity="1" fill-rule="nonzero"/><path fill="#e6d0be" d="M 307.320312 313.109375 L 229.078125 313.109375 L 229.15625 309.78125 L 307.398438 309.78125 L 307.320312 313.109375 " fill-opacity="1" fill-rule="nonzero"/><path fill="#e6d0be" d="M 340.648438 313.109375 L 312.527344 313.109375 L 312.605469 309.78125 L 340.726562 309.78125 L 340.648438 313.109375 " fill-opacity="1" fill-rule="nonzero"/><path fill="#e6d0be" d="M 287.621094 323.867188 L 265.058594 323.867188 L 265.136719 320.535156 L 287.699219 320.535156 L 287.621094 323.867188 " fill-opacity="1" fill-rule="nonzero"/><path fill="#e6d0be" d="M 337.613281 323.867188 L 292.832031 323.867188 L 292.910156 320.535156 L 337.691406 320.535156 L 337.613281 323.867188 " fill-opacity="1" fill-rule="nonzero"/><path fill="#e6d0be" d="M 286.851562 356.132812 L 264.289062 356.132812 L 264.367188 352.804688 L 286.929688 352.804688 L 286.851562 356.132812 " fill-opacity="1" fill-rule="nonzero"/><path fill="#e6d0be" d="M 336.84375 356.132812 L 292.058594 356.132812 L 292.140625 352.804688 L 336.921875 352.804688 L 336.84375 356.132812 " fill-opacity="1" fill-rule="nonzero"/><path fill="#e6d0be" d="M 326.246094 334.621094 L 278.6875 334.621094 L 278.765625 331.292969 L 326.328125 331.292969 L 326.246094 334.621094 " fill-opacity="1" fill-rule="nonzero"/><path fill="#e6d0be" d="M 303.773438 345.378906 L 278.429688 345.378906 L 278.511719 342.050781 L 303.851562 342.050781 L 303.773438 345.378906 " fill-opacity="1" fill-rule="nonzero"/><path fill="#363e44" d="M 241.144531 304.402344 C 241.019531 304.402344 240.898438 304.355469 240.800781 304.261719 L 234.992188 298.503906 L 241.066406 292.753906 C 241.265625 292.566406 241.574219 292.574219 241.757812 292.773438 C 241.941406 292.96875 241.933594 293.277344 241.738281 293.460938 L 236.394531 298.519531 L 241.488281 303.570312 C 241.679688 303.757812 241.679688 304.066406 241.492188 304.257812 C 241.394531 304.355469 241.269531 304.402344 241.144531 304.402344 " fill-opacity="1" fill-rule="nonzero"/><path fill="#363e44" d="M 250.289062 304.402344 C 250.160156 304.402344 250.03125 304.351562 249.933594 304.253906 C 249.75 304.054688 249.757812 303.746094 249.953125 303.5625 L 255.296875 298.503906 L 250.203125 293.453125 C 250.011719 293.261719 250.007812 292.957031 250.199219 292.761719 C 250.390625 292.570312 250.699219 292.570312 250.890625 292.761719 L 256.699219 298.519531 L 250.625 304.269531 C 250.527344 304.359375 250.410156 304.402344 250.289062 304.402344 " fill-opacity="1" fill-rule="nonzero"/><path fill="#363e44" d="M 243.335938 304.070312 C 243.261719 304.070312 243.1875 304.054688 243.121094 304.019531 C 242.878906 303.898438 242.78125 303.609375 242.898438 303.363281 L 247.960938 293.183594 C 248.078125 292.941406 248.371094 292.84375 248.613281 292.964844 C 248.855469 293.085938 248.953125 293.378906 248.832031 293.621094 L 243.773438 303.800781 C 243.6875 303.96875 243.515625 304.070312 243.335938 304.070312 " fill-opacity="1" fill-rule="nonzero"/><path fill="#bc8271" d="M 451.761719 335.007812 C 428.214844 354.964844 404.117188 368.285156 415.175781 380.03125 C 421.71875 386.988281 445.253906 368.4375 465.835938 352.230469 C 460.761719 346.183594 456.835938 341.054688 451.761719 335.007812 " fill-opacity="1" fill-rule="nonzero"/><path fill="#efbc73" d="M 435.28125 344.117188 C 435.28125 344.117188 460.234375 323.332031 491.417969 330.152344 C 514.558594 335.214844 529.566406 352.214844 534.125 358.03125 C 535.007812 359.152344 534.976562 360.734375 534.058594 361.824219 L 515.390625 383.957031 L 511.226562 420.109375 L 442.171875 421.609375 L 450.148438 362.855469 L 435.28125 344.117188 " fill-opacity="1" fill-rule="nonzero"/><path fill="#bc8271" d="M 513.835938 372.472656 C 513.835938 372.472656 513.839844 372.453125 513.835938 372.472656 C 510.039062 394.835938 506.589844 413.046875 521.082031 414.207031 C 529.414062 414.871094 536.046875 375.605469 536.328125 373.164062 C 536.421875 372.371094 537.542969 370.296875 536.746094 370.367188 L 513.835938 372.472656 " fill-opacity="1" fill-rule="nonzero"/><path fill="#bc8271" d="M 526.863281 391.980469 C 516.464844 392.632812 491.898438 392.953125 489.5 393.078125 C 485.019531 393.3125 459.085938 395.457031 459.816406 399.730469 C 460.09375 401.375 465.5 400.21875 467.066406 400.121094 C 465.839844 400.824219 456.628906 402.988281 457.0625 404.8125 C 457.570312 406.949219 468.136719 405.28125 468.257812 405.316406 C 466.9375 405.902344 458.554688 407.332031 458.710938 408.726562 C 459.023438 411.484375 467.78125 410.71875 469.441406 410.496094 C 469.300781 410.746094 462.359375 411.039062 462.691406 413.195312 C 462.9375 414.78125 469.609375 415.308594 471.828125 415.117188 C 475.808594 414.910156 512.449219 415.289062 521.082031 414.207031 C 524.464844 413.78125 531.417969 395.257812 526.863281 391.980469 " fill-opacity="1" fill-rule="nonzero"/><path fill="#363e44" d="M 503.460938 393.167969 C 503.199219 393.167969 502.980469 392.964844 502.972656 392.703125 C 502.964844 392.429688 503.175781 392.207031 503.445312 392.195312 C 506.503906 392.085938 509.640625 391.945312 512.671875 391.804688 C 514.171875 391.734375 515.636719 391.667969 517.035156 391.609375 C 517.3125 391.597656 517.53125 391.804688 517.542969 392.074219 C 517.554688 392.34375 517.347656 392.570312 517.074219 392.582031 C 515.679688 392.644531 514.21875 392.710938 512.714844 392.777344 C 509.679688 392.917969 506.542969 393.0625 503.476562 393.167969 L 503.460938 393.167969 " fill-opacity="1" fill-rule="nonzero"/><path fill="#363e44" d="M 467.003906 400.445312 C 466.8125 400.445312 466.632812 400.335938 466.554688 400.148438 C 466.445312 399.898438 466.5625 399.613281 466.8125 399.507812 C 467.695312 399.132812 468.613281 398.816406 469.542969 398.5625 C 471.203125 398.113281 472.929688 397.871094 474.667969 397.835938 L 474.675781 397.835938 C 474.941406 397.835938 475.160156 398.050781 475.164062 398.316406 C 475.167969 398.585938 474.953125 398.808594 474.683594 398.8125 C 473.027344 398.84375 471.378906 399.078125 469.796875 399.503906 C 468.914062 399.746094 468.035156 400.046875 467.195312 400.40625 C 467.128906 400.433594 467.066406 400.445312 467.003906 400.445312 " fill-opacity="1" fill-rule="nonzero"/><path fill="#363e44" d="M 468.160156 405.695312 C 467.949219 405.695312 467.753906 405.558594 467.695312 405.347656 C 467.613281 405.089844 467.761719 404.816406 468.019531 404.738281 C 468.210938 404.679688 468.410156 404.621094 468.613281 404.570312 C 470.273438 404.117188 471.996094 403.875 473.738281 403.84375 C 474.003906 403.820312 474.230469 404.054688 474.234375 404.324219 C 474.238281 404.589844 474.023438 404.816406 473.753906 404.820312 C 472.09375 404.847656 470.449219 405.082031 468.867188 405.511719 C 468.671875 405.5625 468.484375 405.617188 468.304688 405.671875 C 468.25 405.6875 468.207031 405.695312 468.160156 405.695312 " fill-opacity="1" fill-rule="nonzero"/><path fill="#363e44" d="M 469.550781 410.925781 C 469.316406 410.925781 469.113281 410.761719 469.070312 410.523438 C 469.023438 410.257812 469.199219 410.007812 469.464844 409.957031 C 470.570312 409.757812 471.710938 409.644531 472.839844 409.625 C 473.109375 409.632812 473.335938 409.835938 473.335938 410.105469 C 473.34375 410.375 473.128906 410.597656 472.859375 410.601562 C 471.777344 410.621094 470.691406 410.730469 469.636719 410.917969 C 469.605469 410.925781 469.578125 410.925781 469.550781 410.925781 " fill-opacity="1" fill-rule="nonzero"/><path fill="#bc8271" d="M 431.40625 362.570312 C 421.363281 359.804688 398.023438 352.121094 395.714844 351.460938 C 391.402344 350.230469 368.078125 344.214844 366.84375 347.488281 C 366.253906 349.050781 370.695312 350.410156 372.210938 350.828125 C 370.820312 351.09375 365.375 351.542969 365.191406 353.40625 C 364.976562 355.59375 371.546875 356.058594 371.648438 356.128906 C 370.210938 356.253906 364.460938 356.53125 364.265625 357.925781 C 364.019531 359.734375 369.441406 361.082031 371.085938 361.410156 C 370.871094 361.601562 365.375 361.066406 364.984375 363.214844 C 364.699219 364.792969 369.679688 366.019531 371.835938 366.558594 C 375.671875 367.65625 409.191406 379.84375 417.707031 381.621094 C 421.039062 382.320312 434.648438 367.148438 431.40625 362.570312 " fill-opacity="1" fill-rule="nonzero"/><path fill="#363e44" d="M 428.070312 361.847656 C 428.023438 361.847656 427.976562 361.84375 427.929688 361.828125 C 426.136719 361.296875 423.929688 360.636719 421.648438 359.953125 C 421.390625 359.875 421.242188 359.605469 421.320312 359.34375 C 421.398438 359.085938 421.671875 358.941406 421.929688 359.019531 C 424.210938 359.703125 426.417969 360.363281 428.207031 360.890625 C 428.464844 360.96875 428.613281 361.238281 428.539062 361.5 C 428.472656 361.710938 428.28125 361.847656 428.070312 361.847656 " fill-opacity="1" fill-rule="nonzero"/><path fill="#bc8271" d="M 387.585938 353.03125 C 382.351562 352.640625 380.03125 352.390625 379.269531 353.527344 C 378.105469 355.257812 381.898438 357.878906 387.585938 359.773438 L 387.585938 353.03125 " fill-opacity="1" fill-rule="nonzero"/><path fill="#efbc73" d="M 512.007812 375.285156 L 538.941406 373.859375 C 537.800781 368.960938 537.066406 361.535156 533.554688 357.332031 C 522.472656 363.992188 511.652344 370.605469 512.007812 375.285156 " fill-opacity="1" fill-rule="nonzero"/><path fill="#84524d" d="M 484.960938 297.832031 C 480.15625 301.25 479.03125 307.914062 482.453125 312.71875 C 485.871094 317.523438 492.535156 318.644531 497.335938 315.230469 C 502.144531 311.808594 503.265625 305.144531 499.847656 300.339844 C 496.429688 295.535156 489.761719 294.414062 484.960938 297.832031 " fill-opacity="1" fill-rule="nonzero"/><path fill="#84524d" d="M 474.695312 310.046875 C 469.894531 313.464844 468.769531 320.132812 472.1875 324.9375 C 475.605469 329.738281 482.269531 330.863281 487.074219 327.445312 C 491.882812 324.027344 493.003906 317.359375 489.585938 312.558594 C 486.164062 307.753906 479.5 306.628906 474.695312 310.046875 " fill-opacity="1" fill-rule="nonzero"/><path fill="#84524d" d="M 463.757812 317.507812 C 459.328125 320.664062 458.292969 326.808594 461.445312 331.238281 C 464.597656 335.667969 470.746094 336.707031 475.171875 333.550781 C 479.605469 330.402344 480.640625 324.253906 477.484375 319.824219 C 474.335938 315.394531 468.1875 314.355469 463.757812 317.507812 " fill-opacity="1" fill-rule="nonzero"/><path fill="#84524d" d="M 452.964844 323.851562 C 448.792969 326.820312 447.820312 332.609375 450.789062 336.785156 C 453.757812 340.957031 459.546875 341.933594 463.71875 338.960938 C 467.894531 335.992188 468.867188 330.203125 465.898438 326.027344 C 462.933594 321.855469 457.140625 320.878906 452.964844 323.851562 " fill-opacity="1" fill-rule="nonzero"/><path fill="#84524d" d="M 447.335938 331.265625 C 444.835938 331.265625 442.34375 330.882812 439.980469 330.128906 C 435.027344 328.542969 431.636719 325.683594 429.667969 323.5625 C 429.484375 323.367188 429.492188 323.054688 429.691406 322.875 C 429.890625 322.691406 430.195312 322.699219 430.378906 322.898438 C 432.273438 324.933594 435.527344 327.675781 440.277344 329.199219 C 443.511719 330.234375 447.007812 330.542969 450.394531 330.089844 C 450.660156 330.050781 450.90625 330.242188 450.9375 330.511719 C 450.976562 330.777344 450.789062 331.023438 450.519531 331.058594 C 449.464844 331.199219 448.402344 331.265625 447.335938 331.265625 " fill-opacity="1" fill-rule="nonzero"/><path fill="#84524d" d="M 433.898438 338.703125 C 436.851562 338.148438 439.199219 337.160156 440.839844 336.308594 C 438.402344 336.660156 434.21875 336.914062 429.484375 335.304688 C 428.320312 334.910156 427.273438 334.449219 426.335938 333.972656 C 426.707031 330.09375 428.128906 327.191406 428.847656 325.878906 C 430.546875 327.25 434.28125 329.890625 439.757812 330.820312 C 444.332031 331.597656 448.074219 330.835938 450.113281 330.265625 C 451.625 332.597656 453.132812 334.933594 454.644531 337.269531 C 452.542969 340.332031 449.039062 344.601562 443.628906 348.300781 C 440.585938 350.382812 437.667969 351.785156 435.214844 352.746094 C 434.117188 351.964844 427.820312 347.339844 426.492188 338.972656 C 428.460938 339.191406 431.007812 339.242188 433.898438 338.703125 " fill-opacity="1" fill-rule="nonzero"/><path fill="#363e44" d="M 462.835938 333.046875 C 462.78125 333.046875 462.726562 333.039062 462.671875 333.015625 L 453.832031 329.902344 C 453.578125 329.8125 453.445312 329.53125 453.53125 329.277344 C 453.625 329.023438 453.902344 328.894531 454.15625 328.980469 L 463 332.097656 C 463.25 332.1875 463.386719 332.464844 463.292969 332.722656 C 463.226562 332.921875 463.035156 333.046875 462.835938 333.046875 " fill-opacity="1" fill-rule="nonzero"/><path fill="#363e44" d="M 457.402344 331.003906 C 457.3125 331.003906 457.222656 330.976562 457.136719 330.925781 C 456.914062 330.78125 456.84375 330.480469 456.992188 330.25 L 459.152344 326.851562 C 459.296875 326.625 459.601562 326.558594 459.828125 326.703125 C 460.054688 326.847656 460.121094 327.148438 459.976562 327.375 L 457.8125 330.777344 C 457.722656 330.921875 457.5625 331.003906 457.402344 331.003906 " fill-opacity="1" fill-rule="nonzero"/><path fill="#363e44" d="M 475.5625 326.363281 C 475.539062 326.363281 475.519531 326.363281 475.496094 326.359375 L 465.269531 324.980469 C 465.003906 324.945312 464.816406 324.699219 464.851562 324.429688 C 464.886719 324.164062 465.125 323.976562 465.398438 324.011719 L 475.625 325.390625 C 475.890625 325.429688 476.082031 325.675781 476.046875 325.941406 C 476.011719 326.1875 475.804688 326.363281 475.5625 326.363281 " fill-opacity="1" fill-rule="nonzero"/><path fill="#363e44" d="M 469.246094 325.378906 C 469.191406 325.378906 469.132812 325.367188 469.074219 325.347656 C 468.824219 325.25 468.699219 324.96875 468.792969 324.714844 L 470.363281 320.566406 C 470.457031 320.316406 470.742188 320.191406 470.992188 320.28125 C 471.246094 320.378906 471.371094 320.660156 471.273438 320.914062 L 469.707031 325.0625 C 469.628906 325.257812 469.445312 325.378906 469.246094 325.378906 " fill-opacity="1" fill-rule="nonzero"/><path fill="#84524d" d="M 501.277344 270.703125 C 500.066406 267.621094 490.175781 266.695312 484.269531 270.9375 C 476.800781 276.300781 473.617188 285.292969 476.234375 293.148438 C 496.433594 280.097656 502.320312 273.351562 501.277344 270.703125 " fill-opacity="1" fill-rule="nonzero"/><path fill="#bc8271" d="M 488.585938 346.214844 L 489.121094 346.351562 C 494.902344 347.808594 500.773438 344.308594 502.230469 338.527344 L 507.5 317.625 C 508.960938 311.847656 505.460938 305.976562 499.679688 304.519531 L 499.144531 304.382812 C 493.363281 302.921875 487.492188 306.425781 486.039062 312.207031 L 480.757812 333.109375 C 479.300781 338.890625 482.804688 344.757812 488.585938 346.214844 " fill-opacity="1" fill-rule="nonzero"/><path fill="#bc8271" d="M 510.425781 275.832031 C 509.460938 275.207031 500.136719 269.371094 490.949219 272.699219 C 484.113281 275.175781 480.40625 281.003906 475.726562 291.742188 C 470.226562 304.394531 469.867188 313.734375 473.253906 317.570312 C 478.414062 323.421875 496.699219 324.421875 508.765625 317.167969 C 517.476562 311.933594 522.109375 301.753906 521.117188 291.554688 C 520.125 281.386719 511.042969 276.230469 510.425781 275.832031 " fill-opacity="1" fill-rule="nonzero"/><path fill="#363e44" d="M 486.21875 322.484375 C 485.160156 322.484375 484.15625 322.445312 483.230469 322.367188 C 482.960938 322.347656 482.761719 322.109375 482.78125 321.839844 C 482.808594 321.574219 483.039062 321.363281 483.3125 321.398438 C 487.15625 321.71875 492.347656 321.339844 497.199219 320.390625 C 497.464844 320.339844 497.71875 320.511719 497.769531 320.773438 C 497.820312 321.039062 497.652344 321.296875 497.386719 321.347656 C 493.617188 322.085938 489.636719 322.484375 486.21875 322.484375 " fill-opacity="1" fill-rule="nonzero"/><path fill="#ffffff" d="M 494.921875 297.363281 C 494.921875 297.363281 491.730469 301.480469 487.519531 301.714844 C 483.3125 301.945312 479.679688 298.214844 479.679688 298.214844 C 479.679688 298.214844 480.515625 297.140625 481.890625 296.0625 C 483.207031 295.023438 487.394531 297.289062 487.394531 297.289062 C 487.394531 297.289062 490.234375 294.289062 491.488281 294.910156 C 493.578125 295.949219 494.921875 297.363281 494.921875 297.363281 " fill-opacity="1" fill-rule="nonzero"/><path fill="#363e44" d="M 487.078125 293.867188 C 485.007812 293.984375 483.191406 295.035156 481.871094 296.078125 C 481.851562 296.292969 481.847656 296.511719 481.855469 296.738281 C 482.007812 299.460938 484.34375 301.550781 487.070312 301.398438 C 489.792969 301.246094 491.882812 298.910156 491.726562 296.183594 C 491.703125 295.742188 491.617188 295.316406 491.480469 294.910156 C 490.210938 294.269531 488.6875 293.78125 487.078125 293.867188 " fill-opacity="1" fill-rule="nonzero"/><path fill="#363e44" d="M 501.277344 310.578125 C 501.089844 310.578125 500.910156 310.464844 500.828125 310.28125 C 500.722656 310.035156 500.839844 309.746094 501.082031 309.640625 C 503.078125 308.78125 503.886719 306.851562 503.394531 305.589844 C 502.953125 304.460938 501.582031 304.066406 501.308594 304 C 501.046875 303.9375 500.890625 303.671875 500.953125 303.410156 C 501.019531 303.148438 501.285156 302.988281 501.546875 303.054688 C 501.898438 303.144531 503.6875 303.65625 504.304688 305.234375 C 504.957031 306.914062 504.0625 309.417969 501.472656 310.535156 C 501.40625 310.5625 501.34375 310.578125 501.277344 310.578125 " fill-opacity="1" fill-rule="nonzero"/><path fill="#363e44" d="M 474.503906 301.082031 C 474.320312 301.082031 474.144531 300.984375 474.0625 300.804688 C 473.515625 299.640625 473.445312 298.75 473.847656 298.085938 C 474.136719 297.605469 474.574219 297.425781 475 297.25 C 475.28125 297.136719 475.574219 297.015625 475.898438 296.792969 C 476.46875 296.402344 476.925781 295.824219 477.253906 295.074219 C 477.363281 294.828125 477.644531 294.714844 477.894531 294.820312 C 478.144531 294.929688 478.253906 295.21875 478.148438 295.464844 C 477.746094 296.382812 477.175781 297.101562 476.449219 297.601562 C 476.039062 297.878906 475.667969 298.03125 475.371094 298.152344 C 474.988281 298.3125 474.800781 298.394531 474.679688 298.589844 C 474.414062 299.035156 474.675781 299.816406 474.945312 300.386719 C 475.058594 300.632812 474.957031 300.925781 474.710938 301.039062 C 474.644531 301.070312 474.574219 301.082031 474.503906 301.082031 " fill-opacity="1" fill-rule="nonzero"/><path fill="#363e44" d="M 480.054688 308.613281 C 479.851562 308.613281 479.636719 308.601562 479.421875 308.582031 C 478.40625 308.484375 477.402344 308.148438 476.523438 307.605469 C 476.289062 307.46875 476.21875 307.167969 476.359375 306.9375 C 476.5 306.707031 476.796875 306.632812 477.027344 306.773438 C 477.789062 307.238281 478.648438 307.523438 479.511719 307.609375 C 481.121094 307.761719 482.40625 307.191406 483.027344 306.835938 C 483.265625 306.699219 483.5625 306.78125 483.695312 307.015625 C 483.828125 307.25 483.746094 307.546875 483.511719 307.679688 C 482.875 308.046875 481.632812 308.613281 480.054688 308.613281 " fill-opacity="1" fill-rule="nonzero"/><path fill="#363e44" d="M 498.214844 314.277344 C 498.175781 314.277344 498.132812 314.277344 498.089844 314.277344 C 497.820312 314.273438 497.605469 314.054688 497.609375 313.785156 C 497.609375 313.515625 497.828125 313.300781 498.09375 313.300781 C 498.136719 313.304688 498.175781 313.300781 498.214844 313.300781 C 499.460938 313.300781 500.683594 313.105469 501.859375 312.722656 C 503.574219 312.160156 505.175781 311.179688 506.484375 309.886719 C 506.679688 309.699219 506.988281 309.699219 507.179688 309.894531 C 507.367188 310.082031 507.363281 310.394531 507.171875 310.582031 C 505.757812 311.980469 504.023438 313.042969 502.164062 313.652344 C 500.890625 314.066406 499.5625 314.277344 498.214844 314.277344 " fill-opacity="1" fill-rule="nonzero"/><path fill="#84524d" d="M 529.964844 296.882812 C 529.878906 280.226562 512.800781 261.496094 493.296875 270.703125 C 481.734375 276.164062 499.015625 297.691406 499.683594 300.355469 C 500.0625 300.191406 503.0625 299.355469 505.339844 300.765625 C 508.09375 302.480469 508.566406 306.214844 507.011719 308.917969 C 504.867188 312.667969 504.53125 319.605469 506.695312 320.480469 C 512.671875 322.914062 530.046875 313.734375 529.964844 296.882812 " fill-opacity="1" fill-rule="nonzero"/><path fill="#84524d" d="M 510.363281 320.644531 C 509.445312 320.644531 508.617188 320.507812 507.914062 320.222656 C 507.667969 320.121094 507.542969 319.835938 507.648438 319.589844 C 507.75 319.335938 508.035156 319.214844 508.28125 319.320312 C 510.835938 320.355469 515.617188 319.046875 519.914062 316.136719 C 523.230469 313.894531 530.933594 307.460938 530.875 296.171875 C 530.832031 286.660156 525.292969 276.804688 517.105469 271.644531 C 510.265625 267.335938 502.382812 266.902344 494.910156 270.433594 C 493.125 271.273438 492.015625 272.519531 491.515625 274.246094 C 491.441406 274.507812 491.167969 274.65625 490.910156 274.578125 C 490.648438 274.503906 490.503906 274.234375 490.578125 273.976562 C 491.15625 271.992188 492.472656 270.503906 494.492188 269.550781 C 502.28125 265.875 510.492188 266.324219 517.628906 270.816406 C 526.085938 276.148438 531.800781 286.335938 531.855469 296.167969 C 531.910156 307.925781 523.910156 314.617188 520.460938 316.945312 C 516.964844 319.3125 513.222656 320.644531 510.363281 320.644531 " fill-opacity="1" fill-rule="nonzero"/><path fill="#efbc73" d="M 492.460938 287.605469 L 495.132812 292.476562 L 503.46875 284.59375 Z M 495.007812 293.753906 C 494.980469 293.753906 494.957031 293.753906 494.929688 293.75 C 494.78125 293.726562 494.652344 293.632812 494.578125 293.503906 L 491.3125 287.535156 C 491.238281 287.402344 491.230469 287.246094 491.289062 287.105469 C 491.347656 286.96875 491.464844 286.867188 491.609375 286.828125 L 505.089844 283.136719 C 505.304688 283.078125 505.535156 283.175781 505.644531 283.371094 C 505.753906 283.566406 505.71875 283.808594 505.554688 283.964844 L 495.339844 293.621094 C 495.25 293.710938 495.132812 293.753906 495.007812 293.753906 " fill-opacity="1" fill-rule="nonzero"/><path fill="#efbc73" d="M 497.039062 295.085938 L 499.707031 299.960938 L 508.042969 292.074219 Z M 499.582031 301.238281 C 499.554688 301.238281 499.53125 301.234375 499.507812 301.230469 C 499.355469 301.207031 499.226562 301.117188 499.152344 300.984375 L 495.886719 295.015625 C 495.8125 294.882812 495.804688 294.730469 495.859375 294.589844 C 495.921875 294.453125 496.039062 294.351562 496.183594 294.308594 L 509.667969 290.617188 C 509.878906 290.5625 510.109375 290.65625 510.222656 290.851562 C 510.328125 291.046875 510.292969 291.292969 510.128906 291.445312 L 499.917969 301.105469 C 499.824219 301.191406 499.707031 301.238281 499.582031 301.238281 " fill-opacity="1" fill-rule="nonzero"/><path fill="#84524d" d="M 505.226562 316.78125 C 505.226562 322.675781 510 327.457031 515.898438 327.457031 C 521.796875 327.457031 526.578125 322.675781 526.578125 316.78125 C 526.578125 310.882812 521.796875 306.105469 515.898438 306.105469 C 510 306.105469 505.226562 310.882812 505.226562 316.78125 " fill-opacity="1" fill-rule="nonzero"/><path fill="#84524d" d="M 508.546875 331.746094 C 508.546875 337.640625 513.328125 342.421875 519.222656 342.421875 C 525.121094 342.421875 529.898438 337.640625 529.898438 331.746094 C 529.898438 325.847656 525.121094 321.070312 519.222656 321.070312 C 513.328125 321.070312 508.546875 325.847656 508.546875 331.746094 " fill-opacity="1" fill-rule="nonzero"/><path fill="#84524d" d="M 508.964844 345.460938 C 508.964844 350.898438 513.371094 355.308594 518.808594 355.308594 C 524.246094 355.308594 528.65625 350.898438 528.65625 345.460938 C 528.65625 340.023438 524.246094 335.617188 518.808594 335.617188 C 513.371094 335.617188 508.964844 340.023438 508.964844 345.460938 " fill-opacity="1" fill-rule="nonzero"/><path fill="#84524d" d="M 507.871094 357.933594 C 507.871094 363.054688 512.023438 367.207031 517.144531 367.207031 C 522.265625 367.207031 526.417969 363.054688 526.417969 357.933594 C 526.417969 352.8125 522.265625 348.660156 517.144531 348.660156 C 512.023438 348.660156 507.871094 352.8125 507.871094 357.933594 " fill-opacity="1" fill-rule="nonzero"/><path fill="#84524d" d="M 494.0625 376.753906 C 493.820312 376.753906 493.609375 376.578125 493.578125 376.332031 C 493.542969 376.0625 493.734375 375.816406 494 375.785156 C 496.753906 375.421875 500.878906 374.359375 504.871094 371.371094 C 507.589844 369.339844 509.867188 366.667969 511.464844 363.648438 C 511.589844 363.410156 511.886719 363.316406 512.121094 363.445312 C 512.359375 363.570312 512.449219 363.867188 512.324219 364.105469 C 510.664062 367.25 508.285156 370.035156 505.457031 372.152344 C 501.292969 375.269531 497 376.371094 494.128906 376.75 C 494.105469 376.753906 494.085938 376.753906 494.0625 376.753906 " fill-opacity="1" fill-rule="nonzero"/><path fill="#84524d" d="M 508.917969 382.082031 C 510.175781 379.355469 510.730469 376.867188 510.992188 375.039062 C 509.867188 377.226562 507.644531 380.785156 503.589844 383.707031 C 502.589844 384.425781 501.609375 385.011719 500.679688 385.5 C 497.730469 382.945312 496.191406 380.109375 495.542969 378.761719 C 497.640625 378.175781 501.957031 376.65625 505.894531 372.734375 C 509.179688 369.457031 510.726562 365.972656 511.441406 363.976562 C 514.21875 364.101562 516.996094 364.222656 519.777344 364.347656 C 521.054688 367.835938 522.5 373.164062 522.378906 379.71875 C 522.308594 383.402344 521.757812 386.59375 521.117188 389.152344 C 519.847656 389.589844 512.433594 392.039062 504.839844 388.273438 C 506.164062 386.792969 507.683594 384.746094 508.917969 382.082031 " fill-opacity="1" fill-rule="nonzero"/><path fill="#363e44" d="M 512.585938 322.886719 C 512.492188 322.886719 512.398438 322.859375 512.3125 322.800781 C 512.089844 322.652344 512.035156 322.347656 512.183594 322.125 L 519.289062 311.679688 C 519.4375 311.457031 519.742188 311.402344 519.964844 311.550781 C 520.1875 311.703125 520.246094 312.007812 520.09375 312.230469 L 512.992188 322.671875 C 512.894531 322.8125 512.742188 322.886719 512.585938 322.886719 " fill-opacity="1" fill-rule="nonzero"/><path fill="#363e44" d="M 515.160156 318.816406 C 515.027344 318.816406 514.898438 318.765625 514.800781 318.660156 L 511.117188 314.671875 C 510.933594 314.472656 510.945312 314.167969 511.144531 313.984375 C 511.34375 313.800781 511.648438 313.8125 511.832031 314.007812 L 515.515625 318 C 515.699219 318.195312 515.6875 318.503906 515.492188 318.6875 C 515.394531 318.773438 515.277344 318.816406 515.160156 318.816406 " fill-opacity="1" fill-rule="nonzero"/><path fill="#363e44" d="M 515.914062 338.683594 C 515.816406 338.683594 515.722656 338.65625 515.636719 338.597656 C 515.414062 338.445312 515.355469 338.144531 515.507812 337.917969 L 522.613281 327.476562 C 522.761719 327.253906 523.066406 327.199219 523.289062 327.347656 C 523.515625 327.5 523.570312 327.804688 523.417969 328.023438 L 516.316406 338.46875 C 516.222656 338.609375 516.070312 338.683594 515.914062 338.683594 " fill-opacity="1" fill-rule="nonzero"/><path fill="#363e44" d="M 518.484375 334.613281 C 518.351562 334.613281 518.21875 334.5625 518.121094 334.457031 L 514.4375 330.46875 C 514.253906 330.273438 514.269531 329.960938 514.464844 329.78125 C 514.664062 329.597656 514.972656 329.609375 515.15625 329.804688 L 518.839844 333.792969 C 519.023438 333.996094 519.011719 334.300781 518.8125 334.484375 C 518.71875 334.570312 518.601562 334.613281 518.484375 334.613281 " fill-opacity="1" fill-rule="nonzero"/><path fill="#363e44" d="M 515.058594 350.644531 C 514.917969 350.644531 514.777344 350.585938 514.683594 350.46875 C 514.507812 350.265625 514.535156 349.953125 514.742188 349.785156 L 523.113281 342.78125 C 523.320312 342.609375 523.632812 342.636719 523.800781 342.84375 C 523.976562 343.050781 523.945312 343.359375 523.738281 343.53125 L 515.371094 350.53125 C 515.277344 350.609375 515.164062 350.644531 515.058594 350.644531 " fill-opacity="1" fill-rule="nonzero"/><path fill="#363e44" d="M 518.15625 347.871094 C 517.976562 347.871094 517.808594 347.773438 517.722656 347.605469 L 515.601562 343.417969 C 515.480469 343.175781 515.574219 342.882812 515.816406 342.757812 C 516.058594 342.636719 516.351562 342.734375 516.472656 342.976562 L 518.589844 347.160156 C 518.710938 347.402344 518.617188 347.699219 518.375 347.820312 C 518.304688 347.855469 518.230469 347.871094 518.15625 347.871094 " fill-opacity="1" fill-rule="nonzero"/><path fill="#363e44" d="M 513.96875 362.53125 C 513.828125 362.53125 513.691406 362.46875 513.59375 362.355469 C 513.421875 362.148438 513.449219 361.839844 513.65625 361.667969 L 520.84375 355.652344 C 521.054688 355.480469 521.363281 355.507812 521.53125 355.714844 C 521.707031 355.921875 521.679688 356.230469 521.472656 356.402344 L 514.28125 362.417969 C 514.1875 362.492188 514.078125 362.53125 513.96875 362.53125 " fill-opacity="1" fill-rule="nonzero"/><path fill="#363e44" d="M 516.632812 360.144531 C 516.453125 360.144531 516.28125 360.046875 516.195312 359.878906 L 514.371094 356.285156 C 514.253906 356.042969 514.351562 355.75 514.589844 355.625 C 514.828125 355.503906 515.121094 355.601562 515.246094 355.839844 L 517.066406 359.4375 C 517.1875 359.679688 517.089844 359.972656 516.851562 360.09375 C 516.78125 360.128906 516.707031 360.144531 516.632812 360.144531 " fill-opacity="1" fill-rule="nonzero"/><path fill="#363e44" d="M 325.675781 418.992188 C 327.828125 423.589844 332.445312 426.527344 337.519531 426.527344 L 419.007812 426.527344 L 382.515625 348.511719 L 292.707031 348.511719 L 325.675781 418.992188 " fill-opacity="1" fill-rule="nonzero"/><path fill="#363e44" d="M 472.5 418.695312 C 472.5 423.039062 468.976562 426.566406 464.632812 426.566406 L 389.492188 426.566406 L 385.808594 418.695312 L 472.5 418.695312 " fill-opacity="1" fill-rule="nonzero"/><path fill="#40484c" d="M 345.125 383.402344 C 345.125 386.367188 347.527344 388.773438 350.492188 388.773438 C 353.457031 388.773438 355.859375 386.367188 355.859375 383.402344 C 355.859375 380.4375 353.457031 378.035156 350.492188 378.035156 C 347.527344 378.035156 345.125 380.4375 345.125 383.402344 " fill-opacity="1" fill-rule="nonzero"/></svg>